<?xml version="1.0" standalone="no"?>
<svg width="567.429" height="639.722" viewBox="0 0 567.429 639.722" xmlns="http://www.w3.org/2000/svg" shape-rendering="crispEdges">
<title>
bb4l_CRFit/Plots/SR_postFit.svg
</title>
<desc>
Creator: ROOT Version 6.20/06
CreationDate: Tue Mar 23 15:01:46 2021</desc>
<defs>
</defs>
<rect x="0.5" y="0" width="566.929" height="639.222" fill="white"/>
<rect x="79.8701" y="460.24" width="459.213" height="112.759" fill="white"/>
<rect x="79.8701" y="460.24" width="459.213" height="112.759" fill="none" stroke="black"/>
<rect x="79.8701" y="460.24" width="459.213" height="112.759" fill="white"/>
<rect x="79.8701" y="460.24" width="459.213" height="112.759" fill="none" stroke="black"/>
<path d="M79.8701,572.999h 459.213z" fill="#ff0000"/>
<path d="M79.8701,572.999h 459.213" fill="none" stroke="#ff0000"/>
<path d="M79.8701,572.999h 459.213" fill="none" stroke="black"/>
<path d="M79.8701,568.649v 4.34927" fill="none" stroke="black"/>
<path d="M89.0543,570.824v 2.17463" fill="none" stroke="black"/>
<path d="M98.2386,570.824v 2.17463" fill="none" stroke="black"/>
<path d="M107.423,570.824v 2.17463" fill="none" stroke="black"/>
<path d="M116.607,570.824v 2.17463" fill="none" stroke="black"/>
<path d="M125.791,568.649v 4.34927" fill="none" stroke="black"/>
<path d="M134.976,570.824v 2.17463" fill="none" stroke="black"/>
<path d="M144.16,570.824v 2.17463" fill="none" stroke="black"/>
<path d="M153.344,570.824v 2.17463" fill="none" stroke="black"/>
<path d="M162.528,570.824v 2.17463" fill="none" stroke="black"/>
<path d="M171.713,568.649v 4.34927" fill="none" stroke="black"/>
<path d="M180.897,570.824v 2.17463" fill="none" stroke="black"/>
<path d="M190.081,570.824v 2.17463" fill="none" stroke="black"/>
<path d="M199.265,570.824v 2.17463" fill="none" stroke="black"/>
<path d="M208.45,570.824v 2.17463" fill="none" stroke="black"/>
<path d="M217.634,568.649v 4.34927" fill="none" stroke="black"/>
<path d="M226.818,570.824v 2.17463" fill="none" stroke="black"/>
<path d="M236.002,570.824v 2.17463" fill="none" stroke="black"/>
<path d="M245.187,570.824v 2.17463" fill="none" stroke="black"/>
<path d="M254.371,570.824v 2.17463" fill="none" stroke="black"/>
<path d="M263.555,568.649v 4.34927" fill="none" stroke="black"/>
<path d="M272.739,570.824v 2.17463" fill="none" stroke="black"/>
<path d="M281.924,570.824v 2.17463" fill="none" stroke="black"/>
<path d="M291.108,570.824v 2.17463" fill="none" stroke="black"/>
<path d="M300.292,570.824v 2.17463" fill="none" stroke="black"/>
<path d="M309.476,568.649v 4.34927" fill="none" stroke="black"/>
<path d="M318.661,570.824v 2.17463" fill="none" stroke="black"/>
<path d="M327.845,570.824v 2.17463" fill="none" stroke="black"/>
<path d="M337.029,570.824v 2.17463" fill="none" stroke="black"/>
<path d="M346.213,570.824v 2.17463" fill="none" stroke="black"/>
<path d="M355.398,568.649v 4.34927" fill="none" stroke="black"/>
<path d="M364.582,570.824v 2.17463" fill="none" stroke="black"/>
<path d="M373.766,570.824v 2.17463" fill="none" stroke="black"/>
<path d="M382.95,570.824v 2.17463" fill="none" stroke="black"/>
<path d="M392.135,570.824v 2.17463" fill="none" stroke="black"/>
<path d="M401.319,568.649v 4.34927" fill="none" stroke="black"/>
<path d="M410.503,570.824v 2.17463" fill="none" stroke="black"/>
<path d="M419.687,570.824v 2.17463" fill="none" stroke="black"/>
<path d="M428.872,570.824v 2.17463" fill="none" stroke="black"/>
<path d="M438.056,570.824v 2.17463" fill="none" stroke="black"/>
<path d="M447.24,568.649v 4.34927" fill="none" stroke="black"/>
<path d="M456.424,570.824v 2.17463" fill="none" stroke="black"/>
<path d="M465.609,570.824v 2.17463" fill="none" stroke="black"/>
<path d="M474.793,570.824v 2.17463" fill="none" stroke="black"/>
<path d="M483.977,570.824v 2.17463" fill="none" stroke="black"/>
<path d="M493.161,568.649v 4.34927" fill="none" stroke="black"/>
<path d="M502.346,570.824v 2.17463" fill="none" stroke="black"/>
<path d="M511.53,570.824v 2.17463" fill="none" stroke="black"/>
<path d="M520.714,570.824v 2.17463" fill="none" stroke="black"/>
<path d="M529.898,570.824v 2.17463" fill="none" stroke="black"/>
<path d="M539.083,568.649v 4.34927" fill="none" stroke="black"/>
<path d="M79.8701,568.649v 4.34927" fill="none" stroke="black"/>
<text xml:space="preserve" x="70.8905" y="592.612" fill="black" font-size="18.7449" font-family="Helvetica">0.6</text>
<text xml:space="preserve" x="61.3783" y="592.612" fill="black" font-size="18.7449" font-family="Times">&#8722;</text>
<text xml:space="preserve" x="116.549" y="592.612" fill="black" font-size="18.7449" font-family="Helvetica">0.5</text>
<text xml:space="preserve" x="107.037" y="592.612" fill="black" font-size="18.7449" font-family="Times">&#8722;</text>
<text xml:space="preserve" x="162.208" y="592.612" fill="black" font-size="18.7449" font-family="Helvetica">0.4</text>
<text xml:space="preserve" x="151.745" y="592.612" fill="black" font-size="18.7449" font-family="Times">&#8722;</text>
<text xml:space="preserve" x="208.818" y="592.612" fill="black" font-size="18.7449" font-family="Helvetica">0.3</text>
<text xml:space="preserve" x="199.306" y="592.612" fill="black" font-size="18.7449" font-family="Times">&#8722;</text>
<text xml:space="preserve" x="254.477" y="592.612" fill="black" font-size="18.7449" font-family="Helvetica">0.2</text>
<text xml:space="preserve" x="244.964" y="592.612" fill="black" font-size="18.7449" font-family="Times">&#8722;</text>
<text xml:space="preserve" x="302.038" y="592.612" fill="black" font-size="18.7449" font-family="Helvetica">0.1</text>
<text xml:space="preserve" x="291.574" y="592.612" fill="black" font-size="18.7449" font-family="Times">&#8722;</text>
<text xml:space="preserve" x="349.599" y="592.612" fill="black" font-size="18.7449" font-family="Helvetica">0</text>
<text xml:space="preserve" x="389.55" y="592.612" fill="black" font-size="18.7449" font-family="Helvetica">0.1</text>
<text xml:space="preserve" x="433.307" y="592.612" fill="black" font-size="18.7449" font-family="Helvetica">0.2</text>
<text xml:space="preserve" x="478.965" y="592.612" fill="black" font-size="18.7449" font-family="Helvetica">0.3</text>
<text xml:space="preserve" x="525.575" y="592.612" fill="black" font-size="18.7449" font-family="Helvetica">0.4</text>
<text xml:space="preserve" x="500.844" y="624.954" fill="black" font-size="18.7449" font-family="Helvetica">BDT</text>
<path d="M79.8701,460.24h 459.213" fill="none" stroke="black"/>
<path d="M79.8701,464.589v -4.34927" fill="none" stroke="black"/>
<path d="M89.0543,462.415v -2.17463" fill="none" stroke="black"/>
<path d="M98.2386,462.415v -2.17463" fill="none" stroke="black"/>
<path d="M107.423,462.415v -2.17463" fill="none" stroke="black"/>
<path d="M116.607,462.415v -2.17463" fill="none" stroke="black"/>
<path d="M125.791,464.589v -4.34927" fill="none" stroke="black"/>
<path d="M134.976,462.415v -2.17463" fill="none" stroke="black"/>
<path d="M144.16,462.415v -2.17463" fill="none" stroke="black"/>
<path d="M153.344,462.415v -2.17463" fill="none" stroke="black"/>
<path d="M162.528,462.415v -2.17463" fill="none" stroke="black"/>
<path d="M171.713,464.589v -4.34927" fill="none" stroke="black"/>
<path d="M180.897,462.415v -2.17463" fill="none" stroke="black"/>
<path d="M190.081,462.415v -2.17463" fill="none" stroke="black"/>
<path d="M199.265,462.415v -2.17463" fill="none" stroke="black"/>
<path d="M208.45,462.415v -2.17463" fill="none" stroke="black"/>
<path d="M217.634,464.589v -4.34927" fill="none" stroke="black"/>
<path d="M226.818,462.415v -2.17463" fill="none" stroke="black"/>
<path d="M236.002,462.415v -2.17463" fill="none" stroke="black"/>
<path d="M245.187,462.415v -2.17463" fill="none" stroke="black"/>
<path d="M254.371,462.415v -2.17463" fill="none" stroke="black"/>
<path d="M263.555,464.589v -4.34927" fill="none" stroke="black"/>
<path d="M272.739,462.415v -2.17463" fill="none" stroke="black"/>
<path d="M281.924,462.415v -2.17463" fill="none" stroke="black"/>
<path d="M291.108,462.415v -2.17463" fill="none" stroke="black"/>
<path d="M300.292,462.415v -2.17463" fill="none" stroke="black"/>
<path d="M309.476,464.589v -4.34927" fill="none" stroke="black"/>
<path d="M318.661,462.415v -2.17463" fill="none" stroke="black"/>
<path d="M327.845,462.415v -2.17463" fill="none" stroke="black"/>
<path d="M337.029,462.415v -2.17463" fill="none" stroke="black"/>
<path d="M346.213,462.415v -2.17463" fill="none" stroke="black"/>
<path d="M355.398,464.589v -4.34927" fill="none" stroke="black"/>
<path d="M364.582,462.415v -2.17463" fill="none" stroke="black"/>
<path d="M373.766,462.415v -2.17463" fill="none" stroke="black"/>
<path d="M382.95,462.415v -2.17463" fill="none" stroke="black"/>
<path d="M392.135,462.415v -2.17463" fill="none" stroke="black"/>
<path d="M401.319,464.589v -4.34927" fill="none" stroke="black"/>
<path d="M410.503,462.415v -2.17463" fill="none" stroke="black"/>
<path d="M419.687,462.415v -2.17463" fill="none" stroke="black"/>
<path d="M428.872,462.415v -2.17463" fill="none" stroke="black"/>
<path d="M438.056,462.415v -2.17463" fill="none" stroke="black"/>
<path d="M447.24,464.589v -4.34927" fill="none" stroke="black"/>
<path d="M456.424,462.415v -2.17463" fill="none" stroke="black"/>
<path d="M465.609,462.415v -2.17463" fill="none" stroke="black"/>
<path d="M474.793,462.415v -2.17463" fill="none" stroke="black"/>
<path d="M483.977,462.415v -2.17463" fill="none" stroke="black"/>
<path d="M493.161,464.589v -4.34927" fill="none" stroke="black"/>
<path d="M502.346,462.415v -2.17463" fill="none" stroke="black"/>
<path d="M511.53,462.415v -2.17463" fill="none" stroke="black"/>
<path d="M520.714,462.415v -2.17463" fill="none" stroke="black"/>
<path d="M529.898,462.415v -2.17463" fill="none" stroke="black"/>
<path d="M539.083,464.589v -4.34927" fill="none" stroke="black"/>
<path d="M79.8701,464.589v -4.34927" fill="none" stroke="black"/>
<path d="M79.8701,572.999v -112.759" fill="none" stroke="black"/>
<path d="M90.585,572.999h -10.715" fill="none" stroke="black"/>
<path d="M85.2276,567.361h -5.35748" fill="none" stroke="black"/>
<path d="M85.2276,561.723h -5.35748" fill="none" stroke="black"/>
<path d="M85.2276,556.085h -5.35748" fill="none" stroke="black"/>
<path d="M85.2276,550.447h -5.35748" fill="none" stroke="black"/>
<path d="M90.585,544.809h -10.715" fill="none" stroke="black"/>
<path d="M85.2276,539.171h -5.35748" fill="none" stroke="black"/>
<path d="M85.2276,533.533h -5.35748" fill="none" stroke="black"/>
<path d="M85.2276,527.895h -5.35748" fill="none" stroke="black"/>
<path d="M85.2276,522.257h -5.35748" fill="none" stroke="black"/>
<path d="M90.585,516.619h -10.715" fill="none" stroke="black"/>
<path d="M85.2276,510.981h -5.35748" fill="none" stroke="black"/>
<path d="M85.2276,505.343h -5.35748" fill="none" stroke="black"/>
<path d="M85.2276,499.705h -5.35748" fill="none" stroke="black"/>
<path d="M85.2276,494.068h -5.35748" fill="none" stroke="black"/>
<path d="M90.585,488.43h -10.715" fill="none" stroke="black"/>
<path d="M85.2276,482.792h -5.35748" fill="none" stroke="black"/>
<path d="M85.2276,477.154h -5.35748" fill="none" stroke="black"/>
<path d="M85.2276,471.516h -5.35748" fill="none" stroke="black"/>
<path d="M85.2276,465.878h -5.35748" fill="none" stroke="black"/>
<path d="M90.585,460.24h -10.715" fill="none" stroke="black"/>
<text xml:space="preserve" x="50.9148" y="580.246" fill="black" font-size="18.7449" font-family="Helvetica">0.2</text>
<text xml:space="preserve" x="50.9148" y="551.71" fill="black" font-size="18.7449" font-family="Helvetica">0.6</text>
<text xml:space="preserve" x="69.9393" y="524.124" fill="black" font-size="18.7449" font-family="Helvetica">1</text>
<text xml:space="preserve" x="49.9636" y="495.587" fill="black" font-size="18.7449" font-family="Helvetica">1.4</text>
<text xml:space="preserve" x="69.9393" y="460.392" fill="black" font-size="18.7449" font-family="Helvetica"> </text>
<g transform="rotate(-90,22.3781,560.271)">
<text xml:space="preserve" x="22.3781" y="560.271" fill="black" font-size="18.7449" font-family="Helvetica">Data / Pred.</text>
</g>
<path d="M539.083,572.999v -112.759" fill="none" stroke="black"/>
<path d="M528.368,572.999h 10.715" fill="none" stroke="black"/>
<path d="M533.725,567.361h 5.35748" fill="none" stroke="black"/>
<path d="M533.725,561.723h 5.35748" fill="none" stroke="black"/>
<path d="M533.725,556.085h 5.35748" fill="none" stroke="black"/>
<path d="M533.725,550.447h 5.35748" fill="none" stroke="black"/>
<path d="M528.368,544.809h 10.715" fill="none" stroke="black"/>
<path d="M533.725,539.171h 5.35748" fill="none" stroke="black"/>
<path d="M533.725,533.533h 5.35748" fill="none" stroke="black"/>
<path d="M533.725,527.895h 5.35748" fill="none" stroke="black"/>
<path d="M533.725,522.257h 5.35748" fill="none" stroke="black"/>
<path d="M528.368,516.619h 10.715" fill="none" stroke="black"/>
<path d="M533.725,510.981h 5.35748" fill="none" stroke="black"/>
<path d="M533.725,505.343h 5.35748" fill="none" stroke="black"/>
<path d="M533.725,499.705h 5.35748" fill="none" stroke="black"/>
<path d="M533.725,494.068h 5.35748" fill="none" stroke="black"/>
<path d="M528.368,488.43h 10.715" fill="none" stroke="black"/>
<path d="M533.725,482.792h 5.35748" fill="none" stroke="black"/>
<path d="M533.725,477.154h 5.35748" fill="none" stroke="black"/>
<path d="M533.725,471.516h 5.35748" fill="none" stroke="black"/>
<path d="M533.725,465.878h 5.35748" fill="none" stroke="black"/>
<path d="M528.368,460.24h 10.715" fill="none" stroke="black"/>
<path d="M79.8701,516.619h 459.213" fill="none" stroke="black" stroke-width="2" stroke-dasharray=" 3, 3"/>
<path d="M108.571,567.169l -5.82462, 5.82958" fill="none" stroke="#6666ff"/>
<path d="M108.571,559.947l -13.0404, 13.0515" fill="none" stroke="#6666ff"/>
<path d="M108.571,552.725l -20.2563, 20.2735" fill="none" stroke="#6666ff"/>
<path d="M108.571,545.503l -27.4721, 27.4955" fill="none" stroke="#6666ff"/>
<path d="M108.571,538.281l -28.7008, 28.7252" fill="none" stroke="#6666ff"/>
<path d="M108.571,531.059l -28.7008, 28.7252" fill="none" stroke="#6666ff"/>
<path d="M108.571,523.837l -28.7008, 28.7252" fill="none" stroke="#6666ff"/>
<path d="M108.571,516.615l -28.7008, 28.7252" fill="none" stroke="#6666ff"/>
<path d="M108.571,509.393l -28.7008, 28.7252" fill="none" stroke="#6666ff"/>
<path d="M108.571,502.171l -28.7008, 28.7252" fill="none" stroke="#6666ff"/>
<path d="M108.571,494.949l -28.7008, 28.7252" fill="none" stroke="#6666ff"/>
<path d="M108.571,487.727l -28.7008, 28.7252" fill="none" stroke="#6666ff"/>
<path d="M108.571,480.505l -28.7008, 28.7252" fill="none" stroke="#6666ff"/>
<path d="M108.571,473.283l -28.7008, 28.7252" fill="none" stroke="#6666ff"/>
<path d="M108.571,466.062l -28.7008, 28.7252" fill="none" stroke="#6666ff"/>
<path d="M107.172,460.24l -27.3016, 27.3249" fill="none" stroke="#6666ff"/>
<path d="M99.9559,460.24l -20.0858, 20.1029" fill="none" stroke="#6666ff"/>
<path d="M92.74,460.24l -12.87, 12.8809" fill="none" stroke="#6666ff"/>
<path d="M85.5242,460.24l -5.65413, 5.65894" fill="none" stroke="#6666ff"/>
<path d="M137.272,552.888l -2.12696, 2.12877" fill="none" stroke="#6666ff"/>
<path d="M137.272,545.666l -9.34279, 9.35074" fill="none" stroke="#6666ff"/>
<path d="M137.272,538.444l -16.5586, 16.5727" fill="none" stroke="#6666ff"/>
<path d="M137.272,531.222l -23.7745, 23.7947" fill="none" stroke="#6666ff"/>
<path d="M137.272,524l -28.7008, 28.7252" fill="none" stroke="#6666ff"/>
<path d="M137.272,516.778l -28.7008, 28.7252" fill="none" stroke="#6666ff"/>
<path d="M137.272,509.556l -28.7008, 28.7252" fill="none" stroke="#6666ff"/>
<path d="M137.272,502.334l -28.7008, 28.7252" fill="none" stroke="#6666ff"/>
<path d="M137.272,495.112l -28.7008, 28.7252" fill="none" stroke="#6666ff"/>
<path d="M137.272,487.89l -28.7008, 28.7252" fill="none" stroke="#6666ff"/>
<path d="M137.272,480.668l -28.7008, 28.7252" fill="none" stroke="#6666ff"/>
<path d="M132.5,478.222l -23.929, 23.9494" fill="none" stroke="#6666ff"/>
<path d="M125.284,478.222l -16.7132, 16.7274" fill="none" stroke="#6666ff"/>
<path d="M118.068,478.222l -9.49737, 9.50545" fill="none" stroke="#6666ff"/>
<path d="M110.852,478.222l -2.28154, 2.28348" fill="none" stroke="#6666ff"/>
<path d="M165.972,531.385l -2.78942, 2.7918" fill="none" stroke="#6666ff"/>
<path d="M165.972,524.163l -10.0053, 10.0138" fill="none" stroke="#6666ff"/>
<path d="M165.972,516.941l -17.2211, 17.2357" fill="none" stroke="#6666ff"/>
<path d="M165.972,509.719l -24.4369, 24.4577" fill="none" stroke="#6666ff"/>
<path d="M165.972,502.497l -28.7008, 28.7252" fill="none" stroke="#6666ff"/>
<path d="M162.188,499.062l -24.9166, 24.9378" fill="none" stroke="#6666ff"/>
<path d="M154.972,499.062l -17.7007, 17.7158" fill="none" stroke="#6666ff"/>
<path d="M147.757,499.062l -10.4849, 10.4938" fill="none" stroke="#6666ff"/>
<path d="M140.541,499.062l -3.26906, 3.27184" fill="none" stroke="#6666ff"/>
<path d="M194.673,531.547l -1.38183, 1.383" fill="none" stroke="#6666ff"/>
<path d="M194.673,524.325l -8.59766, 8.60497" fill="none" stroke="#6666ff"/>
<path d="M194.673,517.103l -15.8135, 15.8269" fill="none" stroke="#6666ff"/>
<path d="M194.673,509.881l -23.0293, 23.0489" fill="none" stroke="#6666ff"/>
<path d="M194.673,502.659l -28.7008, 28.7252" fill="none" stroke="#6666ff"/>
<path d="M189.806,500.308l -23.834, 23.8543" fill="none" stroke="#6666ff"/>
<path d="M182.591,500.308l -16.6182, 16.6323" fill="none" stroke="#6666ff"/>
<path d="M175.375,500.308l -9.40236, 9.41036" fill="none" stroke="#6666ff"/>
<path d="M168.159,500.308l -2.18653, 2.18839" fill="none" stroke="#6666ff"/>
<path d="M223.374,524.488l -3.64665, 3.64975" fill="none" stroke="#6666ff"/>
<path d="M223.374,517.266l -10.8625, 10.8717" fill="none" stroke="#6666ff"/>
<path d="M223.374,510.044l -18.0783, 18.0937" fill="none" stroke="#6666ff"/>
<path d="M221.097,505.101l -23.0173, 23.0368" fill="none" stroke="#6666ff"/>
<path d="M213.881,505.101l -19.2081, 19.2244" fill="none" stroke="#6666ff"/>
<path d="M206.665,505.101l -11.9922, 12.0025" fill="none" stroke="#6666ff"/>
<path d="M199.45,505.101l -4.77642, 4.78048" fill="none" stroke="#6666ff"/>
<path d="M252.075,524.651l -5.81008, 5.81502" fill="none" stroke="#6666ff"/>
<path d="M252.075,517.429l -13.0259, 13.037" fill="none" stroke="#6666ff"/>
<path d="M252.075,510.207l -20.2417, 20.259" fill="none" stroke="#6666ff"/>
<path d="M252.075,502.985l -27.4576, 27.4809" fill="none" stroke="#6666ff"/>
<path d="M245.071,502.773l -21.6966, 21.715" fill="none" stroke="#6666ff"/>
<path d="M237.855,502.773l -14.4807, 14.4931" fill="none" stroke="#6666ff"/>
<path d="M230.639,502.773l -7.26491, 7.27109" fill="none" stroke="#6666ff"/>
<path d="M223.423,502.773l -0.0490771, 0.0491189" fill="none" stroke="#6666ff"/>
<path d="M280.776,524.813l -1.13289, 1.13385" fill="none" stroke="#6666ff"/>
<path d="M280.776,517.591l -8.34871, 8.35582" fill="none" stroke="#6666ff"/>
<path d="M280.776,510.369l -15.5645, 15.5778" fill="none" stroke="#6666ff"/>
<path d="M276.635,507.291l -18.6399, 18.6557" fill="none" stroke="#6666ff"/>
<path d="M269.419,507.291l -17.3444, 17.3592" fill="none" stroke="#6666ff"/>
<path d="M262.203,507.291l -10.1286, 10.1372" fill="none" stroke="#6666ff"/>
<path d="M254.988,507.291l -2.91278, 2.91526" fill="none" stroke="#6666ff"/>
<path d="M309.476,524.976l -0.515982, 0.516421" fill="none" stroke="#6666ff"/>
<path d="M309.476,517.754l -7.73181, 7.73839" fill="none" stroke="#6666ff"/>
<path d="M309.476,510.532l -14.9476, 14.9604" fill="none" stroke="#6666ff"/>
<path d="M305.044,507.746l -17.7311, 17.7462" fill="none" stroke="#6666ff"/>
<path d="M297.828,507.746l -17.0526, 17.0671" fill="none" stroke="#6666ff"/>
<path d="M290.612,507.746l -9.83677, 9.84514" fill="none" stroke="#6666ff"/>
<path d="M283.397,507.746l -2.62094, 2.62317" fill="none" stroke="#6666ff"/>
<path d="M338.177,517.917l -6.91577, 6.92165" fill="none" stroke="#6666ff"/>
<path d="M338.177,510.695l -14.1316, 14.1436" fill="none" stroke="#6666ff"/>
<path d="M333.254,508.4l -16.4241, 16.4381" fill="none" stroke="#6666ff"/>
<path d="M326.038,508.4l -16.4241, 16.4381" fill="none" stroke="#6666ff"/>
<path d="M318.822,508.4l -9.34579, 9.35374" fill="none" stroke="#6666ff"/>
<path d="M311.606,508.4l -2.12996, 2.13177" fill="none" stroke="#6666ff"/>
<path d="M366.878,525.301l -1.35282, 1.35397" fill="none" stroke="#6666ff"/>
<path d="M366.878,518.079l -8.56865, 8.57594" fill="none" stroke="#6666ff"/>
<path d="M366.878,510.857l -15.7845, 15.7979" fill="none" stroke="#6666ff"/>
<path d="M363.933,506.583l -20.0549, 20.072" fill="none" stroke="#6666ff"/>
<path d="M356.717,506.583l -18.5396, 18.5553" fill="none" stroke="#6666ff"/>
<path d="M349.501,506.583l -11.3237, 11.3334" fill="none" stroke="#6666ff"/>
<path d="M342.285,506.583l -4.10791, 4.1114" fill="none" stroke="#6666ff"/>
<path d="M395.579,525.464l -6.80698, 6.81277" fill="none" stroke="#6666ff"/>
<path d="M395.579,518.242l -14.0228, 14.0347" fill="none" stroke="#6666ff"/>
<path d="M395.579,511.02l -21.2386, 21.2567" fill="none" stroke="#6666ff"/>
<path d="M395.579,503.798l -28.4545, 28.4787" fill="none" stroke="#6666ff"/>
<path d="M391.197,500.962l -24.3188, 24.3395" fill="none" stroke="#6666ff"/>
<path d="M383.981,500.962l -17.103, 17.1175" fill="none" stroke="#6666ff"/>
<path d="M376.765,500.962l -9.88713, 9.89554" fill="none" stroke="#6666ff"/>
<path d="M369.549,500.962l -2.6713, 2.67357" fill="none" stroke="#6666ff"/>
<path d="M424.28,547.293l -3.14044, 3.14311" fill="none" stroke="#6666ff"/>
<path d="M424.28,540.071l -10.3563, 10.3651" fill="none" stroke="#6666ff"/>
<path d="M424.28,532.849l -17.5721, 17.5871" fill="none" stroke="#6666ff"/>
<path d="M424.28,525.627l -24.7879, 24.809" fill="none" stroke="#6666ff"/>
<path d="M424.28,518.405l -28.7008, 28.7252" fill="none" stroke="#6666ff"/>
<path d="M424.28,511.183l -28.7008, 28.7252" fill="none" stroke="#6666ff"/>
<path d="M424.28,503.961l -28.7008, 28.7252" fill="none" stroke="#6666ff"/>
<path d="M424.28,496.739l -28.7008, 28.7252" fill="none" stroke="#6666ff"/>
<path d="M424.28,489.517l -28.7008, 28.7252" fill="none" stroke="#6666ff"/>
<path d="M423.772,482.803l -28.1931, 28.2171" fill="none" stroke="#6666ff"/>
<path d="M416.556,482.803l -20.9773, 20.9952" fill="none" stroke="#6666ff"/>
<path d="M409.34,482.803l -13.7615, 13.7732" fill="none" stroke="#6666ff"/>
<path d="M402.124,482.803l -6.54565, 6.55122" fill="none" stroke="#6666ff"/>
<path d="M452.98,569.121l -3.87423, 3.87753" fill="none" stroke="#6666ff"/>
<path d="M452.98,561.899l -11.0901, 11.0995" fill="none" stroke="#6666ff"/>
<path d="M452.98,554.677l -18.3059, 18.3215" fill="none" stroke="#6666ff"/>
<path d="M452.98,547.455l -25.5217, 25.5434" fill="none" stroke="#6666ff"/>
<path d="M452.98,540.233l -28.7008, 28.7252" fill="none" stroke="#6666ff"/>
<path d="M452.98,533.011l -28.7008, 28.7252" fill="none" stroke="#6666ff"/>
<path d="M452.98,525.789l -28.7008, 28.7252" fill="none" stroke="#6666ff"/>
<path d="M452.98,518.567l -28.7008, 28.7252" fill="none" stroke="#6666ff"/>
<path d="M452.98,511.345l -28.7008, 28.7252" fill="none" stroke="#6666ff"/>
<path d="M452.98,504.123l -28.7008, 28.7252" fill="none" stroke="#6666ff"/>
<path d="M452.98,496.901l -28.7008, 28.7252" fill="none" stroke="#6666ff"/>
<path d="M452.98,489.679l -28.7008, 28.7252" fill="none" stroke="#6666ff"/>
<path d="M452.98,482.457l -28.7008, 28.7252" fill="none" stroke="#6666ff"/>
<path d="M452.98,475.236l -28.7008, 28.7252" fill="none" stroke="#6666ff"/>
<path d="M452.98,468.014l -28.7008, 28.7252" fill="none" stroke="#6666ff"/>
<path d="M452.98,460.792l -28.7008, 28.7252" fill="none" stroke="#6666ff"/>
<path d="M446.316,460.24l -22.0362, 22.0549" fill="none" stroke="#6666ff"/>
<path d="M439.1,460.24l -14.8203, 14.833" fill="none" stroke="#6666ff"/>
<path d="M431.884,460.24l -7.60451, 7.61098" fill="none" stroke="#6666ff"/>
<path d="M424.668,460.24l -0.388682, 0.389013" fill="none" stroke="#6666ff"/>
<path d="M481.681,569.284l -3.7117, 3.71486" fill="none" stroke="#6666ff"/>
<path d="M481.681,562.062l -10.9275, 10.9368" fill="none" stroke="#6666ff"/>
<path d="M481.681,554.84l -18.1434, 18.1588" fill="none" stroke="#6666ff"/>
<path d="M481.681,547.618l -25.3592, 25.3808" fill="none" stroke="#6666ff"/>
<path d="M481.681,540.396l -28.7008, 28.7252" fill="none" stroke="#6666ff"/>
<path d="M481.681,533.174l -28.7008, 28.7252" fill="none" stroke="#6666ff"/>
<path d="M481.681,525.952l -28.7008, 28.7252" fill="none" stroke="#6666ff"/>
<path d="M481.681,518.73l -28.7008, 28.7252" fill="none" stroke="#6666ff"/>
<path d="M481.681,511.508l -28.7008, 28.7252" fill="none" stroke="#6666ff"/>
<path d="M481.681,504.286l -28.7008, 28.7252" fill="none" stroke="#6666ff"/>
<path d="M481.681,497.064l -28.7008, 28.7252" fill="none" stroke="#6666ff"/>
<path d="M481.681,489.842l -28.7008, 28.7252" fill="none" stroke="#6666ff"/>
<path d="M481.681,482.62l -28.7008, 28.7252" fill="none" stroke="#6666ff"/>
<path d="M481.681,475.398l -28.7008, 28.7252" fill="none" stroke="#6666ff"/>
<path d="M481.681,468.176l -28.7008, 28.7252" fill="none" stroke="#6666ff"/>
<path d="M481.681,460.954l -28.7008, 28.7252" fill="none" stroke="#6666ff"/>
<path d="M475.179,460.24l -22.1987, 22.2176" fill="none" stroke="#6666ff"/>
<path d="M467.963,460.24l -14.9829, 14.9956" fill="none" stroke="#6666ff"/>
<path d="M460.747,460.24l -7.76704, 7.77365" fill="none" stroke="#6666ff"/>
<path d="M453.532,460.24l -0.551214, 0.551683" fill="none" stroke="#6666ff"/>
<path d="M510.382,569.446l -3.54917, 3.55219" fill="none" stroke="#6666ff"/>
<path d="M510.382,562.225l -10.765, 10.7742" fill="none" stroke="#6666ff"/>
<path d="M510.382,555.003l -17.9808, 17.9961" fill="none" stroke="#6666ff"/>
<path d="M510.382,547.781l -25.1967, 25.2181" fill="none" stroke="#6666ff"/>
<path d="M510.382,540.559l -28.7008, 28.7252" fill="none" stroke="#6666ff"/>
<path d="M510.382,533.337l -28.7008, 28.7252" fill="none" stroke="#6666ff"/>
<path d="M510.382,526.115l -28.7008, 28.7252" fill="none" stroke="#6666ff"/>
<path d="M510.382,518.893l -28.7008, 28.7252" fill="none" stroke="#6666ff"/>
<path d="M510.382,511.671l -28.7008, 28.7252" fill="none" stroke="#6666ff"/>
<path d="M510.382,504.449l -28.7008, 28.7252" fill="none" stroke="#6666ff"/>
<path d="M510.382,497.227l -28.7008, 28.7252" fill="none" stroke="#6666ff"/>
<path d="M510.382,490.005l -28.7008, 28.7252" fill="none" stroke="#6666ff"/>
<path d="M510.382,482.783l -28.7008, 28.7252" fill="none" stroke="#6666ff"/>
<path d="M510.382,475.561l -28.7008, 28.7252" fill="none" stroke="#6666ff"/>
<path d="M510.382,468.339l -28.7008, 28.7252" fill="none" stroke="#6666ff"/>
<path d="M510.382,461.117l -28.7008, 28.7252" fill="none" stroke="#6666ff"/>
<path d="M504.042,460.24l -22.3612, 22.3803" fill="none" stroke="#6666ff"/>
<path d="M496.827,460.24l -15.1454, 15.1583" fill="none" stroke="#6666ff"/>
<path d="M489.611,460.24l -7.92958, 7.93632" fill="none" stroke="#6666ff"/>
<path d="M482.395,460.24l -0.713746, 0.714353" fill="none" stroke="#6666ff"/>
<path d="M539.083,569.609l -3.38664, 3.38952" fill="none" stroke="#6666ff"/>
<path d="M539.083,562.387l -10.6025, 10.6115" fill="none" stroke="#6666ff"/>
<path d="M539.083,555.165l -17.8183, 17.8335" fill="none" stroke="#6666ff"/>
<path d="M539.083,547.943l -25.0341, 25.0554" fill="none" stroke="#6666ff"/>
<path d="M539.083,540.721l -28.7008, 28.7252" fill="none" stroke="#6666ff"/>
<path d="M539.083,533.499l -28.7008, 28.7252" fill="none" stroke="#6666ff"/>
<path d="M539.083,526.277l -28.7008, 28.7252" fill="none" stroke="#6666ff"/>
<path d="M539.083,519.055l -28.7008, 28.7252" fill="none" stroke="#6666ff"/>
<path d="M539.083,511.833l -28.7008, 28.7252" fill="none" stroke="#6666ff"/>
<path d="M539.083,504.611l -28.7008, 28.7252" fill="none" stroke="#6666ff"/>
<path d="M539.083,497.389l -28.7008, 28.7252" fill="none" stroke="#6666ff"/>
<path d="M539.083,490.167l -28.7008, 28.7252" fill="none" stroke="#6666ff"/>
<path d="M539.083,482.946l -28.7008, 28.7252" fill="none" stroke="#6666ff"/>
<path d="M539.083,475.724l -28.7008, 28.7252" fill="none" stroke="#6666ff"/>
<path d="M539.083,468.502l -28.7008, 28.7252" fill="none" stroke="#6666ff"/>
<path d="M539.083,461.28l -28.7008, 28.7252" fill="none" stroke="#6666ff"/>
<path d="M532.906,460.24l -22.5238, 22.5429" fill="none" stroke="#6666ff"/>
<path d="M525.69,460.24l -15.3079, 15.321" fill="none" stroke="#6666ff"/>
<path d="M518.474,460.24l -8.09211, 8.09899" fill="none" stroke="#6666ff"/>
<path d="M511.258,460.24l -0.876278, 0.877024" fill="none" stroke="#6666ff"/>
<path d="M79.8701,572.999h 459.213" fill="none" stroke="black"/>
<path d="M79.8701,568.649v 4.34927" fill="none" stroke="black"/>
<path d="M89.0543,570.824v 2.17463" fill="none" stroke="black"/>
<path d="M98.2386,570.824v 2.17463" fill="none" stroke="black"/>
<path d="M107.423,570.824v 2.17463" fill="none" stroke="black"/>
<path d="M116.607,570.824v 2.17463" fill="none" stroke="black"/>
<path d="M125.791,568.649v 4.34927" fill="none" stroke="black"/>
<path d="M134.976,570.824v 2.17463" fill="none" stroke="black"/>
<path d="M144.16,570.824v 2.17463" fill="none" stroke="black"/>
<path d="M153.344,570.824v 2.17463" fill="none" stroke="black"/>
<path d="M162.528,570.824v 2.17463" fill="none" stroke="black"/>
<path d="M171.713,568.649v 4.34927" fill="none" stroke="black"/>
<path d="M180.897,570.824v 2.17463" fill="none" stroke="black"/>
<path d="M190.081,570.824v 2.17463" fill="none" stroke="black"/>
<path d="M199.265,570.824v 2.17463" fill="none" stroke="black"/>
<path d="M208.45,570.824v 2.17463" fill="none" stroke="black"/>
<path d="M217.634,568.649v 4.34927" fill="none" stroke="black"/>
<path d="M226.818,570.824v 2.17463" fill="none" stroke="black"/>
<path d="M236.002,570.824v 2.17463" fill="none" stroke="black"/>
<path d="M245.187,570.824v 2.17463" fill="none" stroke="black"/>
<path d="M254.371,570.824v 2.17463" fill="none" stroke="black"/>
<path d="M263.555,568.649v 4.34927" fill="none" stroke="black"/>
<path d="M272.739,570.824v 2.17463" fill="none" stroke="black"/>
<path d="M281.924,570.824v 2.17463" fill="none" stroke="black"/>
<path d="M291.108,570.824v 2.17463" fill="none" stroke="black"/>
<path d="M300.292,570.824v 2.17463" fill="none" stroke="black"/>
<path d="M309.476,568.649v 4.34927" fill="none" stroke="black"/>
<path d="M318.661,570.824v 2.17463" fill="none" stroke="black"/>
<path d="M327.845,570.824v 2.17463" fill="none" stroke="black"/>
<path d="M337.029,570.824v 2.17463" fill="none" stroke="black"/>
<path d="M346.213,570.824v 2.17463" fill="none" stroke="black"/>
<path d="M355.398,568.649v 4.34927" fill="none" stroke="black"/>
<path d="M364.582,570.824v 2.17463" fill="none" stroke="black"/>
<path d="M373.766,570.824v 2.17463" fill="none" stroke="black"/>
<path d="M382.95,570.824v 2.17463" fill="none" stroke="black"/>
<path d="M392.135,570.824v 2.17463" fill="none" stroke="black"/>
<path d="M401.319,568.649v 4.34927" fill="none" stroke="black"/>
<path d="M410.503,570.824v 2.17463" fill="none" stroke="black"/>
<path d="M419.687,570.824v 2.17463" fill="none" stroke="black"/>
<path d="M428.872,570.824v 2.17463" fill="none" stroke="black"/>
<path d="M438.056,570.824v 2.17463" fill="none" stroke="black"/>
<path d="M447.24,568.649v 4.34927" fill="none" stroke="black"/>
<path d="M456.424,570.824v 2.17463" fill="none" stroke="black"/>
<path d="M465.609,570.824v 2.17463" fill="none" stroke="black"/>
<path d="M474.793,570.824v 2.17463" fill="none" stroke="black"/>
<path d="M483.977,570.824v 2.17463" fill="none" stroke="black"/>
<path d="M493.161,568.649v 4.34927" fill="none" stroke="black"/>
<path d="M502.346,570.824v 2.17463" fill="none" stroke="black"/>
<path d="M511.53,570.824v 2.17463" fill="none" stroke="black"/>
<path d="M520.714,570.824v 2.17463" fill="none" stroke="black"/>
<path d="M529.898,570.824v 2.17463" fill="none" stroke="black"/>
<path d="M539.083,568.649v 4.34927" fill="none" stroke="black"/>
<path d="M79.8701,568.649v 4.34927" fill="none" stroke="black"/>
<path d="M79.8701,460.24h 459.213" fill="none" stroke="black"/>
<path d="M79.8701,464.589v -4.34927" fill="none" stroke="black"/>
<path d="M89.0543,462.415v -2.17463" fill="none" stroke="black"/>
<path d="M98.2386,462.415v -2.17463" fill="none" stroke="black"/>
<path d="M107.423,462.415v -2.17463" fill="none" stroke="black"/>
<path d="M116.607,462.415v -2.17463" fill="none" stroke="black"/>
<path d="M125.791,464.589v -4.34927" fill="none" stroke="black"/>
<path d="M134.976,462.415v -2.17463" fill="none" stroke="black"/>
<path d="M144.16,462.415v -2.17463" fill="none" stroke="black"/>
<path d="M153.344,462.415v -2.17463" fill="none" stroke="black"/>
<path d="M162.528,462.415v -2.17463" fill="none" stroke="black"/>
<path d="M171.713,464.589v -4.34927" fill="none" stroke="black"/>
<path d="M180.897,462.415v -2.17463" fill="none" stroke="black"/>
<path d="M190.081,462.415v -2.17463" fill="none" stroke="black"/>
<path d="M199.265,462.415v -2.17463" fill="none" stroke="black"/>
<path d="M208.45,462.415v -2.17463" fill="none" stroke="black"/>
<path d="M217.634,464.589v -4.34927" fill="none" stroke="black"/>
<path d="M226.818,462.415v -2.17463" fill="none" stroke="black"/>
<path d="M236.002,462.415v -2.17463" fill="none" stroke="black"/>
<path d="M245.187,462.415v -2.17463" fill="none" stroke="black"/>
<path d="M254.371,462.415v -2.17463" fill="none" stroke="black"/>
<path d="M263.555,464.589v -4.34927" fill="none" stroke="black"/>
<path d="M272.739,462.415v -2.17463" fill="none" stroke="black"/>
<path d="M281.924,462.415v -2.17463" fill="none" stroke="black"/>
<path d="M291.108,462.415v -2.17463" fill="none" stroke="black"/>
<path d="M300.292,462.415v -2.17463" fill="none" stroke="black"/>
<path d="M309.476,464.589v -4.34927" fill="none" stroke="black"/>
<path d="M318.661,462.415v -2.17463" fill="none" stroke="black"/>
<path d="M327.845,462.415v -2.17463" fill="none" stroke="black"/>
<path d="M337.029,462.415v -2.17463" fill="none" stroke="black"/>
<path d="M346.213,462.415v -2.17463" fill="none" stroke="black"/>
<path d="M355.398,464.589v -4.34927" fill="none" stroke="black"/>
<path d="M364.582,462.415v -2.17463" fill="none" stroke="black"/>
<path d="M373.766,462.415v -2.17463" fill="none" stroke="black"/>
<path d="M382.95,462.415v -2.17463" fill="none" stroke="black"/>
<path d="M392.135,462.415v -2.17463" fill="none" stroke="black"/>
<path d="M401.319,464.589v -4.34927" fill="none" stroke="black"/>
<path d="M410.503,462.415v -2.17463" fill="none" stroke="black"/>
<path d="M419.687,462.415v -2.17463" fill="none" stroke="black"/>
<path d="M428.872,462.415v -2.17463" fill="none" stroke="black"/>
<path d="M438.056,462.415v -2.17463" fill="none" stroke="black"/>
<path d="M447.24,464.589v -4.34927" fill="none" stroke="black"/>
<path d="M456.424,462.415v -2.17463" fill="none" stroke="black"/>
<path d="M465.609,462.415v -2.17463" fill="none" stroke="black"/>
<path d="M474.793,462.415v -2.17463" fill="none" stroke="black"/>
<path d="M483.977,462.415v -2.17463" fill="none" stroke="black"/>
<path d="M493.161,464.589v -4.34927" fill="none" stroke="black"/>
<path d="M502.346,462.415v -2.17463" fill="none" stroke="black"/>
<path d="M511.53,462.415v -2.17463" fill="none" stroke="black"/>
<path d="M520.714,462.415v -2.17463" fill="none" stroke="black"/>
<path d="M529.898,462.415v -2.17463" fill="none" stroke="black"/>
<path d="M539.083,464.589v -4.34927" fill="none" stroke="black"/>
<path d="M79.8701,464.589v -4.34927" fill="none" stroke="black"/>
<path d="M79.8701,572.999v -112.759" fill="none" stroke="black"/>
<path d="M90.585,572.999h -10.715" fill="none" stroke="black"/>
<path d="M85.2276,567.361h -5.35748" fill="none" stroke="black"/>
<path d="M85.2276,561.723h -5.35748" fill="none" stroke="black"/>
<path d="M85.2276,556.085h -5.35748" fill="none" stroke="black"/>
<path d="M85.2276,550.447h -5.35748" fill="none" stroke="black"/>
<path d="M90.585,544.809h -10.715" fill="none" stroke="black"/>
<path d="M85.2276,539.171h -5.35748" fill="none" stroke="black"/>
<path d="M85.2276,533.533h -5.35748" fill="none" stroke="black"/>
<path d="M85.2276,527.895h -5.35748" fill="none" stroke="black"/>
<path d="M85.2276,522.257h -5.35748" fill="none" stroke="black"/>
<path d="M90.585,516.619h -10.715" fill="none" stroke="black"/>
<path d="M85.2276,510.981h -5.35748" fill="none" stroke="black"/>
<path d="M85.2276,505.343h -5.35748" fill="none" stroke="black"/>
<path d="M85.2276,499.705h -5.35748" fill="none" stroke="black"/>
<path d="M85.2276,494.068h -5.35748" fill="none" stroke="black"/>
<path d="M90.585,488.43h -10.715" fill="none" stroke="black"/>
<path d="M85.2276,482.792h -5.35748" fill="none" stroke="black"/>
<path d="M85.2276,477.154h -5.35748" fill="none" stroke="black"/>
<path d="M85.2276,471.516h -5.35748" fill="none" stroke="black"/>
<path d="M85.2276,465.878h -5.35748" fill="none" stroke="black"/>
<path d="M90.585,460.24h -10.715" fill="none" stroke="black"/>
<path d="M539.083,572.999v -112.759" fill="none" stroke="black"/>
<path d="M528.368,572.999h 10.715" fill="none" stroke="black"/>
<path d="M533.725,567.361h 5.35748" fill="none" stroke="black"/>
<path d="M533.725,561.723h 5.35748" fill="none" stroke="black"/>
<path d="M533.725,556.085h 5.35748" fill="none" stroke="black"/>
<path d="M533.725,550.447h 5.35748" fill="none" stroke="black"/>
<path d="M528.368,544.809h 10.715" fill="none" stroke="black"/>
<path d="M533.725,539.171h 5.35748" fill="none" stroke="black"/>
<path d="M533.725,533.533h 5.35748" fill="none" stroke="black"/>
<path d="M533.725,527.895h 5.35748" fill="none" stroke="black"/>
<path d="M533.725,522.257h 5.35748" fill="none" stroke="black"/>
<path d="M528.368,516.619h 10.715" fill="none" stroke="black"/>
<path d="M533.725,510.981h 5.35748" fill="none" stroke="black"/>
<path d="M533.725,505.343h 5.35748" fill="none" stroke="black"/>
<path d="M533.725,499.705h 5.35748" fill="none" stroke="black"/>
<path d="M533.725,494.068h 5.35748" fill="none" stroke="black"/>
<path d="M528.368,488.43h 10.715" fill="none" stroke="black"/>
<path d="M533.725,482.792h 5.35748" fill="none" stroke="black"/>
<path d="M533.725,477.154h 5.35748" fill="none" stroke="black"/>
<path d="M533.725,471.516h 5.35748" fill="none" stroke="black"/>
<path d="M533.725,465.878h 5.35748" fill="none" stroke="black"/>
<path d="M528.368,460.24h 10.715" fill="none" stroke="black"/>
<rect x="79.8701" y="25.5689" width="459.213" height="434.671" fill="white"/>
<rect x="79.8701" y="25.5689" width="459.213" height="434.671" fill="none" stroke="black"/>
<rect x="79.8701" y="25.5689" width="459.213" height="434.671" fill="white"/>
<rect x="79.8701" y="25.5689" width="459.213" height="434.671" fill="none" stroke="black"/>
<path d="M79.8701,460.24h 459.213z" fill="#ff0000"/>
<path d="M79.8701,460.24h 459.213" fill="none" stroke="#ff0000"/>
<path d="M79.8701,460.24h 459.213" fill="none" stroke="black"/>
<path d="M79.8701,447.813v 12.4265" fill="none" stroke="black"/>
<path d="M89.0543,454.027v 6.21324" fill="none" stroke="black"/>
<path d="M98.2386,454.027v 6.21324" fill="none" stroke="black"/>
<path d="M107.423,454.027v 6.21324" fill="none" stroke="black"/>
<path d="M116.607,454.027v 6.21324" fill="none" stroke="black"/>
<path d="M125.791,447.813v 12.4265" fill="none" stroke="black"/>
<path d="M134.976,454.027v 6.21324" fill="none" stroke="black"/>
<path d="M144.16,454.027v 6.21324" fill="none" stroke="black"/>
<path d="M153.344,454.027v 6.21324" fill="none" stroke="black"/>
<path d="M162.528,454.027v 6.21324" fill="none" stroke="black"/>
<path d="M171.713,447.813v 12.4265" fill="none" stroke="black"/>
<path d="M180.897,454.027v 6.21324" fill="none" stroke="black"/>
<path d="M190.081,454.027v 6.21324" fill="none" stroke="black"/>
<path d="M199.265,454.027v 6.21324" fill="none" stroke="black"/>
<path d="M208.45,454.027v 6.21324" fill="none" stroke="black"/>
<path d="M217.634,447.813v 12.4265" fill="none" stroke="black"/>
<path d="M226.818,454.027v 6.21324" fill="none" stroke="black"/>
<path d="M236.002,454.027v 6.21324" fill="none" stroke="black"/>
<path d="M245.187,454.027v 6.21324" fill="none" stroke="black"/>
<path d="M254.371,454.027v 6.21324" fill="none" stroke="black"/>
<path d="M263.555,447.813v 12.4265" fill="none" stroke="black"/>
<path d="M272.739,454.027v 6.21324" fill="none" stroke="black"/>
<path d="M281.924,454.027v 6.21324" fill="none" stroke="black"/>
<path d="M291.108,454.027v 6.21324" fill="none" stroke="black"/>
<path d="M300.292,454.027v 6.21324" fill="none" stroke="black"/>
<path d="M309.476,447.813v 12.4265" fill="none" stroke="black"/>
<path d="M318.661,454.027v 6.21324" fill="none" stroke="black"/>
<path d="M327.845,454.027v 6.21324" fill="none" stroke="black"/>
<path d="M337.029,454.027v 6.21324" fill="none" stroke="black"/>
<path d="M346.213,454.027v 6.21324" fill="none" stroke="black"/>
<path d="M355.398,447.813v 12.4265" fill="none" stroke="black"/>
<path d="M364.582,454.027v 6.21324" fill="none" stroke="black"/>
<path d="M373.766,454.027v 6.21324" fill="none" stroke="black"/>
<path d="M382.95,454.027v 6.21324" fill="none" stroke="black"/>
<path d="M392.135,454.027v 6.21324" fill="none" stroke="black"/>
<path d="M401.319,447.813v 12.4265" fill="none" stroke="black"/>
<path d="M410.503,454.027v 6.21324" fill="none" stroke="black"/>
<path d="M419.687,454.027v 6.21324" fill="none" stroke="black"/>
<path d="M428.872,454.027v 6.21324" fill="none" stroke="black"/>
<path d="M438.056,454.027v 6.21324" fill="none" stroke="black"/>
<path d="M447.24,447.813v 12.4265" fill="none" stroke="black"/>
<path d="M456.424,454.027v 6.21324" fill="none" stroke="black"/>
<path d="M465.609,454.027v 6.21324" fill="none" stroke="black"/>
<path d="M474.793,454.027v 6.21324" fill="none" stroke="black"/>
<path d="M483.977,454.027v 6.21324" fill="none" stroke="black"/>
<path d="M493.161,447.813v 12.4265" fill="none" stroke="black"/>
<path d="M502.346,454.027v 6.21324" fill="none" stroke="black"/>
<path d="M511.53,454.027v 6.21324" fill="none" stroke="black"/>
<path d="M520.714,454.027v 6.21324" fill="none" stroke="black"/>
<path d="M529.898,454.027v 6.21324" fill="none" stroke="black"/>
<path d="M539.083,447.813v 12.4265" fill="none" stroke="black"/>
<path d="M79.8701,447.813v 12.4265" fill="none" stroke="black"/>
<path d="M79.8701,25.5689h 459.213" fill="none" stroke="black"/>
<path d="M79.8701,37.9954v -12.4265" fill="none" stroke="black"/>
<path d="M89.0543,31.7821v -6.21324" fill="none" stroke="black"/>
<path d="M98.2386,31.7821v -6.21324" fill="none" stroke="black"/>
<path d="M107.423,31.7821v -6.21324" fill="none" stroke="black"/>
<path d="M116.607,31.7821v -6.21324" fill="none" stroke="black"/>
<path d="M125.791,37.9954v -12.4265" fill="none" stroke="black"/>
<path d="M134.976,31.7821v -6.21324" fill="none" stroke="black"/>
<path d="M144.16,31.7821v -6.21324" fill="none" stroke="black"/>
<path d="M153.344,31.7821v -6.21324" fill="none" stroke="black"/>
<path d="M162.528,31.7821v -6.21324" fill="none" stroke="black"/>
<path d="M171.713,37.9954v -12.4265" fill="none" stroke="black"/>
<path d="M180.897,31.7821v -6.21324" fill="none" stroke="black"/>
<path d="M190.081,31.7821v -6.21324" fill="none" stroke="black"/>
<path d="M199.265,31.7821v -6.21324" fill="none" stroke="black"/>
<path d="M208.45,31.7821v -6.21324" fill="none" stroke="black"/>
<path d="M217.634,37.9954v -12.4265" fill="none" stroke="black"/>
<path d="M226.818,31.7821v -6.21324" fill="none" stroke="black"/>
<path d="M236.002,31.7821v -6.21324" fill="none" stroke="black"/>
<path d="M245.187,31.7821v -6.21324" fill="none" stroke="black"/>
<path d="M254.371,31.7821v -6.21324" fill="none" stroke="black"/>
<path d="M263.555,37.9954v -12.4265" fill="none" stroke="black"/>
<path d="M272.739,31.7821v -6.21324" fill="none" stroke="black"/>
<path d="M281.924,31.7821v -6.21324" fill="none" stroke="black"/>
<path d="M291.108,31.7821v -6.21324" fill="none" stroke="black"/>
<path d="M300.292,31.7821v -6.21324" fill="none" stroke="black"/>
<path d="M309.476,37.9954v -12.4265" fill="none" stroke="black"/>
<path d="M318.661,31.7821v -6.21324" fill="none" stroke="black"/>
<path d="M327.845,31.7821v -6.21324" fill="none" stroke="black"/>
<path d="M337.029,31.7821v -6.21324" fill="none" stroke="black"/>
<path d="M346.213,31.7821v -6.21324" fill="none" stroke="black"/>
<path d="M355.398,37.9954v -12.4265" fill="none" stroke="black"/>
<path d="M364.582,31.7821v -6.21324" fill="none" stroke="black"/>
<path d="M373.766,31.7821v -6.21324" fill="none" stroke="black"/>
<path d="M382.95,31.7821v -6.21324" fill="none" stroke="black"/>
<path d="M392.135,31.7821v -6.21324" fill="none" stroke="black"/>
<path d="M401.319,37.9954v -12.4265" fill="none" stroke="black"/>
<path d="M410.503,31.7821v -6.21324" fill="none" stroke="black"/>
<path d="M419.687,31.7821v -6.21324" fill="none" stroke="black"/>
<path d="M428.872,31.7821v -6.21324" fill="none" stroke="black"/>
<path d="M438.056,31.7821v -6.21324" fill="none" stroke="black"/>
<path d="M447.24,37.9954v -12.4265" fill="none" stroke="black"/>
<path d="M456.424,31.7821v -6.21324" fill="none" stroke="black"/>
<path d="M465.609,31.7821v -6.21324" fill="none" stroke="black"/>
<path d="M474.793,31.7821v -6.21324" fill="none" stroke="black"/>
<path d="M483.977,31.7821v -6.21324" fill="none" stroke="black"/>
<path d="M493.161,37.9954v -12.4265" fill="none" stroke="black"/>
<path d="M502.346,31.7821v -6.21324" fill="none" stroke="black"/>
<path d="M511.53,31.7821v -6.21324" fill="none" stroke="black"/>
<path d="M520.714,31.7821v -6.21324" fill="none" stroke="black"/>
<path d="M529.898,31.7821v -6.21324" fill="none" stroke="black"/>
<path d="M539.083,37.9954v -12.4265" fill="none" stroke="black"/>
<path d="M79.8701,37.9954v -12.4265" fill="none" stroke="black"/>
<path d="M79.8701,460.24v -434.671" fill="none" stroke="black"/>
<path d="M94.3268,460.24h -14.4567" fill="none" stroke="black"/>
<path d="M87.0984,441.018h -7.22835" fill="none" stroke="black"/>
<path d="M87.0984,421.796h -7.22835" fill="none" stroke="black"/>
<path d="M87.0984,402.574h -7.22835" fill="none" stroke="black"/>
<path d="M94.3268,383.352h -14.4567" fill="none" stroke="black"/>
<path d="M87.0984,364.13h -7.22835" fill="none" stroke="black"/>
<path d="M87.0984,344.908h -7.22835" fill="none" stroke="black"/>
<path d="M87.0984,325.686h -7.22835" fill="none" stroke="black"/>
<path d="M94.3268,306.464h -14.4567" fill="none" stroke="black"/>
<path d="M87.0984,287.243h -7.22835" fill="none" stroke="black"/>
<path d="M87.0984,268.021h -7.22835" fill="none" stroke="black"/>
<path d="M87.0984,248.799h -7.22835" fill="none" stroke="black"/>
<path d="M94.3268,229.577h -14.4567" fill="none" stroke="black"/>
<path d="M87.0984,210.355h -7.22835" fill="none" stroke="black"/>
<path d="M87.0984,191.133h -7.22835" fill="none" stroke="black"/>
<path d="M87.0984,171.911h -7.22835" fill="none" stroke="black"/>
<path d="M94.3268,152.689h -14.4567" fill="none" stroke="black"/>
<path d="M87.0984,133.467h -7.22835" fill="none" stroke="black"/>
<path d="M87.0984,114.245h -7.22835" fill="none" stroke="black"/>
<path d="M87.0984,95.0232h -7.22835" fill="none" stroke="black"/>
<path d="M94.3268,75.8013h -14.4567" fill="none" stroke="black"/>
<path d="M94.3268,75.8013h -14.4567" fill="none" stroke="black"/>
<path d="M87.0984,56.5793h -7.22835" fill="none" stroke="black"/>
<path d="M87.0984,37.3574h -7.22835" fill="none" stroke="black"/>
<text xml:space="preserve" x="66.1344" y="467.051" fill="black" font-size="18.8468" font-family="Helvetica">0</text>
<text xml:space="preserve" x="66.1344" y="390.953" fill="black" font-size="18.8468" font-family="Helvetica">2</text>
<text xml:space="preserve" x="66.1344" y="313.904" fill="black" font-size="18.8468" font-family="Helvetica">4</text>
<text xml:space="preserve" x="66.1344" y="236.855" fill="black" font-size="18.8468" font-family="Helvetica">6</text>
<text xml:space="preserve" x="66.1344" y="159.806" fill="black" font-size="18.8468" font-family="Helvetica">8</text>
<text xml:space="preserve" x="55.671" y="82.7564" fill="black" font-size="18.8468" font-family="Helvetica">10</text>
<g transform="rotate(-90,22.3781,82.7564)">
<text xml:space="preserve" x="22.3781" y="82.7564" fill="black" font-size="18.8468" font-family="Helvetica">Events</text>
</g>
<path d="M539.083,460.24v -434.671" fill="none" stroke="black"/>
<path d="M524.626,460.24h 14.4567" fill="none" stroke="black"/>
<path d="M531.854,441.018h 7.22835" fill="none" stroke="black"/>
<path d="M531.854,421.796h 7.22835" fill="none" stroke="black"/>
<path d="M531.854,402.574h 7.22835" fill="none" stroke="black"/>
<path d="M524.626,383.352h 14.4567" fill="none" stroke="black"/>
<path d="M531.854,364.13h 7.22835" fill="none" stroke="black"/>
<path d="M531.854,344.908h 7.22835" fill="none" stroke="black"/>
<path d="M531.854,325.686h 7.22835" fill="none" stroke="black"/>
<path d="M524.626,306.464h 14.4567" fill="none" stroke="black"/>
<path d="M531.854,287.243h 7.22835" fill="none" stroke="black"/>
<path d="M531.854,268.021h 7.22835" fill="none" stroke="black"/>
<path d="M531.854,248.799h 7.22835" fill="none" stroke="black"/>
<path d="M524.626,229.577h 14.4567" fill="none" stroke="black"/>
<path d="M531.854,210.355h 7.22835" fill="none" stroke="black"/>
<path d="M531.854,191.133h 7.22835" fill="none" stroke="black"/>
<path d="M531.854,171.911h 7.22835" fill="none" stroke="black"/>
<path d="M524.626,152.689h 14.4567" fill="none" stroke="black"/>
<path d="M531.854,133.467h 7.22835" fill="none" stroke="black"/>
<path d="M531.854,114.245h 7.22835" fill="none" stroke="black"/>
<path d="M531.854,95.0232h 7.22835" fill="none" stroke="black"/>
<path d="M524.626,75.8013h 14.4567" fill="none" stroke="black"/>
<path d="M524.626,75.8013h 14.4567" fill="none" stroke="black"/>
<path d="M531.854,56.5793h 7.22835" fill="none" stroke="black"/>
<path d="M531.854,37.3574h 7.22835" fill="none" stroke="black"/>
<path d="M79.8701,460.24v -2.50237h 28.7008v -4.06103h 28.7008v -40.5861h 28.7008v -109.071h 28.7008v -17.5968h 28.7008v -57.7106h 28.7008v -9.95554h 28.7008v 53.0881h 28.7008v 80.4007h 28.7008v 40.1461h 28.7008v 8.31978h 28.7008v 21.594h 28.7008v
 20.7242h 28.7008v 10.9741h 28.7008v 4.14731h 28.7008v 1.75504h 28.7008v 0.334513z" fill="#ff0000"/>
<path d="M79.8701,457.738h 28.7008v -4.06103h 28.7008v -40.5861h 28.7008v -109.071h 28.7008v -17.5968h 28.7008v -57.7106h 28.7008v -9.95554h 28.7008v 53.0881h 28.7008v 80.4007h 28.7008v 40.1461h 28.7008v 8.31978h 28.7008v 21.594h 28.7008v 20.7242h
 28.7008v 10.9741h 28.7008v 4.14731h 28.7008v 1.75504h 28.7008" fill="none" stroke="#ff0000"/>
<path d="M79.8701,460.24v -2.50217h 28.7008v -4.06103h 28.7008v -40.5861h 28.7008v -109.071h 28.7008v -17.5968h 28.7008v -57.7081h 28.7008v -9.938h 28.7008v 53.2911h 28.7008v 80.8836h 28.7008v 41.3613h 28.7008v 10.4454h 28.7008v 23.9343h 28.7008v
 20.4734h 28.7008v 9.41039h 28.7008v 1.47984h 28.7008v 0.111523h 28.7008v 0.0729285z" fill="#fefefe"/>
<path d="M79.8701,457.738h 28.7008v -4.06103h 28.7008v -40.5861h 28.7008v -109.071h 28.7008v -17.5968h 28.7008v -57.7081h 28.7008v -9.938h 28.7008v 53.2911h 28.7008v 80.8836h 28.7008v 41.3613h 28.7008v 10.4454h 28.7008v 23.9343h 28.7008v 20.4734h
 28.7008v 9.41039h 28.7008v 1.47984h 28.7008v 0.111523h 28.7008" fill="none" stroke="black"/>
<path d="M79.8701,457.738h 28.7008v -4.06103h 28.7008v -40.5861h 28.7008v -109.071h 28.7008v -17.5968h 28.7008v -57.7081h 28.7008v -9.938h 28.7008v 53.2911h 28.7008v 80.8836h 28.7008v 41.3613h 28.7008v 10.4454h 28.7008v 23.9343h 28.7008v 20.4734h
 28.7008v 9.41039h 28.7008v 1.47984h 28.7008v 0.111523h 28.7008" fill="none" stroke="black"/>
<path d="M79.8701,460.24v -2.50217h 28.7008v -4.06103h 28.7008v -40.5861h 28.7008v -109.071h 28.7008v -17.5968h 28.7008v -57.7081h 28.7008v -9.938h 28.7008v 53.2911h 28.7008v 80.8836h 28.7008v 41.3613h 28.7008v 10.4454h 28.7008v 23.9343h 28.7008v
 20.4734h 28.7008v 9.41039h 28.7008v 1.47984h 28.7008v 0.111523h 28.7008v 0.0729285z" fill="#00ff00"/>
<path d="M79.8701,457.738h 28.7008v -4.06103h 28.7008v -40.5861h 28.7008v -109.071h 28.7008v -17.5968h 28.7008v -57.7081h 28.7008v -9.938h 28.7008v 53.2911h 28.7008v 80.8836h 28.7008v 41.3613h 28.7008v 10.4454h 28.7008v 23.9343h 28.7008v 20.4734h
 28.7008v 9.41039h 28.7008v 1.47984h 28.7008v 0.111523h 28.7008" fill="none" stroke="black"/>
<path d="M79.8701,460.24v -0.000173482h 28.7008v -0.70031h 28.7008v -4.67738h 28.7008v -48.0204h 28.7008v 24.7433h 28.7008v -54.6839h 28.7008v 8.99537h 28.7008v -3.88542h 28.7008v 1.30242h 28.7008v 11.8217h 28.7008v 17.2412h 28.7008v 16.3157h
 28.7008v 20.4734h 28.7008v 9.41039h 28.7008v 1.47984h 28.7008v 0.111523h 28.7008v 0.0728704z" fill="#fefefe"/>
<path d="M79.8701,460.24h 28.7008v -0.700483h 28.7008v -4.67738h 28.7008v -48.0204h 28.7008v 24.7433h 28.7008v -54.6839h 28.7008v 8.99537h 28.7008v -3.88542h 28.7008v 1.30242h 28.7008v 11.8217h 28.7008v 17.2412h 28.7008v 16.3157h 28.7008v 20.4734h
 28.7008v 9.41039h 28.7008v 1.47984h 28.7008v 0.111523h 28.7008" fill="none" stroke="black"/>
<path d="M79.8701,460.24h 28.7008v -0.700483h 28.7008v -4.67738h 28.7008v -48.0204h 28.7008v 24.7433h 28.7008v -54.6839h 28.7008v 8.99537h 28.7008v -3.88542h 28.7008v 1.30242h 28.7008v 11.8217h 28.7008v 17.2412h 28.7008v 16.3157h 28.7008v 20.4734h
 28.7008v 9.41039h 28.7008v 1.47984h 28.7008v 0.111523h 28.7008" fill="none" stroke="black"/>
<path d="M79.8701,460.24v -0.000173482h 28.7008v -0.70031h 28.7008v -4.67738h 28.7008v -48.0204h 28.7008v 24.7433h 28.7008v -54.6839h 28.7008v 8.99537h 28.7008v -3.88542h 28.7008v 1.30242h 28.7008v 11.8217h 28.7008v 17.2412h 28.7008v 16.3157h
 28.7008v 20.4734h 28.7008v 9.41039h 28.7008v 1.47984h 28.7008v 0.111523h 28.7008v 0.0728704z" fill="#0000ff"/>
<path d="M79.8701,460.24h 28.7008v -0.700483h 28.7008v -4.67738h 28.7008v -48.0204h 28.7008v 24.7433h 28.7008v -54.6839h 28.7008v 8.99537h 28.7008v -3.88542h 28.7008v 1.30242h 28.7008v 11.8217h 28.7008v 17.2412h 28.7008v 16.3157h 28.7008v 20.4734h
 28.7008v 9.41039h 28.7008v 1.47984h 28.7008v 0.111523h 28.7008" fill="none" stroke="black"/>
<path d="M79.8701,460.24v -0.000143276h 28.7008v -0.299079h 28.7008v -4.09507h 28.7008v -45.7056h 28.7008v 26.2206h 28.7008v -47.7509h 28.7008v 16.2582h 28.7008v -1.72256h 28.7008v 0.706701h 28.7008v 7.11925h 28.7008v 12.5748h 28.7008v 10.481h
 28.7008v 17.3529h 28.7008v 7.33829h 28.7008v 1.37777h 28.7008v 0.0709019h 28.7008v 0.0728402z" fill="#fefefe"/>
<path d="M79.8701,460.24h 28.7008v -0.299223h 28.7008v -4.09507h 28.7008v -45.7056h 28.7008v 26.2206h 28.7008v -47.7509h 28.7008v 16.2582h 28.7008v -1.72256h 28.7008v 0.706701h 28.7008v 7.11925h 28.7008v 12.5748h 28.7008v 10.481h 28.7008v 17.3529h
 28.7008v 7.33829h 28.7008v 1.37777h 28.7008v 0.0709019h 28.7008" fill="none" stroke="black"/>
<path d="M79.8701,460.24h 28.7008v -0.299223h 28.7008v -4.09507h 28.7008v -45.7056h 28.7008v 26.2206h 28.7008v -47.7509h 28.7008v 16.2582h 28.7008v -1.72256h 28.7008v 0.706701h 28.7008v 7.11925h 28.7008v 12.5748h 28.7008v 10.481h 28.7008v 17.3529h
 28.7008v 7.33829h 28.7008v 1.37777h 28.7008v 0.0709019h 28.7008" fill="none" stroke="black"/>
<path d="M79.8701,460.24v -0.000143276h 28.7008v -0.299079h 28.7008v -4.09507h 28.7008v -45.7056h 28.7008v 26.2206h 28.7008v -47.7509h 28.7008v 16.2582h 28.7008v -1.72256h 28.7008v 0.706701h 28.7008v 7.11925h 28.7008v 12.5748h 28.7008v 10.481h
 28.7008v 17.3529h 28.7008v 7.33829h 28.7008v 1.37777h 28.7008v 0.0709019h 28.7008v 0.0728402z" fill="#ffff00"/>
<path d="M79.8701,460.24h 28.7008v -0.299223h 28.7008v -4.09507h 28.7008v -45.7056h 28.7008v 26.2206h 28.7008v -47.7509h 28.7008v 16.2582h 28.7008v -1.72256h 28.7008v 0.706701h 28.7008v 7.11925h 28.7008v 12.5748h 28.7008v 10.481h 28.7008v 17.3529h
 28.7008v 7.33829h 28.7008v 1.37777h 28.7008v 0.0709019h 28.7008" fill="none" stroke="black"/>
<path d="M79.8701,460.24v -9.13223e-05h 28.7008v -0.138816h 28.7008v -0.927888h 28.7008v -41.9552h 28.7008v 33.9821h 28.7008v -40.8422h 28.7008v 23.9384h 28.7008v -0.817714h 28.7008v 0.114464h 28.7008v -1.15589h 28.7008v 3.12178h 28.7008v 5.9835h
 28.7008v 11.078h 28.7008v 6.09825h 28.7008v 1.37777h 28.7008v 0.0709019h 28.7008v 0.0727883z" fill="#fefefe"/>
<path d="M79.8701,460.24h 28.7008v -0.138908h 28.7008v -0.927888h 28.7008v -41.9552h 28.7008v 33.9821h 28.7008v -40.8422h 28.7008v 23.9384h 28.7008v -0.817714h 28.7008v 0.114464h 28.7008v -1.15589h 28.7008v 3.12178h 28.7008v 5.9835h 28.7008v 11.078h
 28.7008v 6.09825h 28.7008v 1.37777h 28.7008v 0.0709019h 28.7008" fill="none" stroke="black"/>
<path d="M79.8701,460.24h 28.7008v -0.138908h 28.7008v -0.927888h 28.7008v -41.9552h 28.7008v 33.9821h 28.7008v -40.8422h 28.7008v 23.9384h 28.7008v -0.817714h 28.7008v 0.114464h 28.7008v -1.15589h 28.7008v 3.12178h 28.7008v 5.9835h 28.7008v 11.078h
 28.7008v 6.09825h 28.7008v 1.37777h 28.7008v 0.0709019h 28.7008" fill="none" stroke="black"/>
<path d="M79.8701,460.24v -9.13223e-05h 28.7008v -0.138816h 28.7008v -0.927888h 28.7008v -41.9552h 28.7008v 33.9821h 28.7008v -40.8422h 28.7008v 23.9384h 28.7008v -0.817714h 28.7008v 0.114464h 28.7008v -1.15589h 28.7008v 3.12178h 28.7008v 5.9835h
 28.7008v 11.078h 28.7008v 6.09825h 28.7008v 1.37777h 28.7008v 0.0709019h 28.7008v 0.0727883z" fill="#00ffff"/>
<path d="M79.8701,460.24h 28.7008v -0.138908h 28.7008v -0.927888h 28.7008v -41.9552h 28.7008v 33.9821h 28.7008v -40.8422h 28.7008v 23.9384h 28.7008v -0.817714h 28.7008v 0.114464h 28.7008v -1.15589h 28.7008v 3.12178h 28.7008v 5.9835h 28.7008v 11.078h
 28.7008v 6.09825h 28.7008v 1.37777h 28.7008v 0.0709019h 28.7008" fill="none" stroke="black"/>
<path d="M79.8701,460.24v -4.94223e-05h 86.1024v -40.4023h 28.7008v 35.7446h 28.7008v -4.56353h 28.7008v -7.54511h 28.7008v 3.6672h 28.7008v 6.07355h 28.7008v 0.688037h 28.7008v 6.10238h 28.7008v -0.355293h 28.7008v 0.590417h 114.803v 4.94223e-05z"
 fill="#fefefe"/>
<path d="M79.8701,460.24h 86.1024v -40.4023h 28.7008v 35.7446h 28.7008v -4.56353h 28.7008v -7.54511h 28.7008v 3.6672h 28.7008v 6.07355h 28.7008v 0.688037h 28.7008v 6.10238h 28.7008v -0.355293h 28.7008v 0.590466h 114.803" fill="none" stroke="black"/>
<path d="M79.8701,460.24h 86.1024v -40.4023h 28.7008v 35.7446h 28.7008v -4.56353h 28.7008v -7.54511h 28.7008v 3.6672h 28.7008v 6.07355h 28.7008v 0.688037h 28.7008v 6.10238h 28.7008v -0.355293h 28.7008v 0.590466h 114.803" fill="none" stroke="black"/>
<path d="M79.8701,460.24v -4.94223e-05h 86.1024v -40.4023h 28.7008v 35.7446h 28.7008v -4.56353h 28.7008v -7.54511h 28.7008v 3.6672h 28.7008v 6.07355h 28.7008v 0.688037h 28.7008v 6.10238h 28.7008v -0.355293h 28.7008v 0.590417h 114.803v 4.94223e-05z"
 fill="#59d354"/>
<path d="M79.8701,460.24h 86.1024v -40.4023h 28.7008v 35.7446h 28.7008v -4.56353h 28.7008v -7.54511h 28.7008v 3.6672h 28.7008v 6.07355h 28.7008v 0.688037h 28.7008v 6.10238h 28.7008v -0.355293h 28.7008v 0.590466h 114.803" fill="none" stroke="black"/>
<path d="M79.8701,460.24v -1.92243e-05h 86.1024v -40.4023h 28.7008v 35.7869h 28.7008v -4.60098h 28.7008v -7.5076h 28.7008v 3.62493h 28.7008v 6.07355h 28.7008v 0.713747h 28.7008v 6.07667h 28.7008v -0.355293h 28.7008v 0.590417h 114.803v 1.92243e-05z"
 fill="#fefefe"/>
<path d="M79.8701,460.24h 86.1024v -40.4023h 28.7008v 35.7869h 28.7008v -4.60098h 28.7008v -7.5076h 28.7008v 3.62493h 28.7008v 6.07355h 28.7008v 0.713747h 28.7008v 6.07667h 28.7008v -0.355293h 28.7008v 0.590436h 114.803" fill="none" stroke="black"/>
<path d="M79.8701,460.24h 86.1024v -40.4023h 28.7008v 35.7869h 28.7008v -4.60098h 28.7008v -7.5076h 28.7008v 3.62493h 28.7008v 6.07355h 28.7008v 0.713747h 28.7008v 6.07667h 28.7008v -0.355293h 28.7008v 0.590436h 114.803" fill="none" stroke="black"/>
<path d="M79.8701,460.24v -1.92243e-05h 86.1024v -40.4023h 28.7008v 35.7869h 28.7008v -4.60098h 28.7008v -7.5076h 28.7008v 3.62493h 28.7008v 6.07355h 28.7008v 0.713747h 28.7008v 6.07667h 28.7008v -0.355293h 28.7008v 0.590417h 114.803v 1.92243e-05z"
 fill="#5954d8"/>
<path d="M79.8701,460.24h 86.1024v -40.4023h 28.7008v 35.7869h 28.7008v -4.60098h 28.7008v -7.5076h 28.7008v 3.62493h 28.7008v 6.07355h 28.7008v 0.713747h 28.7008v 6.07667h 28.7008v -0.355293h 28.7008v 0.590436h 114.803" fill="none" stroke="black"/>
<path d="M107.222,455.208l -5.03573, 5.03198" fill="none" stroke="#6666ff"/>
<path d="M100.007,455.208l -5.03573, 5.03198" fill="none" stroke="#6666ff"/>
<path d="M92.7907,455.208l -5.03573, 5.03198" fill="none" stroke="#6666ff"/>
<path d="M85.5749,455.208l -5.03573, 5.03198" fill="none" stroke="#6666ff"/>
<path d="M137.272,454.023l -3.2321, 3.2297" fill="none" stroke="#6666ff"/>
<path d="M133.981,450.1l -7.15735, 7.15203" fill="none" stroke="#6666ff"/>
<path d="M126.765,450.1l -7.15735, 7.15203" fill="none" stroke="#6666ff"/>
<path d="M119.549,450.1l -7.15735, 7.15203" fill="none" stroke="#6666ff"/>
<path d="M112.334,450.1l -3.76272, 3.75992" fill="none" stroke="#6666ff"/>
<path d="M165.972,418.133l -6.70875, 6.70376" fill="none" stroke="#6666ff"/>
<path d="M165.972,410.922l -13.9246, 13.9142" fill="none" stroke="#6666ff"/>
<path d="M165.972,403.712l -21.1404, 21.1247" fill="none" stroke="#6666ff"/>
<path d="M161.126,401.344l -23.51, 23.4925" fill="none" stroke="#6666ff"/>
<path d="M153.91,401.344l -16.6387, 16.6263" fill="none" stroke="#6666ff"/>
<path d="M146.695,401.344l -9.42287, 9.41586" fill="none" stroke="#6666ff"/>
<path d="M139.479,401.344l -2.20704, 2.2054" fill="none" stroke="#6666ff"/>
<path d="M194.673,338.98l -1.19635, 1.19546" fill="none" stroke="#6666ff"/>
<path d="M194.673,331.77l -8.41218, 8.40592" fill="none" stroke="#6666ff"/>
<path d="M194.673,324.559l -15.628, 15.6164" fill="none" stroke="#6666ff"/>
<path d="M194.673,317.349l -22.8438, 22.8269" fill="none" stroke="#6666ff"/>
<path d="M194.673,310.138l -28.7008, 28.6794" fill="none" stroke="#6666ff"/>
<path d="M194.673,302.928l -28.7008, 28.6794" fill="none" stroke="#6666ff"/>
<path d="M194.673,295.717l -28.7008, 28.6794" fill="none" stroke="#6666ff"/>
<path d="M194.673,288.507l -28.7008, 28.6794" fill="none" stroke="#6666ff"/>
<path d="M194.673,281.297l -28.7008, 28.6794" fill="none" stroke="#6666ff"/>
<path d="M194.673,274.086l -28.7008, 28.6794" fill="none" stroke="#6666ff"/>
<path d="M193.686,267.862l -27.7133, 27.6927" fill="none" stroke="#6666ff"/>
<path d="M186.47,267.862l -20.4975, 20.4823" fill="none" stroke="#6666ff"/>
<path d="M179.254,267.862l -13.2817, 13.2718" fill="none" stroke="#6666ff"/>
<path d="M172.038,267.862l -6.06585, 6.06134" fill="none" stroke="#6666ff"/>
<path d="M223.374,310.301l -4.5338, 4.53042" fill="none" stroke="#6666ff"/>
<path d="M223.374,303.09l -11.7496, 11.7409" fill="none" stroke="#6666ff"/>
<path d="M223.374,295.88l -18.9655, 18.9514" fill="none" stroke="#6666ff"/>
<path d="M223.374,288.669l -26.1813, 26.1618" fill="none" stroke="#6666ff"/>
<path d="M223.374,281.459l -28.7008, 28.6794" fill="none" stroke="#6666ff"/>
<path d="M223.374,274.248l -28.7008, 28.6794" fill="none" stroke="#6666ff"/>
<path d="M223.374,267.038l -28.7008, 28.6794" fill="none" stroke="#6666ff"/>
<path d="M223.374,259.828l -28.7008, 28.6794" fill="none" stroke="#6666ff"/>
<path d="M217.974,258.013l -23.3008, 23.2834" fill="none" stroke="#6666ff"/>
<path d="M210.758,258.013l -16.0849, 16.073" fill="none" stroke="#6666ff"/>
<path d="M203.542,258.013l -8.86909, 8.8625" fill="none" stroke="#6666ff"/>
<path d="M196.326,258.013l -1.65326, 1.65203" fill="none" stroke="#6666ff"/>
<path d="M252.075,267.2l -7.00569, 7.00048" fill="none" stroke="#6666ff"/>
<path d="M252.075,259.99l -14.2215, 14.2109" fill="none" stroke="#6666ff"/>
<path d="M252.075,252.779l -21.4374, 21.4214" fill="none" stroke="#6666ff"/>
<path d="M252.075,245.569l -28.6532, 28.6319" fill="none" stroke="#6666ff"/>
<path d="M252.075,238.359l -28.7008, 28.6794" fill="none" stroke="#6666ff"/>
<path d="M252.075,231.148l -28.7008, 28.6794" fill="none" stroke="#6666ff"/>
<path d="M252.075,223.938l -28.7008, 28.6794" fill="none" stroke="#6666ff"/>
<path d="M252.075,216.727l -28.7008, 28.6794" fill="none" stroke="#6666ff"/>
<path d="M252.075,209.517l -28.7008, 28.6794" fill="none" stroke="#6666ff"/>
<path d="M252.075,202.306l -28.7008, 28.6794" fill="none" stroke="#6666ff"/>
<path d="M252.075,195.096l -28.7008, 28.6794" fill="none" stroke="#6666ff"/>
<path d="M252.075,187.885l -28.7008, 28.6794" fill="none" stroke="#6666ff"/>
<path d="M249.525,183.222l -26.1515, 26.132" fill="none" stroke="#6666ff"/>
<path d="M242.31,183.222l -18.9356, 18.9216" fill="none" stroke="#6666ff"/>
<path d="M235.094,183.222l -11.7198, 11.7111" fill="none" stroke="#6666ff"/>
<path d="M227.878,183.222l -4.50399, 4.50064" fill="none" stroke="#6666ff"/>
<path d="M280.776,245.731l -4.99074, 4.98703" fill="none" stroke="#6666ff"/>
<path d="M280.776,238.521l -12.2066, 12.1975" fill="none" stroke="#6666ff"/>
<path d="M280.776,231.31l -19.4224, 19.408" fill="none" stroke="#6666ff"/>
<path d="M280.776,224.1l -26.6382, 26.6184" fill="none" stroke="#6666ff"/>
<path d="M280.776,216.89l -28.7008, 28.6794" fill="none" stroke="#6666ff"/>
<path d="M280.776,209.679l -28.7008, 28.6794" fill="none" stroke="#6666ff"/>
<path d="M280.776,202.469l -28.7008, 28.6794" fill="none" stroke="#6666ff"/>
<path d="M280.776,195.258l -28.7008, 28.6794" fill="none" stroke="#6666ff"/>
<path d="M280.776,188.048l -28.7008, 28.6794" fill="none" stroke="#6666ff"/>
<path d="M274.815,186.794l -22.74, 22.7231" fill="none" stroke="#6666ff"/>
<path d="M267.599,186.794l -15.5242, 15.5126" fill="none" stroke="#6666ff"/>
<path d="M260.383,186.794l -8.30834, 8.30217" fill="none" stroke="#6666ff"/>
<path d="M253.167,186.794l -1.09252, 1.0917" fill="none" stroke="#6666ff"/>
<path d="M309.476,289.157l -6.41237, 6.40761" fill="none" stroke="#6666ff"/>
<path d="M309.476,281.946l -13.6282, 13.6181" fill="none" stroke="#6666ff"/>
<path d="M309.476,274.736l -20.844, 20.8285" fill="none" stroke="#6666ff"/>
<path d="M309.476,267.525l -28.0599, 28.039" fill="none" stroke="#6666ff"/>
<path d="M309.476,260.315l -28.7008, 28.6794" fill="none" stroke="#6666ff"/>
<path d="M309.476,253.104l -28.7008, 28.6794" fill="none" stroke="#6666ff"/>
<path d="M307.245,248.124l -26.4689, 26.4492" fill="none" stroke="#6666ff"/>
<path d="M300.029,248.124l -19.2531, 19.2388" fill="none" stroke="#6666ff"/>
<path d="M292.813,248.124l -12.0372, 12.0283" fill="none" stroke="#6666ff"/>
<path d="M285.597,248.124l -4.82142, 4.81783" fill="none" stroke="#6666ff"/>
<path d="M338.177,361.424l -3.41859, 3.41605" fill="none" stroke="#6666ff"/>
<path d="M338.177,354.213l -10.6344, 10.6265" fill="none" stroke="#6666ff"/>
<path d="M338.177,347.003l -17.8503, 17.837" fill="none" stroke="#6666ff"/>
<path d="M338.177,339.792l -25.0661, 25.0474" fill="none" stroke="#6666ff"/>
<path d="M331.104,339.65l -21.6274, 21.6113" fill="none" stroke="#6666ff"/>
<path d="M323.888,339.65l -14.4116, 14.4009" fill="none" stroke="#6666ff"/>
<path d="M316.672,339.65l -7.19574, 7.19039" fill="none" stroke="#6666ff"/>
<path d="M366.878,397.638l -4.41797, 4.41469" fill="none" stroke="#6666ff"/>
<path d="M366.878,390.428l -11.6338, 11.6252" fill="none" stroke="#6666ff"/>
<path d="M366.878,383.217l -18.8496, 18.8356" fill="none" stroke="#6666ff"/>
<path d="M360.151,382.729l -19.3387, 19.3243" fill="none" stroke="#6666ff"/>
<path d="M352.935,382.729l -14.7582, 14.7472" fill="none" stroke="#6666ff"/>
<path d="M345.719,382.729l -7.54232, 7.53672" fill="none" stroke="#6666ff"/>
<path d="M338.504,382.729l -0.326494, 0.326251" fill="none" stroke="#6666ff"/>
<path d="M395.579,412.222l -1.71603, 1.71476" fill="none" stroke="#6666ff"/>
<path d="M395.579,405.011l -8.93186, 8.92522" fill="none" stroke="#6666ff"/>
<path d="M395.579,397.801l -16.1477, 16.1357" fill="none" stroke="#6666ff"/>
<path d="M395.579,390.59l -23.3635, 23.3462" fill="none" stroke="#6666ff"/>
<path d="M391.471,387.485l -24.5926, 24.5744" fill="none" stroke="#6666ff"/>
<path d="M384.255,387.485l -17.3768, 17.3639" fill="none" stroke="#6666ff"/>
<path d="M377.039,387.485l -10.161, 10.1534" fill="none" stroke="#6666ff"/>
<path d="M369.823,387.485l -2.94516, 2.94297" fill="none" stroke="#6666ff"/>
<path d="M424.28,434.016l -6.49685, 6.49202" fill="none" stroke="#6666ff"/>
<path d="M424.28,426.805l -13.7127, 13.7025" fill="none" stroke="#6666ff"/>
<path d="M424.28,419.595l -20.9285, 20.9129" fill="none" stroke="#6666ff"/>
<path d="M424.28,412.384l -28.1443, 28.1234" fill="none" stroke="#6666ff"/>
<path d="M424.28,405.174l -28.7008, 28.6794" fill="none" stroke="#6666ff"/>
<path d="M418.136,404.102l -22.5575, 22.5408" fill="none" stroke="#6666ff"/>
<path d="M410.92,404.102l -15.3417, 15.3303" fill="none" stroke="#6666ff"/>
<path d="M403.705,404.102l -8.12588, 8.11984" fill="none" stroke="#6666ff"/>
<path d="M396.489,404.102l -0.910053, 0.909377" fill="none" stroke="#6666ff"/>
<path d="M452.98,455.809l -4.43385, 4.43056" fill="none" stroke="#6666ff"/>
<path d="M452.98,448.599l -11.6497, 11.641" fill="none" stroke="#6666ff"/>
<path d="M452.98,441.388l -18.8655, 18.8515" fill="none" stroke="#6666ff"/>
<path d="M452.98,434.178l -26.0813, 26.062" fill="none" stroke="#6666ff"/>
<path d="M452.98,426.967l -28.7008, 28.6794" fill="none" stroke="#6666ff"/>
<path d="M447.053,425.679l -22.7739, 22.757" fill="none" stroke="#6666ff"/>
<path d="M439.838,425.679l -15.5581, 15.5465" fill="none" stroke="#6666ff"/>
<path d="M432.622,425.679l -8.34228, 8.33608" fill="none" stroke="#6666ff"/>
<path d="M425.406,425.679l -1.12645, 1.12562" fill="none" stroke="#6666ff"/>
<path d="M481.681,455.972l -4.27132, 4.26815" fill="none" stroke="#6666ff"/>
<path d="M481.681,448.761l -11.4872, 11.4786" fill="none" stroke="#6666ff"/>
<path d="M481.681,441.551l -18.703, 18.6891" fill="none" stroke="#6666ff"/>
<path d="M475.021,440.995l -19.2591, 19.2448" fill="none" stroke="#6666ff"/>
<path d="M467.806,440.995l -14.8253, 14.8143" fill="none" stroke="#6666ff"/>
<path d="M460.59,440.995l -7.60944, 7.60379" fill="none" stroke="#6666ff"/>
<path d="M453.374,440.995l -0.393614, 0.393321" fill="none" stroke="#6666ff"/>
<path d="M510.382,456.134l -4.10879, 4.10573" fill="none" stroke="#6666ff"/>
<path d="M506.592,452.71l -7.53521, 7.5296" fill="none" stroke="#6666ff"/>
<path d="M499.377,452.71l -7.53521, 7.5296" fill="none" stroke="#6666ff"/>
<path d="M492.161,452.71l -7.53521, 7.5296" fill="none" stroke="#6666ff"/>
<path d="M484.945,452.71l -3.26388, 3.26146" fill="none" stroke="#6666ff"/>
<path d="M536.653,458.725l -1.51623, 1.5151" fill="none" stroke="#6666ff"/>
<path d="M529.437,458.725l -1.51623, 1.5151" fill="none" stroke="#6666ff"/>
<path d="M522.221,458.725l -1.51623, 1.5151" fill="none" stroke="#6666ff"/>
<path d="M515.005,458.725l -1.51623, 1.5151" fill="none" stroke="#6666ff"/>
<path d="M79.8701,460.24h 143.504v -0.13569h 28.7008v -0.902823h 28.7008v -10.4397h 28.7008v -24.839h 28.7008v -62.5066h 28.7008v -109.339h 28.7008v -120.38h 28.7008v 12.9045h 28.7008v 80.4333h 28.7008v 137.21h 28.7008v 84.5395h 28.7008" fill="none"
 stroke="#ff0000" stroke-width="2" stroke-dasharray=" 3, 3"/>
<path d="M79.8701,460.24h 459.213" fill="none" stroke="black"/>
<path d="M79.8701,447.813v 12.4265" fill="none" stroke="black"/>
<path d="M89.0543,454.027v 6.21324" fill="none" stroke="black"/>
<path d="M98.2386,454.027v 6.21324" fill="none" stroke="black"/>
<path d="M107.423,454.027v 6.21324" fill="none" stroke="black"/>
<path d="M116.607,454.027v 6.21324" fill="none" stroke="black"/>
<path d="M125.791,447.813v 12.4265" fill="none" stroke="black"/>
<path d="M134.976,454.027v 6.21324" fill="none" stroke="black"/>
<path d="M144.16,454.027v 6.21324" fill="none" stroke="black"/>
<path d="M153.344,454.027v 6.21324" fill="none" stroke="black"/>
<path d="M162.528,454.027v 6.21324" fill="none" stroke="black"/>
<path d="M171.713,447.813v 12.4265" fill="none" stroke="black"/>
<path d="M180.897,454.027v 6.21324" fill="none" stroke="black"/>
<path d="M190.081,454.027v 6.21324" fill="none" stroke="black"/>
<path d="M199.265,454.027v 6.21324" fill="none" stroke="black"/>
<path d="M208.45,454.027v 6.21324" fill="none" stroke="black"/>
<path d="M217.634,447.813v 12.4265" fill="none" stroke="black"/>
<path d="M226.818,454.027v 6.21324" fill="none" stroke="black"/>
<path d="M236.002,454.027v 6.21324" fill="none" stroke="black"/>
<path d="M245.187,454.027v 6.21324" fill="none" stroke="black"/>
<path d="M254.371,454.027v 6.21324" fill="none" stroke="black"/>
<path d="M263.555,447.813v 12.4265" fill="none" stroke="black"/>
<path d="M272.739,454.027v 6.21324" fill="none" stroke="black"/>
<path d="M281.924,454.027v 6.21324" fill="none" stroke="black"/>
<path d="M291.108,454.027v 6.21324" fill="none" stroke="black"/>
<path d="M300.292,454.027v 6.21324" fill="none" stroke="black"/>
<path d="M309.476,447.813v 12.4265" fill="none" stroke="black"/>
<path d="M318.661,454.027v 6.21324" fill="none" stroke="black"/>
<path d="M327.845,454.027v 6.21324" fill="none" stroke="black"/>
<path d="M337.029,454.027v 6.21324" fill="none" stroke="black"/>
<path d="M346.213,454.027v 6.21324" fill="none" stroke="black"/>
<path d="M355.398,447.813v 12.4265" fill="none" stroke="black"/>
<path d="M364.582,454.027v 6.21324" fill="none" stroke="black"/>
<path d="M373.766,454.027v 6.21324" fill="none" stroke="black"/>
<path d="M382.95,454.027v 6.21324" fill="none" stroke="black"/>
<path d="M392.135,454.027v 6.21324" fill="none" stroke="black"/>
<path d="M401.319,447.813v 12.4265" fill="none" stroke="black"/>
<path d="M410.503,454.027v 6.21324" fill="none" stroke="black"/>
<path d="M419.687,454.027v 6.21324" fill="none" stroke="black"/>
<path d="M428.872,454.027v 6.21324" fill="none" stroke="black"/>
<path d="M438.056,454.027v 6.21324" fill="none" stroke="black"/>
<path d="M447.24,447.813v 12.4265" fill="none" stroke="black"/>
<path d="M456.424,454.027v 6.21324" fill="none" stroke="black"/>
<path d="M465.609,454.027v 6.21324" fill="none" stroke="black"/>
<path d="M474.793,454.027v 6.21324" fill="none" stroke="black"/>
<path d="M483.977,454.027v 6.21324" fill="none" stroke="black"/>
<path d="M493.161,447.813v 12.4265" fill="none" stroke="black"/>
<path d="M502.346,454.027v 6.21324" fill="none" stroke="black"/>
<path d="M511.53,454.027v 6.21324" fill="none" stroke="black"/>
<path d="M520.714,454.027v 6.21324" fill="none" stroke="black"/>
<path d="M529.898,454.027v 6.21324" fill="none" stroke="black"/>
<path d="M539.083,447.813v 12.4265" fill="none" stroke="black"/>
<path d="M79.8701,447.813v 12.4265" fill="none" stroke="black"/>
<path d="M79.8701,25.5689h 459.213" fill="none" stroke="black"/>
<path d="M79.8701,37.9954v -12.4265" fill="none" stroke="black"/>
<path d="M89.0543,31.7821v -6.21324" fill="none" stroke="black"/>
<path d="M98.2386,31.7821v -6.21324" fill="none" stroke="black"/>
<path d="M107.423,31.7821v -6.21324" fill="none" stroke="black"/>
<path d="M116.607,31.7821v -6.21324" fill="none" stroke="black"/>
<path d="M125.791,37.9954v -12.4265" fill="none" stroke="black"/>
<path d="M134.976,31.7821v -6.21324" fill="none" stroke="black"/>
<path d="M144.16,31.7821v -6.21324" fill="none" stroke="black"/>
<path d="M153.344,31.7821v -6.21324" fill="none" stroke="black"/>
<path d="M162.528,31.7821v -6.21324" fill="none" stroke="black"/>
<path d="M171.713,37.9954v -12.4265" fill="none" stroke="black"/>
<path d="M180.897,31.7821v -6.21324" fill="none" stroke="black"/>
<path d="M190.081,31.7821v -6.21324" fill="none" stroke="black"/>
<path d="M199.265,31.7821v -6.21324" fill="none" stroke="black"/>
<path d="M208.45,31.7821v -6.21324" fill="none" stroke="black"/>
<path d="M217.634,37.9954v -12.4265" fill="none" stroke="black"/>
<path d="M226.818,31.7821v -6.21324" fill="none" stroke="black"/>
<path d="M236.002,31.7821v -6.21324" fill="none" stroke="black"/>
<path d="M245.187,31.7821v -6.21324" fill="none" stroke="black"/>
<path d="M254.371,31.7821v -6.21324" fill="none" stroke="black"/>
<path d="M263.555,37.9954v -12.4265" fill="none" stroke="black"/>
<path d="M272.739,31.7821v -6.21324" fill="none" stroke="black"/>
<path d="M281.924,31.7821v -6.21324" fill="none" stroke="black"/>
<path d="M291.108,31.7821v -6.21324" fill="none" stroke="black"/>
<path d="M300.292,31.7821v -6.21324" fill="none" stroke="black"/>
<path d="M309.476,37.9954v -12.4265" fill="none" stroke="black"/>
<path d="M318.661,31.7821v -6.21324" fill="none" stroke="black"/>
<path d="M327.845,31.7821v -6.21324" fill="none" stroke="black"/>
<path d="M337.029,31.7821v -6.21324" fill="none" stroke="black"/>
<path d="M346.213,31.7821v -6.21324" fill="none" stroke="black"/>
<path d="M355.398,37.9954v -12.4265" fill="none" stroke="black"/>
<path d="M364.582,31.7821v -6.21324" fill="none" stroke="black"/>
<path d="M373.766,31.7821v -6.21324" fill="none" stroke="black"/>
<path d="M382.95,31.7821v -6.21324" fill="none" stroke="black"/>
<path d="M392.135,31.7821v -6.21324" fill="none" stroke="black"/>
<path d="M401.319,37.9954v -12.4265" fill="none" stroke="black"/>
<path d="M410.503,31.7821v -6.21324" fill="none" stroke="black"/>
<path d="M419.687,31.7821v -6.21324" fill="none" stroke="black"/>
<path d="M428.872,31.7821v -6.21324" fill="none" stroke="black"/>
<path d="M438.056,31.7821v -6.21324" fill="none" stroke="black"/>
<path d="M447.24,37.9954v -12.4265" fill="none" stroke="black"/>
<path d="M456.424,31.7821v -6.21324" fill="none" stroke="black"/>
<path d="M465.609,31.7821v -6.21324" fill="none" stroke="black"/>
<path d="M474.793,31.7821v -6.21324" fill="none" stroke="black"/>
<path d="M483.977,31.7821v -6.21324" fill="none" stroke="black"/>
<path d="M493.161,37.9954v -12.4265" fill="none" stroke="black"/>
<path d="M502.346,31.7821v -6.21324" fill="none" stroke="black"/>
<path d="M511.53,31.7821v -6.21324" fill="none" stroke="black"/>
<path d="M520.714,31.7821v -6.21324" fill="none" stroke="black"/>
<path d="M529.898,31.7821v -6.21324" fill="none" stroke="black"/>
<path d="M539.083,37.9954v -12.4265" fill="none" stroke="black"/>
<path d="M79.8701,37.9954v -12.4265" fill="none" stroke="black"/>
<path d="M79.8701,460.24v -434.671" fill="none" stroke="black"/>
<path d="M94.3268,460.24h -14.4567" fill="none" stroke="black"/>
<path d="M87.0984,441.018h -7.22835" fill="none" stroke="black"/>
<path d="M87.0984,421.796h -7.22835" fill="none" stroke="black"/>
<path d="M87.0984,402.574h -7.22835" fill="none" stroke="black"/>
<path d="M94.3268,383.352h -14.4567" fill="none" stroke="black"/>
<path d="M87.0984,364.13h -7.22835" fill="none" stroke="black"/>
<path d="M87.0984,344.908h -7.22835" fill="none" stroke="black"/>
<path d="M87.0984,325.686h -7.22835" fill="none" stroke="black"/>
<path d="M94.3268,306.464h -14.4567" fill="none" stroke="black"/>
<path d="M87.0984,287.243h -7.22835" fill="none" stroke="black"/>
<path d="M87.0984,268.021h -7.22835" fill="none" stroke="black"/>
<path d="M87.0984,248.799h -7.22835" fill="none" stroke="black"/>
<path d="M94.3268,229.577h -14.4567" fill="none" stroke="black"/>
<path d="M87.0984,210.355h -7.22835" fill="none" stroke="black"/>
<path d="M87.0984,191.133h -7.22835" fill="none" stroke="black"/>
<path d="M87.0984,171.911h -7.22835" fill="none" stroke="black"/>
<path d="M94.3268,152.689h -14.4567" fill="none" stroke="black"/>
<path d="M87.0984,133.467h -7.22835" fill="none" stroke="black"/>
<path d="M87.0984,114.245h -7.22835" fill="none" stroke="black"/>
<path d="M87.0984,95.0232h -7.22835" fill="none" stroke="black"/>
<path d="M94.3268,75.8013h -14.4567" fill="none" stroke="black"/>
<path d="M94.3268,75.8013h -14.4567" fill="none" stroke="black"/>
<path d="M87.0984,56.5793h -7.22835" fill="none" stroke="black"/>
<path d="M87.0984,37.3574h -7.22835" fill="none" stroke="black"/>
<path d="M539.083,460.24v -434.671" fill="none" stroke="black"/>
<path d="M524.626,460.24h 14.4567" fill="none" stroke="black"/>
<path d="M531.854,441.018h 7.22835" fill="none" stroke="black"/>
<path d="M531.854,421.796h 7.22835" fill="none" stroke="black"/>
<path d="M531.854,402.574h 7.22835" fill="none" stroke="black"/>
<path d="M524.626,383.352h 14.4567" fill="none" stroke="black"/>
<path d="M531.854,364.13h 7.22835" fill="none" stroke="black"/>
<path d="M531.854,344.908h 7.22835" fill="none" stroke="black"/>
<path d="M531.854,325.686h 7.22835" fill="none" stroke="black"/>
<path d="M524.626,306.464h 14.4567" fill="none" stroke="black"/>
<path d="M531.854,287.243h 7.22835" fill="none" stroke="black"/>
<path d="M531.854,268.021h 7.22835" fill="none" stroke="black"/>
<path d="M531.854,248.799h 7.22835" fill="none" stroke="black"/>
<path d="M524.626,229.577h 14.4567" fill="none" stroke="black"/>
<path d="M531.854,210.355h 7.22835" fill="none" stroke="black"/>
<path d="M531.854,191.133h 7.22835" fill="none" stroke="black"/>
<path d="M531.854,171.911h 7.22835" fill="none" stroke="black"/>
<path d="M524.626,152.689h 14.4567" fill="none" stroke="black"/>
<path d="M531.854,133.467h 7.22835" fill="none" stroke="black"/>
<path d="M531.854,114.245h 7.22835" fill="none" stroke="black"/>
<path d="M531.854,95.0232h 7.22835" fill="none" stroke="black"/>
<path d="M524.626,75.8013h 14.4567" fill="none" stroke="black"/>
<path d="M524.626,75.8013h 14.4567" fill="none" stroke="black"/>
<path d="M531.854,56.5793h 7.22835" fill="none" stroke="black"/>
<path d="M531.854,37.3574h 7.22835" fill="none" stroke="black"/>
<text xml:space="preserve" x="103.232" y="59.9271" fill="black" font-size="18.8468" font-family="Helvetica" font-weight="bold" font-style="oblique">ATLAS</text>
<text xml:space="preserve" x="210.72" y="59.9271" fill="black" font-size="18.8468" font-family="Helvetica">Internal</text>
<text xml:space="preserve" x="268.745" y="77.0491" fill="black" font-size="12.7312" font-family="Helvetica">-1</text>
<text xml:space="preserve" x="122.257" y="85.6101" fill="black" font-size="18.8468" font-family="Helvetica"> = 13 TeV, 139 fb</text>
<text xml:space="preserve" x="112.744" y="85.6101" fill="black" font-size="18.8468" font-family="Helvetica">s</text>
<path d="M107.037,75.1466l 1.90245, 11.4147" fill="none" stroke="black"/>
<path d="M108.939,86.5613l 1.90245, -17.122" fill="none" stroke="black"/>
<path d="M110.842,69.4393h 11.4147" fill="none" stroke="black"/>
<text xml:space="preserve" x="103.232" y="111.293" fill="black" font-size="18.8468" font-family="Helvetica">bb4l_CR Fit</text>
<text xml:space="preserve" x="103.232" y="136.976" fill="black" font-size="18.8468" font-family="Helvetica">Signal Region</text>
<text xml:space="preserve" x="103.232" y="162.659" fill="black" font-size="18.8468" font-family="Helvetica">Post-Fit</text>
<text xml:space="preserve" x="362.916" y="60.8783" fill="black" font-size="18.8468" font-family="Helvetica">Signal</text>
<path d="M286.582,64.3484h 21.0943v -17.8982h -21.0943z" fill="#ff0000"/>
<path d="M286.582,46.4501h 21.0943" fill="none" stroke="#ff0000"/>
<path d="M286.582,64.3484h 21.0943" fill="none" stroke="#ff0000"/>
<path d="M307.677,64.3484v -17.8982" fill="none" stroke="#ff0000"/>
<path d="M286.582,64.3484v -17.8982" fill="none" stroke="#ff0000"/>
<text xml:space="preserve" x="409.526" y="86.5613" fill="black" font-size="18.8468" font-family="Helvetica">t</text>
<path d="M409.526,71.3418h 5.70734" fill="none" stroke="black" stroke-width="2"/>
<text xml:space="preserve" x="403.819" y="86.5613" fill="black" font-size="18.8468" font-family="Helvetica">t</text>
<path d="M286.582,89.9172h 21.0943v -17.8982h -21.0943z" fill="#00ff00"/>
<path d="M286.582,72.019h 21.0943" fill="none" stroke="black"/>
<path d="M286.582,89.9172h 21.0943" fill="none" stroke="black"/>
<path d="M307.677,89.9172v -17.8982" fill="none" stroke="black"/>
<path d="M286.582,89.9172v -17.8982" fill="none" stroke="black"/>
<text xml:space="preserve" x="389.55" y="112.244" fill="black" font-size="18.8468" font-family="Helvetica">VV</text>
<path d="M286.582,115.486h 21.0943v -17.8982h -21.0943z" fill="#0000ff"/>
<path d="M286.582,97.5879h 21.0943" fill="none" stroke="black"/>
<path d="M286.582,115.486h 21.0943" fill="none" stroke="black"/>
<path d="M307.677,115.486v -17.8982" fill="none" stroke="black"/>
<path d="M286.582,115.486v -17.8982" fill="none" stroke="black"/>
<text xml:space="preserve" x="392.404" y="136.976" fill="black" font-size="18.8468" font-family="Helvetica">ttV</text>
<path d="M286.582,141.055h 21.0943v -17.8982h -21.0943z" fill="#ffff00"/>
<path d="M286.582,123.157h 21.0943" fill="none" stroke="black"/>
<path d="M286.582,141.055h 21.0943" fill="none" stroke="black"/>
<path d="M307.677,141.055v -17.8982" fill="none" stroke="black"/>
<path d="M286.582,141.055v -17.8982" fill="none" stroke="black"/>
<text xml:space="preserve" x="339.136" y="162.659" fill="black" font-size="18.8468" font-family="Helvetica">Single_H</text>
<path d="M286.582,166.624h 21.0943v -17.8982h -21.0943z" fill="#00ffff"/>
<path d="M286.582,148.726h 21.0943" fill="none" stroke="black"/>
<path d="M286.582,166.624h 21.0943" fill="none" stroke="black"/>
<path d="M307.677,166.624v -17.8982" fill="none" stroke="black"/>
<path d="M286.582,166.624v -17.8982" fill="none" stroke="black"/>
<text xml:space="preserve" x="377.184" y="188.342" fill="black" font-size="18.8468" font-family="Helvetica">VVV</text>
<path d="M286.582,192.193h 21.0943v -17.8982h -21.0943z" fill="#59d354"/>
<path d="M286.582,174.295h 21.0943" fill="none" stroke="black"/>
<path d="M286.582,192.193h 21.0943" fill="none" stroke="black"/>
<path d="M307.677,192.193v -17.8982" fill="none" stroke="black"/>
<path d="M286.582,192.193v -17.8982" fill="none" stroke="black"/>
<text xml:space="preserve" x="362.916" y="214.025" fill="black" font-size="18.8468" font-family="Helvetica">Z+jets</text>
<path d="M286.582,217.762h 21.0943v -17.8982h -21.0943z" fill="#5954d8"/>
<path d="M286.582,199.863h 21.0943" fill="none" stroke="black"/>
<path d="M286.582,217.762h 21.0943" fill="none" stroke="black"/>
<path d="M307.677,217.762v -17.8982" fill="none" stroke="black"/>
<path d="M286.582,217.762v -17.8982" fill="none" stroke="black"/>
<text xml:space="preserve" x="374.331" y="239.708" fill="black" font-size="18.8468" font-family="Helvetica">Total</text>
<text xml:space="preserve" x="319.16" y="265.391" fill="black" font-size="18.8468" font-family="Helvetica">Uncertainty</text>
<path d="M307.677,262.113l -6.79136, 6.78631" fill="none" stroke="#6666ff"/>
<path d="M307.677,254.903l -14.0072, 13.9968" fill="none" stroke="#6666ff"/>
<path d="M304.365,251.001l -17.7829, 17.7696" fill="none" stroke="#6666ff"/>
<path d="M297.149,251.001l -10.567, 10.5592" fill="none" stroke="#6666ff"/>
<path d="M289.934,251.001l -3.35119, 3.3487" fill="none" stroke="#6666ff"/>
<text xml:space="preserve" x="483.721" y="60.8783" fill="black" font-size="18.8468" font-family="Helvetica">0.7</text>
<text xml:space="preserve" x="473.258" y="86.5613" fill="black" font-size="18.8468" font-family="Helvetica">19.8</text>
<text xml:space="preserve" x="484.673" y="112.244" fill="black" font-size="18.8468" font-family="Helvetica">3.0</text>
<text xml:space="preserve" x="483.721" y="136.976" fill="black" font-size="18.8468" font-family="Helvetica">4.7</text>
<text xml:space="preserve" x="484.673" y="162.659" fill="black" font-size="18.8468" font-family="Helvetica">4.3</text>
<text xml:space="preserve" x="484.673" y="188.342" fill="black" font-size="18.8468" font-family="Helvetica">0.0</text>
<text xml:space="preserve" x="484.673" y="214.025" fill="black" font-size="18.8468" font-family="Helvetica">2.6</text>
<text xml:space="preserve" x="474.209" y="239.708" fill="black" font-size="18.8468" font-family="Helvetica">35.0</text>
<text xml:space="preserve" x="503.697" y="265.391" fill="black" font-size="18.8468" font-family="Helvetica"> </text></svg>
