<?xml version="1.0" standalone="no"?>
<svg width="567.429" height="639.722" viewBox="0 0 567.429 639.722" xmlns="http://www.w3.org/2000/svg" shape-rendering="crispEdges">
<title>
bb4l_CRFit/Plots/VR_postFit.svg
</title>
<desc>
Creator: ROOT Version 6.20/06
CreationDate: Tue Mar 23 15:01:46 2021</desc>
<defs>
</defs>
<rect x="0.5" y="0" width="566.929" height="639.222" fill="white"/>
<rect x="79.8701" y="460.24" width="459.213" height="112.759" fill="white"/>
<rect x="79.8701" y="460.24" width="459.213" height="112.759" fill="none" stroke="black"/>
<rect x="79.8701" y="460.24" width="459.213" height="112.759" fill="white"/>
<rect x="79.8701" y="460.24" width="459.213" height="112.759" fill="none" stroke="black"/>
<path d="M79.8701,572.999h 459.213z" fill="#00ff00"/>
<path d="M79.8701,572.999h 459.213" fill="none" stroke="black"/>
<path d="M79.8701,572.999h 459.213" fill="none" stroke="black"/>
<path d="M79.8701,568.649v 4.34927" fill="none" stroke="black"/>
<path d="M89.0543,570.824v 2.17463" fill="none" stroke="black"/>
<path d="M98.2386,570.824v 2.17463" fill="none" stroke="black"/>
<path d="M107.423,570.824v 2.17463" fill="none" stroke="black"/>
<path d="M116.607,570.824v 2.17463" fill="none" stroke="black"/>
<path d="M125.791,568.649v 4.34927" fill="none" stroke="black"/>
<path d="M134.976,570.824v 2.17463" fill="none" stroke="black"/>
<path d="M144.16,570.824v 2.17463" fill="none" stroke="black"/>
<path d="M153.344,570.824v 2.17463" fill="none" stroke="black"/>
<path d="M162.528,570.824v 2.17463" fill="none" stroke="black"/>
<path d="M171.713,568.649v 4.34927" fill="none" stroke="black"/>
<path d="M180.897,570.824v 2.17463" fill="none" stroke="black"/>
<path d="M190.081,570.824v 2.17463" fill="none" stroke="black"/>
<path d="M199.265,570.824v 2.17463" fill="none" stroke="black"/>
<path d="M208.45,570.824v 2.17463" fill="none" stroke="black"/>
<path d="M217.634,568.649v 4.34927" fill="none" stroke="black"/>
<path d="M226.818,570.824v 2.17463" fill="none" stroke="black"/>
<path d="M236.002,570.824v 2.17463" fill="none" stroke="black"/>
<path d="M245.187,570.824v 2.17463" fill="none" stroke="black"/>
<path d="M254.371,570.824v 2.17463" fill="none" stroke="black"/>
<path d="M263.555,568.649v 4.34927" fill="none" stroke="black"/>
<path d="M272.739,570.824v 2.17463" fill="none" stroke="black"/>
<path d="M281.924,570.824v 2.17463" fill="none" stroke="black"/>
<path d="M291.108,570.824v 2.17463" fill="none" stroke="black"/>
<path d="M300.292,570.824v 2.17463" fill="none" stroke="black"/>
<path d="M309.476,568.649v 4.34927" fill="none" stroke="black"/>
<path d="M318.661,570.824v 2.17463" fill="none" stroke="black"/>
<path d="M327.845,570.824v 2.17463" fill="none" stroke="black"/>
<path d="M337.029,570.824v 2.17463" fill="none" stroke="black"/>
<path d="M346.213,570.824v 2.17463" fill="none" stroke="black"/>
<path d="M355.398,568.649v 4.34927" fill="none" stroke="black"/>
<path d="M364.582,570.824v 2.17463" fill="none" stroke="black"/>
<path d="M373.766,570.824v 2.17463" fill="none" stroke="black"/>
<path d="M382.95,570.824v 2.17463" fill="none" stroke="black"/>
<path d="M392.135,570.824v 2.17463" fill="none" stroke="black"/>
<path d="M401.319,568.649v 4.34927" fill="none" stroke="black"/>
<path d="M410.503,570.824v 2.17463" fill="none" stroke="black"/>
<path d="M419.687,570.824v 2.17463" fill="none" stroke="black"/>
<path d="M428.872,570.824v 2.17463" fill="none" stroke="black"/>
<path d="M438.056,570.824v 2.17463" fill="none" stroke="black"/>
<path d="M447.24,568.649v 4.34927" fill="none" stroke="black"/>
<path d="M456.424,570.824v 2.17463" fill="none" stroke="black"/>
<path d="M465.609,570.824v 2.17463" fill="none" stroke="black"/>
<path d="M474.793,570.824v 2.17463" fill="none" stroke="black"/>
<path d="M483.977,570.824v 2.17463" fill="none" stroke="black"/>
<path d="M493.161,568.649v 4.34927" fill="none" stroke="black"/>
<path d="M502.346,570.824v 2.17463" fill="none" stroke="black"/>
<path d="M511.53,570.824v 2.17463" fill="none" stroke="black"/>
<path d="M520.714,570.824v 2.17463" fill="none" stroke="black"/>
<path d="M529.898,570.824v 2.17463" fill="none" stroke="black"/>
<path d="M539.083,568.649v 4.34927" fill="none" stroke="black"/>
<path d="M79.8701,568.649v 4.34927" fill="none" stroke="black"/>
<text xml:space="preserve" x="70.8905" y="592.612" fill="black" font-size="18.7449" font-family="Helvetica">0.6</text>
<text xml:space="preserve" x="61.3783" y="592.612" fill="black" font-size="18.7449" font-family="Times">&#8722;</text>
<text xml:space="preserve" x="116.549" y="592.612" fill="black" font-size="18.7449" font-family="Helvetica">0.5</text>
<text xml:space="preserve" x="107.037" y="592.612" fill="black" font-size="18.7449" font-family="Times">&#8722;</text>
<text xml:space="preserve" x="162.208" y="592.612" fill="black" font-size="18.7449" font-family="Helvetica">0.4</text>
<text xml:space="preserve" x="151.745" y="592.612" fill="black" font-size="18.7449" font-family="Times">&#8722;</text>
<text xml:space="preserve" x="208.818" y="592.612" fill="black" font-size="18.7449" font-family="Helvetica">0.3</text>
<text xml:space="preserve" x="199.306" y="592.612" fill="black" font-size="18.7449" font-family="Times">&#8722;</text>
<text xml:space="preserve" x="254.477" y="592.612" fill="black" font-size="18.7449" font-family="Helvetica">0.2</text>
<text xml:space="preserve" x="244.964" y="592.612" fill="black" font-size="18.7449" font-family="Times">&#8722;</text>
<text xml:space="preserve" x="302.038" y="592.612" fill="black" font-size="18.7449" font-family="Helvetica">0.1</text>
<text xml:space="preserve" x="291.574" y="592.612" fill="black" font-size="18.7449" font-family="Times">&#8722;</text>
<text xml:space="preserve" x="349.599" y="592.612" fill="black" font-size="18.7449" font-family="Helvetica">0</text>
<text xml:space="preserve" x="389.55" y="592.612" fill="black" font-size="18.7449" font-family="Helvetica">0.1</text>
<text xml:space="preserve" x="433.307" y="592.612" fill="black" font-size="18.7449" font-family="Helvetica">0.2</text>
<text xml:space="preserve" x="478.965" y="592.612" fill="black" font-size="18.7449" font-family="Helvetica">0.3</text>
<text xml:space="preserve" x="525.575" y="592.612" fill="black" font-size="18.7449" font-family="Helvetica">0.4</text>
<text xml:space="preserve" x="500.844" y="624.954" fill="black" font-size="18.7449" font-family="Helvetica">BDT</text>
<path d="M79.8701,460.24h 459.213" fill="none" stroke="black"/>
<path d="M79.8701,464.589v -4.34927" fill="none" stroke="black"/>
<path d="M89.0543,462.415v -2.17463" fill="none" stroke="black"/>
<path d="M98.2386,462.415v -2.17463" fill="none" stroke="black"/>
<path d="M107.423,462.415v -2.17463" fill="none" stroke="black"/>
<path d="M116.607,462.415v -2.17463" fill="none" stroke="black"/>
<path d="M125.791,464.589v -4.34927" fill="none" stroke="black"/>
<path d="M134.976,462.415v -2.17463" fill="none" stroke="black"/>
<path d="M144.16,462.415v -2.17463" fill="none" stroke="black"/>
<path d="M153.344,462.415v -2.17463" fill="none" stroke="black"/>
<path d="M162.528,462.415v -2.17463" fill="none" stroke="black"/>
<path d="M171.713,464.589v -4.34927" fill="none" stroke="black"/>
<path d="M180.897,462.415v -2.17463" fill="none" stroke="black"/>
<path d="M190.081,462.415v -2.17463" fill="none" stroke="black"/>
<path d="M199.265,462.415v -2.17463" fill="none" stroke="black"/>
<path d="M208.45,462.415v -2.17463" fill="none" stroke="black"/>
<path d="M217.634,464.589v -4.34927" fill="none" stroke="black"/>
<path d="M226.818,462.415v -2.17463" fill="none" stroke="black"/>
<path d="M236.002,462.415v -2.17463" fill="none" stroke="black"/>
<path d="M245.187,462.415v -2.17463" fill="none" stroke="black"/>
<path d="M254.371,462.415v -2.17463" fill="none" stroke="black"/>
<path d="M263.555,464.589v -4.34927" fill="none" stroke="black"/>
<path d="M272.739,462.415v -2.17463" fill="none" stroke="black"/>
<path d="M281.924,462.415v -2.17463" fill="none" stroke="black"/>
<path d="M291.108,462.415v -2.17463" fill="none" stroke="black"/>
<path d="M300.292,462.415v -2.17463" fill="none" stroke="black"/>
<path d="M309.476,464.589v -4.34927" fill="none" stroke="black"/>
<path d="M318.661,462.415v -2.17463" fill="none" stroke="black"/>
<path d="M327.845,462.415v -2.17463" fill="none" stroke="black"/>
<path d="M337.029,462.415v -2.17463" fill="none" stroke="black"/>
<path d="M346.213,462.415v -2.17463" fill="none" stroke="black"/>
<path d="M355.398,464.589v -4.34927" fill="none" stroke="black"/>
<path d="M364.582,462.415v -2.17463" fill="none" stroke="black"/>
<path d="M373.766,462.415v -2.17463" fill="none" stroke="black"/>
<path d="M382.95,462.415v -2.17463" fill="none" stroke="black"/>
<path d="M392.135,462.415v -2.17463" fill="none" stroke="black"/>
<path d="M401.319,464.589v -4.34927" fill="none" stroke="black"/>
<path d="M410.503,462.415v -2.17463" fill="none" stroke="black"/>
<path d="M419.687,462.415v -2.17463" fill="none" stroke="black"/>
<path d="M428.872,462.415v -2.17463" fill="none" stroke="black"/>
<path d="M438.056,462.415v -2.17463" fill="none" stroke="black"/>
<path d="M447.24,464.589v -4.34927" fill="none" stroke="black"/>
<path d="M456.424,462.415v -2.17463" fill="none" stroke="black"/>
<path d="M465.609,462.415v -2.17463" fill="none" stroke="black"/>
<path d="M474.793,462.415v -2.17463" fill="none" stroke="black"/>
<path d="M483.977,462.415v -2.17463" fill="none" stroke="black"/>
<path d="M493.161,464.589v -4.34927" fill="none" stroke="black"/>
<path d="M502.346,462.415v -2.17463" fill="none" stroke="black"/>
<path d="M511.53,462.415v -2.17463" fill="none" stroke="black"/>
<path d="M520.714,462.415v -2.17463" fill="none" stroke="black"/>
<path d="M529.898,462.415v -2.17463" fill="none" stroke="black"/>
<path d="M539.083,464.589v -4.34927" fill="none" stroke="black"/>
<path d="M79.8701,464.589v -4.34927" fill="none" stroke="black"/>
<path d="M79.8701,572.999v -112.759" fill="none" stroke="black"/>
<path d="M90.585,572.999h -10.715" fill="none" stroke="black"/>
<path d="M85.2276,567.361h -5.35748" fill="none" stroke="black"/>
<path d="M85.2276,561.723h -5.35748" fill="none" stroke="black"/>
<path d="M85.2276,556.085h -5.35748" fill="none" stroke="black"/>
<path d="M85.2276,550.447h -5.35748" fill="none" stroke="black"/>
<path d="M90.585,544.809h -10.715" fill="none" stroke="black"/>
<path d="M85.2276,539.171h -5.35748" fill="none" stroke="black"/>
<path d="M85.2276,533.533h -5.35748" fill="none" stroke="black"/>
<path d="M85.2276,527.895h -5.35748" fill="none" stroke="black"/>
<path d="M85.2276,522.257h -5.35748" fill="none" stroke="black"/>
<path d="M90.585,516.619h -10.715" fill="none" stroke="black"/>
<path d="M85.2276,510.981h -5.35748" fill="none" stroke="black"/>
<path d="M85.2276,505.343h -5.35748" fill="none" stroke="black"/>
<path d="M85.2276,499.705h -5.35748" fill="none" stroke="black"/>
<path d="M85.2276,494.068h -5.35748" fill="none" stroke="black"/>
<path d="M90.585,488.43h -10.715" fill="none" stroke="black"/>
<path d="M85.2276,482.792h -5.35748" fill="none" stroke="black"/>
<path d="M85.2276,477.154h -5.35748" fill="none" stroke="black"/>
<path d="M85.2276,471.516h -5.35748" fill="none" stroke="black"/>
<path d="M85.2276,465.878h -5.35748" fill="none" stroke="black"/>
<path d="M90.585,460.24h -10.715" fill="none" stroke="black"/>
<text xml:space="preserve" x="50.9148" y="580.246" fill="black" font-size="18.7449" font-family="Helvetica">0.2</text>
<text xml:space="preserve" x="50.9148" y="551.71" fill="black" font-size="18.7449" font-family="Helvetica">0.6</text>
<text xml:space="preserve" x="69.9393" y="524.124" fill="black" font-size="18.7449" font-family="Helvetica">1</text>
<text xml:space="preserve" x="49.9636" y="495.587" fill="black" font-size="18.7449" font-family="Helvetica">1.4</text>
<text xml:space="preserve" x="69.9393" y="460.392" fill="black" font-size="18.7449" font-family="Helvetica"> </text>
<g transform="rotate(-90,22.3781,560.271)">
<text xml:space="preserve" x="22.3781" y="560.271" fill="black" font-size="18.7449" font-family="Helvetica">Data / Pred.</text>
</g>
<path d="M539.083,572.999v -112.759" fill="none" stroke="black"/>
<path d="M528.368,572.999h 10.715" fill="none" stroke="black"/>
<path d="M533.725,567.361h 5.35748" fill="none" stroke="black"/>
<path d="M533.725,561.723h 5.35748" fill="none" stroke="black"/>
<path d="M533.725,556.085h 5.35748" fill="none" stroke="black"/>
<path d="M533.725,550.447h 5.35748" fill="none" stroke="black"/>
<path d="M528.368,544.809h 10.715" fill="none" stroke="black"/>
<path d="M533.725,539.171h 5.35748" fill="none" stroke="black"/>
<path d="M533.725,533.533h 5.35748" fill="none" stroke="black"/>
<path d="M533.725,527.895h 5.35748" fill="none" stroke="black"/>
<path d="M533.725,522.257h 5.35748" fill="none" stroke="black"/>
<path d="M528.368,516.619h 10.715" fill="none" stroke="black"/>
<path d="M533.725,510.981h 5.35748" fill="none" stroke="black"/>
<path d="M533.725,505.343h 5.35748" fill="none" stroke="black"/>
<path d="M533.725,499.705h 5.35748" fill="none" stroke="black"/>
<path d="M533.725,494.068h 5.35748" fill="none" stroke="black"/>
<path d="M528.368,488.43h 10.715" fill="none" stroke="black"/>
<path d="M533.725,482.792h 5.35748" fill="none" stroke="black"/>
<path d="M533.725,477.154h 5.35748" fill="none" stroke="black"/>
<path d="M533.725,471.516h 5.35748" fill="none" stroke="black"/>
<path d="M533.725,465.878h 5.35748" fill="none" stroke="black"/>
<path d="M528.368,460.24h 10.715" fill="none" stroke="black"/>
<path d="M79.8701,516.619h 459.213" fill="none" stroke="black" stroke-width="2" stroke-dasharray=" 3, 3"/>
<path d="M108.571,545.503l -3.40024, 3.40314" fill="none" stroke="#6666ff"/>
<path d="M108.571,538.281l -10.6161, 10.6251" fill="none" stroke="#6666ff"/>
<path d="M108.571,531.059l -17.8319, 17.8471" fill="none" stroke="#6666ff"/>
<path d="M108.571,523.837l -25.0477, 25.069" fill="none" stroke="#6666ff"/>
<path d="M108.571,516.615l -28.7008, 28.7252" fill="none" stroke="#6666ff"/>
<path d="M108.571,509.393l -28.7008, 28.7252" fill="none" stroke="#6666ff"/>
<path d="M108.571,502.171l -28.7008, 28.7252" fill="none" stroke="#6666ff"/>
<path d="M108.571,494.949l -28.7008, 28.7252" fill="none" stroke="#6666ff"/>
<path d="M108.571,487.727l -28.7008, 28.7252" fill="none" stroke="#6666ff"/>
<path d="M104.747,484.332l -24.8772, 24.8984" fill="none" stroke="#6666ff"/>
<path d="M97.5315,484.332l -17.6614, 17.6764" fill="none" stroke="#6666ff"/>
<path d="M90.3157,484.332l -10.4456, 10.4545" fill="none" stroke="#6666ff"/>
<path d="M83.0998,484.332l -3.22975, 3.2325" fill="none" stroke="#6666ff"/>
<path d="M137.272,524l -6.89784, 6.90371" fill="none" stroke="#6666ff"/>
<path d="M137.272,516.778l -14.1137, 14.1257" fill="none" stroke="#6666ff"/>
<path d="M137.272,509.556l -21.3295, 21.3476" fill="none" stroke="#6666ff"/>
<path d="M137.271,502.335l -28.5444, 28.5687" fill="none" stroke="#6666ff"/>
<path d="M130.055,502.335l -21.4841, 21.5024" fill="none" stroke="#6666ff"/>
<path d="M122.839,502.335l -14.2682, 14.2804" fill="none" stroke="#6666ff"/>
<path d="M115.623,502.335l -7.05241, 7.05841" fill="none" stroke="#6666ff"/>
<path d="M165.972,524.163l -3.46588, 3.46883" fill="none" stroke="#6666ff"/>
<path d="M165.972,516.941l -10.6817, 10.6908" fill="none" stroke="#6666ff"/>
<path d="M165.972,509.719l -17.8975, 17.9128" fill="none" stroke="#6666ff"/>
<path d="M162.865,505.607l -22.0056, 22.0243" fill="none" stroke="#6666ff"/>
<path d="M155.649,505.607l -18.3772, 18.3928" fill="none" stroke="#6666ff"/>
<path d="M148.433,505.607l -11.1613, 11.1708" fill="none" stroke="#6666ff"/>
<path d="M141.217,505.607l -3.94552, 3.94887" fill="none" stroke="#6666ff"/>
<path d="M194.673,524.325l -2.2312, 2.2331" fill="none" stroke="#6666ff"/>
<path d="M194.673,517.103l -9.44703, 9.45507" fill="none" stroke="#6666ff"/>
<path d="M194.673,509.881l -16.6629, 16.677" fill="none" stroke="#6666ff"/>
<path d="M190.656,506.68l -19.8613, 19.8782" fill="none" stroke="#6666ff"/>
<path d="M183.44,506.68l -17.4676, 17.4824" fill="none" stroke="#6666ff"/>
<path d="M176.224,506.68l -10.2517, 10.2605" fill="none" stroke="#6666ff"/>
<path d="M169.008,506.68l -3.0359, 3.03848" fill="none" stroke="#6666ff"/>
<path d="M223.374,524.488l -1.9278, 1.92944" fill="none" stroke="#6666ff"/>
<path d="M223.374,517.266l -9.14363, 9.15141" fill="none" stroke="#6666ff"/>
<path d="M223.374,510.044l -16.3595, 16.3734" fill="none" stroke="#6666ff"/>
<path d="M219.378,506.821l -19.5796, 19.5962" fill="none" stroke="#6666ff"/>
<path d="M212.162,506.821l -17.4892, 17.5041" fill="none" stroke="#6666ff"/>
<path d="M204.947,506.821l -10.2734, 10.2821" fill="none" stroke="#6666ff"/>
<path d="M197.731,506.821l -3.05756, 3.06017" fill="none" stroke="#6666ff"/>
<path d="M252.075,524.651l -1.12177, 1.12272" fill="none" stroke="#6666ff"/>
<path d="M252.075,517.429l -8.3376, 8.34469" fill="none" stroke="#6666ff"/>
<path d="M252.075,510.207l -15.5534, 15.5667" fill="none" stroke="#6666ff"/>
<path d="M247.598,507.465l -18.2926, 18.3081" fill="none" stroke="#6666ff"/>
<path d="M240.382,507.465l -17.0083, 17.0227" fill="none" stroke="#6666ff"/>
<path d="M233.166,507.465l -9.79243, 9.80076" fill="none" stroke="#6666ff"/>
<path d="M225.951,507.465l -2.5766, 2.57879" fill="none" stroke="#6666ff"/>
<path d="M280.776,517.591l -6.32703, 6.33241" fill="none" stroke="#6666ff"/>
<path d="M280.776,510.369l -13.5429, 13.5544" fill="none" stroke="#6666ff"/>
<path d="M274.613,509.315l -14.5965, 14.6089" fill="none" stroke="#6666ff"/>
<path d="M267.398,509.315l -14.5965, 14.6089" fill="none" stroke="#6666ff"/>
<path d="M260.182,509.315l -8.10692, 8.11382" fill="none" stroke="#6666ff"/>
<path d="M252.966,509.315l -0.891091, 0.89185" fill="none" stroke="#6666ff"/>
<path d="M309.476,517.754l -5.49396, 5.49863" fill="none" stroke="#6666ff"/>
<path d="M309.476,510.532l -12.7098, 12.7206" fill="none" stroke="#6666ff"/>
<path d="M302.806,509.986l -13.2554, 13.2667" fill="none" stroke="#6666ff"/>
<path d="M295.59,509.986l -13.2554, 13.2667" fill="none" stroke="#6666ff"/>
<path d="M288.375,509.986l -7.59892, 7.60538" fill="none" stroke="#6666ff"/>
<path d="M281.159,509.986l -0.383087, 0.383413" fill="none" stroke="#6666ff"/>
<path d="M338.177,517.917l -6.20158, 6.20686" fill="none" stroke="#6666ff"/>
<path d="M338.177,510.695l -13.4174, 13.4288" fill="none" stroke="#6666ff"/>
<path d="M332.54,509.115l -14.9957, 15.0085" fill="none" stroke="#6666ff"/>
<path d="M325.324,509.115l -14.9957, 15.0085" fill="none" stroke="#6666ff"/>
<path d="M318.108,509.115l -8.6316, 8.63894" fill="none" stroke="#6666ff"/>
<path d="M310.892,509.115l -1.41577, 1.41697" fill="none" stroke="#6666ff"/>
<path d="M366.878,525.301l -0.798552, 0.799231" fill="none" stroke="#6666ff"/>
<path d="M366.878,518.079l -8.01438, 8.0212" fill="none" stroke="#6666ff"/>
<path d="M366.878,510.857l -15.2302, 15.2432" fill="none" stroke="#6666ff"/>
<path d="M363.378,507.138l -18.9464, 18.9625" fill="none" stroke="#6666ff"/>
<path d="M356.162,507.138l -17.9853, 18.0006" fill="none" stroke="#6666ff"/>
<path d="M348.947,507.138l -10.7695, 10.7786" fill="none" stroke="#6666ff"/>
<path d="M341.731,507.138l -3.55364, 3.55666" fill="none" stroke="#6666ff"/>
<path d="M395.579,525.464l -1.63428, 1.63567" fill="none" stroke="#6666ff"/>
<path d="M395.579,518.242l -8.85011, 8.85764" fill="none" stroke="#6666ff"/>
<path d="M395.579,511.02l -16.0659, 16.0796" fill="none" stroke="#6666ff"/>
<path d="M393.24,506.139l -20.9429, 20.9607" fill="none" stroke="#6666ff"/>
<path d="M386.024,506.139l -19.1461, 19.1624" fill="none" stroke="#6666ff"/>
<path d="M378.808,506.139l -11.9303, 11.9404" fill="none" stroke="#6666ff"/>
<path d="M371.592,506.139l -4.71443, 4.71844" fill="none" stroke="#6666ff"/>
<path d="M424.28,525.627l -1.47967, 1.48093" fill="none" stroke="#6666ff"/>
<path d="M424.28,518.405l -8.6955, 8.7029" fill="none" stroke="#6666ff"/>
<path d="M424.28,511.183l -15.9113, 15.9249" fill="none" stroke="#6666ff"/>
<path d="M422.111,506.131l -20.9587, 20.9766" fill="none" stroke="#6666ff"/>
<path d="M414.895,506.131l -19.3165, 19.333" fill="none" stroke="#6666ff"/>
<path d="M407.679,506.131l -12.1007, 12.111" fill="none" stroke="#6666ff"/>
<path d="M400.464,506.131l -4.88488, 4.88904" fill="none" stroke="#6666ff"/>
<path d="M452.98,525.789l -0.762258, 0.762907" fill="none" stroke="#6666ff"/>
<path d="M452.98,518.567l -7.97809, 7.98488" fill="none" stroke="#6666ff"/>
<path d="M452.98,511.345l -15.1939, 15.2068" fill="none" stroke="#6666ff"/>
<path d="M450.42,506.686l -19.849, 19.8659" fill="none" stroke="#6666ff"/>
<path d="M443.204,506.686l -18.9242, 18.9403" fill="none" stroke="#6666ff"/>
<path d="M435.988,506.686l -11.7084, 11.7183" fill="none" stroke="#6666ff"/>
<path d="M428.772,506.686l -4.49254, 4.49636" fill="none" stroke="#6666ff"/>
<path d="M481.681,525.952l -5.2196, 5.22404" fill="none" stroke="#6666ff"/>
<path d="M481.681,518.73l -12.4354, 12.446" fill="none" stroke="#6666ff"/>
<path d="M481.681,511.508l -19.6513, 19.668" fill="none" stroke="#6666ff"/>
<path d="M481.681,504.286l -26.8671, 26.89" fill="none" stroke="#6666ff"/>
<path d="M476.687,502.063l -23.7066, 23.7268" fill="none" stroke="#6666ff"/>
<path d="M469.471,502.063l -16.4908, 16.5048" fill="none" stroke="#6666ff"/>
<path d="M462.255,502.063l -9.27494, 9.28284" fill="none" stroke="#6666ff"/>
<path d="M455.039,502.063l -2.05911, 2.06086" fill="none" stroke="#6666ff"/>
<path d="M510.382,569.446l -3.54917, 3.55219" fill="none" stroke="#6666ff"/>
<path d="M510.382,562.225l -10.765, 10.7742" fill="none" stroke="#6666ff"/>
<path d="M510.382,555.003l -17.9808, 17.9961" fill="none" stroke="#6666ff"/>
<path d="M510.382,547.781l -25.1967, 25.2181" fill="none" stroke="#6666ff"/>
<path d="M510.382,540.559l -28.7008, 28.7252" fill="none" stroke="#6666ff"/>
<path d="M510.382,533.337l -28.7008, 28.7252" fill="none" stroke="#6666ff"/>
<path d="M510.382,526.115l -28.7008, 28.7252" fill="none" stroke="#6666ff"/>
<path d="M510.382,518.893l -28.7008, 28.7252" fill="none" stroke="#6666ff"/>
<path d="M510.382,511.671l -28.7008, 28.7252" fill="none" stroke="#6666ff"/>
<path d="M510.382,504.449l -28.7008, 28.7252" fill="none" stroke="#6666ff"/>
<path d="M510.382,497.227l -28.7008, 28.7252" fill="none" stroke="#6666ff"/>
<path d="M510.382,490.005l -28.7008, 28.7252" fill="none" stroke="#6666ff"/>
<path d="M510.382,482.783l -28.7008, 28.7252" fill="none" stroke="#6666ff"/>
<path d="M510.382,475.561l -28.7008, 28.7252" fill="none" stroke="#6666ff"/>
<path d="M510.382,468.339l -28.7008, 28.7252" fill="none" stroke="#6666ff"/>
<path d="M510.382,461.117l -28.7008, 28.7252" fill="none" stroke="#6666ff"/>
<path d="M504.042,460.24l -22.3612, 22.3803" fill="none" stroke="#6666ff"/>
<path d="M496.827,460.24l -15.1454, 15.1583" fill="none" stroke="#6666ff"/>
<path d="M489.611,460.24l -7.92958, 7.93632" fill="none" stroke="#6666ff"/>
<path d="M482.395,460.24l -0.713746, 0.714353" fill="none" stroke="#6666ff"/>
<path d="M534.301,516.619z" fill="none" stroke="#6666ff"/>
<path d="M527.085,516.619z" fill="none" stroke="#6666ff"/>
<path d="M519.869,516.619z" fill="none" stroke="#6666ff"/>
<path d="M512.653,516.619z" fill="none" stroke="#6666ff"/>
<path d="M146.866,556.658h -9.56558" fill="none" stroke="black" stroke-width="2"/>
<path d="M137.3,556.658z" fill="none" stroke="black" stroke-width="2"/>
<path d="M156.378,556.658h 9.59428" fill="none" stroke="black" stroke-width="2"/>
<path d="M165.972,556.658z" fill="none" stroke="black" stroke-width="2"/>
<path d="M151.622,551.901v -12.8161" fill="none" stroke="black" stroke-width="2"/>
<path d="M151.622,539.085z" fill="none" stroke="black" stroke-width="2"/>
<path d="M151.622,561.414v 11.585" fill="none" stroke="black" stroke-width="2"/>
<path d="M151.622,572.999z" fill="none" stroke="black" stroke-width="2"/>
<path d="M175.567,517.236h -9.56558" fill="none" stroke="black" stroke-width="2"/>
<path d="M166.001,517.236z" fill="none" stroke="black" stroke-width="2"/>
<path d="M185.079,517.236h 9.59428" fill="none" stroke="black" stroke-width="2"/>
<path d="M194.673,517.236z" fill="none" stroke="black" stroke-width="2"/>
<path d="M180.323,512.479v -15.4101" fill="none" stroke="black" stroke-width="2"/>
<path d="M180.323,497.069z" fill="none" stroke="black" stroke-width="2"/>
<path d="M180.323,521.992v 15.4101" fill="none" stroke="black" stroke-width="2"/>
<path d="M180.323,537.402z" fill="none" stroke="black" stroke-width="2"/>
<path d="M204.268,514.033h -9.56558" fill="none" stroke="black" stroke-width="2"/>
<path d="M194.702,514.033z" fill="none" stroke="black" stroke-width="2"/>
<path d="M213.78,514.033h 9.59428" fill="none" stroke="black" stroke-width="2"/>
<path d="M223.374,514.033z" fill="none" stroke="black" stroke-width="2"/>
<path d="M209.024,509.277v -12.0051" fill="none" stroke="black" stroke-width="2"/>
<path d="M209.024,497.272z" fill="none" stroke="black" stroke-width="2"/>
<path d="M209.024,518.789v 12.0051" fill="none" stroke="black" stroke-width="2"/>
<path d="M209.024,530.794z" fill="none" stroke="black" stroke-width="2"/>
<path d="M232.968,476.019h -9.56558" fill="none" stroke="black" stroke-width="2"/>
<path d="M223.403,476.019z" fill="none" stroke="black" stroke-width="2"/>
<path d="M242.481,476.019h 9.59428" fill="none" stroke="black" stroke-width="2"/>
<path d="M252.075,476.019z" fill="none" stroke="black" stroke-width="2"/>
<path d="M237.724,471.263v -11.0229" fill="none" stroke="black" stroke-width="2"/>
<path d="M237.724,460.24z" fill="none" stroke="black" stroke-width="2"/>
<path d="M237.724,480.775v 14.293" fill="none" stroke="black" stroke-width="2"/>
<path d="M237.724,495.068z" fill="none" stroke="black" stroke-width="2"/>
<path d="M261.669,522.915h -9.56558" fill="none" stroke="black" stroke-width="2"/>
<path d="M252.104,522.915z" fill="none" stroke="black" stroke-width="2"/>
<path d="M271.181,522.915h 9.59428" fill="none" stroke="black" stroke-width="2"/>
<path d="M280.776,522.915z" fill="none" stroke="black" stroke-width="2"/>
<path d="M266.425,518.159v -7.595" fill="none" stroke="black" stroke-width="2"/>
<path d="M266.425,510.564z" fill="none" stroke="black" stroke-width="2"/>
<path d="M266.425,527.671v 7.595" fill="none" stroke="black" stroke-width="2"/>
<path d="M266.425,535.266z" fill="none" stroke="black" stroke-width="2"/>
<path d="M290.37,520.619h -9.56558" fill="none" stroke="black" stroke-width="2"/>
<path d="M280.804,520.619z" fill="none" stroke="black" stroke-width="2"/>
<path d="M299.882,520.619h 9.59428" fill="none" stroke="black" stroke-width="2"/>
<path d="M309.476,520.619z" fill="none" stroke="black" stroke-width="2"/>
<path d="M295.126,515.863v -7.38034" fill="none" stroke="black" stroke-width="2"/>
<path d="M295.126,508.483z" fill="none" stroke="black" stroke-width="2"/>
<path d="M295.126,525.376v 7.38034" fill="none" stroke="black" stroke-width="2"/>
<path d="M295.126,532.756z" fill="none" stroke="black" stroke-width="2"/>
<path d="M319.071,511.695h -9.56558" fill="none" stroke="black" stroke-width="2"/>
<path d="M309.505,511.695z" fill="none" stroke="black" stroke-width="2"/>
<path d="M328.583,511.695h 9.59428" fill="none" stroke="black" stroke-width="2"/>
<path d="M338.177,511.695z" fill="none" stroke="black" stroke-width="2"/>
<path d="M323.827,506.938v -6.12678" fill="none" stroke="black" stroke-width="2"/>
<path d="M323.827,500.812z" fill="none" stroke="black" stroke-width="2"/>
<path d="M323.827,516.451v 6.12678" fill="none" stroke="black" stroke-width="2"/>
<path d="M323.827,522.578z" fill="none" stroke="black" stroke-width="2"/>
<path d="M347.771,499.132h -9.56558" fill="none" stroke="black" stroke-width="2"/>
<path d="M338.206,499.132z" fill="none" stroke="black" stroke-width="2"/>
<path d="M357.284,499.132h 9.59428" fill="none" stroke="black" stroke-width="2"/>
<path d="M366.878,499.132z" fill="none" stroke="black" stroke-width="2"/>
<path d="M352.528,494.376v -6.07118" fill="none" stroke="black" stroke-width="2"/>
<path d="M352.528,488.305z" fill="none" stroke="black" stroke-width="2"/>
<path d="M352.528,503.888v 6.07118" fill="none" stroke="black" stroke-width="2"/>
<path d="M352.528,509.959z" fill="none" stroke="black" stroke-width="2"/>
<path d="M376.472,534.909h -9.56558" fill="none" stroke="black" stroke-width="2"/>
<path d="M366.907,534.909z" fill="none" stroke="black" stroke-width="2"/>
<path d="M385.984,534.909h 9.59428" fill="none" stroke="black" stroke-width="2"/>
<path d="M395.579,534.909z" fill="none" stroke="black" stroke-width="2"/>
<path d="M381.228,530.153v -3.94134" fill="none" stroke="black" stroke-width="2"/>
<path d="M381.228,526.211z" fill="none" stroke="black" stroke-width="2"/>
<path d="M381.228,539.665v 3.94134" fill="none" stroke="black" stroke-width="2"/>
<path d="M381.228,543.606z" fill="none" stroke="black" stroke-width="2"/>
<path d="M405.173,520.208h -9.56558" fill="none" stroke="black" stroke-width="2"/>
<path d="M395.607,520.208z" fill="none" stroke="black" stroke-width="2"/>
<path d="M414.685,520.208h 9.59428" fill="none" stroke="black" stroke-width="2"/>
<path d="M424.28,520.208z" fill="none" stroke="black" stroke-width="2"/>
<path d="M409.929,515.451v -10.2" fill="none" stroke="black" stroke-width="2"/>
<path d="M409.929,505.251z" fill="none" stroke="black" stroke-width="2"/>
<path d="M409.929,524.964v 10.2" fill="none" stroke="black" stroke-width="2"/>
<path d="M409.929,535.164z" fill="none" stroke="black" stroke-width="2"/>
<path d="M438.63,460.24v 42.091" fill="none" stroke="black" stroke-width="2"/>
<path d="M438.63,502.331z" fill="none" stroke="black" stroke-width="2"/>
<path d="M467.331,460.24v 112.759" fill="none" stroke="black" stroke-width="2"/>
<path d="M467.331,572.999z" fill="none" stroke="black" stroke-width="2"/>
<g fill="black">
<circle cx="151.622" cy="556.658" r="5.32685"/>
<circle cx="180.323" cy="517.236" r="5.32685"/>
<circle cx="209.024" cy="514.033" r="5.32685"/>
<circle cx="237.724" cy="476.019" r="5.32685"/>
<circle cx="266.425" cy="522.915" r="5.32685"/>
<circle cx="295.126" cy="520.619" r="5.32685"/>
<circle cx="323.827" cy="511.695" r="5.32685"/>
<circle cx="352.528" cy="499.132" r="5.32685"/>
<circle cx="381.228" cy="534.909" r="5.32685"/>
<circle cx="409.929" cy="520.208" r="5.32685"/>
</g>
<path d="M79.8701,572.999h 459.213" fill="none" stroke="black"/>
<path d="M79.8701,568.649v 4.34927" fill="none" stroke="black"/>
<path d="M89.0543,570.824v 2.17463" fill="none" stroke="black"/>
<path d="M98.2386,570.824v 2.17463" fill="none" stroke="black"/>
<path d="M107.423,570.824v 2.17463" fill="none" stroke="black"/>
<path d="M116.607,570.824v 2.17463" fill="none" stroke="black"/>
<path d="M125.791,568.649v 4.34927" fill="none" stroke="black"/>
<path d="M134.976,570.824v 2.17463" fill="none" stroke="black"/>
<path d="M144.16,570.824v 2.17463" fill="none" stroke="black"/>
<path d="M153.344,570.824v 2.17463" fill="none" stroke="black"/>
<path d="M162.528,570.824v 2.17463" fill="none" stroke="black"/>
<path d="M171.713,568.649v 4.34927" fill="none" stroke="black"/>
<path d="M180.897,570.824v 2.17463" fill="none" stroke="black"/>
<path d="M190.081,570.824v 2.17463" fill="none" stroke="black"/>
<path d="M199.265,570.824v 2.17463" fill="none" stroke="black"/>
<path d="M208.45,570.824v 2.17463" fill="none" stroke="black"/>
<path d="M217.634,568.649v 4.34927" fill="none" stroke="black"/>
<path d="M226.818,570.824v 2.17463" fill="none" stroke="black"/>
<path d="M236.002,570.824v 2.17463" fill="none" stroke="black"/>
<path d="M245.187,570.824v 2.17463" fill="none" stroke="black"/>
<path d="M254.371,570.824v 2.17463" fill="none" stroke="black"/>
<path d="M263.555,568.649v 4.34927" fill="none" stroke="black"/>
<path d="M272.739,570.824v 2.17463" fill="none" stroke="black"/>
<path d="M281.924,570.824v 2.17463" fill="none" stroke="black"/>
<path d="M291.108,570.824v 2.17463" fill="none" stroke="black"/>
<path d="M300.292,570.824v 2.17463" fill="none" stroke="black"/>
<path d="M309.476,568.649v 4.34927" fill="none" stroke="black"/>
<path d="M318.661,570.824v 2.17463" fill="none" stroke="black"/>
<path d="M327.845,570.824v 2.17463" fill="none" stroke="black"/>
<path d="M337.029,570.824v 2.17463" fill="none" stroke="black"/>
<path d="M346.213,570.824v 2.17463" fill="none" stroke="black"/>
<path d="M355.398,568.649v 4.34927" fill="none" stroke="black"/>
<path d="M364.582,570.824v 2.17463" fill="none" stroke="black"/>
<path d="M373.766,570.824v 2.17463" fill="none" stroke="black"/>
<path d="M382.95,570.824v 2.17463" fill="none" stroke="black"/>
<path d="M392.135,570.824v 2.17463" fill="none" stroke="black"/>
<path d="M401.319,568.649v 4.34927" fill="none" stroke="black"/>
<path d="M410.503,570.824v 2.17463" fill="none" stroke="black"/>
<path d="M419.687,570.824v 2.17463" fill="none" stroke="black"/>
<path d="M428.872,570.824v 2.17463" fill="none" stroke="black"/>
<path d="M438.056,570.824v 2.17463" fill="none" stroke="black"/>
<path d="M447.24,568.649v 4.34927" fill="none" stroke="black"/>
<path d="M456.424,570.824v 2.17463" fill="none" stroke="black"/>
<path d="M465.609,570.824v 2.17463" fill="none" stroke="black"/>
<path d="M474.793,570.824v 2.17463" fill="none" stroke="black"/>
<path d="M483.977,570.824v 2.17463" fill="none" stroke="black"/>
<path d="M493.161,568.649v 4.34927" fill="none" stroke="black"/>
<path d="M502.346,570.824v 2.17463" fill="none" stroke="black"/>
<path d="M511.53,570.824v 2.17463" fill="none" stroke="black"/>
<path d="M520.714,570.824v 2.17463" fill="none" stroke="black"/>
<path d="M529.898,570.824v 2.17463" fill="none" stroke="black"/>
<path d="M539.083,568.649v 4.34927" fill="none" stroke="black"/>
<path d="M79.8701,568.649v 4.34927" fill="none" stroke="black"/>
<path d="M79.8701,460.24h 459.213" fill="none" stroke="black"/>
<path d="M79.8701,464.589v -4.34927" fill="none" stroke="black"/>
<path d="M89.0543,462.415v -2.17463" fill="none" stroke="black"/>
<path d="M98.2386,462.415v -2.17463" fill="none" stroke="black"/>
<path d="M107.423,462.415v -2.17463" fill="none" stroke="black"/>
<path d="M116.607,462.415v -2.17463" fill="none" stroke="black"/>
<path d="M125.791,464.589v -4.34927" fill="none" stroke="black"/>
<path d="M134.976,462.415v -2.17463" fill="none" stroke="black"/>
<path d="M144.16,462.415v -2.17463" fill="none" stroke="black"/>
<path d="M153.344,462.415v -2.17463" fill="none" stroke="black"/>
<path d="M162.528,462.415v -2.17463" fill="none" stroke="black"/>
<path d="M171.713,464.589v -4.34927" fill="none" stroke="black"/>
<path d="M180.897,462.415v -2.17463" fill="none" stroke="black"/>
<path d="M190.081,462.415v -2.17463" fill="none" stroke="black"/>
<path d="M199.265,462.415v -2.17463" fill="none" stroke="black"/>
<path d="M208.45,462.415v -2.17463" fill="none" stroke="black"/>
<path d="M217.634,464.589v -4.34927" fill="none" stroke="black"/>
<path d="M226.818,462.415v -2.17463" fill="none" stroke="black"/>
<path d="M236.002,462.415v -2.17463" fill="none" stroke="black"/>
<path d="M245.187,462.415v -2.17463" fill="none" stroke="black"/>
<path d="M254.371,462.415v -2.17463" fill="none" stroke="black"/>
<path d="M263.555,464.589v -4.34927" fill="none" stroke="black"/>
<path d="M272.739,462.415v -2.17463" fill="none" stroke="black"/>
<path d="M281.924,462.415v -2.17463" fill="none" stroke="black"/>
<path d="M291.108,462.415v -2.17463" fill="none" stroke="black"/>
<path d="M300.292,462.415v -2.17463" fill="none" stroke="black"/>
<path d="M309.476,464.589v -4.34927" fill="none" stroke="black"/>
<path d="M318.661,462.415v -2.17463" fill="none" stroke="black"/>
<path d="M327.845,462.415v -2.17463" fill="none" stroke="black"/>
<path d="M337.029,462.415v -2.17463" fill="none" stroke="black"/>
<path d="M346.213,462.415v -2.17463" fill="none" stroke="black"/>
<path d="M355.398,464.589v -4.34927" fill="none" stroke="black"/>
<path d="M364.582,462.415v -2.17463" fill="none" stroke="black"/>
<path d="M373.766,462.415v -2.17463" fill="none" stroke="black"/>
<path d="M382.95,462.415v -2.17463" fill="none" stroke="black"/>
<path d="M392.135,462.415v -2.17463" fill="none" stroke="black"/>
<path d="M401.319,464.589v -4.34927" fill="none" stroke="black"/>
<path d="M410.503,462.415v -2.17463" fill="none" stroke="black"/>
<path d="M419.687,462.415v -2.17463" fill="none" stroke="black"/>
<path d="M428.872,462.415v -2.17463" fill="none" stroke="black"/>
<path d="M438.056,462.415v -2.17463" fill="none" stroke="black"/>
<path d="M447.24,464.589v -4.34927" fill="none" stroke="black"/>
<path d="M456.424,462.415v -2.17463" fill="none" stroke="black"/>
<path d="M465.609,462.415v -2.17463" fill="none" stroke="black"/>
<path d="M474.793,462.415v -2.17463" fill="none" stroke="black"/>
<path d="M483.977,462.415v -2.17463" fill="none" stroke="black"/>
<path d="M493.161,464.589v -4.34927" fill="none" stroke="black"/>
<path d="M502.346,462.415v -2.17463" fill="none" stroke="black"/>
<path d="M511.53,462.415v -2.17463" fill="none" stroke="black"/>
<path d="M520.714,462.415v -2.17463" fill="none" stroke="black"/>
<path d="M529.898,462.415v -2.17463" fill="none" stroke="black"/>
<path d="M539.083,464.589v -4.34927" fill="none" stroke="black"/>
<path d="M79.8701,464.589v -4.34927" fill="none" stroke="black"/>
<path d="M79.8701,572.999v -112.759" fill="none" stroke="black"/>
<path d="M90.585,572.999h -10.715" fill="none" stroke="black"/>
<path d="M85.2276,567.361h -5.35748" fill="none" stroke="black"/>
<path d="M85.2276,561.723h -5.35748" fill="none" stroke="black"/>
<path d="M85.2276,556.085h -5.35748" fill="none" stroke="black"/>
<path d="M85.2276,550.447h -5.35748" fill="none" stroke="black"/>
<path d="M90.585,544.809h -10.715" fill="none" stroke="black"/>
<path d="M85.2276,539.171h -5.35748" fill="none" stroke="black"/>
<path d="M85.2276,533.533h -5.35748" fill="none" stroke="black"/>
<path d="M85.2276,527.895h -5.35748" fill="none" stroke="black"/>
<path d="M85.2276,522.257h -5.35748" fill="none" stroke="black"/>
<path d="M90.585,516.619h -10.715" fill="none" stroke="black"/>
<path d="M85.2276,510.981h -5.35748" fill="none" stroke="black"/>
<path d="M85.2276,505.343h -5.35748" fill="none" stroke="black"/>
<path d="M85.2276,499.705h -5.35748" fill="none" stroke="black"/>
<path d="M85.2276,494.068h -5.35748" fill="none" stroke="black"/>
<path d="M90.585,488.43h -10.715" fill="none" stroke="black"/>
<path d="M85.2276,482.792h -5.35748" fill="none" stroke="black"/>
<path d="M85.2276,477.154h -5.35748" fill="none" stroke="black"/>
<path d="M85.2276,471.516h -5.35748" fill="none" stroke="black"/>
<path d="M85.2276,465.878h -5.35748" fill="none" stroke="black"/>
<path d="M90.585,460.24h -10.715" fill="none" stroke="black"/>
<path d="M539.083,572.999v -112.759" fill="none" stroke="black"/>
<path d="M528.368,572.999h 10.715" fill="none" stroke="black"/>
<path d="M533.725,567.361h 5.35748" fill="none" stroke="black"/>
<path d="M533.725,561.723h 5.35748" fill="none" stroke="black"/>
<path d="M533.725,556.085h 5.35748" fill="none" stroke="black"/>
<path d="M533.725,550.447h 5.35748" fill="none" stroke="black"/>
<path d="M528.368,544.809h 10.715" fill="none" stroke="black"/>
<path d="M533.725,539.171h 5.35748" fill="none" stroke="black"/>
<path d="M533.725,533.533h 5.35748" fill="none" stroke="black"/>
<path d="M533.725,527.895h 5.35748" fill="none" stroke="black"/>
<path d="M533.725,522.257h 5.35748" fill="none" stroke="black"/>
<path d="M528.368,516.619h 10.715" fill="none" stroke="black"/>
<path d="M533.725,510.981h 5.35748" fill="none" stroke="black"/>
<path d="M533.725,505.343h 5.35748" fill="none" stroke="black"/>
<path d="M533.725,499.705h 5.35748" fill="none" stroke="black"/>
<path d="M533.725,494.068h 5.35748" fill="none" stroke="black"/>
<path d="M528.368,488.43h 10.715" fill="none" stroke="black"/>
<path d="M533.725,482.792h 5.35748" fill="none" stroke="black"/>
<path d="M533.725,477.154h 5.35748" fill="none" stroke="black"/>
<path d="M533.725,471.516h 5.35748" fill="none" stroke="black"/>
<path d="M533.725,465.878h 5.35748" fill="none" stroke="black"/>
<path d="M528.368,460.24h 10.715" fill="none" stroke="black"/>
<path d="M438.63,465.878v 7.79715" fill="none" stroke="#6666ff" stroke-width="2"/>
<path d="M433.744,473.675l 4.88581, -13.4351l 4.88581, 13.4351z" fill="#fefefe"/>
<path d="M433.744,473.675l 4.88581, -13.4351l 4.88581, 13.4351h -9.77163z" fill="none" stroke="#6666ff" stroke-width="2"/>
<path d="M467.331,465.878v 7.79715" fill="none" stroke="#6666ff" stroke-width="2"/>
<path d="M462.445,473.675l 4.88581, -13.4351l 4.88581, 13.4351z" fill="#fefefe"/>
<path d="M462.445,473.675l 4.88581, -13.4351l 4.88581, 13.4351h -9.77163z" fill="none" stroke="#6666ff" stroke-width="2"/>
<rect x="79.8701" y="25.5689" width="459.213" height="434.671" fill="white"/>
<rect x="79.8701" y="25.5689" width="459.213" height="434.671" fill="none" stroke="black"/>
<rect x="79.8701" y="25.5689" width="459.213" height="434.671" fill="white"/>
<rect x="79.8701" y="25.5689" width="459.213" height="434.671" fill="none" stroke="black"/>
<path d="M79.8701,460.24h 459.213z" fill="#00ff00"/>
<path d="M79.8701,460.24h 459.213" fill="none" stroke="black"/>
<path d="M79.8701,460.24h 459.213" fill="none" stroke="black"/>
<path d="M79.8701,447.813v 12.4265" fill="none" stroke="black"/>
<path d="M89.0543,454.027v 6.21324" fill="none" stroke="black"/>
<path d="M98.2386,454.027v 6.21324" fill="none" stroke="black"/>
<path d="M107.423,454.027v 6.21324" fill="none" stroke="black"/>
<path d="M116.607,454.027v 6.21324" fill="none" stroke="black"/>
<path d="M125.791,447.813v 12.4265" fill="none" stroke="black"/>
<path d="M134.976,454.027v 6.21324" fill="none" stroke="black"/>
<path d="M144.16,454.027v 6.21324" fill="none" stroke="black"/>
<path d="M153.344,454.027v 6.21324" fill="none" stroke="black"/>
<path d="M162.528,454.027v 6.21324" fill="none" stroke="black"/>
<path d="M171.713,447.813v 12.4265" fill="none" stroke="black"/>
<path d="M180.897,454.027v 6.21324" fill="none" stroke="black"/>
<path d="M190.081,454.027v 6.21324" fill="none" stroke="black"/>
<path d="M199.265,454.027v 6.21324" fill="none" stroke="black"/>
<path d="M208.45,454.027v 6.21324" fill="none" stroke="black"/>
<path d="M217.634,447.813v 12.4265" fill="none" stroke="black"/>
<path d="M226.818,454.027v 6.21324" fill="none" stroke="black"/>
<path d="M236.002,454.027v 6.21324" fill="none" stroke="black"/>
<path d="M245.187,454.027v 6.21324" fill="none" stroke="black"/>
<path d="M254.371,454.027v 6.21324" fill="none" stroke="black"/>
<path d="M263.555,447.813v 12.4265" fill="none" stroke="black"/>
<path d="M272.739,454.027v 6.21324" fill="none" stroke="black"/>
<path d="M281.924,454.027v 6.21324" fill="none" stroke="black"/>
<path d="M291.108,454.027v 6.21324" fill="none" stroke="black"/>
<path d="M300.292,454.027v 6.21324" fill="none" stroke="black"/>
<path d="M309.476,447.813v 12.4265" fill="none" stroke="black"/>
<path d="M318.661,454.027v 6.21324" fill="none" stroke="black"/>
<path d="M327.845,454.027v 6.21324" fill="none" stroke="black"/>
<path d="M337.029,454.027v 6.21324" fill="none" stroke="black"/>
<path d="M346.213,454.027v 6.21324" fill="none" stroke="black"/>
<path d="M355.398,447.813v 12.4265" fill="none" stroke="black"/>
<path d="M364.582,454.027v 6.21324" fill="none" stroke="black"/>
<path d="M373.766,454.027v 6.21324" fill="none" stroke="black"/>
<path d="M382.95,454.027v 6.21324" fill="none" stroke="black"/>
<path d="M392.135,454.027v 6.21324" fill="none" stroke="black"/>
<path d="M401.319,447.813v 12.4265" fill="none" stroke="black"/>
<path d="M410.503,454.027v 6.21324" fill="none" stroke="black"/>
<path d="M419.687,454.027v 6.21324" fill="none" stroke="black"/>
<path d="M428.872,454.027v 6.21324" fill="none" stroke="black"/>
<path d="M438.056,454.027v 6.21324" fill="none" stroke="black"/>
<path d="M447.24,447.813v 12.4265" fill="none" stroke="black"/>
<path d="M456.424,454.027v 6.21324" fill="none" stroke="black"/>
<path d="M465.609,454.027v 6.21324" fill="none" stroke="black"/>
<path d="M474.793,454.027v 6.21324" fill="none" stroke="black"/>
<path d="M483.977,454.027v 6.21324" fill="none" stroke="black"/>
<path d="M493.161,447.813v 12.4265" fill="none" stroke="black"/>
<path d="M502.346,454.027v 6.21324" fill="none" stroke="black"/>
<path d="M511.53,454.027v 6.21324" fill="none" stroke="black"/>
<path d="M520.714,454.027v 6.21324" fill="none" stroke="black"/>
<path d="M529.898,454.027v 6.21324" fill="none" stroke="black"/>
<path d="M539.083,447.813v 12.4265" fill="none" stroke="black"/>
<path d="M79.8701,447.813v 12.4265" fill="none" stroke="black"/>
<path d="M79.8701,25.5689h 459.213" fill="none" stroke="black"/>
<path d="M79.8701,37.9954v -12.4265" fill="none" stroke="black"/>
<path d="M89.0543,31.7821v -6.21324" fill="none" stroke="black"/>
<path d="M98.2386,31.7821v -6.21324" fill="none" stroke="black"/>
<path d="M107.423,31.7821v -6.21324" fill="none" stroke="black"/>
<path d="M116.607,31.7821v -6.21324" fill="none" stroke="black"/>
<path d="M125.791,37.9954v -12.4265" fill="none" stroke="black"/>
<path d="M134.976,31.7821v -6.21324" fill="none" stroke="black"/>
<path d="M144.16,31.7821v -6.21324" fill="none" stroke="black"/>
<path d="M153.344,31.7821v -6.21324" fill="none" stroke="black"/>
<path d="M162.528,31.7821v -6.21324" fill="none" stroke="black"/>
<path d="M171.713,37.9954v -12.4265" fill="none" stroke="black"/>
<path d="M180.897,31.7821v -6.21324" fill="none" stroke="black"/>
<path d="M190.081,31.7821v -6.21324" fill="none" stroke="black"/>
<path d="M199.265,31.7821v -6.21324" fill="none" stroke="black"/>
<path d="M208.45,31.7821v -6.21324" fill="none" stroke="black"/>
<path d="M217.634,37.9954v -12.4265" fill="none" stroke="black"/>
<path d="M226.818,31.7821v -6.21324" fill="none" stroke="black"/>
<path d="M236.002,31.7821v -6.21324" fill="none" stroke="black"/>
<path d="M245.187,31.7821v -6.21324" fill="none" stroke="black"/>
<path d="M254.371,31.7821v -6.21324" fill="none" stroke="black"/>
<path d="M263.555,37.9954v -12.4265" fill="none" stroke="black"/>
<path d="M272.739,31.7821v -6.21324" fill="none" stroke="black"/>
<path d="M281.924,31.7821v -6.21324" fill="none" stroke="black"/>
<path d="M291.108,31.7821v -6.21324" fill="none" stroke="black"/>
<path d="M300.292,31.7821v -6.21324" fill="none" stroke="black"/>
<path d="M309.476,37.9954v -12.4265" fill="none" stroke="black"/>
<path d="M318.661,31.7821v -6.21324" fill="none" stroke="black"/>
<path d="M327.845,31.7821v -6.21324" fill="none" stroke="black"/>
<path d="M337.029,31.7821v -6.21324" fill="none" stroke="black"/>
<path d="M346.213,31.7821v -6.21324" fill="none" stroke="black"/>
<path d="M355.398,37.9954v -12.4265" fill="none" stroke="black"/>
<path d="M364.582,31.7821v -6.21324" fill="none" stroke="black"/>
<path d="M373.766,31.7821v -6.21324" fill="none" stroke="black"/>
<path d="M382.95,31.7821v -6.21324" fill="none" stroke="black"/>
<path d="M392.135,31.7821v -6.21324" fill="none" stroke="black"/>
<path d="M401.319,37.9954v -12.4265" fill="none" stroke="black"/>
<path d="M410.503,31.7821v -6.21324" fill="none" stroke="black"/>
<path d="M419.687,31.7821v -6.21324" fill="none" stroke="black"/>
<path d="M428.872,31.7821v -6.21324" fill="none" stroke="black"/>
<path d="M438.056,31.7821v -6.21324" fill="none" stroke="black"/>
<path d="M447.24,37.9954v -12.4265" fill="none" stroke="black"/>
<path d="M456.424,31.7821v -6.21324" fill="none" stroke="black"/>
<path d="M465.609,31.7821v -6.21324" fill="none" stroke="black"/>
<path d="M474.793,31.7821v -6.21324" fill="none" stroke="black"/>
<path d="M483.977,31.7821v -6.21324" fill="none" stroke="black"/>
<path d="M493.161,37.9954v -12.4265" fill="none" stroke="black"/>
<path d="M502.346,31.7821v -6.21324" fill="none" stroke="black"/>
<path d="M511.53,31.7821v -6.21324" fill="none" stroke="black"/>
<path d="M520.714,31.7821v -6.21324" fill="none" stroke="black"/>
<path d="M529.898,31.7821v -6.21324" fill="none" stroke="black"/>
<path d="M539.083,37.9954v -12.4265" fill="none" stroke="black"/>
<path d="M79.8701,37.9954v -12.4265" fill="none" stroke="black"/>
<path d="M79.8701,460.24v -434.671" fill="none" stroke="black"/>
<path d="M94.3268,460.24h -14.4567" fill="none" stroke="black"/>
<path d="M87.0984,443.951h -7.22835" fill="none" stroke="black"/>
<path d="M87.0984,427.662h -7.22835" fill="none" stroke="black"/>
<path d="M87.0984,411.372h -7.22835" fill="none" stroke="black"/>
<path d="M94.3268,395.083h -14.4567" fill="none" stroke="black"/>
<path d="M87.0984,378.794h -7.22835" fill="none" stroke="black"/>
<path d="M87.0984,362.505h -7.22835" fill="none" stroke="black"/>
<path d="M87.0984,346.216h -7.22835" fill="none" stroke="black"/>
<path d="M94.3268,329.926h -14.4567" fill="none" stroke="black"/>
<path d="M87.0984,313.637h -7.22835" fill="none" stroke="black"/>
<path d="M87.0984,297.348h -7.22835" fill="none" stroke="black"/>
<path d="M87.0984,281.059h -7.22835" fill="none" stroke="black"/>
<path d="M94.3268,264.77h -14.4567" fill="none" stroke="black"/>
<path d="M87.0984,248.481h -7.22835" fill="none" stroke="black"/>
<path d="M87.0984,232.191h -7.22835" fill="none" stroke="black"/>
<path d="M87.0984,215.902h -7.22835" fill="none" stroke="black"/>
<path d="M94.3268,199.613h -14.4567" fill="none" stroke="black"/>
<path d="M87.0984,183.324h -7.22835" fill="none" stroke="black"/>
<path d="M87.0984,167.035h -7.22835" fill="none" stroke="black"/>
<path d="M87.0984,150.746h -7.22835" fill="none" stroke="black"/>
<path d="M94.3268,134.456h -14.4567" fill="none" stroke="black"/>
<path d="M87.0984,118.167h -7.22835" fill="none" stroke="black"/>
<path d="M87.0984,101.878h -7.22835" fill="none" stroke="black"/>
<path d="M87.0984,85.5889h -7.22835" fill="none" stroke="black"/>
<path d="M94.3268,69.2997h -14.4567" fill="none" stroke="black"/>
<path d="M94.3268,69.2997h -14.4567" fill="none" stroke="black"/>
<path d="M87.0984,53.0105h -7.22835" fill="none" stroke="black"/>
<path d="M87.0984,36.7213h -7.22835" fill="none" stroke="black"/>
<text xml:space="preserve" x="66.1344" y="467.051" fill="black" font-size="18.8468" font-family="Helvetica">0</text>
<text xml:space="preserve" x="55.671" y="402.367" fill="black" font-size="18.8468" font-family="Helvetica">20</text>
<text xml:space="preserve" x="55.671" y="336.733" fill="black" font-size="18.8468" font-family="Helvetica">40</text>
<text xml:space="preserve" x="55.671" y="272.05" fill="black" font-size="18.8468" font-family="Helvetica">60</text>
<text xml:space="preserve" x="55.671" y="206.415" fill="black" font-size="18.8468" font-family="Helvetica">80</text>
<text xml:space="preserve" x="45.2075" y="141.732" fill="black" font-size="18.8468" font-family="Helvetica">100</text>
<text xml:space="preserve" x="45.2075" y="76.0979" fill="black" font-size="18.8468" font-family="Helvetica">120</text>
<g transform="rotate(-90,22.3781,82.7564)">
<text xml:space="preserve" x="22.3781" y="82.7564" fill="black" font-size="18.8468" font-family="Helvetica">Events</text>
</g>
<path d="M539.083,460.24v -434.671" fill="none" stroke="black"/>
<path d="M524.626,460.24h 14.4567" fill="none" stroke="black"/>
<path d="M531.854,443.951h 7.22835" fill="none" stroke="black"/>
<path d="M531.854,427.662h 7.22835" fill="none" stroke="black"/>
<path d="M531.854,411.372h 7.22835" fill="none" stroke="black"/>
<path d="M524.626,395.083h 14.4567" fill="none" stroke="black"/>
<path d="M531.854,378.794h 7.22835" fill="none" stroke="black"/>
<path d="M531.854,362.505h 7.22835" fill="none" stroke="black"/>
<path d="M531.854,346.216h 7.22835" fill="none" stroke="black"/>
<path d="M524.626,329.926h 14.4567" fill="none" stroke="black"/>
<path d="M531.854,313.637h 7.22835" fill="none" stroke="black"/>
<path d="M531.854,297.348h 7.22835" fill="none" stroke="black"/>
<path d="M531.854,281.059h 7.22835" fill="none" stroke="black"/>
<path d="M524.626,264.77h 14.4567" fill="none" stroke="black"/>
<path d="M531.854,248.481h 7.22835" fill="none" stroke="black"/>
<path d="M531.854,232.191h 7.22835" fill="none" stroke="black"/>
<path d="M531.854,215.902h 7.22835" fill="none" stroke="black"/>
<path d="M524.626,199.613h 14.4567" fill="none" stroke="black"/>
<path d="M531.854,183.324h 7.22835" fill="none" stroke="black"/>
<path d="M531.854,167.035h 7.22835" fill="none" stroke="black"/>
<path d="M531.854,150.746h 7.22835" fill="none" stroke="black"/>
<path d="M524.626,134.456h 14.4567" fill="none" stroke="black"/>
<path d="M531.854,118.167h 7.22835" fill="none" stroke="black"/>
<path d="M531.854,101.878h 7.22835" fill="none" stroke="black"/>
<path d="M531.854,85.5889h 7.22835" fill="none" stroke="black"/>
<path d="M524.626,69.2997h 14.4567" fill="none" stroke="black"/>
<path d="M524.626,69.2997h 14.4567" fill="none" stroke="black"/>
<path d="M531.854,53.0105h 7.22835" fill="none" stroke="black"/>
<path d="M531.854,36.7213h 7.22835" fill="none" stroke="black"/>
<path d="M79.8701,460.24v -0.732102h 28.7008v -6.94782h 28.7008v -14.9506h 28.7008v -16.8084h 28.7008v -20.269h 28.7008v -10.5707h 28.7008v -26.312h 28.7008v -7.02573h 28.7008v -42.546h 28.7008v -26.1084h 28.7008v 13.8842h 28.7008v 89.7344h 28.7008v
 56.858h 28.7008v 11.0745h 28.7008v 0.717775h 28.7008v 0.00187179h 28.7008v 1.96217e-05z" fill="#00ff00"/>
<path d="M79.8701,459.508h 28.7008v -6.94782h 28.7008v -14.9506h 28.7008v -16.8084h 28.7008v -20.269h 28.7008v -10.5707h 28.7008v -26.312h 28.7008v -7.02573h 28.7008v -42.546h 28.7008v -26.1084h 28.7008v 13.8842h 28.7008v 89.7344h 28.7008v 56.858h
 28.7008v 11.0745h 28.7008v 0.719666h 57.4016" fill="none" stroke="black"/>
<path d="M79.8701,460.24v -0.0976737h 28.7008v -0.598573h 28.7008v -2.87121h 28.7008v -7.10462h 28.7008v -7.76021h 28.7008v -8.19872h 28.7008v -15.3002h 28.7008v -23.4083h 28.7008v -40.7147h 28.7008v -49.3098h 28.7008v 5.9461h 28.7008v 82.1348h
 28.7008v 55.6646h 28.7008v 10.8988h 28.7008v 0.717775h 28.7008v 0.00187179h 28.7008v 1.4702e-05z" fill="#fefefe"/>
<path d="M79.8701,460.142h 28.7008v -0.598573h 28.7008v -2.87121h 28.7008v -7.10462h 28.7008v -7.76021h 28.7008v -8.19872h 28.7008v -15.3002h 28.7008v -23.4083h 28.7008v -40.7147h 28.7008v -49.3098h 28.7008v 5.9461h 28.7008v 82.1348h 28.7008v
 55.6646h 28.7008v 10.8988h 28.7008v 0.719661h 57.4016" fill="none" stroke="black"/>
<path d="M79.8701,460.142h 28.7008v -0.598573h 28.7008v -2.87121h 28.7008v -7.10462h 28.7008v -7.76021h 28.7008v -8.19872h 28.7008v -15.3002h 28.7008v -23.4083h 28.7008v -40.7147h 28.7008v -49.3098h 28.7008v 5.9461h 28.7008v 82.1348h 28.7008v
 55.6646h 28.7008v 10.8988h 28.7008v 0.719661h 57.4016" fill="none" stroke="black"/>
<path d="M79.8701,460.24v -0.0976737h 28.7008v -0.598573h 28.7008v -2.87121h 28.7008v -7.10462h 28.7008v -7.76021h 28.7008v -8.19872h 28.7008v -15.3002h 28.7008v -23.4083h 28.7008v -40.7147h 28.7008v -49.3098h 28.7008v 5.9461h 28.7008v 82.1348h
 28.7008v 55.6646h 28.7008v 10.8988h 28.7008v 0.717775h 28.7008v 0.00187179h 28.7008v 1.4702e-05z" fill="#0000ff"/>
<path d="M79.8701,460.142h 28.7008v -0.598573h 28.7008v -2.87121h 28.7008v -7.10462h 28.7008v -7.76021h 28.7008v -8.19872h 28.7008v -15.3002h 28.7008v -23.4083h 28.7008v -40.7147h 28.7008v -49.3098h 28.7008v 5.9461h 28.7008v 82.1348h 28.7008v
 55.6646h 28.7008v 10.8988h 28.7008v 0.719661h 57.4016" fill="none" stroke="black"/>
<path d="M79.8701,460.24v -0.0502947h 28.7008v -0.309107h 28.7008v -1.08315h 28.7008v -3.17188h 28.7008v -3.23671h 28.7008v -6.55157h 28.7008v -14.8738h 28.7008v -19.5772h 28.7008v -28.8319h 28.7008v -31.869h 28.7008v 6.14549h 28.7008v 54.9322h
 28.7008v 39.5808h 28.7008v 8.28463h 28.7008v 0.611541h 57.4016v 1.21423e-05z" fill="#fefefe"/>
<path d="M79.8701,460.19h 28.7008v -0.309107h 28.7008v -1.08315h 28.7008v -3.17188h 28.7008v -3.23671h 28.7008v -6.55157h 28.7008v -14.8738h 28.7008v -19.5772h 28.7008v -28.8319h 28.7008v -31.869h 28.7008v 6.14549h 28.7008v 54.9322h 28.7008v 39.5808h
 28.7008v 8.28463h 28.7008v 0.611554h 57.4016" fill="none" stroke="black"/>
<path d="M79.8701,460.19h 28.7008v -0.309107h 28.7008v -1.08315h 28.7008v -3.17188h 28.7008v -3.23671h 28.7008v -6.55157h 28.7008v -14.8738h 28.7008v -19.5772h 28.7008v -28.8319h 28.7008v -31.869h 28.7008v 6.14549h 28.7008v 54.9322h 28.7008v 39.5808h
 28.7008v 8.28463h 28.7008v 0.611554h 57.4016" fill="none" stroke="black"/>
<path d="M79.8701,460.24v -0.0502947h 28.7008v -0.309107h 28.7008v -1.08315h 28.7008v -3.17188h 28.7008v -3.23671h 28.7008v -6.55157h 28.7008v -14.8738h 28.7008v -19.5772h 28.7008v -28.8319h 28.7008v -31.869h 28.7008v 6.14549h 28.7008v 54.9322h
 28.7008v 39.5808h 28.7008v 8.28463h 28.7008v 0.611541h 57.4016v 1.21423e-05z" fill="#ffff00"/>
<path d="M79.8701,460.19h 28.7008v -0.309107h 28.7008v -1.08315h 28.7008v -3.17188h 28.7008v -3.23671h 28.7008v -6.55157h 28.7008v -14.8738h 28.7008v -19.5772h 28.7008v -28.8319h 28.7008v -31.869h 28.7008v 6.14549h 28.7008v 54.9322h 28.7008v 39.5808h
 28.7008v 8.28463h 28.7008v 0.611554h 57.4016" fill="none" stroke="black"/>
<path d="M79.8701,460.24v -0.00617328h 28.7008v -0.0631392h 28.7008v -0.336389h 28.7008v -0.774646h 28.7008v -0.297979h 28.7008v -1.70305h 28.7008v -3.58854h 28.7008v -1.79918h 28.7008v 0.73731h 28.7008v -2.84724h 28.7008v 3.2905h 28.7008v 5.49367h
 28.7008v 1.61034h 28.7008v 0.268592h 28.7008v 0.0159154h 57.4016v 7.73956e-06z" fill="#fefefe"/>
<path d="M79.8701,460.24h 28.7008v -0.0693125h 28.7008v -0.336389h 28.7008v -0.774646h 28.7008v -0.297979h 28.7008v -1.70305h 28.7008v -3.58854h 28.7008v -1.79918h 28.7008v 0.73731h 28.7008v -2.84724h 28.7008v 3.2905h 28.7008v 5.49367h 28.7008v
 1.61034h 28.7008v 0.284515h 86.1024" fill="none" stroke="black"/>
<path d="M79.8701,460.24h 28.7008v -0.0693125h 28.7008v -0.336389h 28.7008v -0.774646h 28.7008v -0.297979h 28.7008v -1.70305h 28.7008v -3.58854h 28.7008v -1.79918h 28.7008v 0.73731h 28.7008v -2.84724h 28.7008v 3.2905h 28.7008v 5.49367h 28.7008v
 1.61034h 28.7008v 0.284515h 86.1024" fill="none" stroke="black"/>
<path d="M79.8701,460.24v -0.00617328h 28.7008v -0.0631392h 28.7008v -0.336389h 28.7008v -0.774646h 28.7008v -0.297979h 28.7008v -1.70305h 28.7008v -3.58854h 28.7008v -1.79918h 28.7008v 0.73731h 28.7008v -2.84724h 28.7008v 3.2905h 28.7008v 5.49367h
 28.7008v 1.61034h 28.7008v 0.268592h 28.7008v 0.0159154h 57.4016v 7.73956e-06z" fill="#00ffff"/>
<path d="M79.8701,460.24h 28.7008v -0.0693125h 28.7008v -0.336389h 28.7008v -0.774646h 28.7008v -0.297979h 28.7008v -1.70305h 28.7008v -3.58854h 28.7008v -1.79918h 28.7008v 0.73731h 28.7008v -2.84724h 28.7008v 3.2905h 28.7008v 5.49367h 28.7008v
 1.61034h 28.7008v 0.284515h 86.1024" fill="none" stroke="black"/>
<path d="M79.8701,460.24v -4.18884e-06h 57.4016v -0.0583408h 28.7008v -0.247117h 28.7008v 0.297765h 28.7008v -1.08362h 28.7008v -2.43007h 28.7008v -0.664697h 28.7008v 1.85865h 28.7008v -0.901505h 28.7008v 1.87198h 28.7008v 1.19316h 28.7008v 0.15071h
 28.7008v 0.0107852h 28.7008v 0.00230395h 57.4016v 4.18884e-06z" fill="#fefefe"/>
<path d="M79.8701,460.24h 57.4016v -0.0583449h 28.7008v -0.247117h 28.7008v 0.305462h 28.7008v -1.09132h 28.7008v -2.43007h 28.7008v -0.664697h 28.7008v 1.85865h 28.7008v -0.901505h 28.7008v 1.87198h 28.7008v 1.19316h 28.7008v 0.163803h 114.803"
 fill="none" stroke="black"/>
<path d="M79.8701,460.24h 57.4016v -0.0583449h 28.7008v -0.247117h 28.7008v 0.305462h 28.7008v -1.09132h 28.7008v -2.43007h 28.7008v -0.664697h 28.7008v 1.85865h 28.7008v -0.901505h 28.7008v 1.87198h 28.7008v 1.19316h 28.7008v 0.163803h 114.803"
 fill="none" stroke="black"/>
<path d="M79.8701,460.24v -4.18884e-06h 57.4016v -0.0583408h 28.7008v -0.247117h 28.7008v 0.297765h 28.7008v -1.08362h 28.7008v -2.43007h 28.7008v -0.664697h 28.7008v 1.85865h 28.7008v -0.901505h 28.7008v 1.87198h 28.7008v 1.19316h 28.7008v 0.15071h
 28.7008v 0.0107852h 28.7008v 0.00230395h 57.4016v 4.18884e-06z" fill="#59d354"/>
<path d="M79.8701,460.24h 57.4016v -0.0583449h 28.7008v -0.247117h 28.7008v 0.305462h 28.7008v -1.09132h 28.7008v -2.43007h 28.7008v -0.664697h 28.7008v 1.85865h 28.7008v -0.901505h 28.7008v 1.87198h 28.7008v 1.19316h 28.7008v 0.163803h 114.803"
 fill="none" stroke="black"/>
<path d="M79.8701,460.24v -1.62912e-06h 57.4016v -0.0583408h 28.7008v -0.247117h 28.7008v 0.305458h 28.7008v -1.03855h 28.7008v -2.46048h 28.7008v -0.555119h 28.7008v 1.96124h 28.7008v -0.798833h 28.7008v 1.85335h 28.7008v 0.987096h 28.7008v
 0.051292h 114.803v 1.62912e-06z" fill="#fefefe"/>
<path d="M79.8701,460.24h 57.4016v -0.0583424h 28.7008v -0.247117h 28.7008v 0.305459h 28.7008v -1.03856h 28.7008v -2.46048h 28.7008v -0.555119h 28.7008v 1.96124h 28.7008v -0.798833h 28.7008v 1.85335h 28.7008v 0.987096h 28.7008v 0.0512936h 114.803"
 fill="none" stroke="black"/>
<path d="M79.8701,460.24h 57.4016v -0.0583424h 28.7008v -0.247117h 28.7008v 0.305459h 28.7008v -1.03856h 28.7008v -2.46048h 28.7008v -0.555119h 28.7008v 1.96124h 28.7008v -0.798833h 28.7008v 1.85335h 28.7008v 0.987096h 28.7008v 0.0512936h 114.803"
 fill="none" stroke="black"/>
<path d="M79.8701,460.24v -1.62912e-06h 57.4016v -0.0583408h 28.7008v -0.247117h 28.7008v 0.305458h 28.7008v -1.03855h 28.7008v -2.46048h 28.7008v -0.555119h 28.7008v 1.96124h 28.7008v -0.798833h 28.7008v 1.85335h 28.7008v 0.987096h 28.7008v
 0.051292h 114.803v 1.62912e-06z" fill="#5954d8"/>
<path d="M79.8701,460.24h 57.4016v -0.0583424h 28.7008v -0.247117h 28.7008v 0.305459h 28.7008v -1.03856h 28.7008v -2.46048h 28.7008v -0.555119h 28.7008v 1.96124h 28.7008v -0.798833h 28.7008v 1.85335h 28.7008v 0.987096h 28.7008v 0.0512936h 114.803"
 fill="none" stroke="black"/>
<path d="M103.255,459.172l -0.671309, 0.67081" fill="none" stroke="#6666ff"/>
<path d="M96.0391,459.172l -0.671309, 0.67081" fill="none" stroke="#6666ff"/>
<path d="M88.8233,459.172l -0.671309, 0.67081" fill="none" stroke="#6666ff"/>
<path d="M81.6074,459.172l -0.671309, 0.67081" fill="none" stroke="#6666ff"/>
<path d="M137.272,454.023l -0.0938674, 0.0937976" fill="none" stroke="#6666ff"/>
<path d="M133.078,451.003l -3.11559, 3.11327" fill="none" stroke="#6666ff"/>
<path d="M125.862,451.003l -3.11559, 3.11327" fill="none" stroke="#6666ff"/>
<path d="M118.646,451.003l -3.11559, 3.11327" fill="none" stroke="#6666ff"/>
<path d="M111.43,451.003l -2.85919, 2.85706" fill="none" stroke="#6666ff"/>
<path d="M165.972,439.764l -1.38233, 1.3813" fill="none" stroke="#6666ff"/>
<path d="M164.452,434.073l -7.07765, 7.07239" fill="none" stroke="#6666ff"/>
<path d="M157.236,434.073l -7.07765, 7.07239" fill="none" stroke="#6666ff"/>
<path d="M150.02,434.073l -7.07765, 7.07239" fill="none" stroke="#6666ff"/>
<path d="M142.804,434.073l -5.53279, 5.52867" fill="none" stroke="#6666ff"/>
<path d="M194.673,425.506l -0.857979, 0.857341" fill="none" stroke="#6666ff"/>
<path d="M194.673,418.295l -8.07381, 8.06781" fill="none" stroke="#6666ff"/>
<path d="M190.516,415.239l -11.1325, 11.1243" fill="none" stroke="#6666ff"/>
<path d="M183.3,415.239l -11.1325, 11.1243" fill="none" stroke="#6666ff"/>
<path d="M176.084,415.239l -10.112, 10.1045" fill="none" stroke="#6666ff"/>
<path d="M168.869,415.239l -2.8962, 2.89405" fill="none" stroke="#6666ff"/>
<path d="M223.374,404.037l -4.79999, 4.79643" fill="none" stroke="#6666ff"/>
<path d="M223.374,396.826l -12.0158, 12.0069" fill="none" stroke="#6666ff"/>
<path d="M220.757,392.231l -16.6149, 16.6025" fill="none" stroke="#6666ff"/>
<path d="M213.541,392.231l -16.6149, 16.6025" fill="none" stroke="#6666ff"/>
<path d="M206.326,392.231l -11.6523, 11.6437" fill="none" stroke="#6666ff"/>
<path d="M199.11,392.231l -4.43651, 4.43321" fill="none" stroke="#6666ff"/>
<path d="M252.075,396.989l -2.10271, 2.10114" fill="none" stroke="#6666ff"/>
<path d="M252.075,389.778l -9.31854, 9.31161" fill="none" stroke="#6666ff"/>
<path d="M252.075,382.568l -16.5344, 16.5221" fill="none" stroke="#6666ff"/>
<path d="M246.596,380.833l -18.2709, 18.2573" fill="none" stroke="#6666ff"/>
<path d="M239.38,380.833l -16.0057, 15.9938" fill="none" stroke="#6666ff"/>
<path d="M232.164,380.833l -8.78984, 8.7833" fill="none" stroke="#6666ff"/>
<path d="M224.948,380.833l -1.57401, 1.57284" fill="none" stroke="#6666ff"/>
<path d="M280.776,368.309l -5.35529, 5.3513" fill="none" stroke="#6666ff"/>
<path d="M280.776,361.099l -12.5711, 12.5618" fill="none" stroke="#6666ff"/>
<path d="M280.776,353.888l -19.7869, 19.7722" fill="none" stroke="#6666ff"/>
<path d="M273.81,353.638l -20.0376, 20.0227" fill="none" stroke="#6666ff"/>
<path d="M266.595,353.638l -14.5198, 14.509" fill="none" stroke="#6666ff"/>
<path d="M259.379,353.638l -7.30393, 7.2985" fill="none" stroke="#6666ff"/>
<path d="M252.163,353.638l -0.0881016, 0.0880361" fill="none" stroke="#6666ff"/>
<path d="M309.476,361.261l -5.11892, 5.11511" fill="none" stroke="#6666ff"/>
<path d="M309.476,354.051l -12.3347, 12.3256" fill="none" stroke="#6666ff"/>
<path d="M309.446,346.871l -19.5202, 19.5057" fill="none" stroke="#6666ff"/>
<path d="M302.23,346.871l -19.5202, 19.5057" fill="none" stroke="#6666ff"/>
<path d="M295.014,346.871l -14.2387, 14.2281" fill="none" stroke="#6666ff"/>
<path d="M287.798,346.871l -7.02289, 7.01767" fill="none" stroke="#6666ff"/>
<path d="M338.177,325.371l -4.27306, 4.26989" fill="none" stroke="#6666ff"/>
<path d="M338.177,318.161l -11.4889, 11.4804" fill="none" stroke="#6666ff"/>
<path d="M338.177,310.95l -18.7047, 18.6908" fill="none" stroke="#6666ff"/>
<path d="M338.177,303.74l -25.9206, 25.9013" fill="none" stroke="#6666ff"/>
<path d="M336.191,298.514l -26.7149, 26.695" fill="none" stroke="#6666ff"/>
<path d="M328.975,298.514l -19.499, 19.4845" fill="none" stroke="#6666ff"/>
<path d="M321.76,298.514l -12.2832, 12.2741" fill="none" stroke="#6666ff"/>
<path d="M314.544,298.514l -5.06738, 5.06361" fill="none" stroke="#6666ff"/>
<path d="M366.878,311.113l -0.0328295, 0.0328051" fill="none" stroke="#6666ff"/>
<path d="M366.878,303.902l -7.24866, 7.24327" fill="none" stroke="#6666ff"/>
<path d="M366.878,296.692l -14.4645, 14.4537" fill="none" stroke="#6666ff"/>
<path d="M366.878,289.481l -21.6803, 21.6642" fill="none" stroke="#6666ff"/>
<path d="M366.878,282.271l -28.7008, 28.6794" fill="none" stroke="#6666ff"/>
<path d="M366.878,275.06l -28.7008, 28.6794" fill="none" stroke="#6666ff"/>
<path d="M366.878,267.85l -28.7008, 28.6794" fill="none" stroke="#6666ff"/>
<path d="M362.722,264.793l -24.5445, 24.5263" fill="none" stroke="#6666ff"/>
<path d="M355.506,264.793l -17.3287, 17.3158" fill="none" stroke="#6666ff"/>
<path d="M348.29,264.793l -10.1129, 10.1053" fill="none" stroke="#6666ff"/>
<path d="M341.074,264.793l -2.89704, 2.89488" fill="none" stroke="#6666ff"/>
<path d="M395.579,318.486l -6.92678, 6.92163" fill="none" stroke="#6666ff"/>
<path d="M395.579,311.275l -14.1426, 14.1321" fill="none" stroke="#6666ff"/>
<path d="M395.579,304.065l -21.3584, 21.3426" fill="none" stroke="#6666ff"/>
<path d="M395.579,296.854l -28.5743, 28.553" fill="none" stroke="#6666ff"/>
<path d="M395.579,289.644l -28.7008, 28.6794" fill="none" stroke="#6666ff"/>
<path d="M395.579,282.433l -28.7008, 28.6794" fill="none" stroke="#6666ff"/>
<path d="M392.5,278.299l -25.622, 25.603" fill="none" stroke="#6666ff"/>
<path d="M385.284,278.299l -18.4062, 18.3925" fill="none" stroke="#6666ff"/>
<path d="M378.068,278.299l -11.1904, 11.182" fill="none" stroke="#6666ff"/>
<path d="M370.852,278.299l -3.97453, 3.97157" fill="none" stroke="#6666ff"/>
<path d="M424.28,397.963l -3.84448, 3.84162" fill="none" stroke="#6666ff"/>
<path d="M424.28,390.753l -11.0603, 11.0521" fill="none" stroke="#6666ff"/>
<path d="M424.28,383.542l -18.2761, 18.2626" fill="none" stroke="#6666ff"/>
<path d="M419.237,381.371l -20.4495, 20.4342" fill="none" stroke="#6666ff"/>
<path d="M412.021,381.371l -16.4424, 16.4302" fill="none" stroke="#6666ff"/>
<path d="M404.805,381.371l -9.22661, 9.21975" fill="none" stroke="#6666ff"/>
<path d="M397.59,381.371l -2.01078, 2.00928" fill="none" stroke="#6666ff"/>
<path d="M452.98,448.599l -1.51027, 1.50915" fill="none" stroke="#6666ff"/>
<path d="M447.581,446.783l -3.32712, 3.32465" fill="none" stroke="#6666ff"/>
<path d="M440.366,446.783l -3.32712, 3.32465" fill="none" stroke="#6666ff"/>
<path d="M433.15,446.783l -3.32712, 3.32465" fill="none" stroke="#6666ff"/>
<path d="M425.934,446.783l -1.65432, 1.65309" fill="none" stroke="#6666ff"/>
<path d="M478.279,459.372l -0.297521, 0.2973" fill="none" stroke="#6666ff"/>
<path d="M471.063,459.372l -0.297521, 0.2973" fill="none" stroke="#6666ff"/>
<path d="M463.847,459.372l -0.297521, 0.2973" fill="none" stroke="#6666ff"/>
<path d="M456.631,459.372l -0.297521, 0.2973" fill="none" stroke="#6666ff"/>
<path d="M506.277,460.24h -0.0039936" fill="none" stroke="#6666ff"/>
<path d="M499.061,460.24h -0.0039936" fill="none" stroke="#6666ff"/>
<path d="M491.845,460.24h -0.0039936" fill="none" stroke="#6666ff"/>
<path d="M484.63,460.24h -0.0039936" fill="none" stroke="#6666ff"/>
<path d="M535.319,460.058l -0.182101, 0.181966" fill="none" stroke="#6666ff"/>
<path d="M528.103,460.058l -0.182101, 0.181966" fill="none" stroke="#6666ff"/>
<path d="M520.887,460.058l -0.182101, 0.181966" fill="none" stroke="#6666ff"/>
<path d="M513.671,460.058l -0.182101, 0.181966" fill="none" stroke="#6666ff"/>
<path d="M146.866,450.466h -9.56558" fill="none" stroke="black" stroke-width="2"/>
<path d="M137.3,450.466z" fill="none" stroke="black" stroke-width="2"/>
<path d="M156.378,450.466h 9.59428" fill="none" stroke="black" stroke-width="2"/>
<path d="M165.972,450.466z" fill="none" stroke="black" stroke-width="2"/>
<path d="M151.622,445.71v -0.886619" fill="none" stroke="black" stroke-width="2"/>
<path d="M151.622,444.824z" fill="none" stroke="black" stroke-width="2"/>
<path d="M151.622,455.223v 0.886619" fill="none" stroke="black" stroke-width="2"/>
<path d="M151.622,456.109z" fill="none" stroke="black" stroke-width="2"/>
<path d="M175.567,421.146h -9.56558" fill="none" stroke="black" stroke-width="2"/>
<path d="M166.001,421.146z" fill="none" stroke="black" stroke-width="2"/>
<path d="M185.079,421.146h 9.59428" fill="none" stroke="black" stroke-width="2"/>
<path d="M194.673,421.146z" fill="none" stroke="black" stroke-width="2"/>
<path d="M180.323,416.39v -6.52936" fill="none" stroke="black" stroke-width="2"/>
<path d="M180.323,409.86z" fill="none" stroke="black" stroke-width="2"/>
<path d="M180.323,425.902v 6.52936" fill="none" stroke="black" stroke-width="2"/>
<path d="M180.323,432.431z" fill="none" stroke="black" stroke-width="2"/>
<path d="M204.268,398.341h -9.56558" fill="none" stroke="black" stroke-width="2"/>
<path d="M194.702,398.341z" fill="none" stroke="black" stroke-width="2"/>
<path d="M213.78,398.341h 9.59428" fill="none" stroke="black" stroke-width="2"/>
<path d="M223.374,398.341z" fill="none" stroke="black" stroke-width="2"/>
<path d="M209.024,393.585v -9.44446" fill="none" stroke="black" stroke-width="2"/>
<path d="M209.024,384.14z" fill="none" stroke="black" stroke-width="2"/>
<path d="M209.024,403.097v 9.44446" fill="none" stroke="black" stroke-width="2"/>
<path d="M209.024,412.542z" fill="none" stroke="black" stroke-width="2"/>
<path d="M232.968,349.474h -9.56558" fill="none" stroke="black" stroke-width="2"/>
<path d="M223.403,349.474z" fill="none" stroke="black" stroke-width="2"/>
<path d="M242.481,349.474h 9.59428" fill="none" stroke="black" stroke-width="2"/>
<path d="M252.075,349.474z" fill="none" stroke="black" stroke-width="2"/>
<path d="M237.724,344.717v -14.2402" fill="none" stroke="black" stroke-width="2"/>
<path d="M237.724,330.477z" fill="none" stroke="black" stroke-width="2"/>
<path d="M237.724,354.23v 14.2402" fill="none" stroke="black" stroke-width="2"/>
<path d="M237.724,368.47z" fill="none" stroke="black" stroke-width="2"/>
<path d="M261.669,372.278h -9.56558" fill="none" stroke="black" stroke-width="2"/>
<path d="M252.104,372.278z" fill="none" stroke="black" stroke-width="2"/>
<path d="M271.181,372.278h 9.59428" fill="none" stroke="black" stroke-width="2"/>
<path d="M280.776,372.278z" fill="none" stroke="black" stroke-width="2"/>
<path d="M266.425,367.522v -12.1721" fill="none" stroke="black" stroke-width="2"/>
<path d="M266.425,355.35z" fill="none" stroke="black" stroke-width="2"/>
<path d="M266.425,377.034v 12.1721" fill="none" stroke="black" stroke-width="2"/>
<path d="M266.425,389.207z" fill="none" stroke="black" stroke-width="2"/>
<path d="M290.37,362.505h -9.56558" fill="none" stroke="black" stroke-width="2"/>
<path d="M280.804,362.505z" fill="none" stroke="black" stroke-width="2"/>
<path d="M299.882,362.505h 9.59428" fill="none" stroke="black" stroke-width="2"/>
<path d="M309.476,362.505z" fill="none" stroke="black" stroke-width="2"/>
<path d="M295.126,357.749v -13.0878" fill="none" stroke="black" stroke-width="2"/>
<path d="M295.126,344.661z" fill="none" stroke="black" stroke-width="2"/>
<path d="M295.126,367.261v 13.0878" fill="none" stroke="black" stroke-width="2"/>
<path d="M295.126,380.349z" fill="none" stroke="black" stroke-width="2"/>
<path d="M319.071,303.864h -9.56558" fill="none" stroke="black" stroke-width="2"/>
<path d="M309.505,303.864z" fill="none" stroke="black" stroke-width="2"/>
<path d="M328.583,303.864h 9.59428" fill="none" stroke="black" stroke-width="2"/>
<path d="M338.177,303.864z" fill="none" stroke="black" stroke-width="2"/>
<path d="M323.827,299.108v -17.8148" fill="none" stroke="black" stroke-width="2"/>
<path d="M323.827,281.293z" fill="none" stroke="black" stroke-width="2"/>
<path d="M323.827,308.62v 17.8148" fill="none" stroke="black" stroke-width="2"/>
<path d="M323.827,326.435z" fill="none" stroke="black" stroke-width="2"/>
<path d="M347.771,245.223h -9.56558" fill="none" stroke="black" stroke-width="2"/>
<path d="M338.206,245.223z" fill="none" stroke="black" stroke-width="2"/>
<path d="M357.284,245.223h 9.59428" fill="none" stroke="black" stroke-width="2"/>
<path d="M366.878,245.223z" fill="none" stroke="black" stroke-width="2"/>
<path d="M352.528,240.467v -21.7107" fill="none" stroke="black" stroke-width="2"/>
<path d="M352.528,218.756z" fill="none" stroke="black" stroke-width="2"/>
<path d="M352.528,249.979v 21.7107" fill="none" stroke="black" stroke-width="2"/>
<path d="M352.528,271.69z" fill="none" stroke="black" stroke-width="2"/>
<path d="M376.472,342.958h -9.56558" fill="none" stroke="black" stroke-width="2"/>
<path d="M366.907,342.958z" fill="none" stroke="black" stroke-width="2"/>
<path d="M385.984,342.958h 9.59428" fill="none" stroke="black" stroke-width="2"/>
<path d="M395.579,342.958z" fill="none" stroke="black" stroke-width="2"/>
<path d="M381.228,338.202v -14.7909" fill="none" stroke="black" stroke-width="2"/>
<path d="M381.228,323.411z" fill="none" stroke="black" stroke-width="2"/>
<path d="M381.228,347.714v 14.7909" fill="none" stroke="black" stroke-width="2"/>
<path d="M381.228,362.505z" fill="none" stroke="black" stroke-width="2"/>
<path d="M405.173,395.083h -9.56558" fill="none" stroke="black" stroke-width="2"/>
<path d="M395.607,395.083z" fill="none" stroke="black" stroke-width="2"/>
<path d="M414.685,395.083h 9.59428" fill="none" stroke="black" stroke-width="2"/>
<path d="M424.28,395.083z" fill="none" stroke="black" stroke-width="2"/>
<path d="M409.929,390.327v -9.81336" fill="none" stroke="black" stroke-width="2"/>
<path d="M409.929,380.514z" fill="none" stroke="black" stroke-width="2"/>
<path d="M409.929,399.839v 9.81336" fill="none" stroke="black" stroke-width="2"/>
<path d="M409.929,409.653z" fill="none" stroke="black" stroke-width="2"/>
<path d="M433.874,437.435h -9.56558" fill="none" stroke="black" stroke-width="2"/>
<path d="M424.308,437.435z" fill="none" stroke="black" stroke-width="2"/>
<path d="M443.386,437.435h 9.59428" fill="none" stroke="black" stroke-width="2"/>
<path d="M452.98,437.435z" fill="none" stroke="black" stroke-width="2"/>
<path d="M438.63,432.679v -3.8633" fill="none" stroke="black" stroke-width="2"/>
<path d="M438.63,428.816z" fill="none" stroke="black" stroke-width="2"/>
<path d="M438.63,442.191v 3.8633" fill="none" stroke="black" stroke-width="2"/>
<path d="M438.63,446.054z" fill="none" stroke="black" stroke-width="2"/>
<path d="M462.575,456.982h -9.56558" fill="none" stroke="black" stroke-width="2"/>
<path d="M453.009,456.982z" fill="none" stroke="black" stroke-width="2"/>
<path d="M472.087,456.982h 9.59428" fill="none" stroke="black" stroke-width="2"/>
<path d="M481.681,456.982z" fill="none" stroke="black" stroke-width="2"/>
<g fill="black">
<circle cx="151.622" cy="450.466" r="5.32685"/>
<circle cx="180.323" cy="421.146" r="5.32685"/>
<circle cx="209.024" cy="398.341" r="5.32685"/>
<circle cx="237.724" cy="349.474" r="5.32685"/>
<circle cx="266.425" cy="372.278" r="5.32685"/>
<circle cx="295.126" cy="362.505" r="5.32685"/>
<circle cx="323.827" cy="303.864" r="5.32685"/>
<circle cx="352.528" cy="245.223" r="5.32685"/>
<circle cx="381.228" cy="342.958" r="5.32685"/>
<circle cx="409.929" cy="395.083" r="5.32685"/>
<circle cx="438.63" cy="437.435" r="5.32685"/>
<circle cx="467.331" cy="456.982" r="5.32685"/>
</g>
<path d="M79.8701,460.24h 459.213" fill="none" stroke="black"/>
<path d="M79.8701,447.813v 12.4265" fill="none" stroke="black"/>
<path d="M89.0543,454.027v 6.21324" fill="none" stroke="black"/>
<path d="M98.2386,454.027v 6.21324" fill="none" stroke="black"/>
<path d="M107.423,454.027v 6.21324" fill="none" stroke="black"/>
<path d="M116.607,454.027v 6.21324" fill="none" stroke="black"/>
<path d="M125.791,447.813v 12.4265" fill="none" stroke="black"/>
<path d="M134.976,454.027v 6.21324" fill="none" stroke="black"/>
<path d="M144.16,454.027v 6.21324" fill="none" stroke="black"/>
<path d="M153.344,454.027v 6.21324" fill="none" stroke="black"/>
<path d="M162.528,454.027v 6.21324" fill="none" stroke="black"/>
<path d="M171.713,447.813v 12.4265" fill="none" stroke="black"/>
<path d="M180.897,454.027v 6.21324" fill="none" stroke="black"/>
<path d="M190.081,454.027v 6.21324" fill="none" stroke="black"/>
<path d="M199.265,454.027v 6.21324" fill="none" stroke="black"/>
<path d="M208.45,454.027v 6.21324" fill="none" stroke="black"/>
<path d="M217.634,447.813v 12.4265" fill="none" stroke="black"/>
<path d="M226.818,454.027v 6.21324" fill="none" stroke="black"/>
<path d="M236.002,454.027v 6.21324" fill="none" stroke="black"/>
<path d="M245.187,454.027v 6.21324" fill="none" stroke="black"/>
<path d="M254.371,454.027v 6.21324" fill="none" stroke="black"/>
<path d="M263.555,447.813v 12.4265" fill="none" stroke="black"/>
<path d="M272.739,454.027v 6.21324" fill="none" stroke="black"/>
<path d="M281.924,454.027v 6.21324" fill="none" stroke="black"/>
<path d="M291.108,454.027v 6.21324" fill="none" stroke="black"/>
<path d="M300.292,454.027v 6.21324" fill="none" stroke="black"/>
<path d="M309.476,447.813v 12.4265" fill="none" stroke="black"/>
<path d="M318.661,454.027v 6.21324" fill="none" stroke="black"/>
<path d="M327.845,454.027v 6.21324" fill="none" stroke="black"/>
<path d="M337.029,454.027v 6.21324" fill="none" stroke="black"/>
<path d="M346.213,454.027v 6.21324" fill="none" stroke="black"/>
<path d="M355.398,447.813v 12.4265" fill="none" stroke="black"/>
<path d="M364.582,454.027v 6.21324" fill="none" stroke="black"/>
<path d="M373.766,454.027v 6.21324" fill="none" stroke="black"/>
<path d="M382.95,454.027v 6.21324" fill="none" stroke="black"/>
<path d="M392.135,454.027v 6.21324" fill="none" stroke="black"/>
<path d="M401.319,447.813v 12.4265" fill="none" stroke="black"/>
<path d="M410.503,454.027v 6.21324" fill="none" stroke="black"/>
<path d="M419.687,454.027v 6.21324" fill="none" stroke="black"/>
<path d="M428.872,454.027v 6.21324" fill="none" stroke="black"/>
<path d="M438.056,454.027v 6.21324" fill="none" stroke="black"/>
<path d="M447.24,447.813v 12.4265" fill="none" stroke="black"/>
<path d="M456.424,454.027v 6.21324" fill="none" stroke="black"/>
<path d="M465.609,454.027v 6.21324" fill="none" stroke="black"/>
<path d="M474.793,454.027v 6.21324" fill="none" stroke="black"/>
<path d="M483.977,454.027v 6.21324" fill="none" stroke="black"/>
<path d="M493.161,447.813v 12.4265" fill="none" stroke="black"/>
<path d="M502.346,454.027v 6.21324" fill="none" stroke="black"/>
<path d="M511.53,454.027v 6.21324" fill="none" stroke="black"/>
<path d="M520.714,454.027v 6.21324" fill="none" stroke="black"/>
<path d="M529.898,454.027v 6.21324" fill="none" stroke="black"/>
<path d="M539.083,447.813v 12.4265" fill="none" stroke="black"/>
<path d="M79.8701,447.813v 12.4265" fill="none" stroke="black"/>
<path d="M79.8701,25.5689h 459.213" fill="none" stroke="black"/>
<path d="M79.8701,37.9954v -12.4265" fill="none" stroke="black"/>
<path d="M89.0543,31.7821v -6.21324" fill="none" stroke="black"/>
<path d="M98.2386,31.7821v -6.21324" fill="none" stroke="black"/>
<path d="M107.423,31.7821v -6.21324" fill="none" stroke="black"/>
<path d="M116.607,31.7821v -6.21324" fill="none" stroke="black"/>
<path d="M125.791,37.9954v -12.4265" fill="none" stroke="black"/>
<path d="M134.976,31.7821v -6.21324" fill="none" stroke="black"/>
<path d="M144.16,31.7821v -6.21324" fill="none" stroke="black"/>
<path d="M153.344,31.7821v -6.21324" fill="none" stroke="black"/>
<path d="M162.528,31.7821v -6.21324" fill="none" stroke="black"/>
<path d="M171.713,37.9954v -12.4265" fill="none" stroke="black"/>
<path d="M180.897,31.7821v -6.21324" fill="none" stroke="black"/>
<path d="M190.081,31.7821v -6.21324" fill="none" stroke="black"/>
<path d="M199.265,31.7821v -6.21324" fill="none" stroke="black"/>
<path d="M208.45,31.7821v -6.21324" fill="none" stroke="black"/>
<path d="M217.634,37.9954v -12.4265" fill="none" stroke="black"/>
<path d="M226.818,31.7821v -6.21324" fill="none" stroke="black"/>
<path d="M236.002,31.7821v -6.21324" fill="none" stroke="black"/>
<path d="M245.187,31.7821v -6.21324" fill="none" stroke="black"/>
<path d="M254.371,31.7821v -6.21324" fill="none" stroke="black"/>
<path d="M263.555,37.9954v -12.4265" fill="none" stroke="black"/>
<path d="M272.739,31.7821v -6.21324" fill="none" stroke="black"/>
<path d="M281.924,31.7821v -6.21324" fill="none" stroke="black"/>
<path d="M291.108,31.7821v -6.21324" fill="none" stroke="black"/>
<path d="M300.292,31.7821v -6.21324" fill="none" stroke="black"/>
<path d="M309.476,37.9954v -12.4265" fill="none" stroke="black"/>
<path d="M318.661,31.7821v -6.21324" fill="none" stroke="black"/>
<path d="M327.845,31.7821v -6.21324" fill="none" stroke="black"/>
<path d="M337.029,31.7821v -6.21324" fill="none" stroke="black"/>
<path d="M346.213,31.7821v -6.21324" fill="none" stroke="black"/>
<path d="M355.398,37.9954v -12.4265" fill="none" stroke="black"/>
<path d="M364.582,31.7821v -6.21324" fill="none" stroke="black"/>
<path d="M373.766,31.7821v -6.21324" fill="none" stroke="black"/>
<path d="M382.95,31.7821v -6.21324" fill="none" stroke="black"/>
<path d="M392.135,31.7821v -6.21324" fill="none" stroke="black"/>
<path d="M401.319,37.9954v -12.4265" fill="none" stroke="black"/>
<path d="M410.503,31.7821v -6.21324" fill="none" stroke="black"/>
<path d="M419.687,31.7821v -6.21324" fill="none" stroke="black"/>
<path d="M428.872,31.7821v -6.21324" fill="none" stroke="black"/>
<path d="M438.056,31.7821v -6.21324" fill="none" stroke="black"/>
<path d="M447.24,37.9954v -12.4265" fill="none" stroke="black"/>
<path d="M456.424,31.7821v -6.21324" fill="none" stroke="black"/>
<path d="M465.609,31.7821v -6.21324" fill="none" stroke="black"/>
<path d="M474.793,31.7821v -6.21324" fill="none" stroke="black"/>
<path d="M483.977,31.7821v -6.21324" fill="none" stroke="black"/>
<path d="M493.161,37.9954v -12.4265" fill="none" stroke="black"/>
<path d="M502.346,31.7821v -6.21324" fill="none" stroke="black"/>
<path d="M511.53,31.7821v -6.21324" fill="none" stroke="black"/>
<path d="M520.714,31.7821v -6.21324" fill="none" stroke="black"/>
<path d="M529.898,31.7821v -6.21324" fill="none" stroke="black"/>
<path d="M539.083,37.9954v -12.4265" fill="none" stroke="black"/>
<path d="M79.8701,37.9954v -12.4265" fill="none" stroke="black"/>
<path d="M79.8701,460.24v -434.671" fill="none" stroke="black"/>
<path d="M94.3268,460.24h -14.4567" fill="none" stroke="black"/>
<path d="M87.0984,443.951h -7.22835" fill="none" stroke="black"/>
<path d="M87.0984,427.662h -7.22835" fill="none" stroke="black"/>
<path d="M87.0984,411.372h -7.22835" fill="none" stroke="black"/>
<path d="M94.3268,395.083h -14.4567" fill="none" stroke="black"/>
<path d="M87.0984,378.794h -7.22835" fill="none" stroke="black"/>
<path d="M87.0984,362.505h -7.22835" fill="none" stroke="black"/>
<path d="M87.0984,346.216h -7.22835" fill="none" stroke="black"/>
<path d="M94.3268,329.926h -14.4567" fill="none" stroke="black"/>
<path d="M87.0984,313.637h -7.22835" fill="none" stroke="black"/>
<path d="M87.0984,297.348h -7.22835" fill="none" stroke="black"/>
<path d="M87.0984,281.059h -7.22835" fill="none" stroke="black"/>
<path d="M94.3268,264.77h -14.4567" fill="none" stroke="black"/>
<path d="M87.0984,248.481h -7.22835" fill="none" stroke="black"/>
<path d="M87.0984,232.191h -7.22835" fill="none" stroke="black"/>
<path d="M87.0984,215.902h -7.22835" fill="none" stroke="black"/>
<path d="M94.3268,199.613h -14.4567" fill="none" stroke="black"/>
<path d="M87.0984,183.324h -7.22835" fill="none" stroke="black"/>
<path d="M87.0984,167.035h -7.22835" fill="none" stroke="black"/>
<path d="M87.0984,150.746h -7.22835" fill="none" stroke="black"/>
<path d="M94.3268,134.456h -14.4567" fill="none" stroke="black"/>
<path d="M87.0984,118.167h -7.22835" fill="none" stroke="black"/>
<path d="M87.0984,101.878h -7.22835" fill="none" stroke="black"/>
<path d="M87.0984,85.5889h -7.22835" fill="none" stroke="black"/>
<path d="M94.3268,69.2997h -14.4567" fill="none" stroke="black"/>
<path d="M94.3268,69.2997h -14.4567" fill="none" stroke="black"/>
<path d="M87.0984,53.0105h -7.22835" fill="none" stroke="black"/>
<path d="M87.0984,36.7213h -7.22835" fill="none" stroke="black"/>
<path d="M539.083,460.24v -434.671" fill="none" stroke="black"/>
<path d="M524.626,460.24h 14.4567" fill="none" stroke="black"/>
<path d="M531.854,443.951h 7.22835" fill="none" stroke="black"/>
<path d="M531.854,427.662h 7.22835" fill="none" stroke="black"/>
<path d="M531.854,411.372h 7.22835" fill="none" stroke="black"/>
<path d="M524.626,395.083h 14.4567" fill="none" stroke="black"/>
<path d="M531.854,378.794h 7.22835" fill="none" stroke="black"/>
<path d="M531.854,362.505h 7.22835" fill="none" stroke="black"/>
<path d="M531.854,346.216h 7.22835" fill="none" stroke="black"/>
<path d="M524.626,329.926h 14.4567" fill="none" stroke="black"/>
<path d="M531.854,313.637h 7.22835" fill="none" stroke="black"/>
<path d="M531.854,297.348h 7.22835" fill="none" stroke="black"/>
<path d="M531.854,281.059h 7.22835" fill="none" stroke="black"/>
<path d="M524.626,264.77h 14.4567" fill="none" stroke="black"/>
<path d="M531.854,248.481h 7.22835" fill="none" stroke="black"/>
<path d="M531.854,232.191h 7.22835" fill="none" stroke="black"/>
<path d="M531.854,215.902h 7.22835" fill="none" stroke="black"/>
<path d="M524.626,199.613h 14.4567" fill="none" stroke="black"/>
<path d="M531.854,183.324h 7.22835" fill="none" stroke="black"/>
<path d="M531.854,167.035h 7.22835" fill="none" stroke="black"/>
<path d="M531.854,150.746h 7.22835" fill="none" stroke="black"/>
<path d="M524.626,134.456h 14.4567" fill="none" stroke="black"/>
<path d="M531.854,118.167h 7.22835" fill="none" stroke="black"/>
<path d="M531.854,101.878h 7.22835" fill="none" stroke="black"/>
<path d="M531.854,85.5889h 7.22835" fill="none" stroke="black"/>
<path d="M524.626,69.2997h 14.4567" fill="none" stroke="black"/>
<path d="M524.626,69.2997h 14.4567" fill="none" stroke="black"/>
<path d="M531.854,53.0105h 7.22835" fill="none" stroke="black"/>
<path d="M531.854,36.7213h 7.22835" fill="none" stroke="black"/>
<text xml:space="preserve" x="103.232" y="59.9271" fill="black" font-size="18.8468" font-family="Helvetica" font-weight="bold" font-style="oblique">ATLAS</text>
<text xml:space="preserve" x="210.72" y="59.9271" fill="black" font-size="18.8468" font-family="Helvetica">Internal</text>
<text xml:space="preserve" x="268.745" y="77.0491" fill="black" font-size="12.7312" font-family="Helvetica">-1</text>
<text xml:space="preserve" x="122.257" y="85.6101" fill="black" font-size="18.8468" font-family="Helvetica"> = 13 TeV, 139 fb</text>
<text xml:space="preserve" x="112.744" y="85.6101" fill="black" font-size="18.8468" font-family="Helvetica">s</text>
<path d="M107.037,75.1466l 1.90245, 11.4147" fill="none" stroke="black"/>
<path d="M108.939,86.5613l 1.90245, -17.122" fill="none" stroke="black"/>
<path d="M110.842,69.4393h 11.4147" fill="none" stroke="black"/>
<text xml:space="preserve" x="103.232" y="111.293" fill="black" font-size="18.8468" font-family="Helvetica">bb4l_CR Fit</text>
<text xml:space="preserve" x="103.232" y="136.976" fill="black" font-size="18.8468" font-family="Helvetica">Side Band</text>
<text xml:space="preserve" x="103.232" y="162.659" fill="black" font-size="18.8468" font-family="Helvetica">Post-Fit</text>
<text xml:space="preserve" x="375.282" y="60.8783" fill="black" font-size="18.8468" font-family="Helvetica">Data</text>
<path d="M286.582,55.3992h 21.0943" fill="none" stroke="black" stroke-width="2"/>
<path d="M297.129,50.1675v -2.43894" fill="none" stroke="black" stroke-width="2"/>
<path d="M297.129,60.631v 2.43894" fill="none" stroke="black" stroke-width="2"/>
<g fill="black">
<circle cx="297.129" cy="55.3992" r="5.32685"/>
</g>
<text xml:space="preserve" x="409.526" y="86.5613" fill="black" font-size="18.8468" font-family="Helvetica">t</text>
<path d="M409.526,71.3418h 5.70734" fill="none" stroke="black" stroke-width="2"/>
<text xml:space="preserve" x="403.819" y="86.5613" fill="black" font-size="18.8468" font-family="Helvetica">t</text>
<path d="M286.582,89.9172h 21.0943v -17.8982h -21.0943z" fill="#00ff00"/>
<path d="M286.582,72.019h 21.0943" fill="none" stroke="black"/>
<path d="M286.582,89.9172h 21.0943" fill="none" stroke="black"/>
<path d="M307.677,89.9172v -17.8982" fill="none" stroke="black"/>
<path d="M286.582,89.9172v -17.8982" fill="none" stroke="black"/>
<text xml:space="preserve" x="389.55" y="112.244" fill="black" font-size="18.8468" font-family="Helvetica">VV</text>
<path d="M286.582,115.486h 21.0943v -17.8982h -21.0943z" fill="#0000ff"/>
<path d="M286.582,97.5879h 21.0943" fill="none" stroke="black"/>
<path d="M286.582,115.486h 21.0943" fill="none" stroke="black"/>
<path d="M307.677,115.486v -17.8982" fill="none" stroke="black"/>
<path d="M286.582,115.486v -17.8982" fill="none" stroke="black"/>
<text xml:space="preserve" x="392.404" y="136.976" fill="black" font-size="18.8468" font-family="Helvetica">ttV</text>
<path d="M286.582,141.055h 21.0943v -17.8982h -21.0943z" fill="#ffff00"/>
<path d="M286.582,123.157h 21.0943" fill="none" stroke="black"/>
<path d="M286.582,141.055h 21.0943" fill="none" stroke="black"/>
<path d="M307.677,141.055v -17.8982" fill="none" stroke="black"/>
<path d="M286.582,141.055v -17.8982" fill="none" stroke="black"/>
<text xml:space="preserve" x="339.136" y="162.659" fill="black" font-size="18.8468" font-family="Helvetica">Single_H</text>
<path d="M286.582,166.624h 21.0943v -17.8982h -21.0943z" fill="#00ffff"/>
<path d="M286.582,148.726h 21.0943" fill="none" stroke="black"/>
<path d="M286.582,166.624h 21.0943" fill="none" stroke="black"/>
<path d="M307.677,166.624v -17.8982" fill="none" stroke="black"/>
<path d="M286.582,166.624v -17.8982" fill="none" stroke="black"/>
<text xml:space="preserve" x="377.184" y="188.342" fill="black" font-size="18.8468" font-family="Helvetica">VVV</text>
<path d="M286.582,192.193h 21.0943v -17.8982h -21.0943z" fill="#59d354"/>
<path d="M286.582,174.295h 21.0943" fill="none" stroke="black"/>
<path d="M286.582,192.193h 21.0943" fill="none" stroke="black"/>
<path d="M307.677,192.193v -17.8982" fill="none" stroke="black"/>
<path d="M286.582,192.193v -17.8982" fill="none" stroke="black"/>
<text xml:space="preserve" x="362.916" y="214.025" fill="black" font-size="18.8468" font-family="Helvetica">Z+jets</text>
<path d="M286.582,217.762h 21.0943v -17.8982h -21.0943z" fill="#5954d8"/>
<path d="M286.582,199.863h 21.0943" fill="none" stroke="black"/>
<path d="M286.582,217.762h 21.0943" fill="none" stroke="black"/>
<path d="M307.677,217.762v -17.8982" fill="none" stroke="black"/>
<path d="M286.582,217.762v -17.8982" fill="none" stroke="black"/>
<text xml:space="preserve" x="374.331" y="239.708" fill="black" font-size="18.8468" font-family="Helvetica">Total</text>
<text xml:space="preserve" x="319.16" y="265.391" fill="black" font-size="18.8468" font-family="Helvetica">Uncertainty</text>
<path d="M307.677,262.113l -6.79136, 6.78631" fill="none" stroke="#6666ff"/>
<path d="M307.677,254.903l -14.0072, 13.9968" fill="none" stroke="#6666ff"/>
<path d="M304.365,251.001l -17.7829, 17.7696" fill="none" stroke="#6666ff"/>
<path d="M297.149,251.001l -10.567, 10.5592" fill="none" stroke="#6666ff"/>
<path d="M289.934,251.001l -3.35119, 3.3487" fill="none" stroke="#6666ff"/>
<text xml:space="preserve" x="462.795" y="60.8783" fill="black" font-size="18.8468" font-family="Helvetica">303.0</text>
<text xml:space="preserve" x="474.209" y="86.5613" fill="black" font-size="18.8468" font-family="Helvetica">92.3</text>
<text xml:space="preserve" x="477.063" y="112.244" fill="black" font-size="18.8468" font-family="Helvetica">62.1</text>
<text xml:space="preserve" x="462.795" y="136.976" fill="black" font-size="18.8468" font-family="Helvetica">124.5</text>
<text xml:space="preserve" x="474.209" y="162.659" fill="black" font-size="18.8468" font-family="Helvetica">10.3</text>
<text xml:space="preserve" x="483.721" y="188.342" fill="black" font-size="18.8468" font-family="Helvetica">0.4</text>
<text xml:space="preserve" x="484.673" y="214.025" fill="black" font-size="18.8468" font-family="Helvetica">4.6</text>
<text xml:space="preserve" x="462.795" y="239.708" fill="black" font-size="18.8468" font-family="Helvetica">294.3</text>
<text xml:space="preserve" x="503.697" y="265.391" fill="black" font-size="18.8468" font-family="Helvetica"> </text></svg>
