<?xml version="1.0" standalone="no"?>
<svg width="567.429" height="639.722" viewBox="0 0 567.429 639.722" xmlns="http://www.w3.org/2000/svg" shape-rendering="crispEdges">
<title>
bb4l_CRFit/Plots/VVHiggsII_CR.svg
</title>
<desc>
Creator: ROOT Version 6.20/06
CreationDate: Tue Mar 23 15:00:02 2021</desc>
<defs>
</defs>
<rect x="0.5" y="0" width="566.929" height="639.222" fill="white"/>
<rect x="79.8701" y="460.24" width="459.213" height="112.759" fill="white"/>
<rect x="79.8701" y="460.24" width="459.213" height="112.759" fill="none" stroke="black"/>
<rect x="79.8701" y="460.24" width="459.213" height="112.759" fill="white"/>
<rect x="79.8701" y="460.24" width="459.213" height="112.759" fill="none" stroke="black"/>
<path d="M79.8701,572.999h 459.213z" fill="#00ff00"/>
<path d="M79.8701,572.999h 459.213" fill="none" stroke="black"/>
<path d="M79.8701,572.999h 459.213" fill="none" stroke="black"/>
<path d="M79.8701,568.649v 4.34927" fill="none" stroke="black"/>
<path d="M89.0543,570.824v 2.17463" fill="none" stroke="black"/>
<path d="M98.2386,570.824v 2.17463" fill="none" stroke="black"/>
<path d="M107.423,570.824v 2.17463" fill="none" stroke="black"/>
<path d="M116.607,570.824v 2.17463" fill="none" stroke="black"/>
<path d="M125.791,568.649v 4.34927" fill="none" stroke="black"/>
<path d="M134.976,570.824v 2.17463" fill="none" stroke="black"/>
<path d="M144.16,570.824v 2.17463" fill="none" stroke="black"/>
<path d="M153.344,570.824v 2.17463" fill="none" stroke="black"/>
<path d="M162.528,570.824v 2.17463" fill="none" stroke="black"/>
<path d="M171.713,568.649v 4.34927" fill="none" stroke="black"/>
<path d="M180.897,570.824v 2.17463" fill="none" stroke="black"/>
<path d="M190.081,570.824v 2.17463" fill="none" stroke="black"/>
<path d="M199.265,570.824v 2.17463" fill="none" stroke="black"/>
<path d="M208.45,570.824v 2.17463" fill="none" stroke="black"/>
<path d="M217.634,568.649v 4.34927" fill="none" stroke="black"/>
<path d="M226.818,570.824v 2.17463" fill="none" stroke="black"/>
<path d="M236.002,570.824v 2.17463" fill="none" stroke="black"/>
<path d="M245.187,570.824v 2.17463" fill="none" stroke="black"/>
<path d="M254.371,570.824v 2.17463" fill="none" stroke="black"/>
<path d="M263.555,568.649v 4.34927" fill="none" stroke="black"/>
<path d="M272.739,570.824v 2.17463" fill="none" stroke="black"/>
<path d="M281.924,570.824v 2.17463" fill="none" stroke="black"/>
<path d="M291.108,570.824v 2.17463" fill="none" stroke="black"/>
<path d="M300.292,570.824v 2.17463" fill="none" stroke="black"/>
<path d="M309.476,568.649v 4.34927" fill="none" stroke="black"/>
<path d="M318.661,570.824v 2.17463" fill="none" stroke="black"/>
<path d="M327.845,570.824v 2.17463" fill="none" stroke="black"/>
<path d="M337.029,570.824v 2.17463" fill="none" stroke="black"/>
<path d="M346.213,570.824v 2.17463" fill="none" stroke="black"/>
<path d="M355.398,568.649v 4.34927" fill="none" stroke="black"/>
<path d="M364.582,570.824v 2.17463" fill="none" stroke="black"/>
<path d="M373.766,570.824v 2.17463" fill="none" stroke="black"/>
<path d="M382.95,570.824v 2.17463" fill="none" stroke="black"/>
<path d="M392.135,570.824v 2.17463" fill="none" stroke="black"/>
<path d="M401.319,568.649v 4.34927" fill="none" stroke="black"/>
<path d="M410.503,570.824v 2.17463" fill="none" stroke="black"/>
<path d="M419.687,570.824v 2.17463" fill="none" stroke="black"/>
<path d="M428.872,570.824v 2.17463" fill="none" stroke="black"/>
<path d="M438.056,570.824v 2.17463" fill="none" stroke="black"/>
<path d="M447.24,568.649v 4.34927" fill="none" stroke="black"/>
<path d="M456.424,570.824v 2.17463" fill="none" stroke="black"/>
<path d="M465.609,570.824v 2.17463" fill="none" stroke="black"/>
<path d="M474.793,570.824v 2.17463" fill="none" stroke="black"/>
<path d="M483.977,570.824v 2.17463" fill="none" stroke="black"/>
<path d="M493.161,568.649v 4.34927" fill="none" stroke="black"/>
<path d="M502.346,570.824v 2.17463" fill="none" stroke="black"/>
<path d="M511.53,570.824v 2.17463" fill="none" stroke="black"/>
<path d="M520.714,570.824v 2.17463" fill="none" stroke="black"/>
<path d="M529.898,570.824v 2.17463" fill="none" stroke="black"/>
<path d="M539.083,568.649v 4.34927" fill="none" stroke="black"/>
<path d="M79.8701,568.649v 4.34927" fill="none" stroke="black"/>
<text xml:space="preserve" x="70.8905" y="592.612" fill="black" font-size="18.7449" font-family="Helvetica">0.6</text>
<text xml:space="preserve" x="61.3783" y="592.612" fill="black" font-size="18.7449" font-family="Times">&#8722;</text>
<text xml:space="preserve" x="116.549" y="592.612" fill="black" font-size="18.7449" font-family="Helvetica">0.5</text>
<text xml:space="preserve" x="107.037" y="592.612" fill="black" font-size="18.7449" font-family="Times">&#8722;</text>
<text xml:space="preserve" x="162.208" y="592.612" fill="black" font-size="18.7449" font-family="Helvetica">0.4</text>
<text xml:space="preserve" x="151.745" y="592.612" fill="black" font-size="18.7449" font-family="Times">&#8722;</text>
<text xml:space="preserve" x="208.818" y="592.612" fill="black" font-size="18.7449" font-family="Helvetica">0.3</text>
<text xml:space="preserve" x="199.306" y="592.612" fill="black" font-size="18.7449" font-family="Times">&#8722;</text>
<text xml:space="preserve" x="254.477" y="592.612" fill="black" font-size="18.7449" font-family="Helvetica">0.2</text>
<text xml:space="preserve" x="244.964" y="592.612" fill="black" font-size="18.7449" font-family="Times">&#8722;</text>
<text xml:space="preserve" x="302.038" y="592.612" fill="black" font-size="18.7449" font-family="Helvetica">0.1</text>
<text xml:space="preserve" x="291.574" y="592.612" fill="black" font-size="18.7449" font-family="Times">&#8722;</text>
<text xml:space="preserve" x="349.599" y="592.612" fill="black" font-size="18.7449" font-family="Helvetica">0</text>
<text xml:space="preserve" x="389.55" y="592.612" fill="black" font-size="18.7449" font-family="Helvetica">0.1</text>
<text xml:space="preserve" x="433.307" y="592.612" fill="black" font-size="18.7449" font-family="Helvetica">0.2</text>
<text xml:space="preserve" x="478.965" y="592.612" fill="black" font-size="18.7449" font-family="Helvetica">0.3</text>
<text xml:space="preserve" x="525.575" y="592.612" fill="black" font-size="18.7449" font-family="Helvetica">0.4</text>
<text xml:space="preserve" x="500.844" y="624.954" fill="black" font-size="18.7449" font-family="Helvetica">BDT</text>
<path d="M79.8701,460.24h 459.213" fill="none" stroke="black"/>
<path d="M79.8701,464.589v -4.34927" fill="none" stroke="black"/>
<path d="M89.0543,462.415v -2.17463" fill="none" stroke="black"/>
<path d="M98.2386,462.415v -2.17463" fill="none" stroke="black"/>
<path d="M107.423,462.415v -2.17463" fill="none" stroke="black"/>
<path d="M116.607,462.415v -2.17463" fill="none" stroke="black"/>
<path d="M125.791,464.589v -4.34927" fill="none" stroke="black"/>
<path d="M134.976,462.415v -2.17463" fill="none" stroke="black"/>
<path d="M144.16,462.415v -2.17463" fill="none" stroke="black"/>
<path d="M153.344,462.415v -2.17463" fill="none" stroke="black"/>
<path d="M162.528,462.415v -2.17463" fill="none" stroke="black"/>
<path d="M171.713,464.589v -4.34927" fill="none" stroke="black"/>
<path d="M180.897,462.415v -2.17463" fill="none" stroke="black"/>
<path d="M190.081,462.415v -2.17463" fill="none" stroke="black"/>
<path d="M199.265,462.415v -2.17463" fill="none" stroke="black"/>
<path d="M208.45,462.415v -2.17463" fill="none" stroke="black"/>
<path d="M217.634,464.589v -4.34927" fill="none" stroke="black"/>
<path d="M226.818,462.415v -2.17463" fill="none" stroke="black"/>
<path d="M236.002,462.415v -2.17463" fill="none" stroke="black"/>
<path d="M245.187,462.415v -2.17463" fill="none" stroke="black"/>
<path d="M254.371,462.415v -2.17463" fill="none" stroke="black"/>
<path d="M263.555,464.589v -4.34927" fill="none" stroke="black"/>
<path d="M272.739,462.415v -2.17463" fill="none" stroke="black"/>
<path d="M281.924,462.415v -2.17463" fill="none" stroke="black"/>
<path d="M291.108,462.415v -2.17463" fill="none" stroke="black"/>
<path d="M300.292,462.415v -2.17463" fill="none" stroke="black"/>
<path d="M309.476,464.589v -4.34927" fill="none" stroke="black"/>
<path d="M318.661,462.415v -2.17463" fill="none" stroke="black"/>
<path d="M327.845,462.415v -2.17463" fill="none" stroke="black"/>
<path d="M337.029,462.415v -2.17463" fill="none" stroke="black"/>
<path d="M346.213,462.415v -2.17463" fill="none" stroke="black"/>
<path d="M355.398,464.589v -4.34927" fill="none" stroke="black"/>
<path d="M364.582,462.415v -2.17463" fill="none" stroke="black"/>
<path d="M373.766,462.415v -2.17463" fill="none" stroke="black"/>
<path d="M382.95,462.415v -2.17463" fill="none" stroke="black"/>
<path d="M392.135,462.415v -2.17463" fill="none" stroke="black"/>
<path d="M401.319,464.589v -4.34927" fill="none" stroke="black"/>
<path d="M410.503,462.415v -2.17463" fill="none" stroke="black"/>
<path d="M419.687,462.415v -2.17463" fill="none" stroke="black"/>
<path d="M428.872,462.415v -2.17463" fill="none" stroke="black"/>
<path d="M438.056,462.415v -2.17463" fill="none" stroke="black"/>
<path d="M447.24,464.589v -4.34927" fill="none" stroke="black"/>
<path d="M456.424,462.415v -2.17463" fill="none" stroke="black"/>
<path d="M465.609,462.415v -2.17463" fill="none" stroke="black"/>
<path d="M474.793,462.415v -2.17463" fill="none" stroke="black"/>
<path d="M483.977,462.415v -2.17463" fill="none" stroke="black"/>
<path d="M493.161,464.589v -4.34927" fill="none" stroke="black"/>
<path d="M502.346,462.415v -2.17463" fill="none" stroke="black"/>
<path d="M511.53,462.415v -2.17463" fill="none" stroke="black"/>
<path d="M520.714,462.415v -2.17463" fill="none" stroke="black"/>
<path d="M529.898,462.415v -2.17463" fill="none" stroke="black"/>
<path d="M539.083,464.589v -4.34927" fill="none" stroke="black"/>
<path d="M79.8701,464.589v -4.34927" fill="none" stroke="black"/>
<path d="M79.8701,572.999v -112.759" fill="none" stroke="black"/>
<path d="M90.585,572.999h -10.715" fill="none" stroke="black"/>
<path d="M85.2276,567.361h -5.35748" fill="none" stroke="black"/>
<path d="M85.2276,561.723h -5.35748" fill="none" stroke="black"/>
<path d="M85.2276,556.085h -5.35748" fill="none" stroke="black"/>
<path d="M85.2276,550.447h -5.35748" fill="none" stroke="black"/>
<path d="M90.585,544.809h -10.715" fill="none" stroke="black"/>
<path d="M85.2276,539.171h -5.35748" fill="none" stroke="black"/>
<path d="M85.2276,533.533h -5.35748" fill="none" stroke="black"/>
<path d="M85.2276,527.895h -5.35748" fill="none" stroke="black"/>
<path d="M85.2276,522.257h -5.35748" fill="none" stroke="black"/>
<path d="M90.585,516.619h -10.715" fill="none" stroke="black"/>
<path d="M85.2276,510.981h -5.35748" fill="none" stroke="black"/>
<path d="M85.2276,505.343h -5.35748" fill="none" stroke="black"/>
<path d="M85.2276,499.705h -5.35748" fill="none" stroke="black"/>
<path d="M85.2276,494.068h -5.35748" fill="none" stroke="black"/>
<path d="M90.585,488.43h -10.715" fill="none" stroke="black"/>
<path d="M85.2276,482.792h -5.35748" fill="none" stroke="black"/>
<path d="M85.2276,477.154h -5.35748" fill="none" stroke="black"/>
<path d="M85.2276,471.516h -5.35748" fill="none" stroke="black"/>
<path d="M85.2276,465.878h -5.35748" fill="none" stroke="black"/>
<path d="M90.585,460.24h -10.715" fill="none" stroke="black"/>
<text xml:space="preserve" x="50.9148" y="580.246" fill="black" font-size="18.7449" font-family="Helvetica">0.2</text>
<text xml:space="preserve" x="50.9148" y="551.71" fill="black" font-size="18.7449" font-family="Helvetica">0.6</text>
<text xml:space="preserve" x="69.9393" y="524.124" fill="black" font-size="18.7449" font-family="Helvetica">1</text>
<text xml:space="preserve" x="49.9636" y="495.587" fill="black" font-size="18.7449" font-family="Helvetica">1.4</text>
<text xml:space="preserve" x="69.9393" y="460.392" fill="black" font-size="18.7449" font-family="Helvetica"> </text>
<g transform="rotate(-90,22.3781,560.271)">
<text xml:space="preserve" x="22.3781" y="560.271" fill="black" font-size="18.7449" font-family="Helvetica">Data / Pred.</text>
</g>
<path d="M539.083,572.999v -112.759" fill="none" stroke="black"/>
<path d="M528.368,572.999h 10.715" fill="none" stroke="black"/>
<path d="M533.725,567.361h 5.35748" fill="none" stroke="black"/>
<path d="M533.725,561.723h 5.35748" fill="none" stroke="black"/>
<path d="M533.725,556.085h 5.35748" fill="none" stroke="black"/>
<path d="M533.725,550.447h 5.35748" fill="none" stroke="black"/>
<path d="M528.368,544.809h 10.715" fill="none" stroke="black"/>
<path d="M533.725,539.171h 5.35748" fill="none" stroke="black"/>
<path d="M533.725,533.533h 5.35748" fill="none" stroke="black"/>
<path d="M533.725,527.895h 5.35748" fill="none" stroke="black"/>
<path d="M533.725,522.257h 5.35748" fill="none" stroke="black"/>
<path d="M528.368,516.619h 10.715" fill="none" stroke="black"/>
<path d="M533.725,510.981h 5.35748" fill="none" stroke="black"/>
<path d="M533.725,505.343h 5.35748" fill="none" stroke="black"/>
<path d="M533.725,499.705h 5.35748" fill="none" stroke="black"/>
<path d="M533.725,494.068h 5.35748" fill="none" stroke="black"/>
<path d="M528.368,488.43h 10.715" fill="none" stroke="black"/>
<path d="M533.725,482.792h 5.35748" fill="none" stroke="black"/>
<path d="M533.725,477.154h 5.35748" fill="none" stroke="black"/>
<path d="M533.725,471.516h 5.35748" fill="none" stroke="black"/>
<path d="M533.725,465.878h 5.35748" fill="none" stroke="black"/>
<path d="M528.368,460.24h 10.715" fill="none" stroke="black"/>
<path d="M79.8701,516.619h 459.213" fill="none" stroke="black" stroke-width="2" stroke-dasharray=" 3, 3"/>
<path d="M108.571,567.169l -5.82462, 5.82958" fill="none" stroke="#6666ff"/>
<path d="M108.571,559.947l -13.0404, 13.0515" fill="none" stroke="#6666ff"/>
<path d="M108.571,552.725l -20.2563, 20.2735" fill="none" stroke="#6666ff"/>
<path d="M108.571,545.503l -27.4721, 27.4955" fill="none" stroke="#6666ff"/>
<path d="M108.571,538.281l -28.7008, 28.7252" fill="none" stroke="#6666ff"/>
<path d="M108.571,531.059l -28.7008, 28.7252" fill="none" stroke="#6666ff"/>
<path d="M108.571,523.837l -28.7008, 28.7252" fill="none" stroke="#6666ff"/>
<path d="M108.571,516.615l -28.7008, 28.7252" fill="none" stroke="#6666ff"/>
<path d="M108.571,509.393l -28.7008, 28.7252" fill="none" stroke="#6666ff"/>
<path d="M108.571,502.171l -28.7008, 28.7252" fill="none" stroke="#6666ff"/>
<path d="M108.571,494.949l -28.7008, 28.7252" fill="none" stroke="#6666ff"/>
<path d="M108.571,487.727l -28.7008, 28.7252" fill="none" stroke="#6666ff"/>
<path d="M108.571,480.505l -28.7008, 28.7252" fill="none" stroke="#6666ff"/>
<path d="M108.571,473.283l -28.7008, 28.7252" fill="none" stroke="#6666ff"/>
<path d="M108.571,466.062l -28.7008, 28.7252" fill="none" stroke="#6666ff"/>
<path d="M107.172,460.24l -27.3016, 27.3249" fill="none" stroke="#6666ff"/>
<path d="M99.9559,460.24l -20.0858, 20.1029" fill="none" stroke="#6666ff"/>
<path d="M92.74,460.24l -12.87, 12.8809" fill="none" stroke="#6666ff"/>
<path d="M85.5242,460.24l -5.65413, 5.65894" fill="none" stroke="#6666ff"/>
<path d="M137.272,567.332l -5.66209, 5.6669" fill="none" stroke="#6666ff"/>
<path d="M137.272,560.11l -12.8779, 12.8889" fill="none" stroke="#6666ff"/>
<path d="M137.272,552.888l -20.0937, 20.1108" fill="none" stroke="#6666ff"/>
<path d="M137.272,545.666l -27.3096, 27.3328" fill="none" stroke="#6666ff"/>
<path d="M137.272,538.444l -28.7008, 28.7252" fill="none" stroke="#6666ff"/>
<path d="M137.272,531.222l -28.7008, 28.7252" fill="none" stroke="#6666ff"/>
<path d="M137.272,524l -28.7008, 28.7252" fill="none" stroke="#6666ff"/>
<path d="M137.272,516.778l -28.7008, 28.7252" fill="none" stroke="#6666ff"/>
<path d="M137.272,509.556l -28.7008, 28.7252" fill="none" stroke="#6666ff"/>
<path d="M137.272,502.334l -28.7008, 28.7252" fill="none" stroke="#6666ff"/>
<path d="M137.272,495.112l -28.7008, 28.7252" fill="none" stroke="#6666ff"/>
<path d="M137.272,487.89l -28.7008, 28.7252" fill="none" stroke="#6666ff"/>
<path d="M137.272,480.668l -28.7008, 28.7252" fill="none" stroke="#6666ff"/>
<path d="M137.272,473.446l -28.7008, 28.7252" fill="none" stroke="#6666ff"/>
<path d="M137.272,466.224l -28.7008, 28.7252" fill="none" stroke="#6666ff"/>
<path d="M136.035,460.24l -27.4641, 27.4875" fill="none" stroke="#6666ff"/>
<path d="M128.819,460.24l -20.2483, 20.2656" fill="none" stroke="#6666ff"/>
<path d="M121.603,460.24l -13.0325, 13.0436" fill="none" stroke="#6666ff"/>
<path d="M114.388,460.24l -5.81666, 5.82161" fill="none" stroke="#6666ff"/>
<path d="M165.972,567.494l -5.49955, 5.50423" fill="none" stroke="#6666ff"/>
<path d="M165.972,560.272l -12.7154, 12.7262" fill="none" stroke="#6666ff"/>
<path d="M165.972,553.051l -19.9312, 19.9482" fill="none" stroke="#6666ff"/>
<path d="M165.972,545.829l -27.147, 27.1701" fill="none" stroke="#6666ff"/>
<path d="M165.972,538.607l -28.7008, 28.7252" fill="none" stroke="#6666ff"/>
<path d="M165.972,531.385l -28.7008, 28.7252" fill="none" stroke="#6666ff"/>
<path d="M165.972,524.163l -28.7008, 28.7252" fill="none" stroke="#6666ff"/>
<path d="M165.972,516.941l -28.7008, 28.7252" fill="none" stroke="#6666ff"/>
<path d="M165.972,509.719l -28.7008, 28.7252" fill="none" stroke="#6666ff"/>
<path d="M165.972,502.497l -28.7008, 28.7252" fill="none" stroke="#6666ff"/>
<path d="M165.972,495.275l -28.7008, 28.7252" fill="none" stroke="#6666ff"/>
<path d="M165.972,488.053l -28.7008, 28.7252" fill="none" stroke="#6666ff"/>
<path d="M165.972,480.831l -28.7008, 28.7252" fill="none" stroke="#6666ff"/>
<path d="M165.972,473.609l -28.7008, 28.7252" fill="none" stroke="#6666ff"/>
<path d="M165.972,466.387l -28.7008, 28.7252" fill="none" stroke="#6666ff"/>
<path d="M164.898,460.24l -27.6267, 27.6502" fill="none" stroke="#6666ff"/>
<path d="M157.683,460.24l -20.4109, 20.4282" fill="none" stroke="#6666ff"/>
<path d="M150.467,460.24l -13.195, 13.2063" fill="none" stroke="#6666ff"/>
<path d="M143.251,460.24l -5.97919, 5.98428" fill="none" stroke="#6666ff"/>
<path d="M194.673,524.325l -3.52718, 3.53019" fill="none" stroke="#6666ff"/>
<path d="M194.673,517.103l -10.743, 10.7522" fill="none" stroke="#6666ff"/>
<path d="M194.673,509.881l -17.9588, 17.9741" fill="none" stroke="#6666ff"/>
<path d="M191.952,505.383l -22.4533, 22.4724" fill="none" stroke="#6666ff"/>
<path d="M184.736,505.383l -18.7635, 18.7795" fill="none" stroke="#6666ff"/>
<path d="M177.52,505.383l -11.5477, 11.5575" fill="none" stroke="#6666ff"/>
<path d="M170.304,505.383l -4.33189, 4.33557" fill="none" stroke="#6666ff"/>
<path d="M223.374,517.266l -5.01849, 5.02276" fill="none" stroke="#6666ff"/>
<path d="M222.469,510.95l -11.3293, 11.3389" fill="none" stroke="#6666ff"/>
<path d="M215.253,510.95l -11.3293, 11.3389" fill="none" stroke="#6666ff"/>
<path d="M208.037,510.95l -11.3293, 11.3389" fill="none" stroke="#6666ff"/>
<path d="M200.821,510.95l -6.14826, 6.15349" fill="none" stroke="#6666ff"/>
<path d="M252.075,531.873l -1.34248, 1.34362" fill="none" stroke="#6666ff"/>
<path d="M252.075,524.651l -8.55831, 8.56559" fill="none" stroke="#6666ff"/>
<path d="M252.075,517.429l -15.7741, 15.7876" fill="none" stroke="#6666ff"/>
<path d="M252.075,510.207l -22.99, 23.0095" fill="none" stroke="#6666ff"/>
<path d="M252.075,502.985l -28.7008, 28.7252" fill="none" stroke="#6666ff"/>
<path d="M247.819,500.022l -24.4448, 24.4656" fill="none" stroke="#6666ff"/>
<path d="M240.603,500.022l -17.229, 17.2436" fill="none" stroke="#6666ff"/>
<path d="M233.387,500.022l -10.0131, 10.0217" fill="none" stroke="#6666ff"/>
<path d="M226.171,500.022l -2.79731, 2.79969" fill="none" stroke="#6666ff"/>
<path d="M280.776,517.591l -4.36276, 4.36647" fill="none" stroke="#6666ff"/>
<path d="M279.865,511.281l -10.6679, 10.677" fill="none" stroke="#6666ff"/>
<path d="M272.649,511.281l -10.6679, 10.677" fill="none" stroke="#6666ff"/>
<path d="M265.433,511.281l -10.6679, 10.677" fill="none" stroke="#6666ff"/>
<path d="M258.217,511.281l -6.14265, 6.14788" fill="none" stroke="#6666ff"/>
<path d="M309.476,524.976l -0.827597, 0.828301" fill="none" stroke="#6666ff"/>
<path d="M309.476,517.754l -8.04343, 8.05027" fill="none" stroke="#6666ff"/>
<path d="M309.476,510.532l -15.2593, 15.2722" fill="none" stroke="#6666ff"/>
<path d="M305.356,507.434l -18.3543, 18.37" fill="none" stroke="#6666ff"/>
<path d="M298.14,507.434l -17.3642, 17.379" fill="none" stroke="#6666ff"/>
<path d="M290.924,507.434l -10.1484, 10.157" fill="none" stroke="#6666ff"/>
<path d="M283.708,507.434l -2.93255, 2.93505" fill="none" stroke="#6666ff"/>
<path d="M338.177,517.917l -4.82917, 4.83328" fill="none" stroke="#6666ff"/>
<path d="M338.177,510.695l -12.045, 12.0553" fill="none" stroke="#6666ff"/>
<path d="M331.167,510.489l -12.2509, 12.2613" fill="none" stroke="#6666ff"/>
<path d="M323.951,510.489l -12.2509, 12.2613" fill="none" stroke="#6666ff"/>
<path d="M316.736,510.489l -7.2592, 7.26537" fill="none" stroke="#6666ff"/>
<path d="M309.52,510.489l -0.0433665, 0.0434034" fill="none" stroke="#6666ff"/>
<path d="M366.878,518.079l -4.85985, 4.86399" fill="none" stroke="#6666ff"/>
<path d="M366.878,510.857l -12.0757, 12.086" fill="none" stroke="#6666ff"/>
<path d="M360.224,510.295l -12.6373, 12.6481" fill="none" stroke="#6666ff"/>
<path d="M353.008,510.295l -12.6373, 12.6481" fill="none" stroke="#6666ff"/>
<path d="M345.792,510.295l -7.61494, 7.62142" fill="none" stroke="#6666ff"/>
<path d="M338.576,510.295l -0.399107, 0.399446" fill="none" stroke="#6666ff"/>
<path d="M395.579,518.242l -4.89147, 4.89563" fill="none" stroke="#6666ff"/>
<path d="M395.579,511.02l -12.1073, 12.1176" fill="none" stroke="#6666ff"/>
<path d="M389.281,510.101l -13.0256, 13.0367" fill="none" stroke="#6666ff"/>
<path d="M382.065,510.101l -13.0256, 13.0367" fill="none" stroke="#6666ff"/>
<path d="M374.85,510.101l -7.97162, 7.9784" fill="none" stroke="#6666ff"/>
<path d="M367.634,510.101l -0.755786, 0.756429" fill="none" stroke="#6666ff"/>
<path d="M424.28,518.405l -4.76351, 4.76757" fill="none" stroke="#6666ff"/>
<path d="M424.28,511.183l -11.9793, 11.9895" fill="none" stroke="#6666ff"/>
<path d="M418.179,510.066l -13.0948, 13.1059" fill="none" stroke="#6666ff"/>
<path d="M410.963,510.066l -13.0948, 13.1059" fill="none" stroke="#6666ff"/>
<path d="M403.747,510.066l -8.16873, 8.17568" fill="none" stroke="#6666ff"/>
<path d="M396.532,510.066l -0.952898, 0.953709" fill="none" stroke="#6666ff"/>
<path d="M452.98,518.567l -0.316329, 0.316598" fill="none" stroke="#6666ff"/>
<path d="M449.974,514.355l -4.52547, 4.52932" fill="none" stroke="#6666ff"/>
<path d="M442.758,514.355l -4.52547, 4.52932" fill="none" stroke="#6666ff"/>
<path d="M435.542,514.355l -4.52547, 4.52932" fill="none" stroke="#6666ff"/>
<path d="M428.326,514.355l -4.04661, 4.05005" fill="none" stroke="#6666ff"/>
<path d="M481.681,518.73l -2.52818, 2.53034" fill="none" stroke="#6666ff"/>
<path d="M481.211,511.978l -9.27424, 9.28214" fill="none" stroke="#6666ff"/>
<path d="M473.996,511.978l -9.27424, 9.28214" fill="none" stroke="#6666ff"/>
<path d="M466.78,511.978l -9.27424, 9.28214" fill="none" stroke="#6666ff"/>
<path d="M459.564,511.978l -6.58353, 6.58913" fill="none" stroke="#6666ff"/>
<path d="M510.382,533.337l -2.32816, 2.33015" fill="none" stroke="#6666ff"/>
<path d="M510.382,526.115l -9.54399, 9.55212" fill="none" stroke="#6666ff"/>
<path d="M510.382,518.893l -16.7598, 16.7741" fill="none" stroke="#6666ff"/>
<path d="M510.382,511.671l -23.9757, 23.9961" fill="none" stroke="#6666ff"/>
<path d="M510.382,504.449l -28.7008, 28.7252" fill="none" stroke="#6666ff"/>
<path d="M510.037,497.572l -28.3561, 28.3802" fill="none" stroke="#6666ff"/>
<path d="M502.821,497.572l -21.1402, 21.1582" fill="none" stroke="#6666ff"/>
<path d="M495.605,497.572l -13.9244, 13.9362" fill="none" stroke="#6666ff"/>
<path d="M488.39,497.572l -6.70857, 6.71428" fill="none" stroke="#6666ff"/>
<path d="M534.301,516.619z" fill="none" stroke="#6666ff"/>
<path d="M527.085,516.619z" fill="none" stroke="#6666ff"/>
<path d="M519.869,516.619z" fill="none" stroke="#6666ff"/>
<path d="M512.653,516.619z" fill="none" stroke="#6666ff"/>
<path d="M204.268,534.277h -9.56558" fill="none" stroke="black" stroke-width="2"/>
<path d="M194.702,534.277z" fill="none" stroke="black" stroke-width="2"/>
<path d="M213.78,534.277h 9.59428" fill="none" stroke="black" stroke-width="2"/>
<path d="M223.374,534.277z" fill="none" stroke="black" stroke-width="2"/>
<path d="M209.024,529.521v -48.0608" fill="none" stroke="black" stroke-width="2"/>
<path d="M209.024,481.46z" fill="none" stroke="black" stroke-width="2"/>
<path d="M209.024,539.033v 33.9659" fill="none" stroke="black" stroke-width="2"/>
<path d="M209.024,572.999z" fill="none" stroke="black" stroke-width="2"/>
<path d="M232.968,540.691h -9.56558" fill="none" stroke="black" stroke-width="2"/>
<path d="M223.403,540.691z" fill="none" stroke="black" stroke-width="2"/>
<path d="M242.481,540.691h 9.59428" fill="none" stroke="black" stroke-width="2"/>
<path d="M252.075,540.691z" fill="none" stroke="black" stroke-width="2"/>
<path d="M237.724,535.935v -22.0343" fill="none" stroke="black" stroke-width="2"/>
<path d="M237.724,513.901z" fill="none" stroke="black" stroke-width="2"/>
<path d="M237.724,545.447v 22.0343" fill="none" stroke="black" stroke-width="2"/>
<path d="M237.724,567.482z" fill="none" stroke="black" stroke-width="2"/>
<path d="M261.669,492.51h -9.56558" fill="none" stroke="black" stroke-width="2"/>
<path d="M252.104,492.51z" fill="none" stroke="black" stroke-width="2"/>
<path d="M271.181,492.51h 9.59428" fill="none" stroke="black" stroke-width="2"/>
<path d="M280.776,492.51z" fill="none" stroke="black" stroke-width="2"/>
<path d="M266.425,487.754v -27.5141" fill="none" stroke="black" stroke-width="2"/>
<path d="M266.425,460.24z" fill="none" stroke="black" stroke-width="2"/>
<path d="M266.425,497.266v 33.8574" fill="none" stroke="black" stroke-width="2"/>
<path d="M266.425,531.124z" fill="none" stroke="black" stroke-width="2"/>
<path d="M290.37,568.668h -9.56558" fill="none" stroke="black" stroke-width="2"/>
<path d="M280.804,568.668z" fill="none" stroke="black" stroke-width="2"/>
<path d="M299.882,568.668h 9.59428" fill="none" stroke="black" stroke-width="2"/>
<path d="M309.476,568.668z" fill="none" stroke="black" stroke-width="2"/>
<path d="M295.126,563.912v -8.27276" fill="none" stroke="black" stroke-width="2"/>
<path d="M295.126,555.639z" fill="none" stroke="black" stroke-width="2"/>
<path d="M319.071,522.167h -9.56558" fill="none" stroke="black" stroke-width="2"/>
<path d="M309.505,522.167z" fill="none" stroke="black" stroke-width="2"/>
<path d="M328.583,522.167h 9.59428" fill="none" stroke="black" stroke-width="2"/>
<path d="M338.177,522.167z" fill="none" stroke="black" stroke-width="2"/>
<path d="M323.827,517.411v -19.7839" fill="none" stroke="black" stroke-width="2"/>
<path d="M323.827,497.627z" fill="none" stroke="black" stroke-width="2"/>
<path d="M323.827,526.923v 19.7839" fill="none" stroke="black" stroke-width="2"/>
<path d="M323.827,546.707z" fill="none" stroke="black" stroke-width="2"/>
<path d="M347.771,526.661h -9.56558" fill="none" stroke="black" stroke-width="2"/>
<path d="M338.206,526.661z" fill="none" stroke="black" stroke-width="2"/>
<path d="M357.284,526.661h 9.59428" fill="none" stroke="black" stroke-width="2"/>
<path d="M366.878,526.661z" fill="none" stroke="black" stroke-width="2"/>
<path d="M352.528,521.905v -18.085" fill="none" stroke="black" stroke-width="2"/>
<path d="M352.528,503.82z" fill="none" stroke="black" stroke-width="2"/>
<path d="M352.528,531.418v 18.085" fill="none" stroke="black" stroke-width="2"/>
<path d="M352.528,549.503z" fill="none" stroke="black" stroke-width="2"/>
<path d="M376.472,481.554h -9.56558" fill="none" stroke="black" stroke-width="2"/>
<path d="M366.907,481.554z" fill="none" stroke="black" stroke-width="2"/>
<path d="M385.984,481.554h 9.59428" fill="none" stroke="black" stroke-width="2"/>
<path d="M395.579,481.554z" fill="none" stroke="black" stroke-width="2"/>
<path d="M381.228,476.798v -16.5582" fill="none" stroke="black" stroke-width="2"/>
<path d="M381.228,460.24z" fill="none" stroke="black" stroke-width="2"/>
<path d="M381.228,486.31v 28.6183" fill="none" stroke="black" stroke-width="2"/>
<path d="M381.228,514.929z" fill="none" stroke="black" stroke-width="2"/>
<path d="M405.173,530.068h -9.56558" fill="none" stroke="black" stroke-width="2"/>
<path d="M395.607,530.068z" fill="none" stroke="black" stroke-width="2"/>
<path d="M414.685,530.068h 9.59428" fill="none" stroke="black" stroke-width="2"/>
<path d="M424.28,530.068z" fill="none" stroke="black" stroke-width="2"/>
<path d="M409.929,525.312v -23.7567" fill="none" stroke="black" stroke-width="2"/>
<path d="M409.929,501.555z" fill="none" stroke="black" stroke-width="2"/>
<path d="M409.929,534.824v 23.7567" fill="none" stroke="black" stroke-width="2"/>
<path d="M409.929,558.581z" fill="none" stroke="black" stroke-width="2"/>
<path d="M433.874,550.636h -9.56558" fill="none" stroke="black" stroke-width="2"/>
<path d="M424.308,550.636z" fill="none" stroke="black" stroke-width="2"/>
<path d="M443.386,550.636h 9.59428" fill="none" stroke="black" stroke-width="2"/>
<path d="M452.98,550.636z" fill="none" stroke="black" stroke-width="2"/>
<path d="M438.63,545.88v -31.7009" fill="none" stroke="black" stroke-width="2"/>
<path d="M438.63,514.179z" fill="none" stroke="black" stroke-width="2"/>
<path d="M438.63,555.393v 17.6061" fill="none" stroke="black" stroke-width="2"/>
<path d="M438.63,572.999z" fill="none" stroke="black" stroke-width="2"/>
<path d="M467.331,460.24v 13.9885" fill="none" stroke="black" stroke-width="2"/>
<path d="M467.331,474.228z" fill="none" stroke="black" stroke-width="2"/>
<g fill="black">
<circle cx="209.024" cy="534.277" r="5.32685"/>
<circle cx="237.724" cy="540.691" r="5.32685"/>
<circle cx="266.425" cy="492.51" r="5.32685"/>
<circle cx="295.126" cy="568.668" r="5.32685"/>
<circle cx="323.827" cy="522.167" r="5.32685"/>
<circle cx="352.528" cy="526.661" r="5.32685"/>
<circle cx="381.228" cy="481.554" r="5.32685"/>
<circle cx="409.929" cy="530.068" r="5.32685"/>
<circle cx="438.63" cy="550.636" r="5.32685"/>
</g>
<path d="M79.8701,572.999h 459.213" fill="none" stroke="black"/>
<path d="M79.8701,568.649v 4.34927" fill="none" stroke="black"/>
<path d="M89.0543,570.824v 2.17463" fill="none" stroke="black"/>
<path d="M98.2386,570.824v 2.17463" fill="none" stroke="black"/>
<path d="M107.423,570.824v 2.17463" fill="none" stroke="black"/>
<path d="M116.607,570.824v 2.17463" fill="none" stroke="black"/>
<path d="M125.791,568.649v 4.34927" fill="none" stroke="black"/>
<path d="M134.976,570.824v 2.17463" fill="none" stroke="black"/>
<path d="M144.16,570.824v 2.17463" fill="none" stroke="black"/>
<path d="M153.344,570.824v 2.17463" fill="none" stroke="black"/>
<path d="M162.528,570.824v 2.17463" fill="none" stroke="black"/>
<path d="M171.713,568.649v 4.34927" fill="none" stroke="black"/>
<path d="M180.897,570.824v 2.17463" fill="none" stroke="black"/>
<path d="M190.081,570.824v 2.17463" fill="none" stroke="black"/>
<path d="M199.265,570.824v 2.17463" fill="none" stroke="black"/>
<path d="M208.45,570.824v 2.17463" fill="none" stroke="black"/>
<path d="M217.634,568.649v 4.34927" fill="none" stroke="black"/>
<path d="M226.818,570.824v 2.17463" fill="none" stroke="black"/>
<path d="M236.002,570.824v 2.17463" fill="none" stroke="black"/>
<path d="M245.187,570.824v 2.17463" fill="none" stroke="black"/>
<path d="M254.371,570.824v 2.17463" fill="none" stroke="black"/>
<path d="M263.555,568.649v 4.34927" fill="none" stroke="black"/>
<path d="M272.739,570.824v 2.17463" fill="none" stroke="black"/>
<path d="M281.924,570.824v 2.17463" fill="none" stroke="black"/>
<path d="M291.108,570.824v 2.17463" fill="none" stroke="black"/>
<path d="M300.292,570.824v 2.17463" fill="none" stroke="black"/>
<path d="M309.476,568.649v 4.34927" fill="none" stroke="black"/>
<path d="M318.661,570.824v 2.17463" fill="none" stroke="black"/>
<path d="M327.845,570.824v 2.17463" fill="none" stroke="black"/>
<path d="M337.029,570.824v 2.17463" fill="none" stroke="black"/>
<path d="M346.213,570.824v 2.17463" fill="none" stroke="black"/>
<path d="M355.398,568.649v 4.34927" fill="none" stroke="black"/>
<path d="M364.582,570.824v 2.17463" fill="none" stroke="black"/>
<path d="M373.766,570.824v 2.17463" fill="none" stroke="black"/>
<path d="M382.95,570.824v 2.17463" fill="none" stroke="black"/>
<path d="M392.135,570.824v 2.17463" fill="none" stroke="black"/>
<path d="M401.319,568.649v 4.34927" fill="none" stroke="black"/>
<path d="M410.503,570.824v 2.17463" fill="none" stroke="black"/>
<path d="M419.687,570.824v 2.17463" fill="none" stroke="black"/>
<path d="M428.872,570.824v 2.17463" fill="none" stroke="black"/>
<path d="M438.056,570.824v 2.17463" fill="none" stroke="black"/>
<path d="M447.24,568.649v 4.34927" fill="none" stroke="black"/>
<path d="M456.424,570.824v 2.17463" fill="none" stroke="black"/>
<path d="M465.609,570.824v 2.17463" fill="none" stroke="black"/>
<path d="M474.793,570.824v 2.17463" fill="none" stroke="black"/>
<path d="M483.977,570.824v 2.17463" fill="none" stroke="black"/>
<path d="M493.161,568.649v 4.34927" fill="none" stroke="black"/>
<path d="M502.346,570.824v 2.17463" fill="none" stroke="black"/>
<path d="M511.53,570.824v 2.17463" fill="none" stroke="black"/>
<path d="M520.714,570.824v 2.17463" fill="none" stroke="black"/>
<path d="M529.898,570.824v 2.17463" fill="none" stroke="black"/>
<path d="M539.083,568.649v 4.34927" fill="none" stroke="black"/>
<path d="M79.8701,568.649v 4.34927" fill="none" stroke="black"/>
<path d="M79.8701,460.24h 459.213" fill="none" stroke="black"/>
<path d="M79.8701,464.589v -4.34927" fill="none" stroke="black"/>
<path d="M89.0543,462.415v -2.17463" fill="none" stroke="black"/>
<path d="M98.2386,462.415v -2.17463" fill="none" stroke="black"/>
<path d="M107.423,462.415v -2.17463" fill="none" stroke="black"/>
<path d="M116.607,462.415v -2.17463" fill="none" stroke="black"/>
<path d="M125.791,464.589v -4.34927" fill="none" stroke="black"/>
<path d="M134.976,462.415v -2.17463" fill="none" stroke="black"/>
<path d="M144.16,462.415v -2.17463" fill="none" stroke="black"/>
<path d="M153.344,462.415v -2.17463" fill="none" stroke="black"/>
<path d="M162.528,462.415v -2.17463" fill="none" stroke="black"/>
<path d="M171.713,464.589v -4.34927" fill="none" stroke="black"/>
<path d="M180.897,462.415v -2.17463" fill="none" stroke="black"/>
<path d="M190.081,462.415v -2.17463" fill="none" stroke="black"/>
<path d="M199.265,462.415v -2.17463" fill="none" stroke="black"/>
<path d="M208.45,462.415v -2.17463" fill="none" stroke="black"/>
<path d="M217.634,464.589v -4.34927" fill="none" stroke="black"/>
<path d="M226.818,462.415v -2.17463" fill="none" stroke="black"/>
<path d="M236.002,462.415v -2.17463" fill="none" stroke="black"/>
<path d="M245.187,462.415v -2.17463" fill="none" stroke="black"/>
<path d="M254.371,462.415v -2.17463" fill="none" stroke="black"/>
<path d="M263.555,464.589v -4.34927" fill="none" stroke="black"/>
<path d="M272.739,462.415v -2.17463" fill="none" stroke="black"/>
<path d="M281.924,462.415v -2.17463" fill="none" stroke="black"/>
<path d="M291.108,462.415v -2.17463" fill="none" stroke="black"/>
<path d="M300.292,462.415v -2.17463" fill="none" stroke="black"/>
<path d="M309.476,464.589v -4.34927" fill="none" stroke="black"/>
<path d="M318.661,462.415v -2.17463" fill="none" stroke="black"/>
<path d="M327.845,462.415v -2.17463" fill="none" stroke="black"/>
<path d="M337.029,462.415v -2.17463" fill="none" stroke="black"/>
<path d="M346.213,462.415v -2.17463" fill="none" stroke="black"/>
<path d="M355.398,464.589v -4.34927" fill="none" stroke="black"/>
<path d="M364.582,462.415v -2.17463" fill="none" stroke="black"/>
<path d="M373.766,462.415v -2.17463" fill="none" stroke="black"/>
<path d="M382.95,462.415v -2.17463" fill="none" stroke="black"/>
<path d="M392.135,462.415v -2.17463" fill="none" stroke="black"/>
<path d="M401.319,464.589v -4.34927" fill="none" stroke="black"/>
<path d="M410.503,462.415v -2.17463" fill="none" stroke="black"/>
<path d="M419.687,462.415v -2.17463" fill="none" stroke="black"/>
<path d="M428.872,462.415v -2.17463" fill="none" stroke="black"/>
<path d="M438.056,462.415v -2.17463" fill="none" stroke="black"/>
<path d="M447.24,464.589v -4.34927" fill="none" stroke="black"/>
<path d="M456.424,462.415v -2.17463" fill="none" stroke="black"/>
<path d="M465.609,462.415v -2.17463" fill="none" stroke="black"/>
<path d="M474.793,462.415v -2.17463" fill="none" stroke="black"/>
<path d="M483.977,462.415v -2.17463" fill="none" stroke="black"/>
<path d="M493.161,464.589v -4.34927" fill="none" stroke="black"/>
<path d="M502.346,462.415v -2.17463" fill="none" stroke="black"/>
<path d="M511.53,462.415v -2.17463" fill="none" stroke="black"/>
<path d="M520.714,462.415v -2.17463" fill="none" stroke="black"/>
<path d="M529.898,462.415v -2.17463" fill="none" stroke="black"/>
<path d="M539.083,464.589v -4.34927" fill="none" stroke="black"/>
<path d="M79.8701,464.589v -4.34927" fill="none" stroke="black"/>
<path d="M79.8701,572.999v -112.759" fill="none" stroke="black"/>
<path d="M90.585,572.999h -10.715" fill="none" stroke="black"/>
<path d="M85.2276,567.361h -5.35748" fill="none" stroke="black"/>
<path d="M85.2276,561.723h -5.35748" fill="none" stroke="black"/>
<path d="M85.2276,556.085h -5.35748" fill="none" stroke="black"/>
<path d="M85.2276,550.447h -5.35748" fill="none" stroke="black"/>
<path d="M90.585,544.809h -10.715" fill="none" stroke="black"/>
<path d="M85.2276,539.171h -5.35748" fill="none" stroke="black"/>
<path d="M85.2276,533.533h -5.35748" fill="none" stroke="black"/>
<path d="M85.2276,527.895h -5.35748" fill="none" stroke="black"/>
<path d="M85.2276,522.257h -5.35748" fill="none" stroke="black"/>
<path d="M90.585,516.619h -10.715" fill="none" stroke="black"/>
<path d="M85.2276,510.981h -5.35748" fill="none" stroke="black"/>
<path d="M85.2276,505.343h -5.35748" fill="none" stroke="black"/>
<path d="M85.2276,499.705h -5.35748" fill="none" stroke="black"/>
<path d="M85.2276,494.068h -5.35748" fill="none" stroke="black"/>
<path d="M90.585,488.43h -10.715" fill="none" stroke="black"/>
<path d="M85.2276,482.792h -5.35748" fill="none" stroke="black"/>
<path d="M85.2276,477.154h -5.35748" fill="none" stroke="black"/>
<path d="M85.2276,471.516h -5.35748" fill="none" stroke="black"/>
<path d="M85.2276,465.878h -5.35748" fill="none" stroke="black"/>
<path d="M90.585,460.24h -10.715" fill="none" stroke="black"/>
<path d="M539.083,572.999v -112.759" fill="none" stroke="black"/>
<path d="M528.368,572.999h 10.715" fill="none" stroke="black"/>
<path d="M533.725,567.361h 5.35748" fill="none" stroke="black"/>
<path d="M533.725,561.723h 5.35748" fill="none" stroke="black"/>
<path d="M533.725,556.085h 5.35748" fill="none" stroke="black"/>
<path d="M533.725,550.447h 5.35748" fill="none" stroke="black"/>
<path d="M528.368,544.809h 10.715" fill="none" stroke="black"/>
<path d="M533.725,539.171h 5.35748" fill="none" stroke="black"/>
<path d="M533.725,533.533h 5.35748" fill="none" stroke="black"/>
<path d="M533.725,527.895h 5.35748" fill="none" stroke="black"/>
<path d="M533.725,522.257h 5.35748" fill="none" stroke="black"/>
<path d="M528.368,516.619h 10.715" fill="none" stroke="black"/>
<path d="M533.725,510.981h 5.35748" fill="none" stroke="black"/>
<path d="M533.725,505.343h 5.35748" fill="none" stroke="black"/>
<path d="M533.725,499.705h 5.35748" fill="none" stroke="black"/>
<path d="M533.725,494.068h 5.35748" fill="none" stroke="black"/>
<path d="M528.368,488.43h 10.715" fill="none" stroke="black"/>
<path d="M533.725,482.792h 5.35748" fill="none" stroke="black"/>
<path d="M533.725,477.154h 5.35748" fill="none" stroke="black"/>
<path d="M533.725,471.516h 5.35748" fill="none" stroke="black"/>
<path d="M533.725,465.878h 5.35748" fill="none" stroke="black"/>
<path d="M528.368,460.24h 10.715" fill="none" stroke="black"/>
<path d="M467.331,465.878v 7.79715" fill="none" stroke="#6666ff" stroke-width="2"/>
<path d="M462.445,473.675l 4.88581, -13.4351l 4.88581, 13.4351z" fill="#fefefe"/>
<path d="M462.445,473.675l 4.88581, -13.4351l 4.88581, 13.4351h -9.77163z" fill="none" stroke="#6666ff" stroke-width="2"/>
<rect x="79.8701" y="25.5689" width="459.213" height="434.671" fill="white"/>
<rect x="79.8701" y="25.5689" width="459.213" height="434.671" fill="none" stroke="black"/>
<rect x="79.8701" y="25.5689" width="459.213" height="434.671" fill="white"/>
<rect x="79.8701" y="25.5689" width="459.213" height="434.671" fill="none" stroke="black"/>
<path d="M79.8701,460.24h 459.213z" fill="#00ff00"/>
<path d="M79.8701,460.24h 459.213" fill="none" stroke="black"/>
<path d="M79.8701,460.24h 459.213" fill="none" stroke="black"/>
<path d="M79.8701,447.813v 12.4265" fill="none" stroke="black"/>
<path d="M89.0543,454.027v 6.21324" fill="none" stroke="black"/>
<path d="M98.2386,454.027v 6.21324" fill="none" stroke="black"/>
<path d="M107.423,454.027v 6.21324" fill="none" stroke="black"/>
<path d="M116.607,454.027v 6.21324" fill="none" stroke="black"/>
<path d="M125.791,447.813v 12.4265" fill="none" stroke="black"/>
<path d="M134.976,454.027v 6.21324" fill="none" stroke="black"/>
<path d="M144.16,454.027v 6.21324" fill="none" stroke="black"/>
<path d="M153.344,454.027v 6.21324" fill="none" stroke="black"/>
<path d="M162.528,454.027v 6.21324" fill="none" stroke="black"/>
<path d="M171.713,447.813v 12.4265" fill="none" stroke="black"/>
<path d="M180.897,454.027v 6.21324" fill="none" stroke="black"/>
<path d="M190.081,454.027v 6.21324" fill="none" stroke="black"/>
<path d="M199.265,454.027v 6.21324" fill="none" stroke="black"/>
<path d="M208.45,454.027v 6.21324" fill="none" stroke="black"/>
<path d="M217.634,447.813v 12.4265" fill="none" stroke="black"/>
<path d="M226.818,454.027v 6.21324" fill="none" stroke="black"/>
<path d="M236.002,454.027v 6.21324" fill="none" stroke="black"/>
<path d="M245.187,454.027v 6.21324" fill="none" stroke="black"/>
<path d="M254.371,454.027v 6.21324" fill="none" stroke="black"/>
<path d="M263.555,447.813v 12.4265" fill="none" stroke="black"/>
<path d="M272.739,454.027v 6.21324" fill="none" stroke="black"/>
<path d="M281.924,454.027v 6.21324" fill="none" stroke="black"/>
<path d="M291.108,454.027v 6.21324" fill="none" stroke="black"/>
<path d="M300.292,454.027v 6.21324" fill="none" stroke="black"/>
<path d="M309.476,447.813v 12.4265" fill="none" stroke="black"/>
<path d="M318.661,454.027v 6.21324" fill="none" stroke="black"/>
<path d="M327.845,454.027v 6.21324" fill="none" stroke="black"/>
<path d="M337.029,454.027v 6.21324" fill="none" stroke="black"/>
<path d="M346.213,454.027v 6.21324" fill="none" stroke="black"/>
<path d="M355.398,447.813v 12.4265" fill="none" stroke="black"/>
<path d="M364.582,454.027v 6.21324" fill="none" stroke="black"/>
<path d="M373.766,454.027v 6.21324" fill="none" stroke="black"/>
<path d="M382.95,454.027v 6.21324" fill="none" stroke="black"/>
<path d="M392.135,454.027v 6.21324" fill="none" stroke="black"/>
<path d="M401.319,447.813v 12.4265" fill="none" stroke="black"/>
<path d="M410.503,454.027v 6.21324" fill="none" stroke="black"/>
<path d="M419.687,454.027v 6.21324" fill="none" stroke="black"/>
<path d="M428.872,454.027v 6.21324" fill="none" stroke="black"/>
<path d="M438.056,454.027v 6.21324" fill="none" stroke="black"/>
<path d="M447.24,447.813v 12.4265" fill="none" stroke="black"/>
<path d="M456.424,454.027v 6.21324" fill="none" stroke="black"/>
<path d="M465.609,454.027v 6.21324" fill="none" stroke="black"/>
<path d="M474.793,454.027v 6.21324" fill="none" stroke="black"/>
<path d="M483.977,454.027v 6.21324" fill="none" stroke="black"/>
<path d="M493.161,447.813v 12.4265" fill="none" stroke="black"/>
<path d="M502.346,454.027v 6.21324" fill="none" stroke="black"/>
<path d="M511.53,454.027v 6.21324" fill="none" stroke="black"/>
<path d="M520.714,454.027v 6.21324" fill="none" stroke="black"/>
<path d="M529.898,454.027v 6.21324" fill="none" stroke="black"/>
<path d="M539.083,447.813v 12.4265" fill="none" stroke="black"/>
<path d="M79.8701,447.813v 12.4265" fill="none" stroke="black"/>
<path d="M79.8701,25.5689h 459.213" fill="none" stroke="black"/>
<path d="M79.8701,37.9954v -12.4265" fill="none" stroke="black"/>
<path d="M89.0543,31.7821v -6.21324" fill="none" stroke="black"/>
<path d="M98.2386,31.7821v -6.21324" fill="none" stroke="black"/>
<path d="M107.423,31.7821v -6.21324" fill="none" stroke="black"/>
<path d="M116.607,31.7821v -6.21324" fill="none" stroke="black"/>
<path d="M125.791,37.9954v -12.4265" fill="none" stroke="black"/>
<path d="M134.976,31.7821v -6.21324" fill="none" stroke="black"/>
<path d="M144.16,31.7821v -6.21324" fill="none" stroke="black"/>
<path d="M153.344,31.7821v -6.21324" fill="none" stroke="black"/>
<path d="M162.528,31.7821v -6.21324" fill="none" stroke="black"/>
<path d="M171.713,37.9954v -12.4265" fill="none" stroke="black"/>
<path d="M180.897,31.7821v -6.21324" fill="none" stroke="black"/>
<path d="M190.081,31.7821v -6.21324" fill="none" stroke="black"/>
<path d="M199.265,31.7821v -6.21324" fill="none" stroke="black"/>
<path d="M208.45,31.7821v -6.21324" fill="none" stroke="black"/>
<path d="M217.634,37.9954v -12.4265" fill="none" stroke="black"/>
<path d="M226.818,31.7821v -6.21324" fill="none" stroke="black"/>
<path d="M236.002,31.7821v -6.21324" fill="none" stroke="black"/>
<path d="M245.187,31.7821v -6.21324" fill="none" stroke="black"/>
<path d="M254.371,31.7821v -6.21324" fill="none" stroke="black"/>
<path d="M263.555,37.9954v -12.4265" fill="none" stroke="black"/>
<path d="M272.739,31.7821v -6.21324" fill="none" stroke="black"/>
<path d="M281.924,31.7821v -6.21324" fill="none" stroke="black"/>
<path d="M291.108,31.7821v -6.21324" fill="none" stroke="black"/>
<path d="M300.292,31.7821v -6.21324" fill="none" stroke="black"/>
<path d="M309.476,37.9954v -12.4265" fill="none" stroke="black"/>
<path d="M318.661,31.7821v -6.21324" fill="none" stroke="black"/>
<path d="M327.845,31.7821v -6.21324" fill="none" stroke="black"/>
<path d="M337.029,31.7821v -6.21324" fill="none" stroke="black"/>
<path d="M346.213,31.7821v -6.21324" fill="none" stroke="black"/>
<path d="M355.398,37.9954v -12.4265" fill="none" stroke="black"/>
<path d="M364.582,31.7821v -6.21324" fill="none" stroke="black"/>
<path d="M373.766,31.7821v -6.21324" fill="none" stroke="black"/>
<path d="M382.95,31.7821v -6.21324" fill="none" stroke="black"/>
<path d="M392.135,31.7821v -6.21324" fill="none" stroke="black"/>
<path d="M401.319,37.9954v -12.4265" fill="none" stroke="black"/>
<path d="M410.503,31.7821v -6.21324" fill="none" stroke="black"/>
<path d="M419.687,31.7821v -6.21324" fill="none" stroke="black"/>
<path d="M428.872,31.7821v -6.21324" fill="none" stroke="black"/>
<path d="M438.056,31.7821v -6.21324" fill="none" stroke="black"/>
<path d="M447.24,37.9954v -12.4265" fill="none" stroke="black"/>
<path d="M456.424,31.7821v -6.21324" fill="none" stroke="black"/>
<path d="M465.609,31.7821v -6.21324" fill="none" stroke="black"/>
<path d="M474.793,31.7821v -6.21324" fill="none" stroke="black"/>
<path d="M483.977,31.7821v -6.21324" fill="none" stroke="black"/>
<path d="M493.161,37.9954v -12.4265" fill="none" stroke="black"/>
<path d="M502.346,31.7821v -6.21324" fill="none" stroke="black"/>
<path d="M511.53,31.7821v -6.21324" fill="none" stroke="black"/>
<path d="M520.714,31.7821v -6.21324" fill="none" stroke="black"/>
<path d="M529.898,31.7821v -6.21324" fill="none" stroke="black"/>
<path d="M539.083,37.9954v -12.4265" fill="none" stroke="black"/>
<path d="M79.8701,37.9954v -12.4265" fill="none" stroke="black"/>
<path d="M79.8701,460.24v -434.671" fill="none" stroke="black"/>
<path d="M94.3268,460.24h -14.4567" fill="none" stroke="black"/>
<path d="M87.0984,451.067h -7.22835" fill="none" stroke="black"/>
<path d="M87.0984,441.893h -7.22835" fill="none" stroke="black"/>
<path d="M87.0984,432.72h -7.22835" fill="none" stroke="black"/>
<path d="M94.3268,423.547h -14.4567" fill="none" stroke="black"/>
<path d="M87.0984,414.373h -7.22835" fill="none" stroke="black"/>
<path d="M87.0984,405.2h -7.22835" fill="none" stroke="black"/>
<path d="M87.0984,396.027h -7.22835" fill="none" stroke="black"/>
<path d="M94.3268,386.853h -14.4567" fill="none" stroke="black"/>
<path d="M87.0984,377.68h -7.22835" fill="none" stroke="black"/>
<path d="M87.0984,368.507h -7.22835" fill="none" stroke="black"/>
<path d="M87.0984,359.333h -7.22835" fill="none" stroke="black"/>
<path d="M94.3268,350.16h -14.4567" fill="none" stroke="black"/>
<path d="M87.0984,340.987h -7.22835" fill="none" stroke="black"/>
<path d="M87.0984,331.813h -7.22835" fill="none" stroke="black"/>
<path d="M87.0984,322.64h -7.22835" fill="none" stroke="black"/>
<path d="M94.3268,313.467h -14.4567" fill="none" stroke="black"/>
<path d="M87.0984,304.293h -7.22835" fill="none" stroke="black"/>
<path d="M87.0984,295.12h -7.22835" fill="none" stroke="black"/>
<path d="M87.0984,285.947h -7.22835" fill="none" stroke="black"/>
<path d="M94.3268,276.773h -14.4567" fill="none" stroke="black"/>
<path d="M87.0984,267.6h -7.22835" fill="none" stroke="black"/>
<path d="M87.0984,258.427h -7.22835" fill="none" stroke="black"/>
<path d="M87.0984,249.253h -7.22835" fill="none" stroke="black"/>
<path d="M94.3268,240.08h -14.4567" fill="none" stroke="black"/>
<path d="M87.0984,230.907h -7.22835" fill="none" stroke="black"/>
<path d="M87.0984,221.733h -7.22835" fill="none" stroke="black"/>
<path d="M87.0984,212.56h -7.22835" fill="none" stroke="black"/>
<path d="M94.3268,203.387h -14.4567" fill="none" stroke="black"/>
<path d="M87.0984,194.213h -7.22835" fill="none" stroke="black"/>
<path d="M87.0984,185.04h -7.22835" fill="none" stroke="black"/>
<path d="M87.0984,175.867h -7.22835" fill="none" stroke="black"/>
<path d="M94.3268,166.693h -14.4567" fill="none" stroke="black"/>
<path d="M87.0984,157.52h -7.22835" fill="none" stroke="black"/>
<path d="M87.0984,148.347h -7.22835" fill="none" stroke="black"/>
<path d="M87.0984,139.173h -7.22835" fill="none" stroke="black"/>
<path d="M94.3268,130h -14.4567" fill="none" stroke="black"/>
<path d="M87.0984,120.827h -7.22835" fill="none" stroke="black"/>
<path d="M87.0984,111.653h -7.22835" fill="none" stroke="black"/>
<path d="M87.0984,102.48h -7.22835" fill="none" stroke="black"/>
<path d="M94.3268,93.3066h -14.4567" fill="none" stroke="black"/>
<path d="M87.0984,84.1333h -7.22835" fill="none" stroke="black"/>
<path d="M87.0984,74.9599h -7.22835" fill="none" stroke="black"/>
<path d="M87.0984,65.7866h -7.22835" fill="none" stroke="black"/>
<path d="M94.3268,56.6133h -14.4567" fill="none" stroke="black"/>
<path d="M94.3268,56.6133h -14.4567" fill="none" stroke="black"/>
<path d="M87.0984,47.4399h -7.22835" fill="none" stroke="black"/>
<path d="M87.0984,38.2666h -7.22835" fill="none" stroke="black"/>
<path d="M87.0984,29.0933h -7.22835" fill="none" stroke="black"/>
<text xml:space="preserve" x="66.1344" y="467.051" fill="black" font-size="18.8468" font-family="Helvetica">0</text>
<text xml:space="preserve" x="66.1344" y="430.904" fill="black" font-size="18.8468" font-family="Helvetica">2</text>
<text xml:space="preserve" x="66.1344" y="393.806" fill="black" font-size="18.8468" font-family="Helvetica">4</text>
<text xml:space="preserve" x="66.1344" y="357.66" fill="black" font-size="18.8468" font-family="Helvetica">6</text>
<text xml:space="preserve" x="66.1344" y="320.562" fill="black" font-size="18.8468" font-family="Helvetica">8</text>
<text xml:space="preserve" x="55.671" y="283.465" fill="black" font-size="18.8468" font-family="Helvetica">10</text>
<text xml:space="preserve" x="55.671" y="247.318" fill="black" font-size="18.8468" font-family="Helvetica">12</text>
<text xml:space="preserve" x="55.671" y="210.22" fill="black" font-size="18.8468" font-family="Helvetica">14</text>
<text xml:space="preserve" x="55.671" y="174.074" fill="black" font-size="18.8468" font-family="Helvetica">16</text>
<text xml:space="preserve" x="55.671" y="136.976" fill="black" font-size="18.8468" font-family="Helvetica">18</text>
<text xml:space="preserve" x="55.671" y="100.83" fill="black" font-size="18.8468" font-family="Helvetica">20</text>
<text xml:space="preserve" x="55.671" y="63.732" fill="black" font-size="18.8468" font-family="Helvetica">22</text>
<g transform="rotate(-90,22.3781,82.7564)">
<text xml:space="preserve" x="22.3781" y="82.7564" fill="black" font-size="18.8468" font-family="Helvetica">Events</text>
</g>
<path d="M539.083,460.24v -434.671" fill="none" stroke="black"/>
<path d="M524.626,460.24h 14.4567" fill="none" stroke="black"/>
<path d="M531.854,451.067h 7.22835" fill="none" stroke="black"/>
<path d="M531.854,441.893h 7.22835" fill="none" stroke="black"/>
<path d="M531.854,432.72h 7.22835" fill="none" stroke="black"/>
<path d="M524.626,423.547h 14.4567" fill="none" stroke="black"/>
<path d="M531.854,414.373h 7.22835" fill="none" stroke="black"/>
<path d="M531.854,405.2h 7.22835" fill="none" stroke="black"/>
<path d="M531.854,396.027h 7.22835" fill="none" stroke="black"/>
<path d="M524.626,386.853h 14.4567" fill="none" stroke="black"/>
<path d="M531.854,377.68h 7.22835" fill="none" stroke="black"/>
<path d="M531.854,368.507h 7.22835" fill="none" stroke="black"/>
<path d="M531.854,359.333h 7.22835" fill="none" stroke="black"/>
<path d="M524.626,350.16h 14.4567" fill="none" stroke="black"/>
<path d="M531.854,340.987h 7.22835" fill="none" stroke="black"/>
<path d="M531.854,331.813h 7.22835" fill="none" stroke="black"/>
<path d="M531.854,322.64h 7.22835" fill="none" stroke="black"/>
<path d="M524.626,313.467h 14.4567" fill="none" stroke="black"/>
<path d="M531.854,304.293h 7.22835" fill="none" stroke="black"/>
<path d="M531.854,295.12h 7.22835" fill="none" stroke="black"/>
<path d="M531.854,285.947h 7.22835" fill="none" stroke="black"/>
<path d="M524.626,276.773h 14.4567" fill="none" stroke="black"/>
<path d="M531.854,267.6h 7.22835" fill="none" stroke="black"/>
<path d="M531.854,258.427h 7.22835" fill="none" stroke="black"/>
<path d="M531.854,249.253h 7.22835" fill="none" stroke="black"/>
<path d="M524.626,240.08h 14.4567" fill="none" stroke="black"/>
<path d="M531.854,230.907h 7.22835" fill="none" stroke="black"/>
<path d="M531.854,221.733h 7.22835" fill="none" stroke="black"/>
<path d="M531.854,212.56h 7.22835" fill="none" stroke="black"/>
<path d="M524.626,203.387h 14.4567" fill="none" stroke="black"/>
<path d="M531.854,194.213h 7.22835" fill="none" stroke="black"/>
<path d="M531.854,185.04h 7.22835" fill="none" stroke="black"/>
<path d="M531.854,175.867h 7.22835" fill="none" stroke="black"/>
<path d="M524.626,166.693h 14.4567" fill="none" stroke="black"/>
<path d="M531.854,157.52h 7.22835" fill="none" stroke="black"/>
<path d="M531.854,148.347h 7.22835" fill="none" stroke="black"/>
<path d="M531.854,139.173h 7.22835" fill="none" stroke="black"/>
<path d="M524.626,130h 14.4567" fill="none" stroke="black"/>
<path d="M531.854,120.827h 7.22835" fill="none" stroke="black"/>
<path d="M531.854,111.653h 7.22835" fill="none" stroke="black"/>
<path d="M531.854,102.48h 7.22835" fill="none" stroke="black"/>
<path d="M524.626,93.3066h 14.4567" fill="none" stroke="black"/>
<path d="M531.854,84.1333h 7.22835" fill="none" stroke="black"/>
<path d="M531.854,74.9599h 7.22835" fill="none" stroke="black"/>
<path d="M531.854,65.7866h 7.22835" fill="none" stroke="black"/>
<path d="M524.626,56.6133h 14.4567" fill="none" stroke="black"/>
<path d="M524.626,56.6133h 14.4567" fill="none" stroke="black"/>
<path d="M531.854,47.4399h 7.22835" fill="none" stroke="black"/>
<path d="M531.854,38.2666h 7.22835" fill="none" stroke="black"/>
<path d="M531.854,29.0933h 7.22835" fill="none" stroke="black"/>
<path d="M79.8701,460.24v -0.0134165h 28.7008v -0.785605h 28.7008v -0.549518h 28.7008v -10.4968h 28.7008v -12.6349h 28.7008v -59.1125h 28.7008v 1.57189h 28.7008v -58.3237h 28.7008v 0.944833h 28.7008v -10.3682h 28.7008v 27.2573h 28.7008v 31.8167h
 28.7008v 55.2283h 28.7008v 28.7548h 28.7008v 6.32743h 28.7008v 0.383154h 28.7008v 0.000110079z" fill="#00ff00"/>
<path d="M79.8701,460.24h 28.7008v -0.799022h 28.7008v -0.549518h 28.7008v -10.4968h 28.7008v -12.6349h 28.7008v -59.1125h 28.7008v 1.57189h 28.7008v -58.3237h 28.7008v 0.944833h 28.7008v -10.3682h 28.7008v 27.2573h 28.7008v 31.8167h 28.7008v
 55.2283h 28.7008v 28.7548h 28.7008v 6.32743h 28.7008v 0.383264h 28.7008" fill="none" stroke="black"/>
<path d="M79.8701,460.24v -0.0133982h 28.7008v -0.0793677h 28.7008v -0.510748h 28.7008v -8.22106h 28.7008v -13.1577h 28.7008v -58.0667h 28.7008v -1.26303h 28.7008v -56.1836h 28.7008v -1.20158h 28.7008v -10.3847h 28.7008v 26.5714h 28.7008v 31.8167h
 28.7008v 55.2283h 28.7008v 28.7548h 28.7008v 6.32743h 28.7008v 0.383154h 28.7008v 9.17328e-05z" fill="#fefefe"/>
<path d="M79.8701,460.24h 28.7008v -0.0927659h 28.7008v -0.510748h 28.7008v -8.22106h 28.7008v -13.1577h 28.7008v -58.0667h 28.7008v -1.26303h 28.7008v -56.1836h 28.7008v -1.20158h 28.7008v -10.3847h 28.7008v 26.5714h 28.7008v 31.8167h 28.7008v
 55.2283h 28.7008v 28.7548h 28.7008v 6.32743h 28.7008v 0.383245h 28.7008" fill="none" stroke="black"/>
<path d="M79.8701,460.24h 28.7008v -0.0927659h 28.7008v -0.510748h 28.7008v -8.22106h 28.7008v -13.1577h 28.7008v -58.0667h 28.7008v -1.26303h 28.7008v -56.1836h 28.7008v -1.20158h 28.7008v -10.3847h 28.7008v 26.5714h 28.7008v 31.8167h 28.7008v
 55.2283h 28.7008v 28.7548h 28.7008v 6.32743h 28.7008v 0.383245h 28.7008" fill="none" stroke="black"/>
<path d="M79.8701,460.24v -0.0133982h 28.7008v -0.0793677h 28.7008v -0.510748h 28.7008v -8.22106h 28.7008v -13.1577h 28.7008v -58.0667h 28.7008v -1.26303h 28.7008v -56.1836h 28.7008v -1.20158h 28.7008v -10.3847h 28.7008v 26.5714h 28.7008v 31.8167h
 28.7008v 55.2283h 28.7008v 28.7548h 28.7008v 6.32743h 28.7008v 0.383154h 28.7008v 9.17328e-05z" fill="#0000ff"/>
<path d="M79.8701,460.24h 28.7008v -0.0927659h 28.7008v -0.510748h 28.7008v -8.22106h 28.7008v -13.1577h 28.7008v -58.0667h 28.7008v -1.26303h 28.7008v -56.1836h 28.7008v -1.20158h 28.7008v -10.3847h 28.7008v 26.5714h 28.7008v 31.8167h 28.7008v
 55.2283h 28.7008v 28.7548h 28.7008v 6.32743h 28.7008v 0.383245h 28.7008" fill="none" stroke="black"/>
<path d="M79.8701,460.24v -7.33861e-05h 28.7008v -0.0461614h 28.7008v -0.236359h 28.7008v -0.102007h 28.7008v -1.55975h 28.7008v -35.124h 28.7008v 14.7942h 28.7008v -48.4306h 28.7008v -0.225065h 28.7008v -19.4099h 28.7008v 7.29812h 28.7008v 17.4333h
 28.7008v 38.8226h 28.7008v 21.937h 28.7008v 4.53915h 28.7008v 0.309583h 28.7008v 7.33861e-05z" fill="#fefefe"/>
<path d="M79.8701,460.24h 28.7008v -0.0462348h 28.7008v -0.236359h 28.7008v -0.102007h 28.7008v -1.55975h 28.7008v -35.124h 28.7008v 14.7942h 28.7008v -48.4306h 28.7008v -0.225065h 28.7008v -19.4099h 28.7008v 7.29812h 28.7008v 17.4333h 28.7008v
 38.8226h 28.7008v 21.937h 28.7008v 4.53915h 28.7008v 0.309656h 28.7008" fill="none" stroke="black"/>
<path d="M79.8701,460.24h 28.7008v -0.0462348h 28.7008v -0.236359h 28.7008v -0.102007h 28.7008v -1.55975h 28.7008v -35.124h 28.7008v 14.7942h 28.7008v -48.4306h 28.7008v -0.225065h 28.7008v -19.4099h 28.7008v 7.29812h 28.7008v 17.4333h 28.7008v
 38.8226h 28.7008v 21.937h 28.7008v 4.53915h 28.7008v 0.309656h 28.7008" fill="none" stroke="black"/>
<path d="M79.8701,460.24v -7.33861e-05h 28.7008v -0.0461614h 28.7008v -0.236359h 28.7008v -0.102007h 28.7008v -1.55975h 28.7008v -35.124h 28.7008v 14.7942h 28.7008v -48.4306h 28.7008v -0.225065h 28.7008v -19.4099h 28.7008v 7.29812h 28.7008v 17.4333h
 28.7008v 38.8226h 28.7008v 21.937h 28.7008v 4.53915h 28.7008v 0.309583h 28.7008v 7.33861e-05z" fill="#ffff00"/>
<path d="M79.8701,460.24h 28.7008v -0.0462348h 28.7008v -0.236359h 28.7008v -0.102007h 28.7008v -1.55975h 28.7008v -35.124h 28.7008v 14.7942h 28.7008v -48.4306h 28.7008v -0.225065h 28.7008v -19.4099h 28.7008v 7.29812h 28.7008v 17.4333h 28.7008v
 38.8226h 28.7008v 21.937h 28.7008v 4.53915h 28.7008v 0.309656h 28.7008" fill="none" stroke="black"/>
<path d="M79.8701,460.24v -5.50395e-05h 28.7008v -0.0461614h 28.7008v -0.00887122h 28.7008v -0.219445h 28.7008v -1.23953h 28.7008v -34.9249h 28.7008v 15.3049h 28.7008v -48.6535h 28.7008v -0.885786h 28.7008v -18.9195h 28.7008v 6.55121h 28.7008v
 17.4511h 28.7008v 38.8047h 28.7008v 21.937h 28.7008v 4.53915h 28.7008v 0.309583h 28.7008v 5.50395e-05z" fill="#fefefe"/>
<path d="M79.8701,460.24h 28.7008v -0.0462164h 28.7008v -0.00887122h 28.7008v -0.219445h 28.7008v -1.23953h 28.7008v -34.9249h 28.7008v 15.3049h 28.7008v -48.6535h 28.7008v -0.885786h 28.7008v -18.9195h 28.7008v 6.55121h 28.7008v 17.4511h 28.7008v
 38.8047h 28.7008v 21.937h 28.7008v 4.53915h 28.7008v 0.309638h 28.7008" fill="none" stroke="black"/>
<path d="M79.8701,460.24h 28.7008v -0.0462164h 28.7008v -0.00887122h 28.7008v -0.219445h 28.7008v -1.23953h 28.7008v -34.9249h 28.7008v 15.3049h 28.7008v -48.6535h 28.7008v -0.885786h 28.7008v -18.9195h 28.7008v 6.55121h 28.7008v 17.4511h 28.7008v
 38.8047h 28.7008v 21.937h 28.7008v 4.53915h 28.7008v 0.309638h 28.7008" fill="none" stroke="black"/>
<path d="M79.8701,460.24v -5.50395e-05h 28.7008v -0.0461614h 28.7008v -0.00887122h 28.7008v -0.219445h 28.7008v -1.23953h 28.7008v -34.9249h 28.7008v 15.3049h 28.7008v -48.6535h 28.7008v -0.885786h 28.7008v -18.9195h 28.7008v 6.55121h 28.7008v
 17.4511h 28.7008v 38.8047h 28.7008v 21.937h 28.7008v 4.53915h 28.7008v 0.309583h 28.7008v 5.50395e-05z" fill="#00ffff"/>
<path d="M79.8701,460.24h 28.7008v -0.0462164h 28.7008v -0.00887122h 28.7008v -0.219445h 28.7008v -1.23953h 28.7008v -34.9249h 28.7008v 15.3049h 28.7008v -48.6535h 28.7008v -0.885786h 28.7008v -18.9195h 28.7008v 6.55121h 28.7008v 17.4511h 28.7008v
 38.8047h 28.7008v 21.937h 28.7008v 4.53915h 28.7008v 0.309638h 28.7008" fill="none" stroke="black"/>
<path d="M79.8701,460.24v -3.66928e-05h 86.1024v -0.0261952h 28.7008v -0.530008h 28.7008v -32.4771h 28.7008v 22.5185h 28.7008v -2.17846h 28.7008v 10.9048h 28.7008v 1.54271h 28.7008v 0.205328h 28.7008v 0.0226678h 28.7008v -0.00166469h 28.7008v
 0.0194694h 86.1024v 3.66928e-05z" fill="#fefefe"/>
<path d="M79.8701,460.24h 114.803v -0.55624h 28.7008v -32.4771h 28.7008v 22.5185h 28.7008v -2.17846h 28.7008v 10.9048h 28.7008v 1.54271h 28.7008v 0.245837h 172.205" fill="none" stroke="black"/>
<path d="M79.8701,460.24h 114.803v -0.55624h 28.7008v -32.4771h 28.7008v 22.5185h 28.7008v -2.17846h 28.7008v 10.9048h 28.7008v 1.54271h 28.7008v 0.245837h 172.205" fill="none" stroke="black"/>
<path d="M79.8701,460.24v -3.66928e-05h 86.1024v -0.0261952h 28.7008v -0.530008h 28.7008v -32.4771h 28.7008v 22.5185h 28.7008v -2.17846h 28.7008v 10.9048h 28.7008v 1.54271h 28.7008v 0.205328h 28.7008v 0.0226678h 28.7008v -0.00166469h 28.7008v
 0.0194694h 86.1024v 3.66928e-05z" fill="#59d354"/>
<path d="M79.8701,460.24h 114.803v -0.55624h 28.7008v -32.4771h 28.7008v 22.5185h 28.7008v -2.17846h 28.7008v 10.9048h 28.7008v 1.54271h 28.7008v 0.245837h 172.205" fill="none" stroke="black"/>
<path d="M79.8701,460.24v -1.83467e-05h 114.803v -0.49546h 28.7008v -32.4815h 28.7008v 22.6274h 28.7008v -2.31097h 28.7008v 10.9787h 28.7008v 1.61038h 28.7008v 0.071438h 172.205v 1.83467e-05z" fill="#fefefe"/>
<path d="M79.8701,460.24h 114.803v -0.495479h 28.7008v -32.4815h 28.7008v 22.6274h 28.7008v -2.31097h 28.7008v 10.9787h 28.7008v 1.61038h 28.7008v 0.0714564h 172.205" fill="none" stroke="black"/>
<path d="M79.8701,460.24h 114.803v -0.495479h 28.7008v -32.4815h 28.7008v 22.6274h 28.7008v -2.31097h 28.7008v 10.9787h 28.7008v 1.61038h 28.7008v 0.0714564h 172.205" fill="none" stroke="black"/>
<path d="M79.8701,460.24v -1.83467e-05h 114.803v -0.49546h 28.7008v -32.4815h 28.7008v 22.6274h 28.7008v -2.31097h 28.7008v 10.9787h 28.7008v 1.61038h 28.7008v 0.071438h 172.205v 1.83467e-05z" fill="#5954d8"/>
<path d="M79.8701,460.24h 114.803v -0.495479h 28.7008v -32.4815h 28.7008v 22.6274h 28.7008v -2.31097h 28.7008v 10.9787h 28.7008v 1.61038h 28.7008v 0.0714564h 172.205" fill="none" stroke="black"/>
<path d="M102.213,460.24h -0.0266734" fill="none" stroke="#6666ff"/>
<path d="M94.9976,460.24h -0.0266734" fill="none" stroke="#6666ff"/>
<path d="M87.7817,460.24h -0.0266734" fill="none" stroke="#6666ff"/>
<path d="M80.5659,460.24h -0.0266734" fill="none" stroke="#6666ff"/>
<path d="M132.575,458.716l -1.45039, 1.44931" fill="none" stroke="#6666ff"/>
<path d="M125.359,458.716l -1.45039, 1.44931" fill="none" stroke="#6666ff"/>
<path d="M118.143,458.716l -1.45039, 1.44931" fill="none" stroke="#6666ff"/>
<path d="M110.927,458.716l -1.45039, 1.44931" fill="none" stroke="#6666ff"/>
<path d="M162.519,457.636l -2.51241, 2.51054" fill="none" stroke="#6666ff"/>
<path d="M155.303,457.636l -2.51241, 2.51054" fill="none" stroke="#6666ff"/>
<path d="M148.087,457.636l -2.51241, 2.51054" fill="none" stroke="#6666ff"/>
<path d="M140.872,457.636l -2.51241, 2.51054" fill="none" stroke="#6666ff"/>
<path d="M194.673,447.137l -3.14834, 3.146" fill="none" stroke="#6666ff"/>
<path d="M188.089,446.506l -3.77996, 3.77715" fill="none" stroke="#6666ff"/>
<path d="M180.873,446.506l -3.77996, 3.77715" fill="none" stroke="#6666ff"/>
<path d="M173.657,446.506l -3.77996, 3.77715" fill="none" stroke="#6666ff"/>
<path d="M166.442,446.506l -0.469096, 0.468747" fill="none" stroke="#6666ff"/>
<path d="M222.462,433.79l -3.94166, 3.93873" fill="none" stroke="#6666ff"/>
<path d="M215.246,433.79l -3.94166, 3.93873" fill="none" stroke="#6666ff"/>
<path d="M208.03,433.79l -3.94166, 3.93873" fill="none" stroke="#6666ff"/>
<path d="M200.814,433.79l -3.94166, 3.93873" fill="none" stroke="#6666ff"/>
<path d="M252.075,389.778l -6.56021, 6.55533" fill="none" stroke="#6666ff"/>
<path d="M252.075,382.568l -13.776, 13.7658" fill="none" stroke="#6666ff"/>
<path d="M252.075,375.357l -20.9919, 20.9763" fill="none" stroke="#6666ff"/>
<path d="M252.075,368.147l -28.2077, 28.1867" fill="none" stroke="#6666ff"/>
<path d="M252.075,360.936l -28.7008, 28.6794" fill="none" stroke="#6666ff"/>
<path d="M248.837,356.961l -25.4635, 25.4445" fill="none" stroke="#6666ff"/>
<path d="M241.622,356.961l -18.2476, 18.2341" fill="none" stroke="#6666ff"/>
<path d="M234.406,356.961l -11.0318, 11.0236" fill="none" stroke="#6666ff"/>
<path d="M227.19,356.961l -3.81598, 3.81314" fill="none" stroke="#6666ff"/>
<path d="M280.776,382.73l -1.70335, 1.70208" fill="none" stroke="#6666ff"/>
<path d="M280.776,375.52l -8.91918, 8.91255" fill="none" stroke="#6666ff"/>
<path d="M277.076,372.006l -12.4356, 12.4263" fill="none" stroke="#6666ff"/>
<path d="M269.86,372.006l -12.4356, 12.4263" fill="none" stroke="#6666ff"/>
<path d="M262.645,372.006l -10.5697, 10.5619" fill="none" stroke="#6666ff"/>
<path d="M255.429,372.006l -3.35388, 3.35139" fill="none" stroke="#6666ff"/>
<path d="M309.476,332.419l -5.77156, 5.76727" fill="none" stroke="#6666ff"/>
<path d="M309.476,325.209l -12.9874, 12.9777" fill="none" stroke="#6666ff"/>
<path d="M309.476,317.998l -20.2032, 20.1882" fill="none" stroke="#6666ff"/>
<path d="M309.476,310.788l -27.419, 27.3987" fill="none" stroke="#6666ff"/>
<path d="M309.476,303.578l -28.7008, 28.6794" fill="none" stroke="#6666ff"/>
<path d="M304.235,301.604l -23.4598, 23.4424" fill="none" stroke="#6666ff"/>
<path d="M297.02,301.604l -16.244, 16.2319" fill="none" stroke="#6666ff"/>
<path d="M289.804,301.604l -9.02813, 9.02142" fill="none" stroke="#6666ff"/>
<path d="M282.588,301.604l -1.8123, 1.81096" fill="none" stroke="#6666ff"/>
<path d="M338.177,332.582l -0.385324, 0.385037" fill="none" stroke="#6666ff"/>
<path d="M338.177,325.371l -7.60115, 7.5955" fill="none" stroke="#6666ff"/>
<path d="M338.177,318.161l -14.817, 14.806" fill="none" stroke="#6666ff"/>
<path d="M338.177,310.95l -22.0328, 22.0164" fill="none" stroke="#6666ff"/>
<path d="M333.2,308.714l -23.7234, 23.7057" fill="none" stroke="#6666ff"/>
<path d="M325.984,308.714l -16.5076, 16.4953" fill="none" stroke="#6666ff"/>
<path d="M318.768,308.714l -9.29172, 9.28481" fill="none" stroke="#6666ff"/>
<path d="M311.552,308.714l -2.07589, 2.07435" fill="none" stroke="#6666ff"/>
<path d="M366.878,318.323l -5.59244, 5.58828" fill="none" stroke="#6666ff"/>
<path d="M366.878,311.113l -12.8083, 12.7987" fill="none" stroke="#6666ff"/>
<path d="M366.878,303.902l -20.0241, 20.0092" fill="none" stroke="#6666ff"/>
<path d="M366.537,297.033l -26.899, 26.879" fill="none" stroke="#6666ff"/>
<path d="M359.321,297.033l -21.144, 21.1283" fill="none" stroke="#6666ff"/>
<path d="M352.105,297.033l -13.9282, 13.9178" fill="none" stroke="#6666ff"/>
<path d="M344.889,297.033l -6.71233, 6.70734" fill="none" stroke="#6666ff"/>
<path d="M395.579,347.328l -1.73446, 1.73317" fill="none" stroke="#6666ff"/>
<path d="M395.579,340.117l -8.95029, 8.94364" fill="none" stroke="#6666ff"/>
<path d="M395.579,332.907l -16.1661, 16.1541" fill="none" stroke="#6666ff"/>
<path d="M394.876,326.398l -22.6795, 22.6626" fill="none" stroke="#6666ff"/>
<path d="M387.66,326.398l -20.7825, 20.7671" fill="none" stroke="#6666ff"/>
<path d="M380.445,326.398l -13.5667, 13.5566" fill="none" stroke="#6666ff"/>
<path d="M373.229,326.398l -6.35085, 6.34613" fill="none" stroke="#6666ff"/>
<path d="M424.28,376.332l -1.64854, 1.64731" fill="none" stroke="#6666ff"/>
<path d="M424.28,369.121l -8.86437, 8.85778" fill="none" stroke="#6666ff"/>
<path d="M424.28,361.911l -16.0802, 16.0682" fill="none" stroke="#6666ff"/>
<path d="M417.862,361.113l -16.8787, 16.8661" fill="none" stroke="#6666ff"/>
<path d="M410.646,361.113l -15.0676, 15.0564" fill="none" stroke="#6666ff"/>
<path d="M403.43,361.113l -7.85175, 7.84591" fill="none" stroke="#6666ff"/>
<path d="M396.215,361.113l -0.635922, 0.635449" fill="none" stroke="#6666ff"/>
<path d="M449.1,423.635l -2.28103, 2.27934" fill="none" stroke="#6666ff"/>
<path d="M441.884,423.635l -2.28103, 2.27934" fill="none" stroke="#6666ff"/>
<path d="M434.668,423.635l -2.28103, 2.27934" fill="none" stroke="#6666ff"/>
<path d="M427.452,423.635l -2.28103, 2.27934" fill="none" stroke="#6666ff"/>
<path d="M477.352,453.087l -0.88452, 0.883862" fill="none" stroke="#6666ff"/>
<path d="M470.136,453.087l -0.88452, 0.883862" fill="none" stroke="#6666ff"/>
<path d="M462.92,453.087l -0.88452, 0.883862" fill="none" stroke="#6666ff"/>
<path d="M455.704,453.087l -0.88452, 0.883862" fill="none" stroke="#6666ff"/>
<path d="M506.76,459.753l -0.207328, 0.207174" fill="none" stroke="#6666ff"/>
<path d="M499.544,459.753l -0.207328, 0.207174" fill="none" stroke="#6666ff"/>
<path d="M492.329,459.753l -0.207328, 0.207174" fill="none" stroke="#6666ff"/>
<path d="M485.113,459.753l -0.207328, 0.207174" fill="none" stroke="#6666ff"/>
<path d="M535.137,460.24h -9.00243e-05" fill="none" stroke="#6666ff"/>
<path d="M527.921,460.24h -9.00243e-05" fill="none" stroke="#6666ff"/>
<path d="M520.705,460.24h -9.00243e-05" fill="none" stroke="#6666ff"/>
<path d="M513.489,460.24h -9.00243e-05" fill="none" stroke="#6666ff"/>
<path d="M204.268,441.893h -9.56558" fill="none" stroke="black" stroke-width="2"/>
<path d="M194.702,441.893z" fill="none" stroke="black" stroke-width="2"/>
<path d="M213.78,441.893h 9.59428" fill="none" stroke="black" stroke-width="2"/>
<path d="M223.374,441.893z" fill="none" stroke="black" stroke-width="2"/>
<path d="M209.024,437.137v -13.5905" fill="none" stroke="black" stroke-width="2"/>
<path d="M209.024,423.547z" fill="none" stroke="black" stroke-width="2"/>
<path d="M209.024,446.649v 13.5905" fill="none" stroke="black" stroke-width="2"/>
<path d="M209.024,460.24z" fill="none" stroke="black" stroke-width="2"/>
<path d="M232.968,405.2h -9.56558" fill="none" stroke="black" stroke-width="2"/>
<path d="M223.403,405.2z" fill="none" stroke="black" stroke-width="2"/>
<path d="M242.481,405.2h 9.59428" fill="none" stroke="black" stroke-width="2"/>
<path d="M252.075,405.2z" fill="none" stroke="black" stroke-width="2"/>
<path d="M237.724,400.444v -27.0212" fill="none" stroke="black" stroke-width="2"/>
<path d="M237.724,373.423z" fill="none" stroke="black" stroke-width="2"/>
<path d="M237.724,409.956v 27.0212" fill="none" stroke="black" stroke-width="2"/>
<path d="M237.724,436.977z" fill="none" stroke="black" stroke-width="2"/>
<path d="M261.669,350.16h -9.56558" fill="none" stroke="black" stroke-width="2"/>
<path d="M252.104,350.16z" fill="none" stroke="black" stroke-width="2"/>
<path d="M271.181,350.16h 9.59428" fill="none" stroke="black" stroke-width="2"/>
<path d="M280.776,350.16z" fill="none" stroke="black" stroke-width="2"/>
<path d="M266.425,345.404v -40.1838" fill="none" stroke="black" stroke-width="2"/>
<path d="M266.425,305.22z" fill="none" stroke="black" stroke-width="2"/>
<path d="M266.425,354.916v 40.1838" fill="none" stroke="black" stroke-width="2"/>
<path d="M266.425,395.1z" fill="none" stroke="black" stroke-width="2"/>
<path d="M290.37,423.547h -9.56558" fill="none" stroke="black" stroke-width="2"/>
<path d="M280.804,423.547z" fill="none" stroke="black" stroke-width="2"/>
<path d="M299.882,423.547h 9.59428" fill="none" stroke="black" stroke-width="2"/>
<path d="M309.476,423.547z" fill="none" stroke="black" stroke-width="2"/>
<path d="M295.126,418.79v -21.19" fill="none" stroke="black" stroke-width="2"/>
<path d="M295.126,397.6z" fill="none" stroke="black" stroke-width="2"/>
<path d="M295.126,428.303v 21.19" fill="none" stroke="black" stroke-width="2"/>
<path d="M295.126,449.493z" fill="none" stroke="black" stroke-width="2"/>
<path d="M319.071,331.813h -9.56558" fill="none" stroke="black" stroke-width="2"/>
<path d="M309.505,331.813z" fill="none" stroke="black" stroke-width="2"/>
<path d="M328.583,331.813h 9.59428" fill="none" stroke="black" stroke-width="2"/>
<path d="M338.177,331.813z" fill="none" stroke="black" stroke-width="2"/>
<path d="M323.827,327.057v -43.7846" fill="none" stroke="black" stroke-width="2"/>
<path d="M323.827,283.273z" fill="none" stroke="black" stroke-width="2"/>
<path d="M323.827,336.569v 43.7846" fill="none" stroke="black" stroke-width="2"/>
<path d="M323.827,380.354z" fill="none" stroke="black" stroke-width="2"/>
<path d="M347.771,331.813h -9.56558" fill="none" stroke="black" stroke-width="2"/>
<path d="M338.206,331.813z" fill="none" stroke="black" stroke-width="2"/>
<path d="M357.284,331.813h 9.59428" fill="none" stroke="black" stroke-width="2"/>
<path d="M366.878,331.813z" fill="none" stroke="black" stroke-width="2"/>
<path d="M352.528,327.057v -43.7846" fill="none" stroke="black" stroke-width="2"/>
<path d="M352.528,283.273z" fill="none" stroke="black" stroke-width="2"/>
<path d="M352.528,336.569v 43.7846" fill="none" stroke="black" stroke-width="2"/>
<path d="M352.528,380.354z" fill="none" stroke="black" stroke-width="2"/>
<path d="M376.472,276.773h -9.56558" fill="none" stroke="black" stroke-width="2"/>
<path d="M366.907,276.773z" fill="none" stroke="black" stroke-width="2"/>
<path d="M385.984,276.773h 9.59428" fill="none" stroke="black" stroke-width="2"/>
<path d="M395.579,276.773z" fill="none" stroke="black" stroke-width="2"/>
<path d="M381.228,272.017v -53.2611" fill="none" stroke="black" stroke-width="2"/>
<path d="M381.228,218.756z" fill="none" stroke="black" stroke-width="2"/>
<path d="M381.228,281.529v 53.2611" fill="none" stroke="black" stroke-width="2"/>
<path d="M381.228,334.79z" fill="none" stroke="black" stroke-width="2"/>
<path d="M405.173,386.853h -9.56558" fill="none" stroke="black" stroke-width="2"/>
<path d="M395.607,386.853z" fill="none" stroke="black" stroke-width="2"/>
<path d="M414.685,386.853h 9.59428" fill="none" stroke="black" stroke-width="2"/>
<path d="M424.28,386.853z" fill="none" stroke="black" stroke-width="2"/>
<path d="M409.929,382.097v -31.9372" fill="none" stroke="black" stroke-width="2"/>
<path d="M409.929,350.16z" fill="none" stroke="black" stroke-width="2"/>
<path d="M409.929,391.609v 31.9372" fill="none" stroke="black" stroke-width="2"/>
<path d="M409.929,423.547z" fill="none" stroke="black" stroke-width="2"/>
<path d="M433.874,441.893h -9.56558" fill="none" stroke="black" stroke-width="2"/>
<path d="M424.308,441.893z" fill="none" stroke="black" stroke-width="2"/>
<path d="M443.386,441.893h 9.59428" fill="none" stroke="black" stroke-width="2"/>
<path d="M452.98,441.893z" fill="none" stroke="black" stroke-width="2"/>
<path d="M438.63,437.137v -13.5905" fill="none" stroke="black" stroke-width="2"/>
<path d="M438.63,423.547z" fill="none" stroke="black" stroke-width="2"/>
<path d="M438.63,446.649v 13.5905" fill="none" stroke="black" stroke-width="2"/>
<path d="M438.63,460.24z" fill="none" stroke="black" stroke-width="2"/>
<path d="M462.575,423.547h -9.56558" fill="none" stroke="black" stroke-width="2"/>
<path d="M453.009,423.547z" fill="none" stroke="black" stroke-width="2"/>
<path d="M472.087,423.547h 9.59428" fill="none" stroke="black" stroke-width="2"/>
<path d="M481.681,423.547z" fill="none" stroke="black" stroke-width="2"/>
<path d="M467.331,418.79v -21.19" fill="none" stroke="black" stroke-width="2"/>
<path d="M467.331,397.6z" fill="none" stroke="black" stroke-width="2"/>
<path d="M467.331,428.303v 21.19" fill="none" stroke="black" stroke-width="2"/>
<path d="M467.331,449.493z" fill="none" stroke="black" stroke-width="2"/>
<g fill="black">
<circle cx="209.024" cy="441.893" r="5.32685"/>
<circle cx="237.724" cy="405.2" r="5.32685"/>
<circle cx="266.425" cy="350.16" r="5.32685"/>
<circle cx="295.126" cy="423.547" r="5.32685"/>
<circle cx="323.827" cy="331.813" r="5.32685"/>
<circle cx="352.528" cy="331.813" r="5.32685"/>
<circle cx="381.228" cy="276.773" r="5.32685"/>
<circle cx="409.929" cy="386.853" r="5.32685"/>
<circle cx="438.63" cy="441.893" r="5.32685"/>
<circle cx="467.331" cy="423.547" r="5.32685"/>
</g>
<path d="M79.8701,460.24h 459.213" fill="none" stroke="black"/>
<path d="M79.8701,447.813v 12.4265" fill="none" stroke="black"/>
<path d="M89.0543,454.027v 6.21324" fill="none" stroke="black"/>
<path d="M98.2386,454.027v 6.21324" fill="none" stroke="black"/>
<path d="M107.423,454.027v 6.21324" fill="none" stroke="black"/>
<path d="M116.607,454.027v 6.21324" fill="none" stroke="black"/>
<path d="M125.791,447.813v 12.4265" fill="none" stroke="black"/>
<path d="M134.976,454.027v 6.21324" fill="none" stroke="black"/>
<path d="M144.16,454.027v 6.21324" fill="none" stroke="black"/>
<path d="M153.344,454.027v 6.21324" fill="none" stroke="black"/>
<path d="M162.528,454.027v 6.21324" fill="none" stroke="black"/>
<path d="M171.713,447.813v 12.4265" fill="none" stroke="black"/>
<path d="M180.897,454.027v 6.21324" fill="none" stroke="black"/>
<path d="M190.081,454.027v 6.21324" fill="none" stroke="black"/>
<path d="M199.265,454.027v 6.21324" fill="none" stroke="black"/>
<path d="M208.45,454.027v 6.21324" fill="none" stroke="black"/>
<path d="M217.634,447.813v 12.4265" fill="none" stroke="black"/>
<path d="M226.818,454.027v 6.21324" fill="none" stroke="black"/>
<path d="M236.002,454.027v 6.21324" fill="none" stroke="black"/>
<path d="M245.187,454.027v 6.21324" fill="none" stroke="black"/>
<path d="M254.371,454.027v 6.21324" fill="none" stroke="black"/>
<path d="M263.555,447.813v 12.4265" fill="none" stroke="black"/>
<path d="M272.739,454.027v 6.21324" fill="none" stroke="black"/>
<path d="M281.924,454.027v 6.21324" fill="none" stroke="black"/>
<path d="M291.108,454.027v 6.21324" fill="none" stroke="black"/>
<path d="M300.292,454.027v 6.21324" fill="none" stroke="black"/>
<path d="M309.476,447.813v 12.4265" fill="none" stroke="black"/>
<path d="M318.661,454.027v 6.21324" fill="none" stroke="black"/>
<path d="M327.845,454.027v 6.21324" fill="none" stroke="black"/>
<path d="M337.029,454.027v 6.21324" fill="none" stroke="black"/>
<path d="M346.213,454.027v 6.21324" fill="none" stroke="black"/>
<path d="M355.398,447.813v 12.4265" fill="none" stroke="black"/>
<path d="M364.582,454.027v 6.21324" fill="none" stroke="black"/>
<path d="M373.766,454.027v 6.21324" fill="none" stroke="black"/>
<path d="M382.95,454.027v 6.21324" fill="none" stroke="black"/>
<path d="M392.135,454.027v 6.21324" fill="none" stroke="black"/>
<path d="M401.319,447.813v 12.4265" fill="none" stroke="black"/>
<path d="M410.503,454.027v 6.21324" fill="none" stroke="black"/>
<path d="M419.687,454.027v 6.21324" fill="none" stroke="black"/>
<path d="M428.872,454.027v 6.21324" fill="none" stroke="black"/>
<path d="M438.056,454.027v 6.21324" fill="none" stroke="black"/>
<path d="M447.24,447.813v 12.4265" fill="none" stroke="black"/>
<path d="M456.424,454.027v 6.21324" fill="none" stroke="black"/>
<path d="M465.609,454.027v 6.21324" fill="none" stroke="black"/>
<path d="M474.793,454.027v 6.21324" fill="none" stroke="black"/>
<path d="M483.977,454.027v 6.21324" fill="none" stroke="black"/>
<path d="M493.161,447.813v 12.4265" fill="none" stroke="black"/>
<path d="M502.346,454.027v 6.21324" fill="none" stroke="black"/>
<path d="M511.53,454.027v 6.21324" fill="none" stroke="black"/>
<path d="M520.714,454.027v 6.21324" fill="none" stroke="black"/>
<path d="M529.898,454.027v 6.21324" fill="none" stroke="black"/>
<path d="M539.083,447.813v 12.4265" fill="none" stroke="black"/>
<path d="M79.8701,447.813v 12.4265" fill="none" stroke="black"/>
<path d="M79.8701,25.5689h 459.213" fill="none" stroke="black"/>
<path d="M79.8701,37.9954v -12.4265" fill="none" stroke="black"/>
<path d="M89.0543,31.7821v -6.21324" fill="none" stroke="black"/>
<path d="M98.2386,31.7821v -6.21324" fill="none" stroke="black"/>
<path d="M107.423,31.7821v -6.21324" fill="none" stroke="black"/>
<path d="M116.607,31.7821v -6.21324" fill="none" stroke="black"/>
<path d="M125.791,37.9954v -12.4265" fill="none" stroke="black"/>
<path d="M134.976,31.7821v -6.21324" fill="none" stroke="black"/>
<path d="M144.16,31.7821v -6.21324" fill="none" stroke="black"/>
<path d="M153.344,31.7821v -6.21324" fill="none" stroke="black"/>
<path d="M162.528,31.7821v -6.21324" fill="none" stroke="black"/>
<path d="M171.713,37.9954v -12.4265" fill="none" stroke="black"/>
<path d="M180.897,31.7821v -6.21324" fill="none" stroke="black"/>
<path d="M190.081,31.7821v -6.21324" fill="none" stroke="black"/>
<path d="M199.265,31.7821v -6.21324" fill="none" stroke="black"/>
<path d="M208.45,31.7821v -6.21324" fill="none" stroke="black"/>
<path d="M217.634,37.9954v -12.4265" fill="none" stroke="black"/>
<path d="M226.818,31.7821v -6.21324" fill="none" stroke="black"/>
<path d="M236.002,31.7821v -6.21324" fill="none" stroke="black"/>
<path d="M245.187,31.7821v -6.21324" fill="none" stroke="black"/>
<path d="M254.371,31.7821v -6.21324" fill="none" stroke="black"/>
<path d="M263.555,37.9954v -12.4265" fill="none" stroke="black"/>
<path d="M272.739,31.7821v -6.21324" fill="none" stroke="black"/>
<path d="M281.924,31.7821v -6.21324" fill="none" stroke="black"/>
<path d="M291.108,31.7821v -6.21324" fill="none" stroke="black"/>
<path d="M300.292,31.7821v -6.21324" fill="none" stroke="black"/>
<path d="M309.476,37.9954v -12.4265" fill="none" stroke="black"/>
<path d="M318.661,31.7821v -6.21324" fill="none" stroke="black"/>
<path d="M327.845,31.7821v -6.21324" fill="none" stroke="black"/>
<path d="M337.029,31.7821v -6.21324" fill="none" stroke="black"/>
<path d="M346.213,31.7821v -6.21324" fill="none" stroke="black"/>
<path d="M355.398,37.9954v -12.4265" fill="none" stroke="black"/>
<path d="M364.582,31.7821v -6.21324" fill="none" stroke="black"/>
<path d="M373.766,31.7821v -6.21324" fill="none" stroke="black"/>
<path d="M382.95,31.7821v -6.21324" fill="none" stroke="black"/>
<path d="M392.135,31.7821v -6.21324" fill="none" stroke="black"/>
<path d="M401.319,37.9954v -12.4265" fill="none" stroke="black"/>
<path d="M410.503,31.7821v -6.21324" fill="none" stroke="black"/>
<path d="M419.687,31.7821v -6.21324" fill="none" stroke="black"/>
<path d="M428.872,31.7821v -6.21324" fill="none" stroke="black"/>
<path d="M438.056,31.7821v -6.21324" fill="none" stroke="black"/>
<path d="M447.24,37.9954v -12.4265" fill="none" stroke="black"/>
<path d="M456.424,31.7821v -6.21324" fill="none" stroke="black"/>
<path d="M465.609,31.7821v -6.21324" fill="none" stroke="black"/>
<path d="M474.793,31.7821v -6.21324" fill="none" stroke="black"/>
<path d="M483.977,31.7821v -6.21324" fill="none" stroke="black"/>
<path d="M493.161,37.9954v -12.4265" fill="none" stroke="black"/>
<path d="M502.346,31.7821v -6.21324" fill="none" stroke="black"/>
<path d="M511.53,31.7821v -6.21324" fill="none" stroke="black"/>
<path d="M520.714,31.7821v -6.21324" fill="none" stroke="black"/>
<path d="M529.898,31.7821v -6.21324" fill="none" stroke="black"/>
<path d="M539.083,37.9954v -12.4265" fill="none" stroke="black"/>
<path d="M79.8701,37.9954v -12.4265" fill="none" stroke="black"/>
<path d="M79.8701,460.24v -434.671" fill="none" stroke="black"/>
<path d="M94.3268,460.24h -14.4567" fill="none" stroke="black"/>
<path d="M87.0984,451.067h -7.22835" fill="none" stroke="black"/>
<path d="M87.0984,441.893h -7.22835" fill="none" stroke="black"/>
<path d="M87.0984,432.72h -7.22835" fill="none" stroke="black"/>
<path d="M94.3268,423.547h -14.4567" fill="none" stroke="black"/>
<path d="M87.0984,414.373h -7.22835" fill="none" stroke="black"/>
<path d="M87.0984,405.2h -7.22835" fill="none" stroke="black"/>
<path d="M87.0984,396.027h -7.22835" fill="none" stroke="black"/>
<path d="M94.3268,386.853h -14.4567" fill="none" stroke="black"/>
<path d="M87.0984,377.68h -7.22835" fill="none" stroke="black"/>
<path d="M87.0984,368.507h -7.22835" fill="none" stroke="black"/>
<path d="M87.0984,359.333h -7.22835" fill="none" stroke="black"/>
<path d="M94.3268,350.16h -14.4567" fill="none" stroke="black"/>
<path d="M87.0984,340.987h -7.22835" fill="none" stroke="black"/>
<path d="M87.0984,331.813h -7.22835" fill="none" stroke="black"/>
<path d="M87.0984,322.64h -7.22835" fill="none" stroke="black"/>
<path d="M94.3268,313.467h -14.4567" fill="none" stroke="black"/>
<path d="M87.0984,304.293h -7.22835" fill="none" stroke="black"/>
<path d="M87.0984,295.12h -7.22835" fill="none" stroke="black"/>
<path d="M87.0984,285.947h -7.22835" fill="none" stroke="black"/>
<path d="M94.3268,276.773h -14.4567" fill="none" stroke="black"/>
<path d="M87.0984,267.6h -7.22835" fill="none" stroke="black"/>
<path d="M87.0984,258.427h -7.22835" fill="none" stroke="black"/>
<path d="M87.0984,249.253h -7.22835" fill="none" stroke="black"/>
<path d="M94.3268,240.08h -14.4567" fill="none" stroke="black"/>
<path d="M87.0984,230.907h -7.22835" fill="none" stroke="black"/>
<path d="M87.0984,221.733h -7.22835" fill="none" stroke="black"/>
<path d="M87.0984,212.56h -7.22835" fill="none" stroke="black"/>
<path d="M94.3268,203.387h -14.4567" fill="none" stroke="black"/>
<path d="M87.0984,194.213h -7.22835" fill="none" stroke="black"/>
<path d="M87.0984,185.04h -7.22835" fill="none" stroke="black"/>
<path d="M87.0984,175.867h -7.22835" fill="none" stroke="black"/>
<path d="M94.3268,166.693h -14.4567" fill="none" stroke="black"/>
<path d="M87.0984,157.52h -7.22835" fill="none" stroke="black"/>
<path d="M87.0984,148.347h -7.22835" fill="none" stroke="black"/>
<path d="M87.0984,139.173h -7.22835" fill="none" stroke="black"/>
<path d="M94.3268,130h -14.4567" fill="none" stroke="black"/>
<path d="M87.0984,120.827h -7.22835" fill="none" stroke="black"/>
<path d="M87.0984,111.653h -7.22835" fill="none" stroke="black"/>
<path d="M87.0984,102.48h -7.22835" fill="none" stroke="black"/>
<path d="M94.3268,93.3066h -14.4567" fill="none" stroke="black"/>
<path d="M87.0984,84.1333h -7.22835" fill="none" stroke="black"/>
<path d="M87.0984,74.9599h -7.22835" fill="none" stroke="black"/>
<path d="M87.0984,65.7866h -7.22835" fill="none" stroke="black"/>
<path d="M94.3268,56.6133h -14.4567" fill="none" stroke="black"/>
<path d="M94.3268,56.6133h -14.4567" fill="none" stroke="black"/>
<path d="M87.0984,47.4399h -7.22835" fill="none" stroke="black"/>
<path d="M87.0984,38.2666h -7.22835" fill="none" stroke="black"/>
<path d="M87.0984,29.0933h -7.22835" fill="none" stroke="black"/>
<path d="M539.083,460.24v -434.671" fill="none" stroke="black"/>
<path d="M524.626,460.24h 14.4567" fill="none" stroke="black"/>
<path d="M531.854,451.067h 7.22835" fill="none" stroke="black"/>
<path d="M531.854,441.893h 7.22835" fill="none" stroke="black"/>
<path d="M531.854,432.72h 7.22835" fill="none" stroke="black"/>
<path d="M524.626,423.547h 14.4567" fill="none" stroke="black"/>
<path d="M531.854,414.373h 7.22835" fill="none" stroke="black"/>
<path d="M531.854,405.2h 7.22835" fill="none" stroke="black"/>
<path d="M531.854,396.027h 7.22835" fill="none" stroke="black"/>
<path d="M524.626,386.853h 14.4567" fill="none" stroke="black"/>
<path d="M531.854,377.68h 7.22835" fill="none" stroke="black"/>
<path d="M531.854,368.507h 7.22835" fill="none" stroke="black"/>
<path d="M531.854,359.333h 7.22835" fill="none" stroke="black"/>
<path d="M524.626,350.16h 14.4567" fill="none" stroke="black"/>
<path d="M531.854,340.987h 7.22835" fill="none" stroke="black"/>
<path d="M531.854,331.813h 7.22835" fill="none" stroke="black"/>
<path d="M531.854,322.64h 7.22835" fill="none" stroke="black"/>
<path d="M524.626,313.467h 14.4567" fill="none" stroke="black"/>
<path d="M531.854,304.293h 7.22835" fill="none" stroke="black"/>
<path d="M531.854,295.12h 7.22835" fill="none" stroke="black"/>
<path d="M531.854,285.947h 7.22835" fill="none" stroke="black"/>
<path d="M524.626,276.773h 14.4567" fill="none" stroke="black"/>
<path d="M531.854,267.6h 7.22835" fill="none" stroke="black"/>
<path d="M531.854,258.427h 7.22835" fill="none" stroke="black"/>
<path d="M531.854,249.253h 7.22835" fill="none" stroke="black"/>
<path d="M524.626,240.08h 14.4567" fill="none" stroke="black"/>
<path d="M531.854,230.907h 7.22835" fill="none" stroke="black"/>
<path d="M531.854,221.733h 7.22835" fill="none" stroke="black"/>
<path d="M531.854,212.56h 7.22835" fill="none" stroke="black"/>
<path d="M524.626,203.387h 14.4567" fill="none" stroke="black"/>
<path d="M531.854,194.213h 7.22835" fill="none" stroke="black"/>
<path d="M531.854,185.04h 7.22835" fill="none" stroke="black"/>
<path d="M531.854,175.867h 7.22835" fill="none" stroke="black"/>
<path d="M524.626,166.693h 14.4567" fill="none" stroke="black"/>
<path d="M531.854,157.52h 7.22835" fill="none" stroke="black"/>
<path d="M531.854,148.347h 7.22835" fill="none" stroke="black"/>
<path d="M531.854,139.173h 7.22835" fill="none" stroke="black"/>
<path d="M524.626,130h 14.4567" fill="none" stroke="black"/>
<path d="M531.854,120.827h 7.22835" fill="none" stroke="black"/>
<path d="M531.854,111.653h 7.22835" fill="none" stroke="black"/>
<path d="M531.854,102.48h 7.22835" fill="none" stroke="black"/>
<path d="M524.626,93.3066h 14.4567" fill="none" stroke="black"/>
<path d="M531.854,84.1333h 7.22835" fill="none" stroke="black"/>
<path d="M531.854,74.9599h 7.22835" fill="none" stroke="black"/>
<path d="M531.854,65.7866h 7.22835" fill="none" stroke="black"/>
<path d="M524.626,56.6133h 14.4567" fill="none" stroke="black"/>
<path d="M524.626,56.6133h 14.4567" fill="none" stroke="black"/>
<path d="M531.854,47.4399h 7.22835" fill="none" stroke="black"/>
<path d="M531.854,38.2666h 7.22835" fill="none" stroke="black"/>
<path d="M531.854,29.0933h 7.22835" fill="none" stroke="black"/>
<text xml:space="preserve" x="103.232" y="59.9271" fill="black" font-size="18.8468" font-family="Helvetica" font-weight="bold" font-style="oblique">ATLAS</text>
<text xml:space="preserve" x="210.72" y="59.9271" fill="black" font-size="18.8468" font-family="Helvetica">Internal</text>
<text xml:space="preserve" x="268.745" y="77.0491" fill="black" font-size="12.7312" font-family="Helvetica">-1</text>
<text xml:space="preserve" x="122.257" y="85.6101" fill="black" font-size="18.8468" font-family="Helvetica"> = 13 TeV, 139 fb</text>
<text xml:space="preserve" x="112.744" y="85.6101" fill="black" font-size="18.8468" font-family="Helvetica">s</text>
<path d="M107.037,75.1466l 1.90245, 11.4147" fill="none" stroke="black"/>
<path d="M108.939,86.5613l 1.90245, -17.122" fill="none" stroke="black"/>
<path d="M110.842,69.4393h 11.4147" fill="none" stroke="black"/>
<text xml:space="preserve" x="103.232" y="111.293" fill="black" font-size="18.8468" font-family="Helvetica">bb4l_CR Fit</text>
<text xml:space="preserve" x="103.232" y="136.976" fill="black" font-size="18.8468" font-family="Helvetica">VV+HiggsII</text>
<text xml:space="preserve" x="103.232" y="162.659" fill="black" font-size="18.8468" font-family="Helvetica">Pre-Fit</text>
<text xml:space="preserve" x="375.282" y="60.8783" fill="black" font-size="18.8468" font-family="Helvetica">Data</text>
<path d="M286.582,55.3992h 21.0943" fill="none" stroke="black" stroke-width="2"/>
<path d="M297.129,50.1675v -2.43894" fill="none" stroke="black" stroke-width="2"/>
<path d="M297.129,60.631v 2.43894" fill="none" stroke="black" stroke-width="2"/>
<g fill="black">
<circle cx="297.129" cy="55.3992" r="5.32685"/>
</g>
<text xml:space="preserve" x="409.526" y="86.5613" fill="black" font-size="18.8468" font-family="Helvetica">t</text>
<path d="M409.526,71.3418h 5.70734" fill="none" stroke="black" stroke-width="2"/>
<text xml:space="preserve" x="403.819" y="86.5613" fill="black" font-size="18.8468" font-family="Helvetica">t</text>
<path d="M286.582,89.9172h 21.0943v -17.8982h -21.0943z" fill="#00ff00"/>
<path d="M286.582,72.019h 21.0943" fill="none" stroke="black"/>
<path d="M286.582,89.9172h 21.0943" fill="none" stroke="black"/>
<path d="M307.677,89.9172v -17.8982" fill="none" stroke="black"/>
<path d="M286.582,89.9172v -17.8982" fill="none" stroke="black"/>
<text xml:space="preserve" x="389.55" y="112.244" fill="black" font-size="18.8468" font-family="Helvetica">VV</text>
<path d="M286.582,115.486h 21.0943v -17.8982h -21.0943z" fill="#0000ff"/>
<path d="M286.582,97.5879h 21.0943" fill="none" stroke="black"/>
<path d="M286.582,115.486h 21.0943" fill="none" stroke="black"/>
<path d="M307.677,115.486v -17.8982" fill="none" stroke="black"/>
<path d="M286.582,115.486v -17.8982" fill="none" stroke="black"/>
<text xml:space="preserve" x="392.404" y="136.976" fill="black" font-size="18.8468" font-family="Helvetica">ttV</text>
<path d="M286.582,141.055h 21.0943v -17.8982h -21.0943z" fill="#ffff00"/>
<path d="M286.582,123.157h 21.0943" fill="none" stroke="black"/>
<path d="M286.582,141.055h 21.0943" fill="none" stroke="black"/>
<path d="M307.677,141.055v -17.8982" fill="none" stroke="black"/>
<path d="M286.582,141.055v -17.8982" fill="none" stroke="black"/>
<text xml:space="preserve" x="339.136" y="162.659" fill="black" font-size="18.8468" font-family="Helvetica">Single_H</text>
<path d="M286.582,166.624h 21.0943v -17.8982h -21.0943z" fill="#00ffff"/>
<path d="M286.582,148.726h 21.0943" fill="none" stroke="black"/>
<path d="M286.582,166.624h 21.0943" fill="none" stroke="black"/>
<path d="M307.677,166.624v -17.8982" fill="none" stroke="black"/>
<path d="M286.582,166.624v -17.8982" fill="none" stroke="black"/>
<text xml:space="preserve" x="377.184" y="188.342" fill="black" font-size="18.8468" font-family="Helvetica">VVV</text>
<path d="M286.582,192.193h 21.0943v -17.8982h -21.0943z" fill="#59d354"/>
<path d="M286.582,174.295h 21.0943" fill="none" stroke="black"/>
<path d="M286.582,192.193h 21.0943" fill="none" stroke="black"/>
<path d="M307.677,192.193v -17.8982" fill="none" stroke="black"/>
<path d="M286.582,192.193v -17.8982" fill="none" stroke="black"/>
<text xml:space="preserve" x="362.916" y="214.025" fill="black" font-size="18.8468" font-family="Helvetica">Z+jets</text>
<path d="M286.582,217.762h 21.0943v -17.8982h -21.0943z" fill="#5954d8"/>
<path d="M286.582,199.863h 21.0943" fill="none" stroke="black"/>
<path d="M286.582,217.762h 21.0943" fill="none" stroke="black"/>
<path d="M307.677,217.762v -17.8982" fill="none" stroke="black"/>
<path d="M286.582,217.762v -17.8982" fill="none" stroke="black"/>
<text xml:space="preserve" x="374.331" y="239.708" fill="black" font-size="18.8468" font-family="Helvetica">Total</text>
<text xml:space="preserve" x="319.16" y="265.391" fill="black" font-size="18.8468" font-family="Helvetica">Uncertainty</text>
<path d="M307.677,262.113l -6.79136, 6.78631" fill="none" stroke="#6666ff"/>
<path d="M307.677,254.903l -14.0072, 13.9968" fill="none" stroke="#6666ff"/>
<path d="M304.365,251.001l -17.7829, 17.7696" fill="none" stroke="#6666ff"/>
<path d="M297.149,251.001l -10.567, 10.5592" fill="none" stroke="#6666ff"/>
<path d="M289.934,251.001l -3.35119, 3.3487" fill="none" stroke="#6666ff"/>
<text xml:space="preserve" x="474.209" y="60.8783" fill="black" font-size="18.8468" font-family="Helvetica">43.0</text>
<text xml:space="preserve" x="484.673" y="86.5613" fill="black" font-size="18.8468" font-family="Helvetica">0.8</text>
<text xml:space="preserve" x="473.258" y="112.244" fill="black" font-size="18.8468" font-family="Helvetica">21.8</text>
<text xml:space="preserve" x="484.673" y="136.976" fill="black" font-size="18.8468" font-family="Helvetica">0.2</text>
<text xml:space="preserve" x="473.258" y="162.659" fill="black" font-size="18.8468" font-family="Helvetica">22.4</text>
<text xml:space="preserve" x="484.673" y="188.342" fill="black" font-size="18.8468" font-family="Helvetica">0.0</text>
<text xml:space="preserve" x="484.673" y="214.025" fill="black" font-size="18.8468" font-family="Helvetica">3.2</text>
<text xml:space="preserve" x="473.258" y="239.708" fill="black" font-size="18.8468" font-family="Helvetica">48.5</text>
<text xml:space="preserve" x="503.697" y="265.391" fill="black" font-size="18.8468" font-family="Helvetica"> </text></svg>
