<?xml version="1.0" standalone="no"?>
<svg width="567.429" height="639.722" viewBox="0 0 567.429 639.722" xmlns="http://www.w3.org/2000/svg" shape-rendering="crispEdges">
<title>
bb4l_CRFit/Plots/Zjets_CR.svg
</title>
<desc>
Creator: ROOT Version 6.20/06
CreationDate: Tue Mar 23 15:00:03 2021</desc>
<defs>
</defs>
<rect x="0.5" y="0" width="566.929" height="639.222" fill="white"/>
<rect x="79.8701" y="460.24" width="459.213" height="112.759" fill="white"/>
<rect x="79.8701" y="460.24" width="459.213" height="112.759" fill="none" stroke="black"/>
<rect x="79.8701" y="460.24" width="459.213" height="112.759" fill="white"/>
<rect x="79.8701" y="460.24" width="459.213" height="112.759" fill="none" stroke="black"/>
<path d="M79.8701,572.999h 459.213z" fill="#00ff00"/>
<path d="M79.8701,572.999h 459.213" fill="none" stroke="black"/>
<path d="M79.8701,572.999h 459.213" fill="none" stroke="black"/>
<path d="M79.8701,568.649v 4.34927" fill="none" stroke="black"/>
<path d="M89.0543,570.824v 2.17463" fill="none" stroke="black"/>
<path d="M98.2386,570.824v 2.17463" fill="none" stroke="black"/>
<path d="M107.423,570.824v 2.17463" fill="none" stroke="black"/>
<path d="M116.607,570.824v 2.17463" fill="none" stroke="black"/>
<path d="M125.791,568.649v 4.34927" fill="none" stroke="black"/>
<path d="M134.976,570.824v 2.17463" fill="none" stroke="black"/>
<path d="M144.16,570.824v 2.17463" fill="none" stroke="black"/>
<path d="M153.344,570.824v 2.17463" fill="none" stroke="black"/>
<path d="M162.528,570.824v 2.17463" fill="none" stroke="black"/>
<path d="M171.713,568.649v 4.34927" fill="none" stroke="black"/>
<path d="M180.897,570.824v 2.17463" fill="none" stroke="black"/>
<path d="M190.081,570.824v 2.17463" fill="none" stroke="black"/>
<path d="M199.265,570.824v 2.17463" fill="none" stroke="black"/>
<path d="M208.45,570.824v 2.17463" fill="none" stroke="black"/>
<path d="M217.634,568.649v 4.34927" fill="none" stroke="black"/>
<path d="M226.818,570.824v 2.17463" fill="none" stroke="black"/>
<path d="M236.002,570.824v 2.17463" fill="none" stroke="black"/>
<path d="M245.187,570.824v 2.17463" fill="none" stroke="black"/>
<path d="M254.371,570.824v 2.17463" fill="none" stroke="black"/>
<path d="M263.555,568.649v 4.34927" fill="none" stroke="black"/>
<path d="M272.739,570.824v 2.17463" fill="none" stroke="black"/>
<path d="M281.924,570.824v 2.17463" fill="none" stroke="black"/>
<path d="M291.108,570.824v 2.17463" fill="none" stroke="black"/>
<path d="M300.292,570.824v 2.17463" fill="none" stroke="black"/>
<path d="M309.476,568.649v 4.34927" fill="none" stroke="black"/>
<path d="M318.661,570.824v 2.17463" fill="none" stroke="black"/>
<path d="M327.845,570.824v 2.17463" fill="none" stroke="black"/>
<path d="M337.029,570.824v 2.17463" fill="none" stroke="black"/>
<path d="M346.213,570.824v 2.17463" fill="none" stroke="black"/>
<path d="M355.398,568.649v 4.34927" fill="none" stroke="black"/>
<path d="M364.582,570.824v 2.17463" fill="none" stroke="black"/>
<path d="M373.766,570.824v 2.17463" fill="none" stroke="black"/>
<path d="M382.95,570.824v 2.17463" fill="none" stroke="black"/>
<path d="M392.135,570.824v 2.17463" fill="none" stroke="black"/>
<path d="M401.319,568.649v 4.34927" fill="none" stroke="black"/>
<path d="M410.503,570.824v 2.17463" fill="none" stroke="black"/>
<path d="M419.687,570.824v 2.17463" fill="none" stroke="black"/>
<path d="M428.872,570.824v 2.17463" fill="none" stroke="black"/>
<path d="M438.056,570.824v 2.17463" fill="none" stroke="black"/>
<path d="M447.24,568.649v 4.34927" fill="none" stroke="black"/>
<path d="M456.424,570.824v 2.17463" fill="none" stroke="black"/>
<path d="M465.609,570.824v 2.17463" fill="none" stroke="black"/>
<path d="M474.793,570.824v 2.17463" fill="none" stroke="black"/>
<path d="M483.977,570.824v 2.17463" fill="none" stroke="black"/>
<path d="M493.161,568.649v 4.34927" fill="none" stroke="black"/>
<path d="M502.346,570.824v 2.17463" fill="none" stroke="black"/>
<path d="M511.53,570.824v 2.17463" fill="none" stroke="black"/>
<path d="M520.714,570.824v 2.17463" fill="none" stroke="black"/>
<path d="M529.898,570.824v 2.17463" fill="none" stroke="black"/>
<path d="M539.083,568.649v 4.34927" fill="none" stroke="black"/>
<path d="M79.8701,568.649v 4.34927" fill="none" stroke="black"/>
<text xml:space="preserve" x="70.8905" y="592.612" fill="black" font-size="18.7449" font-family="Helvetica">0.6</text>
<text xml:space="preserve" x="61.3783" y="592.612" fill="black" font-size="18.7449" font-family="Times">&#8722;</text>
<text xml:space="preserve" x="116.549" y="592.612" fill="black" font-size="18.7449" font-family="Helvetica">0.5</text>
<text xml:space="preserve" x="107.037" y="592.612" fill="black" font-size="18.7449" font-family="Times">&#8722;</text>
<text xml:space="preserve" x="162.208" y="592.612" fill="black" font-size="18.7449" font-family="Helvetica">0.4</text>
<text xml:space="preserve" x="151.745" y="592.612" fill="black" font-size="18.7449" font-family="Times">&#8722;</text>
<text xml:space="preserve" x="208.818" y="592.612" fill="black" font-size="18.7449" font-family="Helvetica">0.3</text>
<text xml:space="preserve" x="199.306" y="592.612" fill="black" font-size="18.7449" font-family="Times">&#8722;</text>
<text xml:space="preserve" x="254.477" y="592.612" fill="black" font-size="18.7449" font-family="Helvetica">0.2</text>
<text xml:space="preserve" x="244.964" y="592.612" fill="black" font-size="18.7449" font-family="Times">&#8722;</text>
<text xml:space="preserve" x="302.038" y="592.612" fill="black" font-size="18.7449" font-family="Helvetica">0.1</text>
<text xml:space="preserve" x="291.574" y="592.612" fill="black" font-size="18.7449" font-family="Times">&#8722;</text>
<text xml:space="preserve" x="349.599" y="592.612" fill="black" font-size="18.7449" font-family="Helvetica">0</text>
<text xml:space="preserve" x="389.55" y="592.612" fill="black" font-size="18.7449" font-family="Helvetica">0.1</text>
<text xml:space="preserve" x="433.307" y="592.612" fill="black" font-size="18.7449" font-family="Helvetica">0.2</text>
<text xml:space="preserve" x="478.965" y="592.612" fill="black" font-size="18.7449" font-family="Helvetica">0.3</text>
<text xml:space="preserve" x="525.575" y="592.612" fill="black" font-size="18.7449" font-family="Helvetica">0.4</text>
<text xml:space="preserve" x="500.844" y="624.954" fill="black" font-size="18.7449" font-family="Helvetica">BDT</text>
<path d="M79.8701,460.24h 459.213" fill="none" stroke="black"/>
<path d="M79.8701,464.589v -4.34927" fill="none" stroke="black"/>
<path d="M89.0543,462.415v -2.17463" fill="none" stroke="black"/>
<path d="M98.2386,462.415v -2.17463" fill="none" stroke="black"/>
<path d="M107.423,462.415v -2.17463" fill="none" stroke="black"/>
<path d="M116.607,462.415v -2.17463" fill="none" stroke="black"/>
<path d="M125.791,464.589v -4.34927" fill="none" stroke="black"/>
<path d="M134.976,462.415v -2.17463" fill="none" stroke="black"/>
<path d="M144.16,462.415v -2.17463" fill="none" stroke="black"/>
<path d="M153.344,462.415v -2.17463" fill="none" stroke="black"/>
<path d="M162.528,462.415v -2.17463" fill="none" stroke="black"/>
<path d="M171.713,464.589v -4.34927" fill="none" stroke="black"/>
<path d="M180.897,462.415v -2.17463" fill="none" stroke="black"/>
<path d="M190.081,462.415v -2.17463" fill="none" stroke="black"/>
<path d="M199.265,462.415v -2.17463" fill="none" stroke="black"/>
<path d="M208.45,462.415v -2.17463" fill="none" stroke="black"/>
<path d="M217.634,464.589v -4.34927" fill="none" stroke="black"/>
<path d="M226.818,462.415v -2.17463" fill="none" stroke="black"/>
<path d="M236.002,462.415v -2.17463" fill="none" stroke="black"/>
<path d="M245.187,462.415v -2.17463" fill="none" stroke="black"/>
<path d="M254.371,462.415v -2.17463" fill="none" stroke="black"/>
<path d="M263.555,464.589v -4.34927" fill="none" stroke="black"/>
<path d="M272.739,462.415v -2.17463" fill="none" stroke="black"/>
<path d="M281.924,462.415v -2.17463" fill="none" stroke="black"/>
<path d="M291.108,462.415v -2.17463" fill="none" stroke="black"/>
<path d="M300.292,462.415v -2.17463" fill="none" stroke="black"/>
<path d="M309.476,464.589v -4.34927" fill="none" stroke="black"/>
<path d="M318.661,462.415v -2.17463" fill="none" stroke="black"/>
<path d="M327.845,462.415v -2.17463" fill="none" stroke="black"/>
<path d="M337.029,462.415v -2.17463" fill="none" stroke="black"/>
<path d="M346.213,462.415v -2.17463" fill="none" stroke="black"/>
<path d="M355.398,464.589v -4.34927" fill="none" stroke="black"/>
<path d="M364.582,462.415v -2.17463" fill="none" stroke="black"/>
<path d="M373.766,462.415v -2.17463" fill="none" stroke="black"/>
<path d="M382.95,462.415v -2.17463" fill="none" stroke="black"/>
<path d="M392.135,462.415v -2.17463" fill="none" stroke="black"/>
<path d="M401.319,464.589v -4.34927" fill="none" stroke="black"/>
<path d="M410.503,462.415v -2.17463" fill="none" stroke="black"/>
<path d="M419.687,462.415v -2.17463" fill="none" stroke="black"/>
<path d="M428.872,462.415v -2.17463" fill="none" stroke="black"/>
<path d="M438.056,462.415v -2.17463" fill="none" stroke="black"/>
<path d="M447.24,464.589v -4.34927" fill="none" stroke="black"/>
<path d="M456.424,462.415v -2.17463" fill="none" stroke="black"/>
<path d="M465.609,462.415v -2.17463" fill="none" stroke="black"/>
<path d="M474.793,462.415v -2.17463" fill="none" stroke="black"/>
<path d="M483.977,462.415v -2.17463" fill="none" stroke="black"/>
<path d="M493.161,464.589v -4.34927" fill="none" stroke="black"/>
<path d="M502.346,462.415v -2.17463" fill="none" stroke="black"/>
<path d="M511.53,462.415v -2.17463" fill="none" stroke="black"/>
<path d="M520.714,462.415v -2.17463" fill="none" stroke="black"/>
<path d="M529.898,462.415v -2.17463" fill="none" stroke="black"/>
<path d="M539.083,464.589v -4.34927" fill="none" stroke="black"/>
<path d="M79.8701,464.589v -4.34927" fill="none" stroke="black"/>
<path d="M79.8701,572.999v -112.759" fill="none" stroke="black"/>
<path d="M90.585,572.999h -10.715" fill="none" stroke="black"/>
<path d="M85.2276,567.361h -5.35748" fill="none" stroke="black"/>
<path d="M85.2276,561.723h -5.35748" fill="none" stroke="black"/>
<path d="M85.2276,556.085h -5.35748" fill="none" stroke="black"/>
<path d="M85.2276,550.447h -5.35748" fill="none" stroke="black"/>
<path d="M90.585,544.809h -10.715" fill="none" stroke="black"/>
<path d="M85.2276,539.171h -5.35748" fill="none" stroke="black"/>
<path d="M85.2276,533.533h -5.35748" fill="none" stroke="black"/>
<path d="M85.2276,527.895h -5.35748" fill="none" stroke="black"/>
<path d="M85.2276,522.257h -5.35748" fill="none" stroke="black"/>
<path d="M90.585,516.619h -10.715" fill="none" stroke="black"/>
<path d="M85.2276,510.981h -5.35748" fill="none" stroke="black"/>
<path d="M85.2276,505.343h -5.35748" fill="none" stroke="black"/>
<path d="M85.2276,499.705h -5.35748" fill="none" stroke="black"/>
<path d="M85.2276,494.068h -5.35748" fill="none" stroke="black"/>
<path d="M90.585,488.43h -10.715" fill="none" stroke="black"/>
<path d="M85.2276,482.792h -5.35748" fill="none" stroke="black"/>
<path d="M85.2276,477.154h -5.35748" fill="none" stroke="black"/>
<path d="M85.2276,471.516h -5.35748" fill="none" stroke="black"/>
<path d="M85.2276,465.878h -5.35748" fill="none" stroke="black"/>
<path d="M90.585,460.24h -10.715" fill="none" stroke="black"/>
<text xml:space="preserve" x="50.9148" y="580.246" fill="black" font-size="18.7449" font-family="Helvetica">0.2</text>
<text xml:space="preserve" x="50.9148" y="551.71" fill="black" font-size="18.7449" font-family="Helvetica">0.6</text>
<text xml:space="preserve" x="69.9393" y="524.124" fill="black" font-size="18.7449" font-family="Helvetica">1</text>
<text xml:space="preserve" x="49.9636" y="495.587" fill="black" font-size="18.7449" font-family="Helvetica">1.4</text>
<text xml:space="preserve" x="69.9393" y="460.392" fill="black" font-size="18.7449" font-family="Helvetica"> </text>
<g transform="rotate(-90,22.3781,560.271)">
<text xml:space="preserve" x="22.3781" y="560.271" fill="black" font-size="18.7449" font-family="Helvetica">Data / Pred.</text>
</g>
<path d="M539.083,572.999v -112.759" fill="none" stroke="black"/>
<path d="M528.368,572.999h 10.715" fill="none" stroke="black"/>
<path d="M533.725,567.361h 5.35748" fill="none" stroke="black"/>
<path d="M533.725,561.723h 5.35748" fill="none" stroke="black"/>
<path d="M533.725,556.085h 5.35748" fill="none" stroke="black"/>
<path d="M533.725,550.447h 5.35748" fill="none" stroke="black"/>
<path d="M528.368,544.809h 10.715" fill="none" stroke="black"/>
<path d="M533.725,539.171h 5.35748" fill="none" stroke="black"/>
<path d="M533.725,533.533h 5.35748" fill="none" stroke="black"/>
<path d="M533.725,527.895h 5.35748" fill="none" stroke="black"/>
<path d="M533.725,522.257h 5.35748" fill="none" stroke="black"/>
<path d="M528.368,516.619h 10.715" fill="none" stroke="black"/>
<path d="M533.725,510.981h 5.35748" fill="none" stroke="black"/>
<path d="M533.725,505.343h 5.35748" fill="none" stroke="black"/>
<path d="M533.725,499.705h 5.35748" fill="none" stroke="black"/>
<path d="M533.725,494.068h 5.35748" fill="none" stroke="black"/>
<path d="M528.368,488.43h 10.715" fill="none" stroke="black"/>
<path d="M533.725,482.792h 5.35748" fill="none" stroke="black"/>
<path d="M533.725,477.154h 5.35748" fill="none" stroke="black"/>
<path d="M533.725,471.516h 5.35748" fill="none" stroke="black"/>
<path d="M533.725,465.878h 5.35748" fill="none" stroke="black"/>
<path d="M528.368,460.24h 10.715" fill="none" stroke="black"/>
<path d="M79.8701,516.619h 459.213" fill="none" stroke="black" stroke-width="2" stroke-dasharray=" 3, 3"/>
<path d="M108.567,516.619z" fill="none" stroke="#6666ff"/>
<path d="M101.351,516.619z" fill="none" stroke="#6666ff"/>
<path d="M94.1352,516.619z" fill="none" stroke="#6666ff"/>
<path d="M86.9194,516.619z" fill="none" stroke="#6666ff"/>
<path d="M130.214,516.619z" fill="none" stroke="#6666ff"/>
<path d="M122.999,516.619z" fill="none" stroke="#6666ff"/>
<path d="M115.783,516.619z" fill="none" stroke="#6666ff"/>
<path d="M165.972,567.494l -5.49955, 5.50423" fill="none" stroke="#6666ff"/>
<path d="M165.972,560.272l -12.7154, 12.7262" fill="none" stroke="#6666ff"/>
<path d="M165.972,553.051l -19.9312, 19.9482" fill="none" stroke="#6666ff"/>
<path d="M165.972,545.829l -27.147, 27.1701" fill="none" stroke="#6666ff"/>
<path d="M165.972,538.607l -28.7008, 28.7252" fill="none" stroke="#6666ff"/>
<path d="M165.972,531.385l -28.7008, 28.7252" fill="none" stroke="#6666ff"/>
<path d="M165.972,524.163l -28.7008, 28.7252" fill="none" stroke="#6666ff"/>
<path d="M165.972,516.941l -28.7008, 28.7252" fill="none" stroke="#6666ff"/>
<path d="M165.972,509.719l -28.7008, 28.7252" fill="none" stroke="#6666ff"/>
<path d="M165.972,502.497l -28.7008, 28.7252" fill="none" stroke="#6666ff"/>
<path d="M165.972,495.275l -28.7008, 28.7252" fill="none" stroke="#6666ff"/>
<path d="M165.972,488.053l -28.7008, 28.7252" fill="none" stroke="#6666ff"/>
<path d="M165.972,480.831l -28.7008, 28.7252" fill="none" stroke="#6666ff"/>
<path d="M165.972,473.609l -28.7008, 28.7252" fill="none" stroke="#6666ff"/>
<path d="M165.972,466.387l -28.7008, 28.7252" fill="none" stroke="#6666ff"/>
<path d="M164.898,460.24l -27.6267, 27.6502" fill="none" stroke="#6666ff"/>
<path d="M157.683,460.24l -20.4109, 20.4282" fill="none" stroke="#6666ff"/>
<path d="M150.467,460.24l -13.195, 13.2063" fill="none" stroke="#6666ff"/>
<path d="M143.251,460.24l -5.97919, 5.98428" fill="none" stroke="#6666ff"/>
<path d="M194.673,567.657l -5.33702, 5.34156" fill="none" stroke="#6666ff"/>
<path d="M194.673,560.435l -12.5529, 12.5635" fill="none" stroke="#6666ff"/>
<path d="M194.673,553.213l -19.7687, 19.7855" fill="none" stroke="#6666ff"/>
<path d="M194.673,545.991l -26.9845, 27.0075" fill="none" stroke="#6666ff"/>
<path d="M194.673,538.769l -28.7008, 28.7252" fill="none" stroke="#6666ff"/>
<path d="M194.673,531.547l -28.7008, 28.7252" fill="none" stroke="#6666ff"/>
<path d="M194.673,524.325l -28.7008, 28.7252" fill="none" stroke="#6666ff"/>
<path d="M194.673,517.103l -28.7008, 28.7252" fill="none" stroke="#6666ff"/>
<path d="M194.673,509.881l -28.7008, 28.7252" fill="none" stroke="#6666ff"/>
<path d="M194.673,502.659l -28.7008, 28.7252" fill="none" stroke="#6666ff"/>
<path d="M194.673,495.437l -28.7008, 28.7252" fill="none" stroke="#6666ff"/>
<path d="M194.673,488.215l -28.7008, 28.7252" fill="none" stroke="#6666ff"/>
<path d="M194.673,480.993l -28.7008, 28.7252" fill="none" stroke="#6666ff"/>
<path d="M194.673,473.771l -28.7008, 28.7252" fill="none" stroke="#6666ff"/>
<path d="M194.673,466.55l -28.7008, 28.7252" fill="none" stroke="#6666ff"/>
<path d="M193.762,460.24l -27.7892, 27.8129" fill="none" stroke="#6666ff"/>
<path d="M186.546,460.24l -20.5734, 20.5909" fill="none" stroke="#6666ff"/>
<path d="M179.33,460.24l -13.3576, 13.3689" fill="none" stroke="#6666ff"/>
<path d="M172.114,460.24l -6.14172, 6.14695" fill="none" stroke="#6666ff"/>
<path d="M223.374,567.82l -5.17449, 5.17889" fill="none" stroke="#6666ff"/>
<path d="M223.374,560.598l -12.3903, 12.4009" fill="none" stroke="#6666ff"/>
<path d="M223.374,553.376l -19.6061, 19.6228" fill="none" stroke="#6666ff"/>
<path d="M223.374,546.154l -26.822, 26.8448" fill="none" stroke="#6666ff"/>
<path d="M223.374,538.932l -28.7008, 28.7252" fill="none" stroke="#6666ff"/>
<path d="M223.374,531.71l -28.7008, 28.7252" fill="none" stroke="#6666ff"/>
<path d="M223.374,524.488l -28.7008, 28.7252" fill="none" stroke="#6666ff"/>
<path d="M223.374,517.266l -28.7008, 28.7252" fill="none" stroke="#6666ff"/>
<path d="M223.374,510.044l -28.7008, 28.7252" fill="none" stroke="#6666ff"/>
<path d="M223.374,502.822l -28.7008, 28.7252" fill="none" stroke="#6666ff"/>
<path d="M223.374,495.6l -28.7008, 28.7252" fill="none" stroke="#6666ff"/>
<path d="M223.374,488.378l -28.7008, 28.7252" fill="none" stroke="#6666ff"/>
<path d="M223.374,481.156l -28.7008, 28.7252" fill="none" stroke="#6666ff"/>
<path d="M223.374,473.934l -28.7008, 28.7252" fill="none" stroke="#6666ff"/>
<path d="M223.374,466.712l -28.7008, 28.7252" fill="none" stroke="#6666ff"/>
<path d="M222.625,460.24l -27.9517, 27.9755" fill="none" stroke="#6666ff"/>
<path d="M215.409,460.24l -20.7359, 20.7536" fill="none" stroke="#6666ff"/>
<path d="M208.193,460.24l -13.5201, 13.5316" fill="none" stroke="#6666ff"/>
<path d="M200.977,460.24l -6.30426, 6.30962" fill="none" stroke="#6666ff"/>
<path d="M252.075,553.539l -0.0296783, 0.0297036" fill="none" stroke="#6666ff"/>
<path d="M252.075,546.317l -7.24551, 7.25167" fill="none" stroke="#6666ff"/>
<path d="M252.075,539.095l -14.4613, 14.4736" fill="none" stroke="#6666ff"/>
<path d="M252.075,531.873l -21.6772, 21.6956" fill="none" stroke="#6666ff"/>
<path d="M252.075,524.651l -28.7008, 28.7252" fill="none" stroke="#6666ff"/>
<path d="M252.075,517.429l -28.7008, 28.7252" fill="none" stroke="#6666ff"/>
<path d="M252.075,510.207l -28.7008, 28.7252" fill="none" stroke="#6666ff"/>
<path d="M252.075,502.985l -28.7008, 28.7252" fill="none" stroke="#6666ff"/>
<path d="M252.075,495.763l -28.7008, 28.7252" fill="none" stroke="#6666ff"/>
<path d="M252.075,488.541l -28.7008, 28.7252" fill="none" stroke="#6666ff"/>
<path d="M252.075,481.319l -28.7008, 28.7252" fill="none" stroke="#6666ff"/>
<path d="M246.506,479.67l -23.132, 23.1517" fill="none" stroke="#6666ff"/>
<path d="M239.29,479.67l -15.9162, 15.9297" fill="none" stroke="#6666ff"/>
<path d="M232.074,479.67l -8.70034, 8.70774" fill="none" stroke="#6666ff"/>
<path d="M224.859,479.67l -1.48451, 1.48577" fill="none" stroke="#6666ff"/>
<path d="M280.776,532.035l -6.62916, 6.6348" fill="none" stroke="#6666ff"/>
<path d="M280.776,524.813l -13.845, 13.8568" fill="none" stroke="#6666ff"/>
<path d="M280.776,517.591l -21.0608, 21.0787" fill="none" stroke="#6666ff"/>
<path d="M280.776,510.369l -28.2767, 28.3007" fill="none" stroke="#6666ff"/>
<path d="M280.776,503.147l -28.7008, 28.7252" fill="none" stroke="#6666ff"/>
<path d="M280.776,495.925l -28.7008, 28.7252" fill="none" stroke="#6666ff"/>
<path d="M274.916,494.569l -22.8407, 22.8602" fill="none" stroke="#6666ff"/>
<path d="M267.7,494.569l -15.6249, 15.6382" fill="none" stroke="#6666ff"/>
<path d="M260.484,494.569l -8.40906, 8.41621" fill="none" stroke="#6666ff"/>
<path d="M253.268,494.569l -1.19323, 1.19424" fill="none" stroke="#6666ff"/>
<path d="M309.476,546.642l -5.77414, 5.77905" fill="none" stroke="#6666ff"/>
<path d="M309.476,539.42l -12.99, 13.001" fill="none" stroke="#6666ff"/>
<path d="M309.476,532.198l -20.2058, 20.223" fill="none" stroke="#6666ff"/>
<path d="M309.476,524.976l -27.4216, 27.445" fill="none" stroke="#6666ff"/>
<path d="M309.476,517.754l -28.7008, 28.7252" fill="none" stroke="#6666ff"/>
<path d="M309.476,510.532l -28.7008, 28.7252" fill="none" stroke="#6666ff"/>
<path d="M309.476,503.31l -28.7008, 28.7252" fill="none" stroke="#6666ff"/>
<path d="M309.476,496.088l -28.7008, 28.7252" fill="none" stroke="#6666ff"/>
<path d="M309.476,488.866l -28.7008, 28.7252" fill="none" stroke="#6666ff"/>
<path d="M309.476,481.644l -28.7008, 28.7252" fill="none" stroke="#6666ff"/>
<path d="M303.086,480.818l -22.3108, 22.3297" fill="none" stroke="#6666ff"/>
<path d="M295.871,480.818l -15.0949, 15.1078" fill="none" stroke="#6666ff"/>
<path d="M288.655,480.818l -7.87909, 7.8858" fill="none" stroke="#6666ff"/>
<path d="M281.439,480.818l -0.663263, 0.663828" fill="none" stroke="#6666ff"/>
<path d="M338.177,532.361l -6.72635, 6.73208" fill="none" stroke="#6666ff"/>
<path d="M338.177,525.139l -13.9422, 13.954" fill="none" stroke="#6666ff"/>
<path d="M338.177,517.917l -21.158, 21.176" fill="none" stroke="#6666ff"/>
<path d="M338.177,510.695l -28.3738, 28.398" fill="none" stroke="#6666ff"/>
<path d="M338.177,503.473l -28.7008, 28.7252" fill="none" stroke="#6666ff"/>
<path d="M338.177,496.251l -28.7008, 28.7252" fill="none" stroke="#6666ff"/>
<path d="M333.064,494.146l -23.588, 23.6081" fill="none" stroke="#6666ff"/>
<path d="M325.849,494.146l -16.3722, 16.3861" fill="none" stroke="#6666ff"/>
<path d="M318.633,494.146l -9.15637, 9.16417" fill="none" stroke="#6666ff"/>
<path d="M311.417,494.146l -1.94055, 1.9422" fill="none" stroke="#6666ff"/>
<path d="M366.878,532.523l -0.170926, 0.171072" fill="none" stroke="#6666ff"/>
<path d="M366.878,525.301l -7.38676, 7.39304" fill="none" stroke="#6666ff"/>
<path d="M366.878,518.079l -14.6026, 14.615" fill="none" stroke="#6666ff"/>
<path d="M366.878,510.857l -21.8184, 21.837" fill="none" stroke="#6666ff"/>
<path d="M366.878,503.635l -28.7008, 28.7252" fill="none" stroke="#6666ff"/>
<path d="M362.751,500.544l -24.5735, 24.5944" fill="none" stroke="#6666ff"/>
<path d="M355.535,500.544l -17.3577, 17.3724" fill="none" stroke="#6666ff"/>
<path d="M348.319,500.544l -10.1418, 10.1505" fill="none" stroke="#6666ff"/>
<path d="M341.103,500.544l -2.92601, 2.9285" fill="none" stroke="#6666ff"/>
<path d="M395.579,525.464l -5.39955, 5.40415" fill="none" stroke="#6666ff"/>
<path d="M395.579,518.242l -12.6154, 12.6261" fill="none" stroke="#6666ff"/>
<path d="M395.579,511.02l -19.8312, 19.8481" fill="none" stroke="#6666ff"/>
<path d="M395.579,503.798l -27.047, 27.0701" fill="none" stroke="#6666ff"/>
<path d="M389.789,502.37l -22.9114, 22.9309" fill="none" stroke="#6666ff"/>
<path d="M382.573,502.37l -15.6955, 15.7089" fill="none" stroke="#6666ff"/>
<path d="M375.358,502.37l -8.4797, 8.48692" fill="none" stroke="#6666ff"/>
<path d="M368.142,502.37l -1.26387, 1.26495" fill="none" stroke="#6666ff"/>
<path d="M424.28,525.627l -5.62085, 5.62563" fill="none" stroke="#6666ff"/>
<path d="M424.28,518.405l -12.8367, 12.8476" fill="none" stroke="#6666ff"/>
<path d="M424.28,511.183l -20.0525, 20.0696" fill="none" stroke="#6666ff"/>
<path d="M424.28,503.961l -27.2683, 27.2915" fill="none" stroke="#6666ff"/>
<path d="M419.036,501.986l -23.4577, 23.4777" fill="none" stroke="#6666ff"/>
<path d="M411.821,501.986l -16.2419, 16.2557" fill="none" stroke="#6666ff"/>
<path d="M404.605,501.986l -9.02606, 9.03374" fill="none" stroke="#6666ff"/>
<path d="M397.389,501.986l -1.81023, 1.81177" fill="none" stroke="#6666ff"/>
<path d="M452.98,533.011l -6.11231, 6.11751" fill="none" stroke="#6666ff"/>
<path d="M452.98,525.789l -13.3281, 13.3395" fill="none" stroke="#6666ff"/>
<path d="M452.98,518.567l -20.544, 20.5615" fill="none" stroke="#6666ff"/>
<path d="M452.98,511.345l -27.7598, 27.7834" fill="none" stroke="#6666ff"/>
<path d="M452.98,504.123l -28.7008, 28.7252" fill="none" stroke="#6666ff"/>
<path d="M452.98,496.901l -28.7008, 28.7252" fill="none" stroke="#6666ff"/>
<path d="M448.554,494.11l -24.2742, 24.2949" fill="none" stroke="#6666ff"/>
<path d="M441.338,494.11l -17.0584, 17.0729" fill="none" stroke="#6666ff"/>
<path d="M434.122,494.11l -9.84259, 9.85096" fill="none" stroke="#6666ff"/>
<path d="M426.906,494.11l -2.62676, 2.62899" fill="none" stroke="#6666ff"/>
<path d="M481.681,540.396l -4.66706, 4.67103" fill="none" stroke="#6666ff"/>
<path d="M481.681,533.174l -11.8829, 11.893" fill="none" stroke="#6666ff"/>
<path d="M481.681,525.952l -19.0987, 19.115" fill="none" stroke="#6666ff"/>
<path d="M481.681,518.73l -26.3145, 26.3369" fill="none" stroke="#6666ff"/>
<path d="M481.681,511.508l -28.7008, 28.7252" fill="none" stroke="#6666ff"/>
<path d="M481.681,504.286l -28.7008, 28.7252" fill="none" stroke="#6666ff"/>
<path d="M481.681,497.064l -28.7008, 28.7252" fill="none" stroke="#6666ff"/>
<path d="M481.681,489.842l -28.7008, 28.7252" fill="none" stroke="#6666ff"/>
<path d="M476.134,488.172l -23.1541, 23.1738" fill="none" stroke="#6666ff"/>
<path d="M468.919,488.172l -15.9382, 15.9518" fill="none" stroke="#6666ff"/>
<path d="M461.703,488.172l -8.7224, 8.72982" fill="none" stroke="#6666ff"/>
<path d="M454.487,488.172l -1.50657, 1.50785" fill="none" stroke="#6666ff"/>
<path d="M505.438,516.619z" fill="none" stroke="#6666ff"/>
<path d="M498.222,516.619z" fill="none" stroke="#6666ff"/>
<path d="M491.006,516.619z" fill="none" stroke="#6666ff"/>
<path d="M483.79,516.619z" fill="none" stroke="#6666ff"/>
<path d="M534.301,516.619z" fill="none" stroke="#6666ff"/>
<path d="M527.085,516.619z" fill="none" stroke="#6666ff"/>
<path d="M519.869,516.619z" fill="none" stroke="#6666ff"/>
<path d="M512.653,516.619z" fill="none" stroke="#6666ff"/>
<path d="M204.268,529.737h -9.56558" fill="none" stroke="black" stroke-width="2"/>
<path d="M194.702,529.737z" fill="none" stroke="black" stroke-width="2"/>
<path d="M213.78,529.737h 9.59428" fill="none" stroke="black" stroke-width="2"/>
<path d="M223.374,529.737z" fill="none" stroke="black" stroke-width="2"/>
<path d="M209.024,524.981v -52.6005" fill="none" stroke="black" stroke-width="2"/>
<path d="M209.024,472.38z" fill="none" stroke="black" stroke-width="2"/>
<path d="M209.024,534.493v 38.5057" fill="none" stroke="black" stroke-width="2"/>
<path d="M209.024,572.999z" fill="none" stroke="black" stroke-width="2"/>
<path d="M232.968,495.114h -9.56558" fill="none" stroke="black" stroke-width="2"/>
<path d="M223.403,495.114z" fill="none" stroke="black" stroke-width="2"/>
<path d="M242.481,495.114h 9.59428" fill="none" stroke="black" stroke-width="2"/>
<path d="M252.075,495.114z" fill="none" stroke="black" stroke-width="2"/>
<path d="M237.724,490.358v -30.1178" fill="none" stroke="black" stroke-width="2"/>
<path d="M237.724,460.24z" fill="none" stroke="black" stroke-width="2"/>
<path d="M237.724,499.87v 36.3785" fill="none" stroke="black" stroke-width="2"/>
<path d="M237.724,536.248z" fill="none" stroke="black" stroke-width="2"/>
<path d="M261.669,540.777h -9.56558" fill="none" stroke="black" stroke-width="2"/>
<path d="M252.104,540.777z" fill="none" stroke="black" stroke-width="2"/>
<path d="M271.181,540.777h 9.59428" fill="none" stroke="black" stroke-width="2"/>
<path d="M280.776,540.777z" fill="none" stroke="black" stroke-width="2"/>
<path d="M266.425,536.021v -8.61438" fill="none" stroke="black" stroke-width="2"/>
<path d="M266.425,527.406z" fill="none" stroke="black" stroke-width="2"/>
<path d="M266.425,545.533v 8.61438" fill="none" stroke="black" stroke-width="2"/>
<path d="M266.425,554.147z" fill="none" stroke="black" stroke-width="2"/>
<path d="M290.37,553.177h -9.56558" fill="none" stroke="black" stroke-width="2"/>
<path d="M280.804,553.177z" fill="none" stroke="black" stroke-width="2"/>
<path d="M299.882,553.177h 9.59428" fill="none" stroke="black" stroke-width="2"/>
<path d="M309.476,553.177z" fill="none" stroke="black" stroke-width="2"/>
<path d="M295.126,548.421v -5.47009" fill="none" stroke="black" stroke-width="2"/>
<path d="M295.126,542.951z" fill="none" stroke="black" stroke-width="2"/>
<path d="M295.126,557.933v 5.47009" fill="none" stroke="black" stroke-width="2"/>
<path d="M295.126,563.403z" fill="none" stroke="black" stroke-width="2"/>
<path d="M319.071,548.482h -9.56558" fill="none" stroke="black" stroke-width="2"/>
<path d="M309.505,548.482z" fill="none" stroke="black" stroke-width="2"/>
<path d="M328.583,548.482h 9.59428" fill="none" stroke="black" stroke-width="2"/>
<path d="M338.177,548.482z" fill="none" stroke="black" stroke-width="2"/>
<path d="M323.827,543.725v -11.0072" fill="none" stroke="black" stroke-width="2"/>
<path d="M323.827,532.718z" fill="none" stroke="black" stroke-width="2"/>
<path d="M323.827,553.238v 11.0072" fill="none" stroke="black" stroke-width="2"/>
<path d="M323.827,564.245z" fill="none" stroke="black" stroke-width="2"/>
<path d="M347.771,570.31h -9.56558" fill="none" stroke="black" stroke-width="2"/>
<path d="M338.206,570.31z" fill="none" stroke="black" stroke-width="2"/>
<path d="M357.284,570.31h 9.59428" fill="none" stroke="black" stroke-width="2"/>
<path d="M366.878,570.31z" fill="none" stroke="black" stroke-width="2"/>
<path d="M352.528,565.554v -12.027" fill="none" stroke="black" stroke-width="2"/>
<path d="M352.528,553.527z" fill="none" stroke="black" stroke-width="2"/>
<path d="M376.472,536.028h -9.56558" fill="none" stroke="black" stroke-width="2"/>
<path d="M366.907,536.028z" fill="none" stroke="black" stroke-width="2"/>
<path d="M385.984,536.028h 9.59428" fill="none" stroke="black" stroke-width="2"/>
<path d="M395.579,536.028z" fill="none" stroke="black" stroke-width="2"/>
<path d="M381.228,531.272v -31.3527" fill="none" stroke="black" stroke-width="2"/>
<path d="M381.228,499.919z" fill="none" stroke="black" stroke-width="2"/>
<path d="M381.228,540.784v 31.3527" fill="none" stroke="black" stroke-width="2"/>
<path d="M381.228,572.137z" fill="none" stroke="black" stroke-width="2"/>
<path d="M409.929,460.24v 54.9809" fill="none" stroke="black" stroke-width="2"/>
<path d="M409.929,515.221z" fill="none" stroke="black" stroke-width="2"/>
<g fill="black">
<circle cx="209.024" cy="529.737" r="5.32685"/>
<circle cx="237.724" cy="495.114" r="5.32685"/>
<circle cx="266.425" cy="540.777" r="5.32685"/>
<circle cx="295.126" cy="553.177" r="5.32685"/>
<circle cx="323.827" cy="548.482" r="5.32685"/>
<circle cx="352.528" cy="570.31" r="5.32685"/>
<circle cx="381.228" cy="536.028" r="5.32685"/>
</g>
<path d="M79.8701,572.999h 459.213" fill="none" stroke="black"/>
<path d="M79.8701,568.649v 4.34927" fill="none" stroke="black"/>
<path d="M89.0543,570.824v 2.17463" fill="none" stroke="black"/>
<path d="M98.2386,570.824v 2.17463" fill="none" stroke="black"/>
<path d="M107.423,570.824v 2.17463" fill="none" stroke="black"/>
<path d="M116.607,570.824v 2.17463" fill="none" stroke="black"/>
<path d="M125.791,568.649v 4.34927" fill="none" stroke="black"/>
<path d="M134.976,570.824v 2.17463" fill="none" stroke="black"/>
<path d="M144.16,570.824v 2.17463" fill="none" stroke="black"/>
<path d="M153.344,570.824v 2.17463" fill="none" stroke="black"/>
<path d="M162.528,570.824v 2.17463" fill="none" stroke="black"/>
<path d="M171.713,568.649v 4.34927" fill="none" stroke="black"/>
<path d="M180.897,570.824v 2.17463" fill="none" stroke="black"/>
<path d="M190.081,570.824v 2.17463" fill="none" stroke="black"/>
<path d="M199.265,570.824v 2.17463" fill="none" stroke="black"/>
<path d="M208.45,570.824v 2.17463" fill="none" stroke="black"/>
<path d="M217.634,568.649v 4.34927" fill="none" stroke="black"/>
<path d="M226.818,570.824v 2.17463" fill="none" stroke="black"/>
<path d="M236.002,570.824v 2.17463" fill="none" stroke="black"/>
<path d="M245.187,570.824v 2.17463" fill="none" stroke="black"/>
<path d="M254.371,570.824v 2.17463" fill="none" stroke="black"/>
<path d="M263.555,568.649v 4.34927" fill="none" stroke="black"/>
<path d="M272.739,570.824v 2.17463" fill="none" stroke="black"/>
<path d="M281.924,570.824v 2.17463" fill="none" stroke="black"/>
<path d="M291.108,570.824v 2.17463" fill="none" stroke="black"/>
<path d="M300.292,570.824v 2.17463" fill="none" stroke="black"/>
<path d="M309.476,568.649v 4.34927" fill="none" stroke="black"/>
<path d="M318.661,570.824v 2.17463" fill="none" stroke="black"/>
<path d="M327.845,570.824v 2.17463" fill="none" stroke="black"/>
<path d="M337.029,570.824v 2.17463" fill="none" stroke="black"/>
<path d="M346.213,570.824v 2.17463" fill="none" stroke="black"/>
<path d="M355.398,568.649v 4.34927" fill="none" stroke="black"/>
<path d="M364.582,570.824v 2.17463" fill="none" stroke="black"/>
<path d="M373.766,570.824v 2.17463" fill="none" stroke="black"/>
<path d="M382.95,570.824v 2.17463" fill="none" stroke="black"/>
<path d="M392.135,570.824v 2.17463" fill="none" stroke="black"/>
<path d="M401.319,568.649v 4.34927" fill="none" stroke="black"/>
<path d="M410.503,570.824v 2.17463" fill="none" stroke="black"/>
<path d="M419.687,570.824v 2.17463" fill="none" stroke="black"/>
<path d="M428.872,570.824v 2.17463" fill="none" stroke="black"/>
<path d="M438.056,570.824v 2.17463" fill="none" stroke="black"/>
<path d="M447.24,568.649v 4.34927" fill="none" stroke="black"/>
<path d="M456.424,570.824v 2.17463" fill="none" stroke="black"/>
<path d="M465.609,570.824v 2.17463" fill="none" stroke="black"/>
<path d="M474.793,570.824v 2.17463" fill="none" stroke="black"/>
<path d="M483.977,570.824v 2.17463" fill="none" stroke="black"/>
<path d="M493.161,568.649v 4.34927" fill="none" stroke="black"/>
<path d="M502.346,570.824v 2.17463" fill="none" stroke="black"/>
<path d="M511.53,570.824v 2.17463" fill="none" stroke="black"/>
<path d="M520.714,570.824v 2.17463" fill="none" stroke="black"/>
<path d="M529.898,570.824v 2.17463" fill="none" stroke="black"/>
<path d="M539.083,568.649v 4.34927" fill="none" stroke="black"/>
<path d="M79.8701,568.649v 4.34927" fill="none" stroke="black"/>
<path d="M79.8701,460.24h 459.213" fill="none" stroke="black"/>
<path d="M79.8701,464.589v -4.34927" fill="none" stroke="black"/>
<path d="M89.0543,462.415v -2.17463" fill="none" stroke="black"/>
<path d="M98.2386,462.415v -2.17463" fill="none" stroke="black"/>
<path d="M107.423,462.415v -2.17463" fill="none" stroke="black"/>
<path d="M116.607,462.415v -2.17463" fill="none" stroke="black"/>
<path d="M125.791,464.589v -4.34927" fill="none" stroke="black"/>
<path d="M134.976,462.415v -2.17463" fill="none" stroke="black"/>
<path d="M144.16,462.415v -2.17463" fill="none" stroke="black"/>
<path d="M153.344,462.415v -2.17463" fill="none" stroke="black"/>
<path d="M162.528,462.415v -2.17463" fill="none" stroke="black"/>
<path d="M171.713,464.589v -4.34927" fill="none" stroke="black"/>
<path d="M180.897,462.415v -2.17463" fill="none" stroke="black"/>
<path d="M190.081,462.415v -2.17463" fill="none" stroke="black"/>
<path d="M199.265,462.415v -2.17463" fill="none" stroke="black"/>
<path d="M208.45,462.415v -2.17463" fill="none" stroke="black"/>
<path d="M217.634,464.589v -4.34927" fill="none" stroke="black"/>
<path d="M226.818,462.415v -2.17463" fill="none" stroke="black"/>
<path d="M236.002,462.415v -2.17463" fill="none" stroke="black"/>
<path d="M245.187,462.415v -2.17463" fill="none" stroke="black"/>
<path d="M254.371,462.415v -2.17463" fill="none" stroke="black"/>
<path d="M263.555,464.589v -4.34927" fill="none" stroke="black"/>
<path d="M272.739,462.415v -2.17463" fill="none" stroke="black"/>
<path d="M281.924,462.415v -2.17463" fill="none" stroke="black"/>
<path d="M291.108,462.415v -2.17463" fill="none" stroke="black"/>
<path d="M300.292,462.415v -2.17463" fill="none" stroke="black"/>
<path d="M309.476,464.589v -4.34927" fill="none" stroke="black"/>
<path d="M318.661,462.415v -2.17463" fill="none" stroke="black"/>
<path d="M327.845,462.415v -2.17463" fill="none" stroke="black"/>
<path d="M337.029,462.415v -2.17463" fill="none" stroke="black"/>
<path d="M346.213,462.415v -2.17463" fill="none" stroke="black"/>
<path d="M355.398,464.589v -4.34927" fill="none" stroke="black"/>
<path d="M364.582,462.415v -2.17463" fill="none" stroke="black"/>
<path d="M373.766,462.415v -2.17463" fill="none" stroke="black"/>
<path d="M382.95,462.415v -2.17463" fill="none" stroke="black"/>
<path d="M392.135,462.415v -2.17463" fill="none" stroke="black"/>
<path d="M401.319,464.589v -4.34927" fill="none" stroke="black"/>
<path d="M410.503,462.415v -2.17463" fill="none" stroke="black"/>
<path d="M419.687,462.415v -2.17463" fill="none" stroke="black"/>
<path d="M428.872,462.415v -2.17463" fill="none" stroke="black"/>
<path d="M438.056,462.415v -2.17463" fill="none" stroke="black"/>
<path d="M447.24,464.589v -4.34927" fill="none" stroke="black"/>
<path d="M456.424,462.415v -2.17463" fill="none" stroke="black"/>
<path d="M465.609,462.415v -2.17463" fill="none" stroke="black"/>
<path d="M474.793,462.415v -2.17463" fill="none" stroke="black"/>
<path d="M483.977,462.415v -2.17463" fill="none" stroke="black"/>
<path d="M493.161,464.589v -4.34927" fill="none" stroke="black"/>
<path d="M502.346,462.415v -2.17463" fill="none" stroke="black"/>
<path d="M511.53,462.415v -2.17463" fill="none" stroke="black"/>
<path d="M520.714,462.415v -2.17463" fill="none" stroke="black"/>
<path d="M529.898,462.415v -2.17463" fill="none" stroke="black"/>
<path d="M539.083,464.589v -4.34927" fill="none" stroke="black"/>
<path d="M79.8701,464.589v -4.34927" fill="none" stroke="black"/>
<path d="M79.8701,572.999v -112.759" fill="none" stroke="black"/>
<path d="M90.585,572.999h -10.715" fill="none" stroke="black"/>
<path d="M85.2276,567.361h -5.35748" fill="none" stroke="black"/>
<path d="M85.2276,561.723h -5.35748" fill="none" stroke="black"/>
<path d="M85.2276,556.085h -5.35748" fill="none" stroke="black"/>
<path d="M85.2276,550.447h -5.35748" fill="none" stroke="black"/>
<path d="M90.585,544.809h -10.715" fill="none" stroke="black"/>
<path d="M85.2276,539.171h -5.35748" fill="none" stroke="black"/>
<path d="M85.2276,533.533h -5.35748" fill="none" stroke="black"/>
<path d="M85.2276,527.895h -5.35748" fill="none" stroke="black"/>
<path d="M85.2276,522.257h -5.35748" fill="none" stroke="black"/>
<path d="M90.585,516.619h -10.715" fill="none" stroke="black"/>
<path d="M85.2276,510.981h -5.35748" fill="none" stroke="black"/>
<path d="M85.2276,505.343h -5.35748" fill="none" stroke="black"/>
<path d="M85.2276,499.705h -5.35748" fill="none" stroke="black"/>
<path d="M85.2276,494.068h -5.35748" fill="none" stroke="black"/>
<path d="M90.585,488.43h -10.715" fill="none" stroke="black"/>
<path d="M85.2276,482.792h -5.35748" fill="none" stroke="black"/>
<path d="M85.2276,477.154h -5.35748" fill="none" stroke="black"/>
<path d="M85.2276,471.516h -5.35748" fill="none" stroke="black"/>
<path d="M85.2276,465.878h -5.35748" fill="none" stroke="black"/>
<path d="M90.585,460.24h -10.715" fill="none" stroke="black"/>
<path d="M539.083,572.999v -112.759" fill="none" stroke="black"/>
<path d="M528.368,572.999h 10.715" fill="none" stroke="black"/>
<path d="M533.725,567.361h 5.35748" fill="none" stroke="black"/>
<path d="M533.725,561.723h 5.35748" fill="none" stroke="black"/>
<path d="M533.725,556.085h 5.35748" fill="none" stroke="black"/>
<path d="M533.725,550.447h 5.35748" fill="none" stroke="black"/>
<path d="M528.368,544.809h 10.715" fill="none" stroke="black"/>
<path d="M533.725,539.171h 5.35748" fill="none" stroke="black"/>
<path d="M533.725,533.533h 5.35748" fill="none" stroke="black"/>
<path d="M533.725,527.895h 5.35748" fill="none" stroke="black"/>
<path d="M533.725,522.257h 5.35748" fill="none" stroke="black"/>
<path d="M528.368,516.619h 10.715" fill="none" stroke="black"/>
<path d="M533.725,510.981h 5.35748" fill="none" stroke="black"/>
<path d="M533.725,505.343h 5.35748" fill="none" stroke="black"/>
<path d="M533.725,499.705h 5.35748" fill="none" stroke="black"/>
<path d="M533.725,494.068h 5.35748" fill="none" stroke="black"/>
<path d="M528.368,488.43h 10.715" fill="none" stroke="black"/>
<path d="M533.725,482.792h 5.35748" fill="none" stroke="black"/>
<path d="M533.725,477.154h 5.35748" fill="none" stroke="black"/>
<path d="M533.725,471.516h 5.35748" fill="none" stroke="black"/>
<path d="M533.725,465.878h 5.35748" fill="none" stroke="black"/>
<path d="M528.368,460.24h 10.715" fill="none" stroke="black"/>
<path d="M409.929,465.878v 7.79715" fill="none" stroke="#6666ff" stroke-width="2"/>
<path d="M405.043,473.675l 4.88581, -13.4351l 4.88581, 13.4351z" fill="#fefefe"/>
<path d="M405.043,473.675l 4.88581, -13.4351l 4.88581, 13.4351h -9.77163z" fill="none" stroke="#6666ff" stroke-width="2"/>
<rect x="79.8701" y="25.5689" width="459.213" height="434.671" fill="white"/>
<rect x="79.8701" y="25.5689" width="459.213" height="434.671" fill="none" stroke="black"/>
<rect x="79.8701" y="25.5689" width="459.213" height="434.671" fill="white"/>
<rect x="79.8701" y="25.5689" width="459.213" height="434.671" fill="none" stroke="black"/>
<path d="M79.8701,460.24h 459.213z" fill="#00ff00"/>
<path d="M79.8701,460.24h 459.213" fill="none" stroke="black"/>
<path d="M79.8701,460.24h 459.213" fill="none" stroke="black"/>
<path d="M79.8701,447.813v 12.4265" fill="none" stroke="black"/>
<path d="M89.0543,454.027v 6.21324" fill="none" stroke="black"/>
<path d="M98.2386,454.027v 6.21324" fill="none" stroke="black"/>
<path d="M107.423,454.027v 6.21324" fill="none" stroke="black"/>
<path d="M116.607,454.027v 6.21324" fill="none" stroke="black"/>
<path d="M125.791,447.813v 12.4265" fill="none" stroke="black"/>
<path d="M134.976,454.027v 6.21324" fill="none" stroke="black"/>
<path d="M144.16,454.027v 6.21324" fill="none" stroke="black"/>
<path d="M153.344,454.027v 6.21324" fill="none" stroke="black"/>
<path d="M162.528,454.027v 6.21324" fill="none" stroke="black"/>
<path d="M171.713,447.813v 12.4265" fill="none" stroke="black"/>
<path d="M180.897,454.027v 6.21324" fill="none" stroke="black"/>
<path d="M190.081,454.027v 6.21324" fill="none" stroke="black"/>
<path d="M199.265,454.027v 6.21324" fill="none" stroke="black"/>
<path d="M208.45,454.027v 6.21324" fill="none" stroke="black"/>
<path d="M217.634,447.813v 12.4265" fill="none" stroke="black"/>
<path d="M226.818,454.027v 6.21324" fill="none" stroke="black"/>
<path d="M236.002,454.027v 6.21324" fill="none" stroke="black"/>
<path d="M245.187,454.027v 6.21324" fill="none" stroke="black"/>
<path d="M254.371,454.027v 6.21324" fill="none" stroke="black"/>
<path d="M263.555,447.813v 12.4265" fill="none" stroke="black"/>
<path d="M272.739,454.027v 6.21324" fill="none" stroke="black"/>
<path d="M281.924,454.027v 6.21324" fill="none" stroke="black"/>
<path d="M291.108,454.027v 6.21324" fill="none" stroke="black"/>
<path d="M300.292,454.027v 6.21324" fill="none" stroke="black"/>
<path d="M309.476,447.813v 12.4265" fill="none" stroke="black"/>
<path d="M318.661,454.027v 6.21324" fill="none" stroke="black"/>
<path d="M327.845,454.027v 6.21324" fill="none" stroke="black"/>
<path d="M337.029,454.027v 6.21324" fill="none" stroke="black"/>
<path d="M346.213,454.027v 6.21324" fill="none" stroke="black"/>
<path d="M355.398,447.813v 12.4265" fill="none" stroke="black"/>
<path d="M364.582,454.027v 6.21324" fill="none" stroke="black"/>
<path d="M373.766,454.027v 6.21324" fill="none" stroke="black"/>
<path d="M382.95,454.027v 6.21324" fill="none" stroke="black"/>
<path d="M392.135,454.027v 6.21324" fill="none" stroke="black"/>
<path d="M401.319,447.813v 12.4265" fill="none" stroke="black"/>
<path d="M410.503,454.027v 6.21324" fill="none" stroke="black"/>
<path d="M419.687,454.027v 6.21324" fill="none" stroke="black"/>
<path d="M428.872,454.027v 6.21324" fill="none" stroke="black"/>
<path d="M438.056,454.027v 6.21324" fill="none" stroke="black"/>
<path d="M447.24,447.813v 12.4265" fill="none" stroke="black"/>
<path d="M456.424,454.027v 6.21324" fill="none" stroke="black"/>
<path d="M465.609,454.027v 6.21324" fill="none" stroke="black"/>
<path d="M474.793,454.027v 6.21324" fill="none" stroke="black"/>
<path d="M483.977,454.027v 6.21324" fill="none" stroke="black"/>
<path d="M493.161,447.813v 12.4265" fill="none" stroke="black"/>
<path d="M502.346,454.027v 6.21324" fill="none" stroke="black"/>
<path d="M511.53,454.027v 6.21324" fill="none" stroke="black"/>
<path d="M520.714,454.027v 6.21324" fill="none" stroke="black"/>
<path d="M529.898,454.027v 6.21324" fill="none" stroke="black"/>
<path d="M539.083,447.813v 12.4265" fill="none" stroke="black"/>
<path d="M79.8701,447.813v 12.4265" fill="none" stroke="black"/>
<path d="M79.8701,25.5689h 459.213" fill="none" stroke="black"/>
<path d="M79.8701,37.9954v -12.4265" fill="none" stroke="black"/>
<path d="M89.0543,31.7821v -6.21324" fill="none" stroke="black"/>
<path d="M98.2386,31.7821v -6.21324" fill="none" stroke="black"/>
<path d="M107.423,31.7821v -6.21324" fill="none" stroke="black"/>
<path d="M116.607,31.7821v -6.21324" fill="none" stroke="black"/>
<path d="M125.791,37.9954v -12.4265" fill="none" stroke="black"/>
<path d="M134.976,31.7821v -6.21324" fill="none" stroke="black"/>
<path d="M144.16,31.7821v -6.21324" fill="none" stroke="black"/>
<path d="M153.344,31.7821v -6.21324" fill="none" stroke="black"/>
<path d="M162.528,31.7821v -6.21324" fill="none" stroke="black"/>
<path d="M171.713,37.9954v -12.4265" fill="none" stroke="black"/>
<path d="M180.897,31.7821v -6.21324" fill="none" stroke="black"/>
<path d="M190.081,31.7821v -6.21324" fill="none" stroke="black"/>
<path d="M199.265,31.7821v -6.21324" fill="none" stroke="black"/>
<path d="M208.45,31.7821v -6.21324" fill="none" stroke="black"/>
<path d="M217.634,37.9954v -12.4265" fill="none" stroke="black"/>
<path d="M226.818,31.7821v -6.21324" fill="none" stroke="black"/>
<path d="M236.002,31.7821v -6.21324" fill="none" stroke="black"/>
<path d="M245.187,31.7821v -6.21324" fill="none" stroke="black"/>
<path d="M254.371,31.7821v -6.21324" fill="none" stroke="black"/>
<path d="M263.555,37.9954v -12.4265" fill="none" stroke="black"/>
<path d="M272.739,31.7821v -6.21324" fill="none" stroke="black"/>
<path d="M281.924,31.7821v -6.21324" fill="none" stroke="black"/>
<path d="M291.108,31.7821v -6.21324" fill="none" stroke="black"/>
<path d="M300.292,31.7821v -6.21324" fill="none" stroke="black"/>
<path d="M309.476,37.9954v -12.4265" fill="none" stroke="black"/>
<path d="M318.661,31.7821v -6.21324" fill="none" stroke="black"/>
<path d="M327.845,31.7821v -6.21324" fill="none" stroke="black"/>
<path d="M337.029,31.7821v -6.21324" fill="none" stroke="black"/>
<path d="M346.213,31.7821v -6.21324" fill="none" stroke="black"/>
<path d="M355.398,37.9954v -12.4265" fill="none" stroke="black"/>
<path d="M364.582,31.7821v -6.21324" fill="none" stroke="black"/>
<path d="M373.766,31.7821v -6.21324" fill="none" stroke="black"/>
<path d="M382.95,31.7821v -6.21324" fill="none" stroke="black"/>
<path d="M392.135,31.7821v -6.21324" fill="none" stroke="black"/>
<path d="M401.319,37.9954v -12.4265" fill="none" stroke="black"/>
<path d="M410.503,31.7821v -6.21324" fill="none" stroke="black"/>
<path d="M419.687,31.7821v -6.21324" fill="none" stroke="black"/>
<path d="M428.872,31.7821v -6.21324" fill="none" stroke="black"/>
<path d="M438.056,31.7821v -6.21324" fill="none" stroke="black"/>
<path d="M447.24,37.9954v -12.4265" fill="none" stroke="black"/>
<path d="M456.424,31.7821v -6.21324" fill="none" stroke="black"/>
<path d="M465.609,31.7821v -6.21324" fill="none" stroke="black"/>
<path d="M474.793,31.7821v -6.21324" fill="none" stroke="black"/>
<path d="M483.977,31.7821v -6.21324" fill="none" stroke="black"/>
<path d="M493.161,37.9954v -12.4265" fill="none" stroke="black"/>
<path d="M502.346,31.7821v -6.21324" fill="none" stroke="black"/>
<path d="M511.53,31.7821v -6.21324" fill="none" stroke="black"/>
<path d="M520.714,31.7821v -6.21324" fill="none" stroke="black"/>
<path d="M529.898,31.7821v -6.21324" fill="none" stroke="black"/>
<path d="M539.083,37.9954v -12.4265" fill="none" stroke="black"/>
<path d="M79.8701,37.9954v -12.4265" fill="none" stroke="black"/>
<path d="M79.8701,460.24v -434.671" fill="none" stroke="black"/>
<path d="M94.3268,460.24h -14.4567" fill="none" stroke="black"/>
<path d="M87.0984,449.675h -7.22835" fill="none" stroke="black"/>
<path d="M87.0984,439.11h -7.22835" fill="none" stroke="black"/>
<path d="M87.0984,428.544h -7.22835" fill="none" stroke="black"/>
<path d="M87.0984,417.979h -7.22835" fill="none" stroke="black"/>
<path d="M94.3268,407.414h -14.4567" fill="none" stroke="black"/>
<path d="M87.0984,396.849h -7.22835" fill="none" stroke="black"/>
<path d="M87.0984,386.284h -7.22835" fill="none" stroke="black"/>
<path d="M87.0984,375.719h -7.22835" fill="none" stroke="black"/>
<path d="M87.0984,365.153h -7.22835" fill="none" stroke="black"/>
<path d="M94.3268,354.588h -14.4567" fill="none" stroke="black"/>
<path d="M87.0984,344.023h -7.22835" fill="none" stroke="black"/>
<path d="M87.0984,333.458h -7.22835" fill="none" stroke="black"/>
<path d="M87.0984,322.893h -7.22835" fill="none" stroke="black"/>
<path d="M87.0984,312.328h -7.22835" fill="none" stroke="black"/>
<path d="M94.3268,301.763h -14.4567" fill="none" stroke="black"/>
<path d="M87.0984,291.197h -7.22835" fill="none" stroke="black"/>
<path d="M87.0984,280.632h -7.22835" fill="none" stroke="black"/>
<path d="M87.0984,270.067h -7.22835" fill="none" stroke="black"/>
<path d="M87.0984,259.502h -7.22835" fill="none" stroke="black"/>
<path d="M94.3268,248.937h -14.4567" fill="none" stroke="black"/>
<path d="M87.0984,238.372h -7.22835" fill="none" stroke="black"/>
<path d="M87.0984,227.806h -7.22835" fill="none" stroke="black"/>
<path d="M87.0984,217.241h -7.22835" fill="none" stroke="black"/>
<path d="M87.0984,206.676h -7.22835" fill="none" stroke="black"/>
<path d="M94.3268,196.111h -14.4567" fill="none" stroke="black"/>
<path d="M87.0984,185.546h -7.22835" fill="none" stroke="black"/>
<path d="M87.0984,174.981h -7.22835" fill="none" stroke="black"/>
<path d="M87.0984,164.415h -7.22835" fill="none" stroke="black"/>
<path d="M87.0984,153.85h -7.22835" fill="none" stroke="black"/>
<path d="M94.3268,143.285h -14.4567" fill="none" stroke="black"/>
<path d="M87.0984,132.72h -7.22835" fill="none" stroke="black"/>
<path d="M87.0984,122.155h -7.22835" fill="none" stroke="black"/>
<path d="M87.0984,111.59h -7.22835" fill="none" stroke="black"/>
<path d="M87.0984,101.024h -7.22835" fill="none" stroke="black"/>
<path d="M94.3268,90.4593h -14.4567" fill="none" stroke="black"/>
<path d="M87.0984,79.8941h -7.22835" fill="none" stroke="black"/>
<path d="M87.0984,69.329h -7.22835" fill="none" stroke="black"/>
<path d="M87.0984,58.7638h -7.22835" fill="none" stroke="black"/>
<path d="M87.0984,48.1987h -7.22835" fill="none" stroke="black"/>
<path d="M94.3268,37.6335h -14.4567" fill="none" stroke="black"/>
<path d="M94.3268,37.6335h -14.4567" fill="none" stroke="black"/>
<path d="M87.0984,27.0683h -7.22835" fill="none" stroke="black"/>
<text xml:space="preserve" x="66.1344" y="467.051" fill="black" font-size="18.8468" font-family="Helvetica">0</text>
<text xml:space="preserve" x="66.1344" y="414.733" fill="black" font-size="18.8468" font-family="Helvetica">5</text>
<text xml:space="preserve" x="55.671" y="361.465" fill="black" font-size="18.8468" font-family="Helvetica">10</text>
<text xml:space="preserve" x="55.671" y="309.148" fill="black" font-size="18.8468" font-family="Helvetica">15</text>
<text xml:space="preserve" x="55.671" y="255.879" fill="black" font-size="18.8468" font-family="Helvetica">20</text>
<text xml:space="preserve" x="55.671" y="203.562" fill="black" font-size="18.8468" font-family="Helvetica">25</text>
<text xml:space="preserve" x="55.671" y="150.293" fill="black" font-size="18.8468" font-family="Helvetica">30</text>
<text xml:space="preserve" x="55.671" y="97.976" fill="black" font-size="18.8468" font-family="Helvetica">35</text>
<text xml:space="preserve" x="55.671" y="44.7075" fill="black" font-size="18.8468" font-family="Helvetica">40</text>
<g transform="rotate(-90,22.3781,82.7564)">
<text xml:space="preserve" x="22.3781" y="82.7564" fill="black" font-size="18.8468" font-family="Helvetica">Events</text>
</g>
<path d="M539.083,460.24v -434.671" fill="none" stroke="black"/>
<path d="M524.626,460.24h 14.4567" fill="none" stroke="black"/>
<path d="M531.854,449.675h 7.22835" fill="none" stroke="black"/>
<path d="M531.854,439.11h 7.22835" fill="none" stroke="black"/>
<path d="M531.854,428.544h 7.22835" fill="none" stroke="black"/>
<path d="M531.854,417.979h 7.22835" fill="none" stroke="black"/>
<path d="M524.626,407.414h 14.4567" fill="none" stroke="black"/>
<path d="M531.854,396.849h 7.22835" fill="none" stroke="black"/>
<path d="M531.854,386.284h 7.22835" fill="none" stroke="black"/>
<path d="M531.854,375.719h 7.22835" fill="none" stroke="black"/>
<path d="M531.854,365.153h 7.22835" fill="none" stroke="black"/>
<path d="M524.626,354.588h 14.4567" fill="none" stroke="black"/>
<path d="M531.854,344.023h 7.22835" fill="none" stroke="black"/>
<path d="M531.854,333.458h 7.22835" fill="none" stroke="black"/>
<path d="M531.854,322.893h 7.22835" fill="none" stroke="black"/>
<path d="M531.854,312.328h 7.22835" fill="none" stroke="black"/>
<path d="M524.626,301.763h 14.4567" fill="none" stroke="black"/>
<path d="M531.854,291.197h 7.22835" fill="none" stroke="black"/>
<path d="M531.854,280.632h 7.22835" fill="none" stroke="black"/>
<path d="M531.854,270.067h 7.22835" fill="none" stroke="black"/>
<path d="M531.854,259.502h 7.22835" fill="none" stroke="black"/>
<path d="M524.626,248.937h 14.4567" fill="none" stroke="black"/>
<path d="M531.854,238.372h 7.22835" fill="none" stroke="black"/>
<path d="M531.854,227.806h 7.22835" fill="none" stroke="black"/>
<path d="M531.854,217.241h 7.22835" fill="none" stroke="black"/>
<path d="M531.854,206.676h 7.22835" fill="none" stroke="black"/>
<path d="M524.626,196.111h 14.4567" fill="none" stroke="black"/>
<path d="M531.854,185.546h 7.22835" fill="none" stroke="black"/>
<path d="M531.854,174.981h 7.22835" fill="none" stroke="black"/>
<path d="M531.854,164.415h 7.22835" fill="none" stroke="black"/>
<path d="M531.854,153.85h 7.22835" fill="none" stroke="black"/>
<path d="M524.626,143.285h 14.4567" fill="none" stroke="black"/>
<path d="M531.854,132.72h 7.22835" fill="none" stroke="black"/>
<path d="M531.854,122.155h 7.22835" fill="none" stroke="black"/>
<path d="M531.854,111.59h 7.22835" fill="none" stroke="black"/>
<path d="M531.854,101.024h 7.22835" fill="none" stroke="black"/>
<path d="M524.626,90.4593h 14.4567" fill="none" stroke="black"/>
<path d="M531.854,79.8941h 7.22835" fill="none" stroke="black"/>
<path d="M531.854,69.329h 7.22835" fill="none" stroke="black"/>
<path d="M531.854,58.7638h 7.22835" fill="none" stroke="black"/>
<path d="M531.854,48.1987h 7.22835" fill="none" stroke="black"/>
<path d="M524.626,37.6335h 14.4567" fill="none" stroke="black"/>
<path d="M524.626,37.6335h 14.4567" fill="none" stroke="black"/>
<path d="M531.854,27.0683h 7.22835" fill="none" stroke="black"/>
<path d="M79.8701,460.24v -6.33903e-05h 57.4016v -0.0131317h 28.7008v -2.57819h 28.7008v -10.3901h 28.7008v -27.4933h 28.7008v -152.433h 28.7008v -48.5763h 28.7008v 125.783h 28.7008v 71.3363h 28.7008v 15.2028h 28.7008v 23.0929h 28.7008v 4.71778h
 28.7008v 1.11409h 28.7008v 0.23657h 57.4016v 6.33903e-05z" fill="#00ff00"/>
<path d="M79.8701,460.24h 86.1024v -2.59139h 28.7008v -10.3901h 28.7008v -27.4933h 28.7008v -152.433h 28.7008v -48.5763h 28.7008v 125.783h 28.7008v 71.3363h 28.7008v 15.2028h 28.7008v 23.0929h 28.7008v 4.71778h 28.7008v 1.11409h 28.7008v 0.236633h
 57.4016" fill="none" stroke="black"/>
<path d="M79.8701,460.24v -5.28252e-05h 57.4016v -0.0131317h 28.7008v -2.57819h 28.7008v -9.85145h 28.7008v -23.0478h 28.7008v -149.471h 28.7008v -50.2287h 28.7008v 128.594h 28.7008v 63.6071h 28.7008v 15.9347h 28.7008v 21.4838h 28.7008v 4.22024h
 28.7008v 1.11409h 28.7008v 0.23657h 57.4016v 5.28252e-05z" fill="#fefefe"/>
<path d="M79.8701,460.24h 86.1024v -2.59138h 28.7008v -9.85145h 28.7008v -23.0478h 28.7008v -149.471h 28.7008v -50.2287h 28.7008v 128.594h 28.7008v 63.6071h 28.7008v 15.9347h 28.7008v 21.4838h 28.7008v 4.22024h 28.7008v 1.11409h 28.7008v 0.236622h
 57.4016" fill="none" stroke="black"/>
<path d="M79.8701,460.24h 86.1024v -2.59138h 28.7008v -9.85145h 28.7008v -23.0478h 28.7008v -149.471h 28.7008v -50.2287h 28.7008v 128.594h 28.7008v 63.6071h 28.7008v 15.9347h 28.7008v 21.4838h 28.7008v 4.22024h 28.7008v 1.11409h 28.7008v 0.236622h
 57.4016" fill="none" stroke="black"/>
<path d="M79.8701,460.24v -5.28252e-05h 57.4016v -0.0131317h 28.7008v -2.57819h 28.7008v -9.85145h 28.7008v -23.0478h 28.7008v -149.471h 28.7008v -50.2287h 28.7008v 128.594h 28.7008v 63.6071h 28.7008v 15.9347h 28.7008v 21.4838h 28.7008v 4.22024h
 28.7008v 1.11409h 28.7008v 0.23657h 57.4016v 5.28252e-05z" fill="#0000ff"/>
<path d="M79.8701,460.24h 86.1024v -2.59138h 28.7008v -9.85145h 28.7008v -23.0478h 28.7008v -149.471h 28.7008v -50.2287h 28.7008v 128.594h 28.7008v 63.6071h 28.7008v 15.9347h 28.7008v 21.4838h 28.7008v 4.22024h 28.7008v 1.11409h 28.7008v 0.236622h
 57.4016" fill="none" stroke="black"/>
<path d="M79.8701,460.24v -4.226e-05h 86.1024v -2.22787h 28.7008v -7.68973h 28.7008v -19.4683h 28.7008v -143.012h 28.7008v -49.045h 28.7008v 126.551h 28.7008v 62.4573h 28.7008v 10.7025h 28.7008v 17.7352h 28.7008v 2.88488h 28.7008v 0.895462h 28.7008v
 0.216715h 57.4016v 4.226e-05z" fill="#fefefe"/>
<path d="M79.8701,460.24h 86.1024v -2.22791h 28.7008v -7.68973h 28.7008v -19.4683h 28.7008v -143.012h 28.7008v -49.045h 28.7008v 126.551h 28.7008v 62.4573h 28.7008v 10.7025h 28.7008v 17.7352h 28.7008v 2.88488h 28.7008v 0.895462h 28.7008v 0.216757h
 57.4016" fill="none" stroke="black"/>
<path d="M79.8701,460.24h 86.1024v -2.22791h 28.7008v -7.68973h 28.7008v -19.4683h 28.7008v -143.012h 28.7008v -49.045h 28.7008v 126.551h 28.7008v 62.4573h 28.7008v 10.7025h 28.7008v 17.7352h 28.7008v 2.88488h 28.7008v 0.895462h 28.7008v 0.216757h
 57.4016" fill="none" stroke="black"/>
<path d="M79.8701,460.24v -4.226e-05h 86.1024v -2.22787h 28.7008v -7.68973h 28.7008v -19.4683h 28.7008v -143.012h 28.7008v -49.045h 28.7008v 126.551h 28.7008v 62.4573h 28.7008v 10.7025h 28.7008v 17.7352h 28.7008v 2.88488h 28.7008v 0.895462h 28.7008v
 0.216715h 57.4016v 4.226e-05z" fill="#ffff00"/>
<path d="M79.8701,460.24h 86.1024v -2.22791h 28.7008v -7.68973h 28.7008v -19.4683h 28.7008v -143.012h 28.7008v -49.045h 28.7008v 126.551h 28.7008v 62.4573h 28.7008v 10.7025h 28.7008v 17.7352h 28.7008v 2.88488h 28.7008v 0.895462h 28.7008v 0.216757h
 57.4016" fill="none" stroke="black"/>
<path d="M79.8701,460.24v -3.16948e-05h 86.1024v -2.19825h 28.7008v -7.60793h 28.7008v -19.0676h 28.7008v -142.12h 28.7008v -47.5581h 28.7008v 127.234h 28.7008v 63.0886h 28.7008v 9.82265h 28.7008v 16.0478h 28.7008v 1.78261h 28.7008v 0.566027h
 28.7008v 0.00976412h 57.4016v 3.16948e-05z" fill="#fefefe"/>
<path d="M79.8701,460.24h 86.1024v -2.19828h 28.7008v -7.60793h 28.7008v -19.0676h 28.7008v -142.12h 28.7008v -47.5581h 28.7008v 127.234h 28.7008v 63.0886h 28.7008v 9.82265h 28.7008v 16.0478h 28.7008v 1.78261h 28.7008v 0.575822h 86.1024" fill="none"
 stroke="black"/>
<path d="M79.8701,460.24h 86.1024v -2.19828h 28.7008v -7.60793h 28.7008v -19.0676h 28.7008v -142.12h 28.7008v -47.5581h 28.7008v 127.234h 28.7008v 63.0886h 28.7008v 9.82265h 28.7008v 16.0478h 28.7008v 1.78261h 28.7008v 0.575822h 86.1024" fill="none"
 stroke="black"/>
<path d="M79.8701,460.24v -3.16948e-05h 86.1024v -2.19825h 28.7008v -7.60793h 28.7008v -19.0676h 28.7008v -142.12h 28.7008v -47.5581h 28.7008v 127.234h 28.7008v 63.0886h 28.7008v 9.82265h 28.7008v 16.0478h 28.7008v 1.78261h 28.7008v 0.566027h
 28.7008v 0.00976412h 57.4016v 3.16948e-05z" fill="#00ffff"/>
<path d="M79.8701,460.24h 86.1024v -2.19828h 28.7008v -7.60793h 28.7008v -19.0676h 28.7008v -142.12h 28.7008v -47.5581h 28.7008v 127.234h 28.7008v 63.0886h 28.7008v 9.82265h 28.7008v 16.0478h 28.7008v 1.78261h 28.7008v 0.575822h 86.1024" fill="none"
 stroke="black"/>
<path d="M79.8701,460.24v -2.11297e-05h 86.1024v -2.19825h 28.7008v -7.57992h 28.7008v -19.007h 28.7008v -141.934h 28.7008v -40.8335h 28.7008v 120.774h 28.7008v 63.0432h 28.7008v 9.59963h 28.7008v 15.8967h 28.7008v 1.70688h 28.7008v 0.532288h
 86.1024v 2.11297e-05z" fill="#fefefe"/>
<path d="M79.8701,460.24h 86.1024v -2.19827h 28.7008v -7.57992h 28.7008v -19.007h 28.7008v -141.934h 28.7008v -40.8335h 28.7008v 120.774h 28.7008v 63.0432h 28.7008v 9.59963h 28.7008v 15.8967h 28.7008v 1.70688h 28.7008v 0.532309h 86.1024" fill="none"
 stroke="black"/>
<path d="M79.8701,460.24h 86.1024v -2.19827h 28.7008v -7.57992h 28.7008v -19.007h 28.7008v -141.934h 28.7008v -40.8335h 28.7008v 120.774h 28.7008v 63.0432h 28.7008v 9.59963h 28.7008v 15.8967h 28.7008v 1.70688h 28.7008v 0.532309h 86.1024" fill="none"
 stroke="black"/>
<path d="M79.8701,460.24v -2.11297e-05h 86.1024v -2.19825h 28.7008v -7.57992h 28.7008v -19.007h 28.7008v -141.934h 28.7008v -40.8335h 28.7008v 120.774h 28.7008v 63.0432h 28.7008v 9.59963h 28.7008v 15.8967h 28.7008v 1.70688h 28.7008v 0.532288h
 86.1024v 2.11297e-05z" fill="#59d354"/>
<path d="M79.8701,460.24h 86.1024v -2.19827h 28.7008v -7.57992h 28.7008v -19.007h 28.7008v -141.934h 28.7008v -40.8335h 28.7008v 120.774h 28.7008v 63.0432h 28.7008v 9.59963h 28.7008v 15.8967h 28.7008v 1.70688h 28.7008v 0.532309h 86.1024" fill="none"
 stroke="black"/>
<path d="M79.8701,460.24v -1.05652e-05h 86.1024v -2.19825h 28.7008v -7.5798h 28.7008v -19.0066h 28.7008v -141.922h 28.7008v -40.7948h 28.7008v 120.763h 28.7008v 63.0361h 28.7008v 9.57316h 28.7008v 15.9274h 28.7008v 1.67006h 28.7008v 0.531947h
 86.1024v 1.05652e-05z" fill="#fefefe"/>
<path d="M79.8701,460.24h 86.1024v -2.19826h 28.7008v -7.5798h 28.7008v -19.0066h 28.7008v -141.922h 28.7008v -40.7948h 28.7008v 120.763h 28.7008v 63.0361h 28.7008v 9.57316h 28.7008v 15.9274h 28.7008v 1.67006h 28.7008v 0.531957h 86.1024" fill="none"
 stroke="black"/>
<path d="M79.8701,460.24h 86.1024v -2.19826h 28.7008v -7.5798h 28.7008v -19.0066h 28.7008v -141.922h 28.7008v -40.7948h 28.7008v 120.763h 28.7008v 63.0361h 28.7008v 9.57316h 28.7008v 15.9274h 28.7008v 1.67006h 28.7008v 0.531957h 86.1024" fill="none"
 stroke="black"/>
<path d="M79.8701,460.24v -1.05652e-05h 86.1024v -2.19825h 28.7008v -7.5798h 28.7008v -19.0066h 28.7008v -141.922h 28.7008v -40.7948h 28.7008v 120.763h 28.7008v 63.0361h 28.7008v 9.57316h 28.7008v 15.9274h 28.7008v 1.67006h 28.7008v 0.531947h
 86.1024v 1.05652e-05z" fill="#5954d8"/>
<path d="M79.8701,460.24h 86.1024v -2.19826h 28.7008v -7.5798h 28.7008v -19.0066h 28.7008v -141.922h 28.7008v -40.7948h 28.7008v 120.763h 28.7008v 63.0361h 28.7008v 9.57316h 28.7008v 15.9274h 28.7008v 1.67006h 28.7008v 0.531957h 86.1024" fill="none"
 stroke="black"/>
<path d="M102.187,460.24h -2.15687e-06" fill="none" stroke="#6666ff"/>
<path d="M94.9709,460.24h -2.15687e-06" fill="none" stroke="#6666ff"/>
<path d="M87.755,460.24h -2.15687e-06" fill="none" stroke="#6666ff"/>
<path d="M80.5392,460.24h -2.15687e-06" fill="none" stroke="#6666ff"/>
<path d="M131.05,460.24h -2.15687e-06" fill="none" stroke="#6666ff"/>
<path d="M123.834,460.24h -2.15687e-06" fill="none" stroke="#6666ff"/>
<path d="M116.618,460.24h -2.15687e-06" fill="none" stroke="#6666ff"/>
<path d="M109.403,460.24h -2.15687e-06" fill="none" stroke="#6666ff"/>
<path d="M159.94,460.24h -0.026308" fill="none" stroke="#6666ff"/>
<path d="M152.724,460.24h -0.026308" fill="none" stroke="#6666ff"/>
<path d="M145.508,460.24h -0.026308" fill="none" stroke="#6666ff"/>
<path d="M138.292,460.24h -0.026308" fill="none" stroke="#6666ff"/>
<path d="M194.213,454.808l -5.43608, 5.43204" fill="none" stroke="#6666ff"/>
<path d="M186.997,454.808l -5.43608, 5.43204" fill="none" stroke="#6666ff"/>
<path d="M179.781,454.808l -5.43608, 5.43204" fill="none" stroke="#6666ff"/>
<path d="M172.565,454.808l -5.43608, 5.43204" fill="none" stroke="#6666ff"/>
<path d="M223.374,454.51l -5.73411, 5.72985" fill="none" stroke="#6666ff"/>
<path d="M223.374,447.3l -12.9499, 12.9403" fill="none" stroke="#6666ff"/>
<path d="M223.374,440.089l -20.1658, 20.1508" fill="none" stroke="#6666ff"/>
<path d="M223.374,432.879l -27.3816, 27.3612" fill="none" stroke="#6666ff"/>
<path d="M219.182,429.857l -24.5088, 24.4906" fill="none" stroke="#6666ff"/>
<path d="M211.966,429.857l -17.293, 17.2801" fill="none" stroke="#6666ff"/>
<path d="M204.75,429.857l -10.0772, 10.0697" fill="none" stroke="#6666ff"/>
<path d="M197.535,429.857l -2.86134, 2.85921" fill="none" stroke="#6666ff"/>
<path d="M252.075,440.252l -0.734657, 0.734111" fill="none" stroke="#6666ff"/>
<path d="M252.075,433.041l -7.95049, 7.94458" fill="none" stroke="#6666ff"/>
<path d="M252.075,425.831l -15.1663, 15.155" fill="none" stroke="#6666ff"/>
<path d="M252.075,418.62l -22.3821, 22.3655" fill="none" stroke="#6666ff"/>
<path d="M252.075,411.41l -28.7008, 28.6794" fill="none" stroke="#6666ff"/>
<path d="M252.075,404.199l -28.7008, 28.6794" fill="none" stroke="#6666ff"/>
<path d="M250.518,398.545l -27.1437, 27.1236" fill="none" stroke="#6666ff"/>
<path d="M243.302,398.545l -19.9279, 19.9131" fill="none" stroke="#6666ff"/>
<path d="M236.086,398.545l -12.7121, 12.7026" fill="none" stroke="#6666ff"/>
<path d="M228.87,398.545l -5.49625, 5.49217" fill="none" stroke="#6666ff"/>
<path d="M280.776,325.047l -2.64687, 2.6449" fill="none" stroke="#6666ff"/>
<path d="M280.776,317.836l -9.8627, 9.85537" fill="none" stroke="#6666ff"/>
<path d="M280.776,310.626l -17.0785, 17.0658" fill="none" stroke="#6666ff"/>
<path d="M280.776,303.415l -24.2944, 24.2763" fill="none" stroke="#6666ff"/>
<path d="M280.776,296.205l -28.7008, 28.6794" fill="none" stroke="#6666ff"/>
<path d="M280.776,288.994l -28.7008, 28.6794" fill="none" stroke="#6666ff"/>
<path d="M280.776,281.784l -28.7008, 28.6794" fill="none" stroke="#6666ff"/>
<path d="M280.776,274.573l -28.7008, 28.6794" fill="none" stroke="#6666ff"/>
<path d="M280.776,267.363l -28.7008, 28.6794" fill="none" stroke="#6666ff"/>
<path d="M280.776,260.152l -28.7008, 28.6794" fill="none" stroke="#6666ff"/>
<path d="M280.776,252.942l -28.7008, 28.6794" fill="none" stroke="#6666ff"/>
<path d="M280.776,245.731l -28.7008, 28.6794" fill="none" stroke="#6666ff"/>
<path d="M280.776,238.521l -28.7008, 28.6794" fill="none" stroke="#6666ff"/>
<path d="M280.776,231.31l -28.7008, 28.6794" fill="none" stroke="#6666ff"/>
<path d="M280.776,224.1l -28.7008, 28.6794" fill="none" stroke="#6666ff"/>
<path d="M280.776,216.89l -28.7008, 28.6794" fill="none" stroke="#6666ff"/>
<path d="M280.776,209.679l -28.7008, 28.6794" fill="none" stroke="#6666ff"/>
<path d="M276.268,206.973l -24.1929, 24.1749" fill="none" stroke="#6666ff"/>
<path d="M269.052,206.973l -16.9771, 16.9645" fill="none" stroke="#6666ff"/>
<path d="M261.836,206.973l -9.76127, 9.75401" fill="none" stroke="#6666ff"/>
<path d="M254.62,206.973l -2.54544, 2.54355" fill="none" stroke="#6666ff"/>
<path d="M309.476,339.63l -1.80381, 1.80247" fill="none" stroke="#6666ff"/>
<path d="M309.476,332.419l -9.01964, 9.01294" fill="none" stroke="#6666ff"/>
<path d="M309.476,325.209l -16.2355, 16.2234" fill="none" stroke="#6666ff"/>
<path d="M309.476,317.998l -23.4513, 23.4339" fill="none" stroke="#6666ff"/>
<path d="M309.476,310.788l -28.7008, 28.6794" fill="none" stroke="#6666ff"/>
<path d="M309.476,303.578l -28.7008, 28.6794" fill="none" stroke="#6666ff"/>
<path d="M309.476,296.367l -28.7008, 28.6794" fill="none" stroke="#6666ff"/>
<path d="M309.476,289.157l -28.7008, 28.6794" fill="none" stroke="#6666ff"/>
<path d="M309.476,281.946l -28.7008, 28.6794" fill="none" stroke="#6666ff"/>
<path d="M309.476,274.736l -28.7008, 28.6794" fill="none" stroke="#6666ff"/>
<path d="M309.476,267.525l -28.7008, 28.6794" fill="none" stroke="#6666ff"/>
<path d="M309.476,260.315l -28.7008, 28.6794" fill="none" stroke="#6666ff"/>
<path d="M309.476,253.104l -28.7008, 28.6794" fill="none" stroke="#6666ff"/>
<path d="M309.476,245.894l -28.7008, 28.6794" fill="none" stroke="#6666ff"/>
<path d="M309.476,238.683l -28.7008, 28.6794" fill="none" stroke="#6666ff"/>
<path d="M309.476,231.473l -28.7008, 28.6794" fill="none" stroke="#6666ff"/>
<path d="M309.476,224.262l -28.7008, 28.6794" fill="none" stroke="#6666ff"/>
<path d="M309.476,217.052l -28.7008, 28.6794" fill="none" stroke="#6666ff"/>
<path d="M309.476,209.841l -28.7008, 28.6794" fill="none" stroke="#6666ff"/>
<path d="M309.476,202.631l -28.7008, 28.6794" fill="none" stroke="#6666ff"/>
<path d="M309.476,195.421l -28.7008, 28.6794" fill="none" stroke="#6666ff"/>
<path d="M309.476,188.21l -28.7008, 28.6794" fill="none" stroke="#6666ff"/>
<path d="M309.476,181l -28.7008, 28.6794" fill="none" stroke="#6666ff"/>
<path d="M309.476,173.789l -28.7008, 28.6794" fill="none" stroke="#6666ff"/>
<path d="M309.476,166.579l -28.7008, 28.6794" fill="none" stroke="#6666ff"/>
<path d="M309.476,159.368l -28.7008, 28.6794" fill="none" stroke="#6666ff"/>
<path d="M309.476,152.158l -28.7008, 28.6794" fill="none" stroke="#6666ff"/>
<path d="M309.476,144.947l -28.7008, 28.6794" fill="none" stroke="#6666ff"/>
<path d="M309.476,137.737l -28.7008, 28.6794" fill="none" stroke="#6666ff"/>
<path d="M309.476,130.526l -28.7008, 28.6794" fill="none" stroke="#6666ff"/>
<path d="M309.476,123.316l -28.7008, 28.6794" fill="none" stroke="#6666ff"/>
<path d="M309.476,116.105l -28.7008, 28.6794" fill="none" stroke="#6666ff"/>
<path d="M309.476,108.895l -28.7008, 28.6794" fill="none" stroke="#6666ff"/>
<path d="M309.476,101.685l -28.7008, 28.6794" fill="none" stroke="#6666ff"/>
<path d="M307.87,96.0797l -27.094, 27.0738" fill="none" stroke="#6666ff"/>
<path d="M300.654,96.0797l -19.8781, 19.8634" fill="none" stroke="#6666ff"/>
<path d="M293.438,96.0797l -12.6623, 12.6529" fill="none" stroke="#6666ff"/>
<path d="M286.222,96.0797l -5.44648, 5.44243" fill="none" stroke="#6666ff"/>
<path d="M338.177,375.845l -5.59448, 5.59032" fill="none" stroke="#6666ff"/>
<path d="M338.177,368.634l -12.8103, 12.8008" fill="none" stroke="#6666ff"/>
<path d="M338.177,361.424l -20.0261, 20.0112" fill="none" stroke="#6666ff"/>
<path d="M338.177,354.213l -27.242, 27.2217" fill="none" stroke="#6666ff"/>
<path d="M338.177,347.003l -28.7008, 28.6794" fill="none" stroke="#6666ff"/>
<path d="M338.177,339.792l -28.7008, 28.6794" fill="none" stroke="#6666ff"/>
<path d="M338.177,332.582l -28.7008, 28.6794" fill="none" stroke="#6666ff"/>
<path d="M338.177,325.371l -28.7008, 28.6794" fill="none" stroke="#6666ff"/>
<path d="M338.177,318.161l -28.7008, 28.6794" fill="none" stroke="#6666ff"/>
<path d="M338.177,310.95l -28.7008, 28.6794" fill="none" stroke="#6666ff"/>
<path d="M334.27,307.644l -24.794, 24.7755" fill="none" stroke="#6666ff"/>
<path d="M327.055,307.644l -17.5781, 17.5651" fill="none" stroke="#6666ff"/>
<path d="M319.839,307.644l -10.3623, 10.3546" fill="none" stroke="#6666ff"/>
<path d="M312.623,307.644l -3.14648, 3.14414" fill="none" stroke="#6666ff"/>
<path d="M366.878,419.27l -6.73033, 6.72532" fill="none" stroke="#6666ff"/>
<path d="M366.878,412.059l -13.9462, 13.9358" fill="none" stroke="#6666ff"/>
<path d="M365.97,405.756l -20.2539, 20.2388" fill="none" stroke="#6666ff"/>
<path d="M358.754,405.756l -20.2539, 20.2388" fill="none" stroke="#6666ff"/>
<path d="M351.538,405.756l -13.361, 13.3511" fill="none" stroke="#6666ff"/>
<path d="M344.322,405.756l -6.14518, 6.14061" fill="none" stroke="#6666ff"/>
<path d="M395.579,433.853l -3.1237, 3.12138" fill="none" stroke="#6666ff"/>
<path d="M395.579,426.643l -10.3395, 10.3318" fill="none" stroke="#6666ff"/>
<path d="M389.824,425.182l -11.8008, 11.792" fill="none" stroke="#6666ff"/>
<path d="M382.608,425.182l -11.8008, 11.792" fill="none" stroke="#6666ff"/>
<path d="M375.392,425.182l -8.51455, 8.50821" fill="none" stroke="#6666ff"/>
<path d="M368.177,425.182l -1.29872, 1.29775" fill="none" stroke="#6666ff"/>
<path d="M419.801,452.911l -2.52195, 2.52008" fill="none" stroke="#6666ff"/>
<path d="M412.585,452.911l -2.52195, 2.52008" fill="none" stroke="#6666ff"/>
<path d="M405.37,452.911l -2.52195, 2.52008" fill="none" stroke="#6666ff"/>
<path d="M398.154,452.911l -2.52195, 2.52008" fill="none" stroke="#6666ff"/>
<path d="M450.33,458.458l -0.863483, 0.862841" fill="none" stroke="#6666ff"/>
<path d="M443.114,458.458l -0.863483, 0.862841" fill="none" stroke="#6666ff"/>
<path d="M435.898,458.458l -0.863483, 0.862841" fill="none" stroke="#6666ff"/>
<path d="M428.682,458.458l -0.863483, 0.862841" fill="none" stroke="#6666ff"/>
<path d="M477.742,459.908l -0.191181, 0.191039" fill="none" stroke="#6666ff"/>
<path d="M470.526,459.908l -0.191181, 0.191039" fill="none" stroke="#6666ff"/>
<path d="M463.311,459.908l -0.191181, 0.191039" fill="none" stroke="#6666ff"/>
<path d="M456.095,459.908l -0.191181, 0.191039" fill="none" stroke="#6666ff"/>
<path d="M506.273,460.24h -2.12557e-05" fill="none" stroke="#6666ff"/>
<path d="M499.057,460.24h -2.12557e-05" fill="none" stroke="#6666ff"/>
<path d="M491.842,460.24h -2.12557e-05" fill="none" stroke="#6666ff"/>
<path d="M484.626,460.24h -2.12557e-05" fill="none" stroke="#6666ff"/>
<path d="M535.137,460.24h -5.18414e-05" fill="none" stroke="#6666ff"/>
<path d="M527.921,460.24h -5.18414e-05" fill="none" stroke="#6666ff"/>
<path d="M520.705,460.24h -5.18414e-05" fill="none" stroke="#6666ff"/>
<path d="M513.489,460.24h -5.18414e-05" fill="none" stroke="#6666ff"/>
<path d="M204.268,449.675h -9.56558" fill="none" stroke="black" stroke-width="2"/>
<path d="M194.702,449.675z" fill="none" stroke="black" stroke-width="2"/>
<path d="M213.78,449.675h 9.59428" fill="none" stroke="black" stroke-width="2"/>
<path d="M223.374,449.675z" fill="none" stroke="black" stroke-width="2"/>
<path d="M209.024,444.919v -5.80904" fill="none" stroke="black" stroke-width="2"/>
<path d="M209.024,439.11z" fill="none" stroke="black" stroke-width="2"/>
<path d="M209.024,454.431v 5.80904" fill="none" stroke="black" stroke-width="2"/>
<path d="M209.024,460.24z" fill="none" stroke="black" stroke-width="2"/>
<path d="M232.968,407.414h -9.56558" fill="none" stroke="black" stroke-width="2"/>
<path d="M223.403,407.414z" fill="none" stroke="black" stroke-width="2"/>
<path d="M242.481,407.414h 9.59428" fill="none" stroke="black" stroke-width="2"/>
<path d="M252.075,407.414z" fill="none" stroke="black" stroke-width="2"/>
<path d="M237.724,402.658v -18.8683" fill="none" stroke="black" stroke-width="2"/>
<path d="M237.724,383.79z" fill="none" stroke="black" stroke-width="2"/>
<path d="M237.724,412.17v 18.8683" fill="none" stroke="black" stroke-width="2"/>
<path d="M237.724,431.039z" fill="none" stroke="black" stroke-width="2"/>
<path d="M261.669,333.458h -9.56558" fill="none" stroke="black" stroke-width="2"/>
<path d="M252.104,333.458z" fill="none" stroke="black" stroke-width="2"/>
<path d="M271.181,333.458h 9.59428" fill="none" stroke="black" stroke-width="2"/>
<path d="M280.776,333.458z" fill="none" stroke="black" stroke-width="2"/>
<path d="M266.425,328.702v -31.8427" fill="none" stroke="black" stroke-width="2"/>
<path d="M266.425,296.859z" fill="none" stroke="black" stroke-width="2"/>
<path d="M266.425,338.214v 31.8427" fill="none" stroke="black" stroke-width="2"/>
<path d="M266.425,370.057z" fill="none" stroke="black" stroke-width="2"/>
<path d="M290.37,344.023h -9.56558" fill="none" stroke="black" stroke-width="2"/>
<path d="M280.804,344.023z" fill="none" stroke="black" stroke-width="2"/>
<path d="M299.882,344.023h 9.59428" fill="none" stroke="black" stroke-width="2"/>
<path d="M309.476,344.023z" fill="none" stroke="black" stroke-width="2"/>
<path d="M295.126,339.267v -30.2846" fill="none" stroke="black" stroke-width="2"/>
<path d="M295.126,308.982z" fill="none" stroke="black" stroke-width="2"/>
<path d="M295.126,348.779v 30.2846" fill="none" stroke="black" stroke-width="2"/>
<path d="M295.126,379.064z" fill="none" stroke="black" stroke-width="2"/>
<path d="M319.071,396.849h -9.56558" fill="none" stroke="black" stroke-width="2"/>
<path d="M309.505,396.849z" fill="none" stroke="black" stroke-width="2"/>
<path d="M328.583,396.849h 9.59428" fill="none" stroke="black" stroke-width="2"/>
<path d="M338.177,396.849z" fill="none" stroke="black" stroke-width="2"/>
<path d="M323.827,392.093v -21.1231" fill="none" stroke="black" stroke-width="2"/>
<path d="M323.827,370.97z" fill="none" stroke="black" stroke-width="2"/>
<path d="M323.827,401.605v 21.1231" fill="none" stroke="black" stroke-width="2"/>
<path d="M323.827,422.728z" fill="none" stroke="black" stroke-width="2"/>
<path d="M347.771,449.675h -9.56558" fill="none" stroke="black" stroke-width="2"/>
<path d="M338.206,449.675z" fill="none" stroke="black" stroke-width="2"/>
<path d="M357.284,449.675h 9.59428" fill="none" stroke="black" stroke-width="2"/>
<path d="M366.878,449.675z" fill="none" stroke="black" stroke-width="2"/>
<path d="M352.528,444.919v -5.80904" fill="none" stroke="black" stroke-width="2"/>
<path d="M352.528,439.11z" fill="none" stroke="black" stroke-width="2"/>
<path d="M352.528,454.431v 5.80904" fill="none" stroke="black" stroke-width="2"/>
<path d="M352.528,460.24z" fill="none" stroke="black" stroke-width="2"/>
<path d="M376.472,439.11h -9.56558" fill="none" stroke="black" stroke-width="2"/>
<path d="M366.907,439.11z" fill="none" stroke="black" stroke-width="2"/>
<path d="M385.984,439.11h 9.59428" fill="none" stroke="black" stroke-width="2"/>
<path d="M395.579,439.11z" fill="none" stroke="black" stroke-width="2"/>
<path d="M381.228,434.353v -10.1853" fill="none" stroke="black" stroke-width="2"/>
<path d="M381.228,424.168z" fill="none" stroke="black" stroke-width="2"/>
<path d="M381.228,443.866v 10.1853" fill="none" stroke="black" stroke-width="2"/>
<path d="M381.228,454.051z" fill="none" stroke="black" stroke-width="2"/>
<path d="M405.173,439.11h -9.56558" fill="none" stroke="black" stroke-width="2"/>
<path d="M395.607,439.11z" fill="none" stroke="black" stroke-width="2"/>
<path d="M414.685,439.11h 9.59428" fill="none" stroke="black" stroke-width="2"/>
<path d="M424.28,439.11z" fill="none" stroke="black" stroke-width="2"/>
<path d="M409.929,434.353v -10.1853" fill="none" stroke="black" stroke-width="2"/>
<path d="M409.929,424.168z" fill="none" stroke="black" stroke-width="2"/>
<path d="M409.929,443.866v 10.1853" fill="none" stroke="black" stroke-width="2"/>
<path d="M409.929,454.051z" fill="none" stroke="black" stroke-width="2"/>
<g fill="black">
<circle cx="209.024" cy="449.675" r="5.32685"/>
<circle cx="237.724" cy="407.414" r="5.32685"/>
<circle cx="266.425" cy="333.458" r="5.32685"/>
<circle cx="295.126" cy="344.023" r="5.32685"/>
<circle cx="323.827" cy="396.849" r="5.32685"/>
<circle cx="352.528" cy="449.675" r="5.32685"/>
<circle cx="381.228" cy="439.11" r="5.32685"/>
<circle cx="409.929" cy="439.11" r="5.32685"/>
</g>
<path d="M79.8701,460.24h 459.213" fill="none" stroke="black"/>
<path d="M79.8701,447.813v 12.4265" fill="none" stroke="black"/>
<path d="M89.0543,454.027v 6.21324" fill="none" stroke="black"/>
<path d="M98.2386,454.027v 6.21324" fill="none" stroke="black"/>
<path d="M107.423,454.027v 6.21324" fill="none" stroke="black"/>
<path d="M116.607,454.027v 6.21324" fill="none" stroke="black"/>
<path d="M125.791,447.813v 12.4265" fill="none" stroke="black"/>
<path d="M134.976,454.027v 6.21324" fill="none" stroke="black"/>
<path d="M144.16,454.027v 6.21324" fill="none" stroke="black"/>
<path d="M153.344,454.027v 6.21324" fill="none" stroke="black"/>
<path d="M162.528,454.027v 6.21324" fill="none" stroke="black"/>
<path d="M171.713,447.813v 12.4265" fill="none" stroke="black"/>
<path d="M180.897,454.027v 6.21324" fill="none" stroke="black"/>
<path d="M190.081,454.027v 6.21324" fill="none" stroke="black"/>
<path d="M199.265,454.027v 6.21324" fill="none" stroke="black"/>
<path d="M208.45,454.027v 6.21324" fill="none" stroke="black"/>
<path d="M217.634,447.813v 12.4265" fill="none" stroke="black"/>
<path d="M226.818,454.027v 6.21324" fill="none" stroke="black"/>
<path d="M236.002,454.027v 6.21324" fill="none" stroke="black"/>
<path d="M245.187,454.027v 6.21324" fill="none" stroke="black"/>
<path d="M254.371,454.027v 6.21324" fill="none" stroke="black"/>
<path d="M263.555,447.813v 12.4265" fill="none" stroke="black"/>
<path d="M272.739,454.027v 6.21324" fill="none" stroke="black"/>
<path d="M281.924,454.027v 6.21324" fill="none" stroke="black"/>
<path d="M291.108,454.027v 6.21324" fill="none" stroke="black"/>
<path d="M300.292,454.027v 6.21324" fill="none" stroke="black"/>
<path d="M309.476,447.813v 12.4265" fill="none" stroke="black"/>
<path d="M318.661,454.027v 6.21324" fill="none" stroke="black"/>
<path d="M327.845,454.027v 6.21324" fill="none" stroke="black"/>
<path d="M337.029,454.027v 6.21324" fill="none" stroke="black"/>
<path d="M346.213,454.027v 6.21324" fill="none" stroke="black"/>
<path d="M355.398,447.813v 12.4265" fill="none" stroke="black"/>
<path d="M364.582,454.027v 6.21324" fill="none" stroke="black"/>
<path d="M373.766,454.027v 6.21324" fill="none" stroke="black"/>
<path d="M382.95,454.027v 6.21324" fill="none" stroke="black"/>
<path d="M392.135,454.027v 6.21324" fill="none" stroke="black"/>
<path d="M401.319,447.813v 12.4265" fill="none" stroke="black"/>
<path d="M410.503,454.027v 6.21324" fill="none" stroke="black"/>
<path d="M419.687,454.027v 6.21324" fill="none" stroke="black"/>
<path d="M428.872,454.027v 6.21324" fill="none" stroke="black"/>
<path d="M438.056,454.027v 6.21324" fill="none" stroke="black"/>
<path d="M447.24,447.813v 12.4265" fill="none" stroke="black"/>
<path d="M456.424,454.027v 6.21324" fill="none" stroke="black"/>
<path d="M465.609,454.027v 6.21324" fill="none" stroke="black"/>
<path d="M474.793,454.027v 6.21324" fill="none" stroke="black"/>
<path d="M483.977,454.027v 6.21324" fill="none" stroke="black"/>
<path d="M493.161,447.813v 12.4265" fill="none" stroke="black"/>
<path d="M502.346,454.027v 6.21324" fill="none" stroke="black"/>
<path d="M511.53,454.027v 6.21324" fill="none" stroke="black"/>
<path d="M520.714,454.027v 6.21324" fill="none" stroke="black"/>
<path d="M529.898,454.027v 6.21324" fill="none" stroke="black"/>
<path d="M539.083,447.813v 12.4265" fill="none" stroke="black"/>
<path d="M79.8701,447.813v 12.4265" fill="none" stroke="black"/>
<path d="M79.8701,25.5689h 459.213" fill="none" stroke="black"/>
<path d="M79.8701,37.9954v -12.4265" fill="none" stroke="black"/>
<path d="M89.0543,31.7821v -6.21324" fill="none" stroke="black"/>
<path d="M98.2386,31.7821v -6.21324" fill="none" stroke="black"/>
<path d="M107.423,31.7821v -6.21324" fill="none" stroke="black"/>
<path d="M116.607,31.7821v -6.21324" fill="none" stroke="black"/>
<path d="M125.791,37.9954v -12.4265" fill="none" stroke="black"/>
<path d="M134.976,31.7821v -6.21324" fill="none" stroke="black"/>
<path d="M144.16,31.7821v -6.21324" fill="none" stroke="black"/>
<path d="M153.344,31.7821v -6.21324" fill="none" stroke="black"/>
<path d="M162.528,31.7821v -6.21324" fill="none" stroke="black"/>
<path d="M171.713,37.9954v -12.4265" fill="none" stroke="black"/>
<path d="M180.897,31.7821v -6.21324" fill="none" stroke="black"/>
<path d="M190.081,31.7821v -6.21324" fill="none" stroke="black"/>
<path d="M199.265,31.7821v -6.21324" fill="none" stroke="black"/>
<path d="M208.45,31.7821v -6.21324" fill="none" stroke="black"/>
<path d="M217.634,37.9954v -12.4265" fill="none" stroke="black"/>
<path d="M226.818,31.7821v -6.21324" fill="none" stroke="black"/>
<path d="M236.002,31.7821v -6.21324" fill="none" stroke="black"/>
<path d="M245.187,31.7821v -6.21324" fill="none" stroke="black"/>
<path d="M254.371,31.7821v -6.21324" fill="none" stroke="black"/>
<path d="M263.555,37.9954v -12.4265" fill="none" stroke="black"/>
<path d="M272.739,31.7821v -6.21324" fill="none" stroke="black"/>
<path d="M281.924,31.7821v -6.21324" fill="none" stroke="black"/>
<path d="M291.108,31.7821v -6.21324" fill="none" stroke="black"/>
<path d="M300.292,31.7821v -6.21324" fill="none" stroke="black"/>
<path d="M309.476,37.9954v -12.4265" fill="none" stroke="black"/>
<path d="M318.661,31.7821v -6.21324" fill="none" stroke="black"/>
<path d="M327.845,31.7821v -6.21324" fill="none" stroke="black"/>
<path d="M337.029,31.7821v -6.21324" fill="none" stroke="black"/>
<path d="M346.213,31.7821v -6.21324" fill="none" stroke="black"/>
<path d="M355.398,37.9954v -12.4265" fill="none" stroke="black"/>
<path d="M364.582,31.7821v -6.21324" fill="none" stroke="black"/>
<path d="M373.766,31.7821v -6.21324" fill="none" stroke="black"/>
<path d="M382.95,31.7821v -6.21324" fill="none" stroke="black"/>
<path d="M392.135,31.7821v -6.21324" fill="none" stroke="black"/>
<path d="M401.319,37.9954v -12.4265" fill="none" stroke="black"/>
<path d="M410.503,31.7821v -6.21324" fill="none" stroke="black"/>
<path d="M419.687,31.7821v -6.21324" fill="none" stroke="black"/>
<path d="M428.872,31.7821v -6.21324" fill="none" stroke="black"/>
<path d="M438.056,31.7821v -6.21324" fill="none" stroke="black"/>
<path d="M447.24,37.9954v -12.4265" fill="none" stroke="black"/>
<path d="M456.424,31.7821v -6.21324" fill="none" stroke="black"/>
<path d="M465.609,31.7821v -6.21324" fill="none" stroke="black"/>
<path d="M474.793,31.7821v -6.21324" fill="none" stroke="black"/>
<path d="M483.977,31.7821v -6.21324" fill="none" stroke="black"/>
<path d="M493.161,37.9954v -12.4265" fill="none" stroke="black"/>
<path d="M502.346,31.7821v -6.21324" fill="none" stroke="black"/>
<path d="M511.53,31.7821v -6.21324" fill="none" stroke="black"/>
<path d="M520.714,31.7821v -6.21324" fill="none" stroke="black"/>
<path d="M529.898,31.7821v -6.21324" fill="none" stroke="black"/>
<path d="M539.083,37.9954v -12.4265" fill="none" stroke="black"/>
<path d="M79.8701,37.9954v -12.4265" fill="none" stroke="black"/>
<path d="M79.8701,460.24v -434.671" fill="none" stroke="black"/>
<path d="M94.3268,460.24h -14.4567" fill="none" stroke="black"/>
<path d="M87.0984,449.675h -7.22835" fill="none" stroke="black"/>
<path d="M87.0984,439.11h -7.22835" fill="none" stroke="black"/>
<path d="M87.0984,428.544h -7.22835" fill="none" stroke="black"/>
<path d="M87.0984,417.979h -7.22835" fill="none" stroke="black"/>
<path d="M94.3268,407.414h -14.4567" fill="none" stroke="black"/>
<path d="M87.0984,396.849h -7.22835" fill="none" stroke="black"/>
<path d="M87.0984,386.284h -7.22835" fill="none" stroke="black"/>
<path d="M87.0984,375.719h -7.22835" fill="none" stroke="black"/>
<path d="M87.0984,365.153h -7.22835" fill="none" stroke="black"/>
<path d="M94.3268,354.588h -14.4567" fill="none" stroke="black"/>
<path d="M87.0984,344.023h -7.22835" fill="none" stroke="black"/>
<path d="M87.0984,333.458h -7.22835" fill="none" stroke="black"/>
<path d="M87.0984,322.893h -7.22835" fill="none" stroke="black"/>
<path d="M87.0984,312.328h -7.22835" fill="none" stroke="black"/>
<path d="M94.3268,301.763h -14.4567" fill="none" stroke="black"/>
<path d="M87.0984,291.197h -7.22835" fill="none" stroke="black"/>
<path d="M87.0984,280.632h -7.22835" fill="none" stroke="black"/>
<path d="M87.0984,270.067h -7.22835" fill="none" stroke="black"/>
<path d="M87.0984,259.502h -7.22835" fill="none" stroke="black"/>
<path d="M94.3268,248.937h -14.4567" fill="none" stroke="black"/>
<path d="M87.0984,238.372h -7.22835" fill="none" stroke="black"/>
<path d="M87.0984,227.806h -7.22835" fill="none" stroke="black"/>
<path d="M87.0984,217.241h -7.22835" fill="none" stroke="black"/>
<path d="M87.0984,206.676h -7.22835" fill="none" stroke="black"/>
<path d="M94.3268,196.111h -14.4567" fill="none" stroke="black"/>
<path d="M87.0984,185.546h -7.22835" fill="none" stroke="black"/>
<path d="M87.0984,174.981h -7.22835" fill="none" stroke="black"/>
<path d="M87.0984,164.415h -7.22835" fill="none" stroke="black"/>
<path d="M87.0984,153.85h -7.22835" fill="none" stroke="black"/>
<path d="M94.3268,143.285h -14.4567" fill="none" stroke="black"/>
<path d="M87.0984,132.72h -7.22835" fill="none" stroke="black"/>
<path d="M87.0984,122.155h -7.22835" fill="none" stroke="black"/>
<path d="M87.0984,111.59h -7.22835" fill="none" stroke="black"/>
<path d="M87.0984,101.024h -7.22835" fill="none" stroke="black"/>
<path d="M94.3268,90.4593h -14.4567" fill="none" stroke="black"/>
<path d="M87.0984,79.8941h -7.22835" fill="none" stroke="black"/>
<path d="M87.0984,69.329h -7.22835" fill="none" stroke="black"/>
<path d="M87.0984,58.7638h -7.22835" fill="none" stroke="black"/>
<path d="M87.0984,48.1987h -7.22835" fill="none" stroke="black"/>
<path d="M94.3268,37.6335h -14.4567" fill="none" stroke="black"/>
<path d="M94.3268,37.6335h -14.4567" fill="none" stroke="black"/>
<path d="M87.0984,27.0683h -7.22835" fill="none" stroke="black"/>
<path d="M539.083,460.24v -434.671" fill="none" stroke="black"/>
<path d="M524.626,460.24h 14.4567" fill="none" stroke="black"/>
<path d="M531.854,449.675h 7.22835" fill="none" stroke="black"/>
<path d="M531.854,439.11h 7.22835" fill="none" stroke="black"/>
<path d="M531.854,428.544h 7.22835" fill="none" stroke="black"/>
<path d="M531.854,417.979h 7.22835" fill="none" stroke="black"/>
<path d="M524.626,407.414h 14.4567" fill="none" stroke="black"/>
<path d="M531.854,396.849h 7.22835" fill="none" stroke="black"/>
<path d="M531.854,386.284h 7.22835" fill="none" stroke="black"/>
<path d="M531.854,375.719h 7.22835" fill="none" stroke="black"/>
<path d="M531.854,365.153h 7.22835" fill="none" stroke="black"/>
<path d="M524.626,354.588h 14.4567" fill="none" stroke="black"/>
<path d="M531.854,344.023h 7.22835" fill="none" stroke="black"/>
<path d="M531.854,333.458h 7.22835" fill="none" stroke="black"/>
<path d="M531.854,322.893h 7.22835" fill="none" stroke="black"/>
<path d="M531.854,312.328h 7.22835" fill="none" stroke="black"/>
<path d="M524.626,301.763h 14.4567" fill="none" stroke="black"/>
<path d="M531.854,291.197h 7.22835" fill="none" stroke="black"/>
<path d="M531.854,280.632h 7.22835" fill="none" stroke="black"/>
<path d="M531.854,270.067h 7.22835" fill="none" stroke="black"/>
<path d="M531.854,259.502h 7.22835" fill="none" stroke="black"/>
<path d="M524.626,248.937h 14.4567" fill="none" stroke="black"/>
<path d="M531.854,238.372h 7.22835" fill="none" stroke="black"/>
<path d="M531.854,227.806h 7.22835" fill="none" stroke="black"/>
<path d="M531.854,217.241h 7.22835" fill="none" stroke="black"/>
<path d="M531.854,206.676h 7.22835" fill="none" stroke="black"/>
<path d="M524.626,196.111h 14.4567" fill="none" stroke="black"/>
<path d="M531.854,185.546h 7.22835" fill="none" stroke="black"/>
<path d="M531.854,174.981h 7.22835" fill="none" stroke="black"/>
<path d="M531.854,164.415h 7.22835" fill="none" stroke="black"/>
<path d="M531.854,153.85h 7.22835" fill="none" stroke="black"/>
<path d="M524.626,143.285h 14.4567" fill="none" stroke="black"/>
<path d="M531.854,132.72h 7.22835" fill="none" stroke="black"/>
<path d="M531.854,122.155h 7.22835" fill="none" stroke="black"/>
<path d="M531.854,111.59h 7.22835" fill="none" stroke="black"/>
<path d="M531.854,101.024h 7.22835" fill="none" stroke="black"/>
<path d="M524.626,90.4593h 14.4567" fill="none" stroke="black"/>
<path d="M531.854,79.8941h 7.22835" fill="none" stroke="black"/>
<path d="M531.854,69.329h 7.22835" fill="none" stroke="black"/>
<path d="M531.854,58.7638h 7.22835" fill="none" stroke="black"/>
<path d="M531.854,48.1987h 7.22835" fill="none" stroke="black"/>
<path d="M524.626,37.6335h 14.4567" fill="none" stroke="black"/>
<path d="M524.626,37.6335h 14.4567" fill="none" stroke="black"/>
<path d="M531.854,27.0683h 7.22835" fill="none" stroke="black"/>
<text xml:space="preserve" x="103.232" y="59.9271" fill="black" font-size="18.8468" font-family="Helvetica" font-weight="bold" font-style="oblique">ATLAS</text>
<text xml:space="preserve" x="210.72" y="59.9271" fill="black" font-size="18.8468" font-family="Helvetica">Internal</text>
<text xml:space="preserve" x="268.745" y="77.0491" fill="black" font-size="12.7312" font-family="Helvetica">-1</text>
<text xml:space="preserve" x="122.257" y="85.6101" fill="black" font-size="18.8468" font-family="Helvetica"> = 13 TeV, 139 fb</text>
<text xml:space="preserve" x="112.744" y="85.6101" fill="black" font-size="18.8468" font-family="Helvetica">s</text>
<path d="M107.037,75.1466l 1.90245, 11.4147" fill="none" stroke="black"/>
<path d="M108.939,86.5613l 1.90245, -17.122" fill="none" stroke="black"/>
<path d="M110.842,69.4393h 11.4147" fill="none" stroke="black"/>
<text xml:space="preserve" x="103.232" y="111.293" fill="black" font-size="18.8468" font-family="Helvetica">bb4l_CR Fit</text>
<text xml:space="preserve" x="103.232" y="136.976" fill="black" font-size="18.8468" font-family="Helvetica">Z+jets</text>
<text xml:space="preserve" x="103.232" y="162.659" fill="black" font-size="18.8468" font-family="Helvetica">Pre-Fit</text>
<text xml:space="preserve" x="375.282" y="60.8783" fill="black" font-size="18.8468" font-family="Helvetica">Data</text>
<path d="M286.582,55.3992h 21.0943" fill="none" stroke="black" stroke-width="2"/>
<path d="M297.129,50.1675v -2.43894" fill="none" stroke="black" stroke-width="2"/>
<path d="M297.129,60.631v 2.43894" fill="none" stroke="black" stroke-width="2"/>
<g fill="black">
<circle cx="297.129" cy="55.3992" r="5.32685"/>
</g>
<text xml:space="preserve" x="409.526" y="86.5613" fill="black" font-size="18.8468" font-family="Helvetica">t</text>
<path d="M409.526,71.3418h 5.70734" fill="none" stroke="black" stroke-width="2"/>
<text xml:space="preserve" x="403.819" y="86.5613" fill="black" font-size="18.8468" font-family="Helvetica">t</text>
<path d="M286.582,89.9172h 21.0943v -17.8982h -21.0943z" fill="#00ff00"/>
<path d="M286.582,72.019h 21.0943" fill="none" stroke="black"/>
<path d="M286.582,89.9172h 21.0943" fill="none" stroke="black"/>
<path d="M307.677,89.9172v -17.8982" fill="none" stroke="black"/>
<path d="M286.582,89.9172v -17.8982" fill="none" stroke="black"/>
<text xml:space="preserve" x="389.55" y="112.244" fill="black" font-size="18.8468" font-family="Helvetica">VV</text>
<path d="M286.582,115.486h 21.0943v -17.8982h -21.0943z" fill="#0000ff"/>
<path d="M286.582,97.5879h 21.0943" fill="none" stroke="black"/>
<path d="M286.582,115.486h 21.0943" fill="none" stroke="black"/>
<path d="M307.677,115.486v -17.8982" fill="none" stroke="black"/>
<path d="M286.582,115.486v -17.8982" fill="none" stroke="black"/>
<text xml:space="preserve" x="392.404" y="136.976" fill="black" font-size="18.8468" font-family="Helvetica">ttV</text>
<path d="M286.582,141.055h 21.0943v -17.8982h -21.0943z" fill="#ffff00"/>
<path d="M286.582,123.157h 21.0943" fill="none" stroke="black"/>
<path d="M286.582,141.055h 21.0943" fill="none" stroke="black"/>
<path d="M307.677,141.055v -17.8982" fill="none" stroke="black"/>
<path d="M286.582,141.055v -17.8982" fill="none" stroke="black"/>
<text xml:space="preserve" x="339.136" y="162.659" fill="black" font-size="18.8468" font-family="Helvetica">Single_H</text>
<path d="M286.582,166.624h 21.0943v -17.8982h -21.0943z" fill="#00ffff"/>
<path d="M286.582,148.726h 21.0943" fill="none" stroke="black"/>
<path d="M286.582,166.624h 21.0943" fill="none" stroke="black"/>
<path d="M307.677,166.624v -17.8982" fill="none" stroke="black"/>
<path d="M286.582,166.624v -17.8982" fill="none" stroke="black"/>
<text xml:space="preserve" x="377.184" y="188.342" fill="black" font-size="18.8468" font-family="Helvetica">VVV</text>
<path d="M286.582,192.193h 21.0943v -17.8982h -21.0943z" fill="#59d354"/>
<path d="M286.582,174.295h 21.0943" fill="none" stroke="black"/>
<path d="M286.582,192.193h 21.0943" fill="none" stroke="black"/>
<path d="M307.677,192.193v -17.8982" fill="none" stroke="black"/>
<path d="M286.582,192.193v -17.8982" fill="none" stroke="black"/>
<text xml:space="preserve" x="362.916" y="214.025" fill="black" font-size="18.8468" font-family="Helvetica">Z+jets</text>
<path d="M286.582,217.762h 21.0943v -17.8982h -21.0943z" fill="#5954d8"/>
<path d="M286.582,199.863h 21.0943" fill="none" stroke="black"/>
<path d="M286.582,217.762h 21.0943" fill="none" stroke="black"/>
<path d="M307.677,217.762v -17.8982" fill="none" stroke="black"/>
<path d="M286.582,217.762v -17.8982" fill="none" stroke="black"/>
<text xml:space="preserve" x="374.331" y="239.708" fill="black" font-size="18.8468" font-family="Helvetica">Total</text>
<text xml:space="preserve" x="319.16" y="265.391" fill="black" font-size="18.8468" font-family="Helvetica">Uncertainty</text>
<path d="M307.677,262.113l -6.79136, 6.78631" fill="none" stroke="#6666ff"/>
<path d="M307.677,254.903l -14.0072, 13.9968" fill="none" stroke="#6666ff"/>
<path d="M304.365,251.001l -17.7829, 17.7696" fill="none" stroke="#6666ff"/>
<path d="M297.149,251.001l -10.567, 10.5592" fill="none" stroke="#6666ff"/>
<path d="M289.934,251.001l -3.35119, 3.3487" fill="none" stroke="#6666ff"/>
<text xml:space="preserve" x="474.209" y="60.8783" fill="black" font-size="18.8468" font-family="Helvetica">40.0</text>
<text xml:space="preserve" x="487.526" y="86.5613" fill="black" font-size="18.8468" font-family="Helvetica">3.1</text>
<text xml:space="preserve" x="487.526" y="112.244" fill="black" font-size="18.8468" font-family="Helvetica">6.1</text>
<text xml:space="preserve" x="483.721" y="136.976" fill="black" font-size="18.8468" font-family="Helvetica">1.7</text>
<text xml:space="preserve" x="484.673" y="162.659" fill="black" font-size="18.8468" font-family="Helvetica">0.8</text>
<text xml:space="preserve" x="484.673" y="188.342" fill="black" font-size="18.8468" font-family="Helvetica">0.0</text>
<text xml:space="preserve" x="473.258" y="214.025" fill="black" font-size="18.8468" font-family="Helvetica">53.2</text>
<text xml:space="preserve" x="477.063" y="239.708" fill="black" font-size="18.8468" font-family="Helvetica">65.1</text>
<text xml:space="preserve" x="503.697" y="265.391" fill="black" font-size="18.8468" font-family="Helvetica"> </text></svg>
